<?xml version="1.0" encoding="UTF-8"?>
<svg width="512pt" height="512pt" version="1.1" viewBox="0 0 512 512" xmlns="http://www.w3.org/2000/svg">
 <path d="m426.67 53.332h-341.34c-8.4844 0-16.625 3.3711-22.625 9.375-6.0039 6-9.375 14.141-9.375 22.625v160c1.0664 15.895 22.293 11.52 31.039 4.2656l29.547-23.148 0.003906 0.003906c3.582-2.3906 8.2539-2.3906 11.84 0l29.547 23.148c5.4766 4.2031 12.188 6.4805 19.09 6.4805 6.9062 0 13.617-2.2773 19.094-6.4805l29.547-23.148c3.5859-2.3906 8.2578-2.3906 11.84 0l29.547 23.148c5.4766 4.2031 12.191 6.4805 19.094 6.4805 6.9062 0 13.617-2.2773 19.094-6.4805l29.547-23.148c3.5859-2.3906 8.2539-2.3906 11.84 0l29.332 22.828c5.4609 4.1953 12.156 6.4688 19.043 6.4688 6.8828 0 13.578-2.2734 19.039-6.4688l25.918-19.949c3.75-4.9727 10.629-6.3477 16-3.1992l5.332 4.1602 0.003907-144.96c0-8.4844-3.3711-16.625-9.375-22.625-6-6.0039-14.141-9.375-22.625-9.375zm1.6016 156.05-29.656 23.148c-3.5859 2.3906-8.2539 2.3906-11.84 0l-29.652-23.148c-5.4609-4.1953-12.156-6.4688-19.043-6.4688-6.8828 0-13.578 2.2734-19.039 6.4688l-29.547 23.148c-3.582 2.3906-8.2539 2.3906-11.84 0l-29.547-23.148c-5.4766-4.2031-12.188-6.4844-19.094-6.4844-6.9023 0-13.613 2.2812-19.09 6.4844l-29.547 23.148c-3.5859 2.3906-8.2578 2.3906-11.84 0l-29.867-23.148c-5.4609-4.1953-12.156-6.4688-19.043-6.4688-6.8828 0-13.578 2.2734-19.039 6.4688l-25.918 20.375v-144.43c0-5.8906 4.7734-10.664 10.664-10.664h341.34c2.8281 0 5.5391 1.1211 7.543 3.1211 2 2.0039 3.1211 4.7148 3.1211 7.543v119.15c-3.2891 1.0781-6.3633 2.7422-9.0664 4.9062zm9.0625 48.426c-6.8281 1.1719-32.641 24.105-38.719 28.055-3.5859 2.3906-8.2539 2.3906-11.84 0l-29.547-23.148c-5.4766-4.2031-12.188-6.4805-19.094-6.4805-6.9023 0-13.617 2.2773-19.094 6.4805l-29.547 23.039v0.003907c-3.5 2.6484-8.3359 2.6484-11.84 0l-29.547-23.039v-0.003906c-5.4766-4.2031-12.188-6.4805-19.094-6.4805-6.9023 0-13.613 2.2773-19.09 6.4805l-29.547 23.148c-3.5859 2.3906-8.2578 2.3906-11.84 0l-29.867-23.148c-5.4609-4.1953-12.156-6.4688-19.043-6.4688-6.8828 0-13.578 2.2734-19.039 6.4688l-25.918 20.48c-3.6836 4.7109-10.352 5.8203-15.359 2.5625l-5.9766-4.6953v145.6c0 8.4844 3.3711 16.625 9.375 22.625 6 6.0039 14.141 9.375 22.625 9.375h341.34c8.4844 0 16.625-3.3711 22.625-9.375 6.0039-6 9.375-14.141 9.375-22.625v-168.32c-6.8438-2.6133-14.371-2.8047-21.336-0.53516zm0 168.86c0 2.8281-1.1211 5.5391-3.1211 7.543-2.0039 2-4.7148 3.1211-7.543 3.1211h-341.34c-5.8906 0-10.664-4.7734-10.664-10.664v-119.04c7.4648-0.96094 32.852-23.895 39.254-28.16 3.582-2.3906 8.2539-2.3906 11.84 0l29.547 23.148c5.4766 4.2031 12.188 6.4844 19.09 6.4844 6.9062 0 13.617-2.2812 19.094-6.4844l29.547-23.148c3.5156-2.6133 8.3281-2.6133 11.84 0l29.547 23.039v0.003906c5.4766 4.2031 12.191 6.4805 19.094 6.4805 6.9062 0 13.617-2.2773 19.094-6.4805l29.547-23.148c3.5859-2.3906 8.2539-2.3906 11.84 0l29.332 23.254c5.4609 4.1953 12.156 6.4688 19.043 6.4688 6.8828 0 13.578-2.2734 19.039-6.4688l25.918-19.945z"/>
</svg>
