<?xml version="1.0" encoding="UTF-8"?>
<svg width="1200pt" height="1200pt" version="1.1" viewBox="0 0 1200 1200" xmlns="http://www.w3.org/2000/svg">
 <g>
  <path d="m782.4 1032h-420c-30 0-54-24-54-54v-420c0-30 24-54 54-54h294v12h-294c-22.801 0-42 19.199-42 42v420c0 22.801 19.199 42 42 42h420c22.801 0 42-19.199 42-42v-378h12v378c1.2031 30-24 54-54 54z"/>
  <path d="m573.6 867.6-6-12c0-1.1992-48-106.8-129.6-153.6l6-10.801c69.602 39.602 114 117.6 128.4 146.4 12-27.602 44.398-96 90-169.2 76.801-124.8 151.2-198 220.8-218.4l3.6016 12c-159.6 46.801-307.2 388.8-308.4 392.4z"/>
 </g>
</svg>
