<?xml version="1.0" encoding="UTF-8"?>
<svg width="512pt" height="512pt" version="1.1" viewBox="0 0 512 512" xmlns="http://www.w3.org/2000/svg">
 <path d="m305.81 189.44-90.195-75.684-69.512 82.824c-4.8438 4.6602-7.8633 11.207-7.8633 18.461v122.88l0.054688 1.6797c0.86719 13.355 11.973 23.918 25.547 23.918h184.32l1.6836-0.054687c13.355-0.86719 23.918-11.973 23.918-25.543v-122.88l-0.054688-1.6836c-0.86719-13.352-11.973-23.914-25.547-23.914zm-152.21 117.76h204.8v30.723l-0.066407 1.1914c-0.59375 5.0938-4.9219 9.0469-10.172 9.0469h-184.32l-1.1953-0.070312c-5.0938-0.58984-9.043-4.918-9.043-10.168zm194.56-102.4-35.176-0.003906-30.441 36.281 33.289 0.007813c4.2422 0 7.6797 3.4375 7.6797 7.6797 0 3.8867-2.8906 7.1016-6.6367 7.6094l-1.043 0.070312h-123.11c-4.2422 0-7.6797-3.4375-7.6797-7.6797 0-3.8867 2.8867-7.1016 6.6367-7.6094l0.49219-0.039062-37.203-31.203c-0.68359 1.1797-1.1406 2.5117-1.3047 3.9336l-0.066407 1.1914v76.797h204.8v-76.797c0-5.6562-4.582-10.238-10.238-10.238zm-183.53-6.8203 52.66-62.754 0.19922 0.17188 0.019531-0.007813 64.398 54.047h-0.019531l13.844 11.613-3.1523 3.7461h0.35938l-30.301 36.117-46.871-0.042968-0.19141-0.17188-0.027344 0.007812z" fill-rule="evenodd"/>
</svg>
