<?xml version="1.0" encoding="UTF-8"?>
<svg width="512pt" height="512pt" version="1.1" viewBox="0 0 512 512" xmlns="http://www.w3.org/2000/svg">
 <path d="m431.68 223.25c-5.8906 0-10.668 4.7734-10.668 10.668v71.574l-60.477-60.164c-4.0195-4.1367-9.5391-6.4727-15.309-6.4727-5.7656 0-11.289 2.3359-15.305 6.4727l-48.32 51.52-89.602-97.812c-3.9375-4.2891-9.457-6.7852-15.277-6.9062-5.8203-0.12109-11.438 2.1445-15.551 6.2656l-102.72 103.47v-216.54c0-5.8906 4.7773-10.664 10.668-10.664h351.36c5.8906 0 10.668-4.7773 10.668-10.668s-4.7773-10.668-10.668-10.668h-351.36c-8.4883 0-16.629 3.3711-22.629 9.375-6 6-9.3711 14.141-9.3711 22.625v341.34c0 8.4844 3.3711 16.625 9.3711 22.625 6 6.0039 14.141 9.375 22.629 9.375h341.33c8.4883 0 16.625-3.3711 22.629-9.375 6-6 9.3711-14.141 9.3711-22.625v-192.75c0-2.8477-1.1367-5.5781-3.1602-7.582-2.0234-2.0039-4.7656-3.1133-7.6133-3.0859zm-21.227 214.08h-341.33c-5.8906 0-10.668-4.7734-10.668-10.664v-94.508l117.97-118.83 132.91 144.96c3.9531 4.3516 10.68 4.6836 15.043 0.74609 2.1055-1.9141 3.3555-4.5938 3.4766-7.4375 0.12109-2.8477-0.90234-5.6211-2.8398-7.707l-28.586-31.254 49.387-52.48 73.387 73.707c0.61719 0.42969 1.2578 0.82031 1.9219 1.1719v91.629c0 2.8281-1.125 5.5391-3.125 7.543-2 2-4.7148 3.1211-7.543 3.1211zm61.227-248.32-20.48-20.477c8.3906-13.434 9.5625-30.156 3.1289-44.629-6.4336-14.469-19.633-24.805-35.223-27.574-15.594-2.7734-31.547 2.3789-42.57 13.746-39.68 40.746 11.734 104.11 59.625 73.812l20.16 20.266v0.003906c4.1836 4.2422 11.012 4.2891 15.254 0.10547 2.0352-2.0078 3.1914-4.7422 3.2109-7.6055 0.019532-2.8594-1.0977-5.6094-3.1055-7.6484zm-79.895-26.453c-6.293-6.7422-8.6211-16.277-6.1406-25.164s9.4141-15.836 18.293-18.344c8.8789-2.5078 18.422-0.20703 25.184 6.0703 6.293 6.7422 8.6211 16.281 6.1406 25.164-2.4805 8.8867-9.4141 15.84-18.293 18.344-8.8789 2.5078-18.422 0.20703-25.184-6.0703z"/>
</svg>
