<?xml version="1.0" encoding="UTF-8"?>
<svg width="512pt" height="512pt" version="1.1" viewBox="0 0 512 512" xmlns="http://www.w3.org/2000/svg">
 <path d="m435.6 121.12c29.762 0 53.68-36.801 53.68-67.281 0-19.18-10.234-36.898-26.84-46.488-16.609-9.5898-37.074-9.5898-53.68 0-16.609 9.5898-26.84 27.309-26.84 46.488 0 30.48 23.918 67.281 53.68 67.281zm0-105.12c9.9922 0 19.574 3.9688 26.641 11.035 7.0664 7.0664 11.039 16.652 11.039 26.645 0 22.398-18.238 51.281-37.68 51.281-19.441 0-37.68-28.879-37.68-51.281 0-9.9922 3.9688-19.578 11.035-26.645 7.0664-7.0664 16.648-11.035 26.645-11.035zm53.602 136.48h-0.003906c-14.258-14.117-33.527-22.008-53.594-21.949-20.062 0.0625-39.285 8.0742-53.457 22.277-14.172 14.207-22.133 33.445-22.148 53.512v104c0 2.1211 0.84375 4.1562 2.3438 5.6562s3.5352 2.3438 5.6562 2.3438h14.078v185.68c0 2.1211 0.84375 4.1562 2.3438 5.6562s3.5352 2.3438 5.6562 2.3438h91.203c2.1211 0 4.1562-0.84375 5.6562-2.3438s2.3438-3.5352 2.3438-5.6562v-185.6h14.16c2.1211 0 4.1562-0.83984 5.6562-2.3398 1.5-1.5039 2.3438-3.5352 2.3438-5.6602v-104c0.10547-20.18-7.9062-39.555-22.242-53.758zm6.2383 149.76-14.16-0.003907c-4.418 0-8 3.582-8 8v185.76h-29.68v-185.68c0-4.418-3.582-8-8-8-4.418 0-8 3.582-8 8v185.68h-29.68v-185.6c0-2.1211-0.84375-4.1562-2.3438-5.6562s-3.5352-2.3438-5.6562-2.3438h-13.922v-96c0-15.855 6.293-31.062 17.5-42.285 11.203-11.219 26.402-17.531 42.262-17.555 15.867 0 31.09 6.3047 42.312 17.527 11.223 11.223 17.527 26.445 17.527 42.312zm-229.12-100.64c-2.3438-1.6602-5.3984-1.9336-8-0.72266-2.7148 1.3711-4.4219 4.1602-4.3984 7.1992v22.559l-66.402 0.003906c-4.418 0-8 3.582-8 8v35.52c0 2.1211 0.84375 4.1562 2.3438 5.6562s3.5352 2.3438 5.6562 2.3438h66v22.559c-0.019531 3.043 1.6836 5.832 4.4023 7.2031 2.6133 1.1328 5.625 0.85938 8-0.72266l65.039-48c2.0117-1.5117 3.1992-3.8828 3.1992-6.3984 0-2.5195-1.1875-4.8906-3.1992-6.4023zm3.1992 87.281v-14.723c0-2.1211-0.84375-4.1562-2.3438-5.6562s-3.5352-2.3438-5.6562-2.3438h-66v-19.52h66c2.1211 0 4.1562-0.84375 5.6562-2.3438s2.3438-3.5352 2.3438-5.6562v-14.641l43.68 32zm-239.36-259.68c6.0273-12.504 16.707-22.152 29.762-26.879 2.0234-0.94531 4.3555-0.99609 6.4219-0.14453 2.0664 0.85156 3.6836 2.5312 4.457 4.6289 0.77344 2.0977 0.63672 4.4219-0.38281 6.4141-1.0195 1.9883-2.8242 3.4609-4.9766 4.0625-9.1211 3.4258-16.59 10.211-20.883 18.957-1.3438 2.75-4.1406 4.4883-7.1992 4.4805-1.2109 0.03125-2.4141-0.21484-3.5195-0.71875-1.9336-0.92969-3.4102-2.5977-4.1055-4.6289-0.69141-2.0312-0.53906-4.2539 0.42578-6.1719zm37.84 72c3.8906 2.0742 8.3047 2.9688 12.695 2.5703 4.3906-0.39844 8.5703-2.0703 12.023-4.8086 3.5938-2.168 8.25-1.1914 10.668 2.2383 2.418 3.4297 1.7773 8.1406-1.4648 10.801-6.7734 5.0781-14.98 7.8789-23.441 8-6.2188-0.050781-12.336-1.5859-17.84-4.4805-3.8945-2.0234-5.4297-6.8086-3.4414-10.719 0.96094-1.9062 2.6406-3.3477 4.668-4.0117 2.0273-0.66016 4.2344-0.48437 6.1328 0.49219zm-29.281-6c-7.3398-10.77-12.004-23.141-13.598-36.078-0.48828-4.418 2.6992-8.3945 7.1172-8.8828 4.4219-0.48438 8.3945 2.7031 8.8828 7.1211 1.3242 10.332 5.0781 20.203 10.957 28.801 1.1914 1.7617 1.6328 3.9219 1.2305 6.0078-0.40625 2.0859-1.625 3.9258-3.3867 5.1133-1.3281 0.89062-2.8867 1.3633-4.4805 1.3594-2.6758 0.046875-5.1992-1.2422-6.7227-3.4414zm42-88.879c0.40625-2.1133 1.6445-3.9727 3.4336-5.1602 1.7891-1.1875 3.9844-1.6055 6.0859-1.1602 13.559 3.0156 25.41 11.195 33.043 22.801 2.4102 3.6719 1.4102 8.5977-2.2422 11.039-1.3242 0.89062-2.8828 1.3633-4.4805 1.3594-2.6016 0.078125-5.0781-1.1172-6.6367-3.1992-5.3867-8.1211-13.695-13.852-23.203-16-2.0859-0.47656-3.8945-1.7656-5.0234-3.5859-1.125-1.8203-1.4766-4.0156-0.97656-6.0938zm43.441 38.16c2.1211 0 4.1562 0.84375 5.6562 2.3438s2.3438 3.5352 2.3438 5.6562v0.48047c-0.38281 13.105-4.0703 25.898-10.719 37.199-1.4141 2.5156-4.0742 4.0742-6.9609 4.0781-1.4102-0.011719-2.7891-0.39844-4-1.1172-3.8086-2.1992-5.1328-7.0586-2.9609-10.883 5.3242-8.8633 8.2969-18.941 8.6406-29.277-0.13281-2.2031 0.65234-4.3633 2.168-5.9727 1.5117-1.6055 3.625-2.5117 5.832-2.5078zm30.078 249.92v16c0 2.125-0.83984 4.1562-2.3398 5.6602-1.5 1.5-3.5352 2.3398-5.6602 2.3398h-14.078v8c0 4.418-3.582 8-8 8-4.418 0-8-3.582-8-8v-16c0-4.418 3.582-8 8-8h14.078v-8c0-4.418 3.582-8 8-8 4.4219 0 8 3.582 8 8zm-22.078 126.8v38c0 4.418-3.582 8-8 8-4.418 0-8-3.582-8-8v-38c0-4.418 3.582-8 8-8 4.418 0 8 3.582 8 8zm0-66.398v38c0 4.418-3.582 8-8 8-4.418 0-8-3.582-8-8v-38c0-4.418 3.582-8 8-8 4.418 0 8 3.582 8 8zm0 132.8v16c0 2.1211-0.84375 4.1562-2.3438 5.6562s-3.5352 2.3438-5.6562 2.3438h-16c-4.418 0-8-3.582-8-8 0-4.418 3.582-8 8-8h8v-7.6016c0-4.418 3.582-8 8-8 4.418 0 8 3.582 8 8zm-33.84 16c0 2.1211-0.84375 4.1562-2.3438 5.6562s-3.5352 2.3438-5.6562 2.3438h-24c-4.418 0-8-3.582-8-8 0-4.418 3.582-8 8-8h3.9219l-0.003907-26.082c0-4.418 3.582-8 8-8 4.4219 0 8 3.582 8 8v26.48h3.8398c2.1641-0.066406 4.2617 0.75 5.8164 2.2578 1.5508 1.5078 2.4258 3.5781 2.4258 5.7422zm-41.52 0.39844c0 2.1211-0.84375 4.1562-2.3438 5.6562s-3.5352 2.3438-5.6562 2.3438h-16c-4.418 0-8-3.582-8-8v-16c0-4.418 3.582-8 8-8s8 3.582 8 8v8h8c2.1211 0 4.1562 0.84375 5.6562 2.3438s2.3438 3.5352 2.3438 5.6562zm-16-82.398v37.598c0 4.418-3.582 8-8 8s-8-3.582-8-8v-38c0-4.418 3.582-8 8-8s8 3.582 8 8zm0-28.398v-0.003906c0 4.418-3.582 8-8 8s-8-3.582-8-8v-38.32c0-4.418 3.582-8 8-8s8 3.582 8 8zm-16-74.398-14.16-0.003907c-4.418 0-8-3.582-8-8v-16c0-4.418 3.582-8 8-8s8 3.582 8 8v8h14.16c2.1211 0 4.1562 0.84375 5.6562 2.3438s2.3438 3.5352 2.3438 5.6562v16c0 4.418-3.582 8-8 8s-8-3.582-8-8zm107.2-166.16c3.7383 3.6797 7.0625 7.7578 9.9219 12.16 1.6133 2.4492 1.7539 5.5898 0.37109 8.1758-1.3867 2.5859-4.0781 4.207-7.0117 4.2227-2.707 0.015625-5.2344-1.3398-6.7227-3.5977-2.2812-3.5039-4.9648-6.7266-8-9.6016-3.2852-3.3398-6.9648-6.2695-10.957-8.7188-2.1992-0.83984-3.918-2.6094-4.6953-4.8281-0.77734-2.2227-0.53906-4.6719 0.65625-6.7031 1.1914-2.0273 3.2188-3.4297 5.5391-3.8281 2.3164-0.39844 4.6953 0.24609 6.5 1.7578 5.2148 3.0703 10.047 6.75 14.398 10.961zm20 35.039c1.5078 6.0977 2.2578 12.359 2.2383 18.641v13.039c0 4.418-3.5781 8-8 8-4.418 0-8-3.582-8-8v-13.039c-0.003906-4.8281-0.59766-9.6367-1.7578-14.32-0.53516-2.0586-0.22656-4.2461 0.85156-6.0742 1.082-1.832 2.8477-3.1602 4.9062-3.6875 4.1914-1.1328 8.5234 1.2812 9.7617 5.4414zm-149.36 84.32v-30c0-4.418 3.582-8 8-8s8 3.582 8 8v30c0 4.418-3.582 8-8 8s-8-3.582-8-8zm152-30.078v30.078c0 4.418-3.582 8-8 8s-8-3.582-8-8v-30.16c0-4.418 3.582-8 8-8s8 3.582 8 8zm-53.199-100c-0.95703 4.3008-5.2148 7.0195-9.5195 6.0781-8.6445-1.9219-17.602-1.9219-26.242 0-0.58203 0.078125-1.1758 0.078125-1.7578 0-4.4219 0.48438-8.3945-2.7031-8.8828-7.1211-0.48437-4.418 2.7031-8.3945 7.1211-8.8789 10.926-2.4805 22.273-2.4805 33.199 0 2.0625 0.54297 3.8242 1.8906 4.8906 3.7383 1.0664 1.8477 1.3516 4.043 0.78906 6.1016zm-98.801 77.598v-13.199c-0.019531-6.2305 0.73047-12.438 2.2383-18.48 1.0625-4.2852 5.3945-6.8984 9.6797-5.8398 2.1289 0.50391 3.9609 1.8594 5.0625 3.75 1.1055 1.8906 1.3867 4.1484 0.77734 6.25-1.1836 4.7891-1.7734 9.707-1.7578 14.641v13.199c0 4.418-3.582 8-8 8s-8-3.582-8-8zm12.238-54.559c6.1953-9.4062 14.391-17.328 24-23.199 1.8047-1.5156 4.1797-2.1562 6.5-1.7578 2.3203 0.39844 4.3477 1.7969 5.5391 3.8281 1.1953 2.0273 1.4336 4.4805 0.65625 6.6992-0.77734 2.2227-2.4961 3.9883-4.6953 4.8281-7.4922 4.6797-13.879 10.93-18.719 18.32-2.4062 3.7109-7.3672 4.7695-11.082 2.3594-3.7109-2.4062-4.7656-7.3672-2.3594-11.078zm56 224.56v-32c0-4.418 3.582-8 8-8 4.418 0 8 3.582 8 8v32c0 4.418-3.582 8-8 8-4.418 0-8-3.582-8-8zm0 24c0-4.418 3.582-8 8-8 4.418 0 8 3.582 8 8v32c0 4.418-3.582 8-8 8-4.418 0-8-3.582-8-8z"/>
</svg>
