<?xml version="1.0" encoding="UTF-8"?>
<svg width="512pt" height="512pt" version="1.1" viewBox="0 0 512 512" xmlns="http://www.w3.org/2000/svg">
 <path d="m392.75 383.18-119.45-118.94c6.2969-7.3203 11.367-15.566 15-24.523 4.3008-10.648 6.5039-21.863 6.5039-33.383 0-11.52-2.2031-22.734-6.5039-33.383-4.4531-11.008-11.008-20.891-19.508-29.336-8.4492-8.4492-18.328-15.055-29.336-19.508-10.648-4.3008-21.863-6.5039-33.383-6.5039s-22.734 2.2031-33.383 6.5039c-11.008 4.4531-20.891 11.008-29.336 19.508-8.4492 8.4492-15.055 18.328-19.508 29.336-4.3008 10.648-6.5039 21.863-6.5039 33.383 0 11.52 2.2031 22.734 6.5039 33.383 4.4531 11.008 11.008 20.891 19.508 29.336 8.4492 8.4492 18.328 15.055 29.336 19.508 10.648 4.3008 21.863 6.5039 33.383 6.5039s22.734-2.2031 33.383-6.5039c8.9609-3.6367 17.203-8.7031 24.523-15l119.45 118.99c1.2812 1.2812 2.9688 1.9453 4.6602 1.9453s3.3789-0.66406 4.6602-1.9453c2.5625-2.6133 2.5625-6.8086 0-9.3711zm-186.68-101.32c-20.172 0-39.168-7.8867-53.453-22.117-29.441-29.441-29.441-77.414 0-106.86 14.746-14.746 34.098-22.117 53.453-22.117s38.707 7.3711 53.453 22.117c29.441 29.441 29.441 77.414 0 106.86-14.285 14.285-33.277 22.117-53.453 22.117z" fill="#fff"/>
</svg>
