<?xml version="1.0" encoding="UTF-8"?>
<svg width="512pt" height="512pt" version="1.1" viewBox="0 0 512 512" xmlns="http://www.w3.org/2000/svg">
 <g>
  <path d="m90.645 128.43c13.133 0 23.82-10.684 23.82-23.82 0-13.133-10.688-23.816-23.82-23.816-13.133 0-23.82 10.684-23.82 23.816 0.003906 13.137 10.691 23.82 23.82 23.82zm0-34.836c6.0742 0 11.02 4.9414 11.02 11.016s-4.9453 11.02-11.02 11.02-11.02-4.9453-11.02-11.02c0.003906-6.0742 4.9453-11.016 11.02-11.016z"/>
  <path d="m90.645 163.27c20.863 0 41.562-4.7891 61.582-9.4219 17.762-4.1133 34.543-7.9961 49.457-7.9961 11.98 0 25.344 2.5703 40.035 5.8633-3.3672 14.223-6.9219 27.547-12.285 38.539-6.5391 13.398-17.383 26.777-28.867 40.941-12.938 15.961-26.32 32.469-35.461 51.227-6.8633 14.07-7.832 29.977-2.7266 44.805 5.1016 14.824 15.664 26.77 29.727 33.629 18.758 9.1484 39.461 13.914 59.488 18.527 17.77 4.0898 34.551 7.957 47.949 14.492 13.406 6.5391 26.789 17.383 40.949 28.867 15.961 12.938 32.461 26.316 51.219 35.465 0.35156 0.16797 0.70703 0.30078 1.0742 0.39453 0.92578 0.52734 1.8672 1.0391 2.8359 1.5117 8.2578 4.0234 17 5.9297 25.617 5.9297 21.738-0.003906 42.664-12.121 52.812-32.934 6.8633-14.07 7.832-29.98 2.7266-44.805-5.1055-14.824-15.664-26.77-29.73-33.629-0.94922-0.46484-1.9141-0.88672-2.8828-1.2852-0.32031-0.23828-0.66406-0.44531-1.0312-0.62891-18.758-9.1484-39.461-13.914-59.48-18.523-17.77-4.0898-34.555-7.957-47.957-14.492-13.406-6.5391-26.789-17.383-40.949-28.867-2.6602-2.1562-5.3398-4.3164-8.0391-6.4766 0.79688-3.3633 1.5938-6.7305 2.3633-10.059 4.0859-17.762 7.9492-34.539 14.48-47.938 6.5391-13.398 17.383-26.777 28.867-40.941 12.938-15.961 26.32-32.469 35.461-51.227 0.17578-0.35547 0.3125-0.72266 0.40625-1.0898 0.53125-0.91797 1.0391-1.8555 1.5078-2.8203 6.8633-14.07 7.832-29.98 2.7266-44.805-5.1055-14.82-15.664-26.766-29.73-33.629-8.2852-4.0391-17.062-5.875-25.711-5.8594v-0.074219c-0.61719 0-1.2227 0.039063-1.832 0.066407-0.37891 0.011718-0.76172 0.019531-1.1406 0.042968-0.058594 0.003906-0.12109 0.003906-0.17969 0.007813-0.38672-0.074219-0.78906-0.11328-1.1992-0.11328-20.867 0-41.57 4.7891-61.582 9.4219-17.77 4.1133-34.551 7.9961-49.461 7.9961-14.914 0-31.695-3.8828-49.457-7.9961-20.02-4.6328-40.719-9.4219-61.582-9.4219-32.344 0-58.656 26.312-58.656 58.652 0 32.34 26.312 58.652 58.656 58.652zm239.44 167.98c14.719 7.1758 32.195 11.199 50.695 15.461 18.789 4.3242 38.188 8.793 55.281 16.852 0.54297 0.47266 1.1758 0.85156 1.8555 1.1172 1.1797 0.46094 2.3633 0.92969 3.5195 1.4922v0.003906c10.992 5.3633 19.25 14.699 23.242 26.289 3.9883 11.594 3.2383 24.031-2.125 35.023-11.082 22.727-38.57 32.199-61.32 21.113-1.1562-0.56641-2.2578-1.2031-3.3516-1.8555-0.59375-0.35156-1.2383-0.58594-1.8984-0.71484-16.918-8.5078-32.426-21.074-47.43-33.242-14.75-11.957-28.68-23.254-43.398-30.43-14.711-7.1758-32.188-11.199-50.695-15.461-19.32-4.4492-39.301-9.0508-56.742-17.559-10.992-5.3594-19.242-14.695-23.238-26.289-3.9883-11.594-3.2383-24.031 2.125-35.023 5.3633-10.992 14.699-19.246 26.293-23.242 11.574-3.9883 24.02-3.2344 35.02 2.1289 17.445 8.5078 33.367 21.418 48.77 33.902 14.75 11.961 28.68 23.258 43.398 30.434zm28.215-206.54c-0.57031 1.1602-1.207 2.2578-1.8555 3.3516-0.35156 0.58594-0.58203 1.2266-0.71094 1.8828-8.5078 16.93-21.082 32.441-33.25 47.453-11.957 14.746-23.25 28.68-30.426 43.395-7.1758 14.711-11.199 32.18-15.457 50.676-0.32422 1.4102-0.67188 2.8438-1 4.2617-10.117-7.6328-20.672-14.762-32.066-20.32-13.645-6.6562-29.016-7.707-43.453-3.1172 3.4453-4.3984 6.9531-8.7422 10.438-13.039 11.957-14.746 23.25-28.68 30.426-43.391 7.1797-14.719 11.207-32.199 15.469-50.707 4.3242-18.777 8.793-38.18 16.852-55.262 0.46875-0.54297 0.84375-1.168 1.1133-1.8516 0.46094-1.1875 0.9375-2.3711 1.5-3.5312 7.4258-15.223 22.23-24.453 38.02-25.586 0.70312-0.054688 1.4102-0.085938 2.1211-0.11328 7.1094-0.17969 14.355 1.2617 21.176 4.5859 22.711 11.082 32.188 38.586 21.105 61.312zm-267.65-65.957c19.406 0 39.383 4.6211 58.695 9.0938 18.5 4.2812 35.969 8.3242 52.344 8.3242s33.852-4.043 52.344-8.3242c7.1797-1.6602 14.449-3.3398 21.746-4.7969-4.543 4.5039-8.457 9.7812-11.418 15.848-0.46094 0.94922-0.88281 1.9102-1.2734 2.875-0.23828 0.32031-0.44922 0.66406-0.63281 1.0391-8.6836 17.809-13.418 37.367-17.82 56.438-15.504-3.4805-29.695-6.2031-42.945-6.2031-16.375 0-33.844 4.043-52.344 8.3242-19.312 4.4727-39.289 9.0938-58.695 9.0938-25.289 0-45.855-20.57-45.855-45.855 0-25.285 20.57-45.855 45.855-45.855z"/>
  <path d="m293.26 104.61c0 13.133 10.688 23.82 23.82 23.82s23.82-10.684 23.82-23.82c0-13.133-10.688-23.816-23.82-23.816-13.133 0.003906-23.82 10.688-23.82 23.816zm34.84 0c0 6.0742-4.9453 11.02-11.02 11.02s-11.02-4.9453-11.02-11.02 4.9453-11.016 11.02-11.016 11.02 4.9414 11.02 11.016z"/>
  <path d="m421.33 431.21c13.133 0 23.82-10.684 23.82-23.82 0-13.133-10.688-23.816-23.82-23.816-13.133 0-23.82 10.684-23.82 23.816 0.003906 13.137 10.691 23.82 23.82 23.82zm0-34.836c6.0742 0 11.02 4.9414 11.02 11.016s-4.9453 11.02-11.02 11.02-11.02-4.9453-11.02-11.02c0.003906-6.0742 4.9453-11.016 11.02-11.016z"/>
  <path d="m228.26 286.73c-5.707-2.7891-12.176-3.1914-18.195-1.1172-6.0195 2.0703-10.867 6.3594-13.664 12.082-5.75 11.809-0.82422 26.094 10.977 31.844 3.3008 1.6133 6.8516 2.4258 10.418 2.4258 2.6133 0 5.2305-0.43359 7.7734-1.3086 6.0117-2.0703 10.863-6.3594 13.648-12.078 2.793-5.7188 3.1875-12.18 1.1133-18.195-2.0625-6.0195-6.3516-10.863-12.07-13.652zm-0.53516 26.234c-1.293 2.6484-3.5391 4.6328-6.3203 5.5859-2.7812 0.96094-5.7695 0.77344-8.4141-0.51562-5.4609-2.6641-7.7383-9.2734-5.082-14.73 1.293-2.6484 3.5391-4.6328 6.3203-5.5859 1.1758-0.40625 2.3867-0.60547 3.6016-0.60547 1.6484 0 3.293 0.375 4.8203 1.1211 2.6445 1.2891 4.6328 3.5312 5.5859 6.3164 0.95703 2.7812 0.77344 5.7695-0.51172 8.4141z"/>
 </g>
</svg>
