<?xml version="1.0" encoding="UTF-8"?>
<svg width="1200pt" height="1200pt" version="1.1" viewBox="0 0 1200 1200" xmlns="http://www.w3.org/2000/svg">
 <g fill="#fff">
  <path d="m840.11 659.03c-9.7539 0-17.648-7.9023-17.648-17.648v-487.06c0-9.7266-7.9102-17.648-17.648-17.648h-148.61c-9.7539 0-17.648-7.9023-17.648-17.648 0-9.7461 7.8945-17.648 17.648-17.648h148.61c29.195 0 52.941 23.746 52.941 52.941v487.06c0.003906 9.75-7.8906 17.648-17.645 17.648z"/>
  <path d="m804.81 1161.4h-705c-29.195 0-52.941-23.746-52.941-52.941v-954.18c0-29.195 23.746-52.941 52.941-52.941h148.76c9.7539 0 17.648 7.9023 17.648 17.648s-7.8945 17.648-17.648 17.648h-148.76c-9.7383 0-17.648 7.918-17.648 17.648v954.18c0 9.7266 7.9102 17.648 17.648 17.648l705-0.007812c9.7383 0 17.648-7.918 17.648-17.648l-0.003907-93.703c0-9.7461 7.8945-17.648 17.648-17.648 9.7539 0 17.648 7.9023 17.648 17.648v93.707c0 29.191-23.75 52.941-52.941 52.941z"/>
  <path d="m752.04 1073.2h-599.29c-9.7539 0-17.648-7.9023-17.648-17.648v-777.71c0-9.7461 7.8945-17.648 17.648-17.648h599.29c9.7539 0 17.648 7.9023 17.648 17.648v349.77c0 9.7461-7.8945 17.648-17.648 17.648-9.7539 0-17.648-7.9023-17.648-17.648v-332.12h-564v742.42h564v-96.531c0-9.7461 7.8945-17.648 17.648-17.648 9.7539 0 17.648 7.9023 17.648 17.648v114.18c-0.003906 9.7461-7.8945 17.648-17.648 17.648z"/>
  <path d="m656.21 199.5h-407.64c-9.7539 0-17.648-7.9023-17.648-17.648v-72.086c0-39.266 31.949-71.207 71.207-71.207h300.54c39.258 0 71.191 31.941 71.191 71.207v72.086c0.003907 9.7461-7.8906 17.648-17.645 17.648zm-389.99-35.297h372.35l-0.003906-54.438c0-19.801-16.098-35.914-35.898-35.914h-300.53c-19.801 0-35.914 16.113-35.914 35.914z"/>
  <path d="m491.46 713.91h-78.172c-9.7539 0-17.648-7.9023-17.648-17.648v-66.312l-57.887 33.426c-4.0664 2.3359-8.875 2.9727-13.406 1.7578-4.5156-1.2148-8.375-4.1797-10.719-8.2383l-39-67.762c-4.8438-8.4453-1.9492-19.215 6.4805-24.082l58.785-33.957-58.785-33.957c-8.4453-4.8672-11.324-15.656-6.4609-24.102l39-67.59c2.3438-4.0508 6.1875-7.0156 10.719-8.2188 4.4805-1.2148 9.3242-0.58594 13.391 1.7578l57.887 33.434-0.003906-66.332c0-9.7461 7.8945-17.648 17.648-17.648h78.172c9.7539 0 17.648 7.9023 17.648 17.648v67.383l57.887-33.434c4.0508-2.3438 8.875-2.9727 13.391-1.7578 4.5312 1.207 8.375 4.1719 10.719 8.2188l39 67.59c4.8789 8.4453 1.9805 19.234-6.4609 24.109l-56.992 32.891 56.992 32.891c8.4453 4.8789 11.34 15.664 6.4609 24.109l-39 67.59c-2.3438 4.0508-6.1875 7.0039-10.719 8.2188-4.5156 1.207-9.3398 0.58594-13.391-1.7578l-57.887-33.434v67.555c-0.003907 9.75-7.8945 17.652-17.648 17.652zm-60.527-35.297h42.875v-80.473c0-6.3086 3.3594-12.133 8.8242-15.285 5.4453-3.1523 12.203-3.1523 17.648 0l69.07 39.887 21.352-37.016-68.176-39.352c-5.4648-3.1523-8.8242-8.9805-8.8242-15.285 0-6.3086 3.3594-12.133 8.8242-15.285l68.176-39.352-21.352-37.016-69.07 39.887c-5.4453 3.1523-12.203 3.1523-17.648 0-5.4648-3.1523-8.8242-8.9805-8.8242-15.285v-80.301h-42.875v79.238c0 6.3086-3.3594 12.133-8.8242 15.285-5.4453 3.1523-12.203 3.1523-17.648 0l-69.07-39.887-21.371 37.016 69.969 40.422c5.4648 3.1445 8.8242 8.9688 8.8242 15.277s-3.3594 12.125-8.8242 15.277l-69.98 40.426 21.402 37.172 69.055-39.871c5.4453-3.1523 12.203-3.1523 17.648 0 5.4648 3.1523 8.8242 8.9805 8.8242 15.285z"/>
  <path d="m891.1 1067.2c-3.1523 0-6.3086-0.84375-9.1172-2.5352-0.94922-0.57031-23.422-14.176-54.75-37.301-35.535-26.039-67.227-52.914-94.164-79.859-69.125-68.363-104.2-132.99-104.2-192.02 0-68.148 46.238-127.16 112.45-143.48 11.148-2.9023 23.215-4.3945 35.621-4.3945 23.902 0 47.066 5.6953 68.848 16.934 17.594 9.2188 32.914 21.688 45.324 36.707 27.797-33.598 69.434-53.641 113.95-53.641 81.652 0 148.07 66.34 148.07 147.88 0 154.09-242.56 302.9-252.88 309.16-2.8086 1.7031-5.9805 2.5586-9.1523 2.5586zm-114.15-424.3c-9.4258 0-18.492 1.1133-26.969 3.3086-50.598 12.484-85.805 57.406-85.805 109.28 0 48.562 32.434 106.31 93.785 167 25.746 25.738 56.059 51.434 90.184 76.449 18.406 13.578 33.777 23.824 42.93 29.746 43.43-28.176 226.77-154.22 226.77-273.19 0-62.082-50.598-112.59-112.78-112.59-40.945 0-78.707 22.273-98.523 58.129-3.1016 5.6172-9.0117 9.1094-15.441 9.1094h-0.015624c-6.4297-0.007813-12.34-3.5078-15.441-9.1328-10.617-19.285-26.559-34.898-46.133-45.152-16.637-8.582-34.352-12.957-52.566-12.957z"/>
  <path d="m916.86 956.2c-1.3281 0-2.6719-0.14844-4-0.45703-6.9805-1.6289-12.27-7.2969-13.426-14.355l-19.871-122.09-44.309 51.219c-3.3438 3.8789-8.2188 6.1016-13.34 6.1016h-36.707c-9.7539 0-17.648-7.9023-17.648-17.648s7.8945-17.648 17.648-17.648h28.641l63.73-73.664c4.4648-5.1719 11.562-7.3086 18.148-5.4375 6.6016 1.8711 11.512 7.3828 12.613 14.148l19.043 116.99 44.98-63.152c3.3086-4.6523 8.668-7.4102 14.371-7.4102h124.23c9.7539 0 17.648 7.9023 17.648 17.648 0 9.7461-7.8945 17.648-17.648 17.648h-115.14l-64.609 90.699c-3.3516 4.7109-8.7461 7.4102-14.363 7.4102z"/>
  <path d="m560.92 865.65h-307.79c-9.7539 0-17.648-7.9023-17.648-17.648s7.8945-17.648 17.648-17.648h307.79c9.7539 0 17.648 7.9023 17.648 17.648s-7.8945 17.648-17.648 17.648z"/>
  <path d="m631.51 971.53h-378.38c-9.7539 0-17.648-7.9023-17.648-17.648 0-9.7461 7.8945-17.648 17.648-17.648h378.38c9.7539 0 17.648 7.9023 17.648 17.648 0 9.7461-7.8945 17.648-17.648 17.648z"/>
 </g>
</svg>
