<?xml version="1.0" encoding="UTF-8"?>
<svg width="512pt" height="512pt" version="1.1" viewBox="0 0 512 512" xmlns="http://www.w3.org/2000/svg">
 <path d="m426.67 224c-5.8906 0-10.668 4.7773-10.668 10.668v81.492l-60.906-60.16c-4.0625-4.0859-9.6016-6.3555-15.359-6.293-5.7852 0.078125-11.293 2.5039-15.254 6.7188l-48.32 51.309-89.387-97.707c-3.9219-4.3047-9.4336-6.8203-15.254-6.9609-5.8203-0.14062-11.449 2.1055-15.574 6.2148l-102.61 103.25v-227.2c0-5.8906 4.7773-10.664 10.668-10.664h351.04c5.8906 0 10.668-4.7773 10.668-10.668s-4.7773-10.668-10.668-10.668h-351.04c-8.4883 0-16.625 3.3711-22.629 9.375-6 6-9.3711 14.141-9.3711 22.625v341.34c0 8.4844 3.3711 16.625 9.3711 22.625 6.0039 6.0039 14.141 9.375 22.629 9.375h341.33c8.4883 0 16.629-3.3711 22.629-9.375 6-6 9.3711-14.141 9.3711-22.625v-192c0-2.832-1.1211-5.543-3.1211-7.543-2.0039-2-4.7148-3.125-7.543-3.125zm-21.336 213.33h-341.33c-5.8906 0-10.668-4.7734-10.668-10.664v-84.055s117.34-118.61 117.34-118.61l132.8 144.96c3.9766 4.3594 10.734 4.668 15.094 0.69141 2.0938-1.9102 3.3438-4.5703 3.4727-7.4023 0.13281-2.832-0.86719-5.5977-2.7773-7.6914l-28.586-31.254 49.387-52.48 75.945 75.523v80.32c0 2.8281-1.125 5.5391-3.125 7.543-2 2-4.7109 3.1211-7.543 3.1211zm53.332-275.09h0.003907c-1.4023 1.3945-2.0391 3.3867-1.707 5.3359l4.6914 27.094c0.40625 2.2617-0.52344 4.5586-2.3906 5.8984-1.8672 1.3438-4.3359 1.4961-6.3555 0.39453l-24.32-12.801c-1.7891-0.84766-3.8633-0.84766-5.6523 0l-24.32 12.801c-2.0156 1.1016-4.4883 0.94922-6.3555-0.39453-1.8672-1.3398-2.7969-3.6367-2.3906-5.8984l4.8008-27.094c0.33203-1.9492-0.30469-3.9414-1.707-5.3359l-19.629-19.199c-1.9531-1.5273-2.7578-4.1055-2.0234-6.4727 0.73438-2.3711 2.8555-4.0391 5.332-4.1914l27.199-3.9453v-0.003907c1.9883-0.26172 3.7109-1.5039 4.5859-3.3047l12.16-24.641c1.0156-2.0156 3.0781-3.2852 5.3359-3.2852 2.2539 0 4.3164 1.2695 5.332 3.2852l12.16 24.641c0.85547 1.7734 2.5312 3.0078 4.4805 3.3047l27.309 3.9453-0.003906 0.003906c2.4766 0.15234 4.5977 1.8203 5.332 4.1914 0.73438 2.3672-0.070312 4.9453-2.0234 6.4727z"/>
</svg>
