<?xml version="1.0" encoding="UTF-8"?>
<svg width="1200pt" height="1200pt" version="1.1" viewBox="0 0 1200 1200" xmlns="http://www.w3.org/2000/svg">
 <path d="m379.38 820.62c2.3398 2.3398 5.4102 3.5156 8.4844 3.5156 3.0703 0 6.1445-1.1758 8.4844-3.5156l203.65-203.65 203.65 203.65c2.3398 2.3398 5.4102 3.5156 8.4844 3.5156 3.0703 0 6.1445-1.1758 8.4844-3.5156 4.6914-4.6914 4.6914-12.277 0-16.969l-203.65-203.65 203.65-203.65c4.6914-4.6914 4.6914-12.277 0-16.969s-12.277-4.6914-16.969 0l-203.65 203.65-203.65-203.65c-4.6914-4.6914-12.277-4.6914-16.969 0s-4.6914 12.277 0 16.969l203.65 203.65-203.65 203.65c-4.6797 4.6797-4.6797 12.277 0 16.969z" fill="#fff"/>
</svg>
