<?xml version="1.0" encoding="UTF-8"?>
<svg width="512pt" height="512pt" version="1.1" viewBox="0 0 512 512" xmlns="http://www.w3.org/2000/svg">
 <g fill="#fff">
  <path d="m112.7 509.35h0.015625 0.03125l291.06-2.25c0.007812 0 0.023438-0.007812 0.03125-0.007812 62.426-0.48047 100.59-1.0703 101.46-84.719 0.28516-0.55859 0.29297-1.1328 0.007812-1.6914 0.007812-1.1172 0.015625-2.2344 0.015625-3.3438-0.078125-101.31-0.078125-202.55-0.078125-303.86 0-0.99219-0.37891-1.9453-1.0703-2.668-30.664-32.293-60.703-67.547-91.461-99.918-0.66016-0.69922-1.5586-1.125-2.5117-1.1953-0.53516-0.039062-1.0703-0.070312-1.5977-0.10938-0.69922-0.97656-1.7773-1.6602-3.0703-1.6758h-0.039062c-1.125 0-2.1172 0.49609-2.832 1.2656-96.734-7.0703-194.24-8.4883-289.96-4.1367-26.859 1.1328-54.816 3.6523-75.52 20.574-46.668 38.191-23.164 93.238-30.52 383.48-0.80859 28.781 0.125 61.16 21.387 81.215 21.684 20.391 55.133 19.266 84.652 19.043zm-56.516-31.348c0.09375 0.29297 0.11719 0.60547 0.34766 0.83594l6.7109 6.7109-7.3008 7.3008-7.3047-7.3008zm19.797 20.285-2.2891 2.2812c-5.8086-0.65234-11.434-1.6914-16.773-3.2188l0.25-0.25c0.0625-0.046875 0.14844-0.03125 0.20312-0.085937 0.054688-0.054688 0.039062-0.14062 0.085938-0.20312l8.5352-8.5352zm-7.2539-12.738 9.9922-10 10 9.9922-10 9.9922zm-15.367 10.199c-0.0625 0.11719-0.11719 0.23438-0.14844 0.35547-3.6602-1.2656-7.1445-2.8242-10.434-4.707l3.1094-3.1094zm30.906 5.6328c-0.085937-0.16406-0.070312-0.35547-0.20312-0.49609l-2.5977-2.5977 10-10 5.0273 5.0273c1.8086 1.8086 4.5703-0.91406 2.7461-2.7461l-5.0273-5.0273 11.148-11.148c0.26562 0.125 0.50391 0.32422 0.79297 0.32422 0.49609 0 0.99219-0.1875 1.375-0.56641 0.59766-0.59766 0.58203-1.4414 0.24219-2.1641l0.76953-0.76953c0.14062-0.14844 0.125-0.34766 0.21875-0.51953-0.015625 10.316-0.070313 20.645 0.015625 30.906-8.3711 0.082032-15.855 0.19141-24.508-0.22266zm24.57-63.426-2.8789-2.8711 2.9258-2.9258c-0.007813 1.9336-0.03125 3.8516-0.046875 5.7969zm291.07 61.41-283.41 2.1953c-0.15625-18.082-0.10938-36.305 0.007813-54.457 0.085937-0.32422 0.09375-0.60547 0.007812-0.92969 0.25781-37.469 0.73047-66.504 0.92969-99.941 0.20312-35.289 8.3789-46.777 48.617-47.188l189.5-2.4844c38.875-0.38672 44.723 11.324 44.723 38.398-0.085938 54.801-0.23438 109.6-0.38281 164.41zm-291.17-30.355c-0.09375-0.17187-0.070312-0.37109-0.21875-0.51953-0.76172-0.76172-1.9844-0.76172-2.7461 0l-0.59766 0.59766-3.8711-3.8711 7.418-7.418c-0.007812 3.7383 0.023438 7.4648 0.015625 11.211zm371.77 14.25c-0.0625-0.085937-0.039063-0.20312-0.11719-0.27734l-13.77-13.77 11.242-11.242 6.9336 6.9336c0.76172 0.76172 1.9844 0.76172 2.7461 0 0.76172-0.76172 0.76172-1.9844 0-2.7461l-6.9336-6.9336 5.9492-5.9492c0.76172-0.76172 0.76172-1.9844 0-2.7461-0.76172-0.76172-1.9844-0.76172-2.7461 0l-5.9492 5.9492-4.7617-4.7695 13.312-13.312 4.8477 4.8477c0.76172 0.76172 1.9844 0.76172 2.7461 0 0.76172-0.76172 0.76172-1.9844 0-2.7461l-4.8477-4.8477 5.4062-5.4062c0.76172-0.76172 0.76172-1.9844 0-2.7461-0.76172-0.76172-1.9844-0.76172-2.7461 0l-5.4062 5.4062-6.3242-6.3242 10.977-10.977 6.4922 6.4922c-0.03125 23.574-1.7305 49.395-17.051 65.164zm-40.711 7.2852-10.984-10.984 10.203-10.203 10.984 10.984zm1.9609-23.926 8.3945-8.3945 10.984 10.984-8.3945 8.3945zm22.016-22.738 3.832 3.832-10.285 10.285c-0.37109 0.37109-0.55859 0.85938-0.55859 1.3594l-3.8711-3.8711 10.379-10.379c0.33594-0.33984 0.46484-0.78125 0.50391-1.2266zm-5.0625 17.418c0.48828-0.007813 0.97656-0.1875 1.3594-0.55859l10.285-10.277 4.7617 4.7695-11.242 11.242zm34.613-52.906c-0.03125-0.45703-0.17188-0.90625-0.51953-1.2578-0.34766-0.34766-0.80859-0.48828-1.2578-0.51953l-4.9883-4.9883 10.543-10.543c0.30078-0.30078 0.40234-0.70703 0.45703-1.1094 0.007812 7.5547 0 15.105 0.007812 22.652zm-91.766-391.51-1.2031 128.99c-0.39453 43.48-14.586 48.32-39.82 48.641l-195.08 2.4453c-14.973 0.20312-30.441-0.39453-40.09-9.5977-10.223-9.7422-10.992-26.02-10.914-41.859l0.69922-132.79c94.398-4.2031 189.28-2.9023 286.41 4.1719zm-387.14 392.42c7.332-290.21-15.23-342.58 27.672-377.68 17.477-14.281 41.535-17.316 65.32-18.539l-0.69922 132.4c-0.09375 17.531 0.85938 35.637 13.312 47.516 10.828 10.324 26.266 11.77 41.605 11.77 1.3125 0 2.6211-0.015624 3.9336-0.023437l195.08-2.4453c30.285-0.37891 47.035-9.168 47.477-56.328l1.1875-127.36c30.168 31.93 58.617 65.227 88.18 96.434 0 91.492 0.015625 182.93 0.070313 274.42-0.0625-0.39453-0.15625-0.80078-0.45703-1.1094-0.76172-0.76172-1.9844-0.76172-2.7383 0l-10.543 10.543-1.9922-1.9922c-0.76172-0.76172-1.9844-0.76172-2.7461 0-0.76172 0.76172-0.76172 1.9844 0 2.7461l2.7461 2.7461c0.085937 0.30859 0.125 0.63672 0.36328 0.875 0.24219 0.24219 0.57422 0.27734 0.875 0.36328l5.25 5.25-10.977 10.977-1.7383-1.7383c-0.76172-0.76172-1.9844-0.76172-2.7461 0-0.76172 0.76172-0.76172 1.9844 0 2.7383l1.7383 1.7383-4.3281 4.3281c-0.76172 0.76172-0.76172 1.9844 0 2.7461s1.9844 0.76172 2.7383 0l4.3281-4.3281 6.3242 6.3242-13.312 13.312-7.6953-7.6875c-0.76172-0.76172-1.9844-0.76172-2.7461 0-0.76172 0.76172-0.76172 1.9844 0 2.7461l1.832 1.832c-0.44141 0.039062-0.88281 0.17187-1.2188 0.50391l-10.379 10.379-8.207-8.207c-0.76172-0.76172-1.9844-0.76172-2.7461 0-0.76172 0.76172-0.76172 1.9844 0 2.7461l8.207 8.207-8.3945 8.3945-13.645-13.645c-0.76172-0.76172-1.9844-0.76172-2.7461 0-0.76172 0.76172-0.76172 1.9844 0 2.7461l13.645 13.645-10.203 10.203-8.9922-8.9844c-0.76172-0.76172-1.9844-0.76172-2.7461 0-0.76172 0.76172-0.76172 1.9844 0 2.7461l8.9922 8.9844-12.094 12.094c-0.76172 0.76172-0.76172 1.9844 0 2.7461s1.9844 0.76172 2.7461 0l12.094-12.094 11.016 11.016c-0.67578 0.76172-0.68359 1.9102 0.046875 2.6367 0.76172 0.76172 1.9844 0.76172 2.7461 0l12.871-12.871 3.5156 3.5156c0.76172 0.76172 1.9844 0.76172 2.7461 0 0.76172-0.76172 0.76172-1.9844 0-2.7461l-3.5156-3.5156 8.3945-8.3945 13.77 13.77c0.078125 0.078124 0.19531 0.054687 0.27734 0.11719-0.37109 0.31641-0.63672 0.71484-1.0234 1.0234-16.727 13.43-41.75 12.234-69.242 12.449 0.15625-54.785 0.30078-109.56 0.37891-164.34 0-31.48-9.0625-46.477-52.574-46.156l-189.5 2.4844c-44.926 0.45703-56.062 15.723-56.281 54.898-0.11719 20.246-0.21875 24.84-0.74609 80.43l-5.7266 5.7188-2.793-2.793c-0.76172-0.76172-1.9844-0.76172-2.7461 0-0.76172 0.76172-0.76172 1.9844 0 2.7461l2.793 2.793-7.6953 7.6953c-0.76172 0.76172-0.76172 1.9844 0 2.7461 0.37891 0.37891 0.875 0.56641 1.375 0.56641 0.49609 0 0.99219-0.1875 1.375-0.56641l7.6953-7.6953 5.5625 5.5625c-0.023438 2.9961-0.046875 5.9258-0.0625 8.9297l-10.156 10.156-10.387-10.387c-0.76172-0.76172-1.9844-0.76172-2.7461 0-0.76172 0.76172-0.76172 1.9844 0 2.7461l10.387 10.387-5.4844 5.4844c-0.76172 0.76172-0.76172 1.9844 0 2.7461s1.9844 0.76172 2.7383 0l5.4844-5.4844 3.8711 3.8711-10.977 10.977-9.9922-9.9922 6.3164-6.3164c0.76172-0.76172 0.76172-1.9844 0-2.7461-0.76172-0.76172-1.9844-0.76172-2.7383 0l-6.3242 6.3164-1.3203-1.3203c-0.76172-0.76172-1.9844-0.76172-2.7383 0-0.76172 0.76172-0.76172 1.9844 0 2.7461l1.3203 1.3203-10 10-6.7109-6.7109c-0.23438-0.23438-0.54297-0.25781-0.83594-0.34766l9.3633-9.3633c0.76172-0.76172 0.76172-1.9844 0-2.7461-0.76172-0.76172-1.9844-0.76172-2.7461 0l-19.16 19.16-7.1992-7.1992c-0.76172-0.76172-1.9844-0.76172-2.7461 0s-0.76172 1.9844 0 2.7461l7.207 7.207-3.8008 3.8008c-2.0859-1.418-4.1133-2.9336-5.9805-4.6914-18.898-17.902-19.676-48.305-18.922-75.41z"/>
  <path d="m362.58 347.95h-206.4c-1.0703 0-1.9375 0.86719-1.9375 1.9375 0 1.0703 0.86719 1.9375 1.9375 1.9375h206.4c1.0703 0 1.9375-0.86719 1.9375-1.9375 0-1.0664-0.86719-1.9375-1.9375-1.9375z"/>
  <path d="m358.11 399.15h-203.5c-1.0703 0-1.9375 0.86719-1.9375 1.9375 0 1.0703 0.86719 1.9375 1.9375 1.9375h203.5c1.0703 0 1.9375-0.86719 1.9375-1.9375 0-1.0781-0.86719-1.9375-1.9375-1.9375z"/>
  <path d="m260.34 447.19h-105.73c-1.0703 0-1.9375 0.86719-1.9375 1.9375 0 1.0703 0.86719 1.9375 1.9375 1.9375h105.73c1.0703 0 1.9375-0.86719 1.9375-1.9375 0.003906-1.0664-0.86719-1.9375-1.9375-1.9375z"/>
  <path d="m302.38 136.25c0.22656 19.953 8.4883 26.211 29.711 27.328 28.82 1.5117 45.477-4.6172 40.906-60.98-0.88281-10.859-3.6836-30.105-12.574-36.949-7.4609-5.75-16.887-5.9648-26.719-5.6875-23.449 0.67578-32.109 8.3242-31.805 34.18zm7.5938-14.715 3.7461 3.7461-3.6602 3.6602zm41.945-51.875-4.2969 4.2969-5.9961-5.9961c-0.14844-0.14844-0.36328-0.13281-0.54297-0.22656 3.9492 0.14844 7.6641 0.61328 10.836 1.9258zm-17.988-1.9414c1.457-0.046875 2.9023-0.078125 4.3203-0.078125 0.44141 0 0.85938 0.039062 1.2969 0.039062-0.22656 0.09375-0.48047 0.09375-0.66797 0.27734-0.76172 0.76172-0.76172 1.9844 0 2.7461l5.9961 5.9961-6.5469 6.5469-6.1602-6.1602 3.8555-3.8555c0.76172-0.76172 0.76172-1.9844 0-2.7383-0.76172-0.76172-1.9844-0.76172-2.7461 0l-3.8555 3.8555-5.7109-5.7109c3.1602-0.61328 6.6328-0.80859 10.219-0.91797zm-4.3047 24.242-6.1602-6.1602 5.9648-5.9648 6.1602 6.1602zm-10.133-22.07 7.1914 7.1914-5.9648 5.9648-5.8867-5.8867c-0.76172-0.76172-1.9844-0.76172-2.7461 0s-0.76172 1.9844 0 2.7383l5.8867 5.8867-0.95312 0.95312c-0.76172 0.76172-0.76172 1.9844 0 2.7383 0.76172 0.76172 1.9844 0.76172 2.7461 0l0.95312-0.95312 6.2227 6.2227c-0.58984 0.76172-0.61328 1.832 0.085938 2.5273 0.76172 0.76172 1.9844 0.76172 2.7461 0l8.5547-8.5625 1.918 1.918c0.76172 0.76172 1.9844 0.76172 2.7383 0 0.76172-0.76172 0.76172-1.9844 0-2.7461l-1.918-1.918 6.5469-6.5469 5.3984 5.4062c0.76172 0.76172 1.9844 0.76172 2.7461 0 0.76172-0.76172 0.76172-1.9844 0-2.7461l-5.4062-5.3984 5.0586-5.0586c6.7578 4.9805 9.1602 23.211 9.8438 31.59 4.2422 52.324-10.078 53.797-32.77 52.605-20.773-1.0859-22.227-7.2852-22.363-19.672l-0.039063-3.5898c0.24219 0.10156 0.45703 0.29297 0.71484 0.29297 0.49609 0 0.99219-0.1875 1.375-0.56641l4.2734-4.2734 1.3438 1.3438c0.76172 0.76172 1.9844 0.76172 2.7383 0 0.76172-0.76172 0.76172-1.9844 0-2.7461l-1.3438-1.3438 5.9805-5.9805c0.76172-0.76172 0.76172-1.9844 0-2.7383-0.76172-0.76172-1.9844-0.76172-2.7461 0l-5.9805 5.9805-5.793-5.793c-0.21094-0.21094-0.49609-0.21875-0.75391-0.30859l-0.25781-22.379c-0.10156-11.453 0.77344-20.488 9.8594-24.152z"/>
  <path d="m314.87 105.14-3.5977 3.5977c-0.76172 0.76172-0.76172 1.9844 0 2.7461 0.76172 0.76172 1.9844 0.76172 2.7461 0l3.5977-3.5977 3.6602 3.6602c0.76172 0.76172 1.9844 0.76172 2.7461 0 0.76172-0.76172 0.76172-1.9844 0-2.7461l-3.6602-3.6602 5.2148-5.2148c0.76172-0.76172 0.76172-1.9844 0-2.7461-0.76172-0.76172-1.9844-0.76172-2.7461 0l-5.2148 5.2148-4.1133-4.1133c-0.76172-0.76172-1.9844-0.76172-2.7461 0-0.76172 0.76172-0.76172 1.9844 0 2.7383z"/>
  <path d="m139.2 89.469 17.27-17.27 10.016 10.016-14.762 14.762c-0.76172 0.76172-0.76172 1.9844 0 2.7461 0.76172 0.76172 1.9844 0.76172 2.7461 0l14.762-14.762 13.941 13.941-16.312 16.32c-0.76172 0.76172-0.76172 1.9844 0 2.7461s1.9844 0.76172 2.7383 0l16.32-16.32 1.6523 1.6523c0.76172 0.76172 1.9844 0.76172 2.7461 0 0.76172-0.76172 0.76172-1.9844 0-2.7461l-1.6523-1.6523 6.875-6.875 8.4883 8.4883c0.76172 0.76172 1.9844 0.76172 2.7461 0 0.76172-0.76172 0.76172-1.9844 0-2.7383l-8.4883-8.4883 10.598-10.598 7.0664 7.0664-2.9492 2.9492c-0.76172 0.76172-0.76172 1.9844 0 2.7461 0.76172 0.76172 1.9844 0.76172 2.7461 0l2.9492-2.9492 5.25 5.25c0.76172 0.76172 1.9844 0.76172 2.7383 0 0.76172-0.76172 0.76172-1.9844 0-2.7461l-5.25-5.25 10.016-10.016 4.5703 4.5703c0.76172 0.76172 1.9844 0.76172 2.7461 0s0.76172-1.9844 0-2.7461l-4.5703-4.5703 10.332-10.34c0.76172-0.76172 0.76172-1.9844 0-2.7383-0.76172-0.76172-1.9844-0.76172-2.7461 0l-10.34 10.332-7.0664-7.0664 12.957-12.957c0.76172-0.76172 0.76172-1.9844 0-2.7461-0.76172-0.76172-1.9844-0.76172-2.7383 0l-12.957 12.957-11.387-11.387c-0.76172-0.76172-1.9844-0.76172-2.7461 0-0.76172 0.76172-0.76172 1.9844 0 2.7461l11.387 11.387-10.016 10.016-13.941-13.941 2.3594-2.3594c0.76172-0.76172 0.76172-1.9844 0-2.7461-0.76172-0.76172-1.9844-0.76172-2.7461 0l-2.3594 2.3594-4.707-4.707c-0.76172-0.76172-1.9844-0.76172-2.7383 0-0.76172 0.76172-0.76172 1.9844 0 2.7461l4.707 4.707-10.598 10.605-7.4531-7.4531c-0.76172-0.76172-1.9844-0.76172-2.7461 0-0.76172 0.76172-0.76172 1.9844 0 2.7383l7.4609 7.4531-6.875 6.875-10.016-10.016 11.387-11.387c0.76172-0.76172 0.76172-1.9844 0-2.7383-0.76172-0.76172-1.9844-0.76172-2.7461 0l-11.398 11.379-3.1406-3.1406c-0.76172-0.76172-1.9844-0.76172-2.7461 0s-0.76172 1.9844 0 2.7461l3.1406 3.1406-17.27 17.27c-0.76172 0.76172-0.76172 1.9844 0 2.7461 0.76172 0.75 1.9961 0.75 2.75-0.007812zm82.422-23.543 7.0664 7.0664-10.004 10.016-7.0664-7.0664zm-29.43-3.9336 13.941 13.941-10.598 10.598-13.941-13.941zm-13.344 13.34 13.941 13.941-6.875 6.875-13.941-13.941z"/>
  <path d="m62.039 286.5-16.602 16.602c-0.76172 0.76172-0.76172 1.9844 0 2.7461s1.9844 0.76172 2.7461 0l16.602-16.602 5.5859 5.5859c0.76172 0.76172 1.9844 0.76172 2.7383 0 0.76172-0.76172 0.76172-1.9844 0-2.7461l-5.5859-5.5859 4.9648-4.957 9.1016 9.1016c0.76172 0.76172 1.9844 0.76172 2.7461 0 0.76172-0.76172 0.76172-1.9844 0-2.7461l-9.1016-9.1016 10.379-10.379 4.707 4.707c0.76172 0.76172 1.9844 0.76172 2.7461 0 0.76172-0.76172 0.76172-1.9844 0-2.7461l-4.707-4.707 8.6719-8.6719 4.3203 4.3203c0.76172 0.76172 1.9844 0.76172 2.7461 0 0.76172-0.76172 0.76172-1.9844 0-2.7461l-4.3203-4.3203 13.055-13.055c0.76172-0.76172 0.76172-1.9844 0-2.7461s-1.9844-0.76172-2.7383 0l-13.055 13.055-5.2422-5.2422 14.66-14.66 7.7578 7.7578c0.76172 0.76172 1.9844 0.76172 2.7461 0 0.76172-0.76172 0.76172-1.9844 0-2.7461l-7.7578-7.7578 6.957-6.957 7.3398 7.3398c0.76172 0.76172 1.9844 0.76172 2.7461 0 0.76172-0.76172 0.76172-1.9844 0-2.7383l-7.3398-7.3398 5.207-5.207c0.76172-0.76172 0.76172-1.9844 0-2.7461s-1.9844-0.76172-2.7383 0l-5.207 5.207-13.754-13.746c-0.76172-0.76172-1.9844-0.76172-2.7383 0-0.76172 0.76172-0.76172 1.9844 0 2.7461l13.746 13.746-6.957 6.957-6.1055-6.1055 3.3438-3.3438c0.76172-0.76172 0.76172-1.9844 0-2.7461s-1.9844-0.76172-2.7461 0l-3.3438 3.3438-0.90625-0.90625c-0.76172-0.76172-1.9844-0.76172-2.7383 0-0.76172 0.76172-0.76172 1.9844 0 2.7461l0.90625 0.91406-14.66 14.66-1.7695-1.7695c-0.76172-0.76172-1.9844-0.76172-2.7383 0-0.76172 0.76172-0.76172 1.9844 0 2.7461l1.7695 1.7695-21.793 21.793-0.62891-0.62891c-0.76172-0.76172-1.9844-0.76172-2.7383 0-0.76172 0.76172-0.76172 1.9844 0 2.7461l0.62891 0.62891-4.9648 4.9648-5.4766-5.4766c-0.76172-0.76172-1.9844-0.76172-2.7383 0-0.76172 0.76172-0.76172 1.9844 0 2.7461zm32.23-32.242-8.6719 8.6719-5.3828-5.3828c0.15625-0.085938 0.34766-0.070313 0.48047-0.20312l8.332-8.332zm3.3203-31.488 6.1055 6.1055-14.66 14.66-6.1055-6.0977zm-11.301 23.508-8.332 8.332c-0.13281 0.13281-0.11719 0.32422-0.20312 0.48047l-6.2461-6.2461 8.6719-8.6719zm-17.52 5.3047 14.086 14.086-10.379 10.379-14.086-14.086zm-13.125 13.125 14.086 14.086-4.9531 4.9609-14.086-14.086z"/>
  <path d="m397.72 259.99 14.484-14.484 5.043 5.043-9.582 9.582c-0.76172 0.76172-0.76172 1.9844 0 2.7461s1.9844 0.76172 2.7383 0l9.582-9.582 11.195 11.195c0.76172 0.76172 1.9844 0.76172 2.7461 0 0.76172-0.76172 0.76172-1.9844 0-2.7461l-11.195-11.195 10.52-10.52 7.6328 7.6328-6.7031 6.7031c-0.76172 0.76172-0.76172 1.9844 0 2.7461 0.76172 0.76172 1.9844 0.76172 2.7461 0l6.7031-6.7031 3.8164 3.8164c0.76172 0.76172 1.9844 0.76172 2.7461 0 0.76172-0.76172 0.76172-1.9844 0-2.7461l-3.8164-3.8164 7.0586-7.0586 5.2734 5.2734c0.76172 0.76172 1.9844 0.76172 2.7383 0 0.76172-0.76172 0.76172-1.9844 0-2.7461l-5.2734-5.2734 7.6328-7.6328 7.7578 7.7578c0.76172 0.76172 1.9844 0.76172 2.7383 0 0.76172-0.76172 0.76172-1.9844 0-2.7461l-7.75-7.7578 0.66016-0.66016c0.76172-0.76172 0.76172-1.9844 0-2.7383-0.76172-0.76172-1.9844-0.76172-2.7461 0l-0.66016 0.66016-2.7383-2.7383 3.6445-3.6367c0.83594-0.16406 1.5664-0.51172 2.1875-0.80859l0.60547-0.28516c0.97656-0.42578 1.4336-1.5664 1.0078-2.5508-0.41797-0.97656-1.5742-1.4414-2.5508-1.0078l-0.76172 0.34766c-1.3281 0.64453-2.1562 0.48047-2.7539 1.0781l-4.1211 4.1211-2.1562-2.1562 1.4727-1.4727c0.76172-0.76172 0.76172-1.9844 0-2.7461-0.76172-0.76172-1.9844-0.76172-2.7461 0l-1.4727 1.4727-5.5469-5.5469c-0.76172-0.76172-1.9844-0.76172-2.7461 0-0.76172 0.76172-0.76172 1.9844 0 2.7383l5.5469 5.5469-7.6328 7.6328-4.3906-4.3906c-0.25781-0.25781-0.58984-0.29297-0.91406-0.37891l5.7656-5.7656c0.76172-0.76172 0.76172-1.9844 0-2.7461-0.76172-0.76172-1.9844-0.76172-2.7461 0l-28.555 28.555-1.8008-1.8008c-0.76172-0.76172-1.9844-0.76172-2.7383 0-0.76172 0.76172-0.76172 1.9844 0 2.7461l1.8008 1.8008-14.484 14.484c-0.76172 0.76172-0.76172 1.9844 0 2.7461 0.76172 0.76172 1.9844 0.76172 2.7383 0.011719zm45.91-15.074-7.6328-7.6328 7.0586-7.0586 7.6328 7.6328zm9.8047-25.07 2.1562 2.1562-2.375 2.375c-0.76172 0.76172-0.76172 1.9844 0 2.7461 0.76172 0.76172 1.9844 0.76172 2.7461 0l2.375-2.375 2.7383 2.7383-7.6328 7.6328-7.6328-7.6328zm-17.516 3.2422 4.3906 4.3906-7.0586 7.0586-5.043-5.043 7.3242-7.3242c0.089844 0.32812 0.12891 0.66797 0.38672 0.91797zm-10.449 9.1523 5.043 5.043-10.52 10.52-5.043-5.043z"/>
 </g>
</svg>
