<?xml version="1.0" encoding="UTF-8"?>
<svg width="512pt" height="512pt" version="1.1" viewBox="0 0 512 512" xmlns="http://www.w3.org/2000/svg">
 <path d="m76.801 445.54h102.4c5.6328 0 10.238-4.6094 10.238-10.238v-399.36c0-5.6328-4.6094-10.238-10.238-10.238l-102.4-0.003906c-5.6328 0-10.238 4.6094-10.238 10.238v399.36c-0.003906 5.6836 4.6055 10.242 10.238 10.242zm10.238-399.36h81.922v378.88h-81.922zm242.28 393.01c1.5352 4.0977 5.4258 6.6055 9.5742 6.6055 1.1758 0 2.4062-0.20312 3.5859-0.66406l96-35.637c2.5586-0.97266 4.6602-2.8672 5.7852-5.375s1.2305-5.3242 0.25781-7.8867l-138.96-364.14c-1.9961-5.2734-7.8867-7.8867-13.105-5.9375l-96 35.637c-2.5586 0.97266-4.6602 2.8672-5.7852 5.375-1.125 2.5078-1.2305 5.3242-0.25781 7.8867zm-39.273-390.35 131.59 345.04-76.801 28.469-131.59-345.04zm196.35 181.66v245.76c0 5.6328-4.6094 10.238-10.238 10.238h-440.32c-5.6328 0-10.238-4.6094-10.238-10.238v-245.76c0-5.6328 4.6094-10.238 10.238-10.238 5.6328 0 10.238 4.6094 10.238 10.238v235.52h419.84v-235.52c0-5.6328 4.6094-10.238 10.238-10.238 5.6367-0.003906 10.242 4.6055 10.242 10.238z" fill="#fff"/>
</svg>
