<?xml version="1.0" encoding="UTF-8"?>
<svg width="1200pt" height="1200pt" version="1.1" viewBox="0 0 1200 1200" xmlns="http://www.w3.org/2000/svg">
 <path d="m589.87 469.92c-3.3906 3.3125-9.2812 3.6484-13.156 0.75-3.875-2.8984-4.2695-7.9375-0.87891-11.25l116.34-113.77c3.3906-3.3125 9.2812-3.6484 13.156-0.75 2.793 2.0898 3.7773 5.2891 2.8398 8.1523l0.011719 0.003907c-6.6172 19.906 0.51172 19.184 3.4336 20.289 5.7188 2.1641 17.227-13.777 31.34-30.004l155.44-178.7c3.0664-3.5391 8.9102-4.2812 13.047-1.6562 2.918 1.8477 4.207 4.8789 3.6406 7.7422-11.457 77.266 32.484 10.664 63.809-23.422 17.316-18.844 35.445-38.57 52.594-54.262 3.5117-3.2266 9.418-3.4102 13.191-0.40625 2.9258 2.3281 3.7109 5.8906 2.2773 8.8789-13.555 34.82-17.25 48.711-14.535 49.488 4.8398 1.3789 23.664-12.781 48.113-32.227 28.078-22.324 33.102-27.18 63.152-47.59 4.0352-2.7266 9.8945-2.1406 13.082 1.3125s2.5 8.4609-1.5352 11.188c-13.957 12.945-134.79 91.129-69.453 86.199 5.1484-0.37891 9.6797 2.8789 10.125 7.2812 0.24219 2.4102-0.78906 4.6602-2.6172 6.2695l-268.41 287.18 0.019531 0.011718c-4.6641 5.2266-8.8359 9.9766-12.309 14.176l-0.375 0.46875-0.09375 0.12109-0.23438 0.29297-0.046875 0.0625-0.046875 0.058594-1.0312 1.375-0.046875 0.058594-0.79688 1.0625-0.050781 0.0625-0.09375 0.125-0.050781 0.0625-0.046875 0.0625-0.050781 0.0625-0.046876 0.0625c-0.039062 0.050781-0.082031 0.10156-0.12109 0.15234l-0.015625 0.015624-0.003906 0.007813-0.007813 0.011719-0.10547 0.125-0.011718 0.011718-0.019532 0.023438-0.011718 0.011719-0.050782 0.054687-0.16016 0.16016-0.019531 0.023438-0.035157 0.035156-0.0625 0.066406-0.035156 0.035157c-4.2617 5.5312-6.8281 9.8125-7.0469 12.602-0.10547 1.3594 5.9141 1.5273 21.453 0.19922 5.125-0.42969 9.6914 2.7734 10.195 7.1562 0.25391 2.2188-0.57812 4.3125-2.1289 5.8984l-287.89 301.23c-2.2148 2.3164-7.2852 6.8516-14.566 3.1406-6.3867-3.2539-4.7109-8.0195-2.0195-11.23 12.973-15.477 23.855-39.863 26-55.25 0.26953-1.9414 0.40234-3.6289 0.37891-4.9961-3.8711 2.1562-9.6133 6.918-17.641 15.039-0.082032 0.085937-0.16797 0.16797-0.25391 0.24609l-68.062 70.555c-0.20312 0.23828-0.42578 0.46875-0.66406 0.69141l-0.027344 0.023438-293.63 304.38c-2.0078 2.082-4.3828 3.6914-7.0625 4.7969-2.6758 1.1055-5.6289 1.6953-8.7969 1.7461-3.125 0.050781-6.0781-0.44531-8.7969-1.4648-2.7734-1.0391-5.2227-2.5625-7.2852-4.5469l-2.3203-2.2305c-0.96094-0.92188-2.4531-0.97266-3.4727-0.0625l-15.277 13.605c-3.0977 2.7578-6.957 4.5312-11.09 5.2305-4.1133 0.69531-8.457 0.31641-12.547-1.2227l-9.168-3.4492c-3.0898-1.1602-5.6992-2.8438-7.7578-4.9648-2.043-2.1055-3.4883-4.6172-4.2578-7.4531-0.75391-2.7695-0.73828-5.543 0.015624-8.2305 0.75-2.6797 2.2266-5.1719 4.3984-7.3789l67.457-68.551c0.24219-0.24609 0.40234-0.48438 0.48438-0.70703 0.070313-0.19922 0.082032-0.48438 0.035156-0.85156-0.042968-0.34375-0.125-0.60156-0.23828-0.77734-0.10938-0.16797-0.33203-0.35938-0.66406-0.57812l-1.2891-0.84375c-2.3633-1.5469-4.25-3.4023-5.6406-5.5469-1.3867-2.1406-2.2344-4.4961-2.5156-7.043-0.28516-2.5586 0.019532-4.9961 0.89844-7.2891 0.89844-2.3438 2.3398-4.4805 4.3203-6.375l266.37-255.48c3.4297-3.2969 9.3398-3.5898 13.191-0.65625 3.6758 2.7969 4.1602 7.5234 1.2188 10.812-43.434 49.352-48.176 117.34-2.7812 74.699 10.102-9.4883 20.727-19.469 32.477-30.402l0.019531-0.019531 68.066-70.555c0.12109-0.14062 0.25-0.28125 0.38672-0.41797 13.543-13.699 23.734-20.195 31.043-21.605 8.9531-1.7266 14.703 1.4453 17.762 8.1758 1.8008 3.9688 2.1367 9.3633 1.2734 15.574-0.38281 2.75-1.0117 5.75-1.8594 8.9258l234.67-245.54c-15.73-1.3516-21.848-7.2539-21.062-17.402 0.4375-5.6367 4.2266-12.426 10.324-20.48l0.007813-0.011718 0.003906-0.007813 0.003907-0.003906 0.015624-0.023437 0.082032-0.125 0.03125-0.046876 0.085937-0.125 0.015625-0.023437 0.007813-0.007813 0.023437-0.035156 0.097656-0.13281 0.003907-0.003906 0.003906-0.007813c0.039063-0.054687 0.082031-0.10938 0.125-0.16406 24.801-31.516 37.379-48.434 41.742-59.324 3.3438-8.3477 0.60938-13.035-5.1484-20.543-4.9844-6.4961-12.254-21.242-37.438 0.13281l-76.734 62.191c-9.7852 8.293-23.035 4.0625-28.914-1.082-8.4141-7.3594-7.0898-19.641-4.4023-25.68 7.5156-16.895 18.074-30.207 8.1992-34.137-5.3828-2.1406-8.2461-6.5469-8.9648-12.812-0.30078-2.6094-0.21484-5.7383 0.20703-9.3125l-92.691 90.645zm-45.879 45.516c2.9414 2.7031 3.3789 6.8867 0.79688 10.031-31.984 38.672-62.141 64.523-81.398 95.59-13.797 22.254-35.43 66.562 5.0234 27.309l52.965-51.395c3.4102-3.3125 9.3164-3.6367 13.191-0.71875s4.25 7.9688 0.83984 11.281l-349.02 338.67c-3.4102 3.3125-9.3164 3.6367-13.191 0.71875-2.6758-2.0156-3.6836-5.0469-2.9258-7.8242 2.8203-11.219 3.125-20.129 0.95312-25.816-0.80469-2.1094-1.8711-3.5234-3.1758-4.125-1.4141-0.65234-3.5977-0.67578-6.5938 0.027344-8.1445 1.9023-19.352 8.3633-33.707 20.492-3.6719 3.0898-9.582 3.0469-13.191-0.09375-3.2539-2.832-3.5352-7.2109-0.875-10.309l-0.003906-0.003906 193.08-224.37c3.0469-3.5547 8.8906-4.3242 13.047-1.7188 2.3555 1.4766 3.668 3.7227 3.8047 6.0391l1.0859 9.5859c0.046875 0.42578 0.21484 0.79297 0.48047 1.0703 0.25391 0.27344 0.64844 0.49219 1.1523 0.63281 0.51563 0.14453 0.98438 0.16797 1.3633 0.078126 0.39844-0.09375 0.78906-0.3125 1.1367-0.64844l201.26-194.46c3.4102-3.2969 9.3008-3.6055 13.156-0.6875 0.26953 0.20313 0.51953 0.41797 0.75781 0.64063zm155.51 392.31c-1.9297-2.1992-1.4102-5.3242 1.1641-6.9727 2.5742-1.6484 6.2227-1.2031 8.1523 0.99609l117.58 134.41c1.9297 2.1992 1.4102 5.3242-1.1641 6.9727-2.5742 1.6484-6.2227 1.2031-8.1523-0.99609zm-443.16-265.27c1.9531-2.1914 5.6172-2.6094 8.1758-0.9375 2.5625 1.6719 3.0508 4.8008 1.0977 6.9922l-52.34 58.32c-1.957 2.1914-5.6172 2.6094-8.1758 0.9375-2.5625-1.6719-3.0508-4.8008-1.0977-6.9922zm128.45-345.93 102.13 112.7c2.9805 3.1406 2.75 7.7617-0.67188 10.676-3.6523 3.1055-9.5586 3.0938-13.191-0.03125l-153.78-132.52-4.8555 3.3203 123.73 136.86c2.9648 3.2773 4.4336 7.168 4.4102 11.07-0.019532 3.9258-1.5273 7.8086-4.5156 11.051l-15.566 16.887c-1.9453 2.1094-4.3047 3.7656-7.0156 4.9414-2.6602 1.1562-5.6016 1.793-8.7617 1.8906-3.1875 0.097656-6.1758-0.35547-8.9102-1.3359-2.7617-0.99219-5.2422-2.5039-7.3867-4.5117-10.828-10.148-24.051-17.848-36.266-19.152-10.719-1.1445-12.488 2.3555-7.8789 9.5664l30.23 47.266c2.0469 3.1992 2.8945 6.6641 2.5703 10.051-0.32422 3.4141-1.8203 6.7344-4.4531 9.6211l-26.527 29.066c-1.9297 2.1133-4.2422 3.7695-6.8867 4.9414-2.6289 1.1641-5.5391 1.8281-8.668 1.957-3.1055 0.12891-6.0742-0.28906-8.8438-1.2383-2.7695-0.94922-5.2539-2.3984-7.4023-4.3281l-21.551-19.383 45.164 80.262c2.1016 3.1602 1.4609 7.25-1.8008 9.8164-3.793 2.9844-9.7031 2.7773-13.191-0.46875l-163.08-151.53c-2.1992-2.043-3.8281-4.3789-4.8047-6.9609-0.97266-2.5859-1.2578-5.3008-0.76562-8.1016 1.1367-6.4766 2.5391-12.438 3.7188-17.465 3.793-16.152 4.6016-19.586-17.609-36.141-27.344-20.379-51.02-40.316-68.254-58.328-13.578-14.188-23.363-27.414-28.113-39.035-5.5-13.461-4.4961-25.031 4.6094-33.965 1.3164-1.293 2.7148-2.4609 4.1953-3.4961l0.015625 0.015624c3.4609-2.4258 8.5664-2.4336 12.043 0.17188 16.57 12.363 30.699 18.695 40.445 19.5 2.9219 0.24219 5.082-0.054688 6.3711-0.87109 1.1211-0.71094 1.8789-2.1133 2.1914-4.207 1.0547-7.0156-2.6914-18.371-12.766-33.953l-67.898-105.03 0.011719-0.003907c-1.7695-2.7617-1.5273-6.2773 0.94141-8.8711 3.25-3.418 9.125-3.9336 13.121-1.1562 37.773 26.395 61.242 39.074 74.016 41.969 2.2461 0.50781 2.8477 1.793 3 1.3789 0.90234-2.4062-0.37891-7.4844-3.3203-14.484-10.996-26.164-43.773-70.133-77.133-107.82l0.007812-0.003906c-2.7227-3.0742-2.5039-7.4727 0.72266-10.34 3.5742-3.1758 9.4805-3.2734 13.191-0.21875 3.1797 2.6094 14.07 11.621 24.859 20.547 51.117 42.285 96.996 80.238 102.18 77.977 0.90625-0.39453-6.2773-13.547-25.496-45.758l0.015625-0.007813c-1.8047-3.0352-1.1914-6.8398 1.8125-9.3359 3.6953-3.0703 9.6016-3.0039 13.191 0.15625l294.57 259.29c3.5938 3.1602 3.5117 8.2109-0.18359 11.281-3.6953 3.0703-9.6016 3.0039-13.191-0.15625l-72.723-64.016zm676.11 771.71c0.94922 0.90234 13.68 10.398 4.3711 21.609-2.9883 3.5898-8.8125 4.4297-13.012 1.875l-81.133-49.555-27.496 17.418c-3.8555 2.7773-9.625 2.4414-13-0.80078l-29.703-28.574 0.011719-0.007813c-3.0742-2.9453-3.1875-7.457-0.085938-10.523l21.219-20.867-25.484-63.395h0.003906c-1.1758-2.9375-0.28125-6.3203 2.5898-8.5312 3.8359-2.9531 9.7422-2.6836 13.191 0.59375l148.52 140.76zm-390.65-240.7c-3.0859-3.5195-2.2539-8.5156 1.8633-11.156 4.1172-2.6406 9.957-1.9258 13.047 1.5938l117.58 134.41c3.0859 3.5195 2.2539 8.5156-1.8633 11.156-4.1172 2.6406-9.957 1.9258-13.047-1.5938zm-19.691-67.578c-3.1875-3.4688-2.4844-8.4922 1.5703-11.219 4.0586-2.7266 9.9297-2.125 13.121 1.3438l215.36 233.89c3.1875 3.4688 2.4844 8.4922-1.5703 11.219-4.0586 2.7266-9.9297 2.125-13.121-1.3438zm101.52 16.656c16.695-10.93 24.227-29.77 26.113-51.836 2.6328-30.809-5.7266-67.52-16.023-98.836-1.3945-4.2461 1.5039-8.6523 6.4688-9.8438 3.7578-0.90234 7.6211 0.29688 9.8828 2.7734l269.5 266.39c3.3711 3.332 2.9453 8.3672-0.94922 11.25-2.9453 2.1797-7.0312 2.5039-10.305 1.0898v0.003906l-46.383-20.117 174.16 183.64c3.25 3.418 2.6445 8.4414-1.3516 11.219-3.5391 2.4609-8.5508 2.3359-11.91-0.097656l-0.003907 0.003906-158.42-114.3c-0.24609-0.17969-0.48047-0.36719-0.70312-0.5625l-110.41-91.398-36.965 23.48c-4.1367 2.625-9.9805 1.8828-13.047-1.6562-0.13672-0.15625-0.26562-0.32031-0.38672-0.48047l-81.445-99.719c-2.918-3.5703-1.9375-8.4727 2.1758-11.016zm-490.84-98.93c3.1289-3.5039 8.9844-4.1758 13.082-1.5 4.0977 2.6758 4.8828 7.6836 1.7539 11.188l-81.688 91.016c-3.1289 3.5039-8.9844 4.1758-13.082 1.5-4.0977-2.6758-4.8828-7.6836-1.7539-11.188zm363.11-364.54c3.4297-3.2773 9.3203-3.5586 13.156-0.625 3.8359 2.9336 4.1641 7.9727 0.73047 11.25l-235.16 224.37c-3.4297 3.2773-9.3203 3.5586-13.156 0.625-3.8359-2.9336-4.1602-7.9727-0.73047-11.25zm177.49-167.86c1.9766-4.0742 7.4414-6.0039 12.207-4.3125 4.7617 1.6914 7.0195 6.3633 5.043 10.438l-22.43 45.844 12.348 14.355c2.5039 2.9219 2.3438 6.8203-0.10547 9.5625l-82.055 101.29c-2.9258 3.625-8.7344 4.5352-12.973 2.0312s-5.3008-7.4688-2.375-11.094c59.152-73.02-2.0195-53.293-44.301-19.105-2.1328 2.0586-5.8125 2.2539-8.2227 0.42969-2.4102-1.8242-2.6328-4.9727-0.50391-7.0312l143.37-142.41zm-80.625 423.11-13.883-10.73 12.547-11.871 13.883 10.73zm-100.37 94.961-13.883-10.73 12.547-11.871 13.883 10.73zm50.188-47.48-13.883-10.73 12.547-11.871 13.883 10.73zm-56.336-311.63c-2.1328 2.0586-5.8125 2.2539-8.2227 0.42969-2.4102-1.8242-2.6328-4.9727-0.50391-7.0312l128.35-124.02c2.1328-2.0586 5.8125-2.2539 8.2227-0.42969 2.4102 1.8242 2.6328 4.9727 0.50391 7.0312zm-271.64 352.92c-2.1328 2.0586-5.8125 2.2539-8.2227 0.42969-2.4102-1.8242-2.6328-4.9727-0.50391-7.0312l147.63-142.64c2.1328-2.0586 5.8125-2.2539 8.2227-0.42969 2.4102 1.8242 2.6328 4.9727 0.50391 7.0312zm419.17-197.86c3.4531-3.2617 9.3438-3.5117 13.156-0.5625 3.8164 2.9531 4.1094 7.9883 0.65625 11.25l-261.77 247.65c-3.4531 3.2617-9.3398 3.5117-13.156 0.5625-3.8125-2.9531-4.1094-7.9883-0.65625-11.25l261.77-247.65zm-111.31-28.703c1.8984-1.9961 5.0547-2.0742 7.0508-0.17578 1.9961 1.8984 2.0742 5.0547 0.17578 7.0508l-101.6 106.89c-1.8984 1.9961-5.0547 2.0742-7.0508 0.17578s-2.0742-5.0547-0.17578-7.0508zm-14.125 48.004c1.8984-1.9961 5.0547-2.0742 7.0508-0.17578 1.9961 1.8984 2.0742 5.0547 0.17578 7.0508l-89.125 93.766c-1.8984 1.9961-5.0547 2.0742-7.0508 0.17578-1.9961-1.8984-2.0742-5.0547-0.17578-7.0508z" fill="#fff"/>
</svg>
