<?xml version="1.0" encoding="UTF-8" standalone="no"?>
<!DOCTYPE svg PUBLIC "-//W3C//DTD SVG 1.1//EN" "http://www.w3.org/Graphics/SVG/1.1/DTD/svg11.dtd">
<svg width="100%" height="100%" viewBox="0 0 1200 1200" version="1.1" xmlns="http://www.w3.org/2000/svg" xmlns:xlink="http://www.w3.org/1999/xlink" xml:space="preserve" xmlns:serif="http://www.serif.com/" style="fill-rule:evenodd;clip-rule:evenodd;stroke-linejoin:round;stroke-miterlimit:2;">
    <path d="M649.2,859.2L552.001,859.2C525.603,859.2 505.2,837.598 505.2,812.399L505.2,714.001C505.2,704.399 496.802,696.001 487.2,696.001L388.802,696.001C362.404,696.001 342.001,674.399 342.001,649.2L342.001,550.802C342.001,524.404 363.603,504.001 388.802,504.001L487.2,504.001C496.802,504.001 505.2,495.603 505.2,486.001L505.2,387.603C505.2,361.205 526.802,340.802 552.001,340.802L649.2,340.802C675.598,340.802 696.001,362.404 696.001,387.603L696.001,486.001C696.001,495.603 704.399,504.001 714.001,504.001L812.399,504.001C838.797,504.001 859.2,525.603 859.2,550.802L859.2,649.2C859.2,675.598 837.598,696.001 812.399,696.001L714.001,696.001C704.399,696.001 696.001,704.399 696.001,714.001L696.001,812.399C696.001,838.801 674.399,859.2 649.2,859.2ZM387.6,532.8C377.998,532.8 369.6,541.198 369.6,550.8L369.6,649.198C369.6,658.8 377.998,667.198 387.6,667.198L485.998,667.198C512.396,667.198 532.799,688.8 532.799,713.999L532.799,812.397C532.799,821.999 541.197,830.397 550.799,830.397L647.998,830.397C657.6,830.397 665.998,821.999 665.998,812.397L665.998,713.999C665.998,687.601 687.6,667.198 712.799,667.198L811.197,667.198C820.799,667.198 829.197,658.8 829.197,649.198L829.197,550.8C829.197,541.198 820.799,532.8 811.197,532.8L712.799,532.8C686.401,532.8 665.998,511.198 665.998,485.999L665.998,387.601C665.998,377.999 657.6,369.601 647.998,369.601L550.799,369.601C541.197,369.601 532.799,377.999 532.799,387.601L532.799,485.999C532.799,512.397 511.197,532.8 485.998,532.8L387.6,532.8Z" style="fill-rule:nonzero;"/>
    <g transform="matrix(1.1414,0,0,1,-86.6199,0)">
        <rect x="529.428" y="360.632" width="145.514" height="474.731"/>
    </g>
    <g transform="matrix(1,0,0,1.09982,0,-64.1231)">
        <rect x="368.679" y="524.475" width="461.201" height="155.369"/>
    </g>
</svg>
