<?xml version="1.0" encoding="UTF-8"?>
<svg width="1200pt" height="1200pt" version="1.1" viewBox="0 0 1200 1200" xmlns="http://www.w3.org/2000/svg">
 <path d="m1199.8 1007.5c-1.5625-18.961-14.16-34.918-33-45.238 7.8008-9.7188 11.641-20.879 10.68-32.398-2.7617-30.84-40.801-52.559-84.719-48.602-22.801 2.1602-42.723 10.918-56.164 23.16l-0.48047-0.24219c0.35938-3.2383-0.60156-7.0781-2.8789-11.16-13.922-22.801-58.32-49.922-74.879-61.922-21.121-15.355-61.801-37.797-110.64-51.477-135.24-37.801-291.24 95.879-401.28 194.04l-4.0781 3.6016c-72 64.199-194.04 173.16-300.72 173.16-24.84 0-48.719-6-71.039-19.559-11.281-6.9609-18-19.32-20.398-38.039-7.4453-55.684 24.836-157.8 90.957-287.52 54.84-106.92 113.52-195.12 128.04-211.56 44.398-1.6797 101.04-27.238 169.2-76.441 58.922-42.48 104.76-87.359 106.68-89.039 0 0 13.68-10.32 15-14.641 0.12109-2.8789-1.3203-6.8398-3.6016-10.922 114.48-99.48 204.12-181.92 269.16-260.88 1.6797-2.1602 3.4805-4.3203 5.3984-6.4805 24.359-29.52 52.078-62.879 40.441-85.68-7.1992-13.801-26.16-20.039-59.398-19.32-2.6445-5.2812-6.8438-9.7188-13.324-11.879-7.8008-1.3203-25.199-0.83984-25.199-0.83984-3.4805-4.9219-34.801-14.879-42.238 20.16-3.3594 31.559 37.797 41.758 57.359 25.801l12.961-0.96094c7.0781-1.1992 11.641-8.8789 12.48-17.52 32.52-0.35938 41.762 6.7188 44.16 11.52 7.3203 14.039-19.441 45.961-38.879 69.121-1.6836 2.2773-3.3633 4.4375-5.2852 6.4766-64.199 78.121-153.12 159.96-266.76 258.72-5.1602-5.1602-10.922-8.1602-14.52-6-5.5195 5.0391-15.961 14.16-15.961 14.16-0.35938 0.48047-46.801 43.199-103.2 84.238-61.922 44.641-113.88 68.398-148.56 68.398-4.9219 0-9.2383-0.35937-13.441-1.1992-7.3203-1.7969-9.9609-5.1602-11.641-8.2773-15.961-30.121 18.359-118.08 31.32-151.08 1.1992-3 2.2812-5.6406 3.2383-8.2812l5.1602-13.32c0.83984-3.8359-3.7188-8.5195-10.078-12.117 36.602-111.24 132.72-256.44 167.4-295.56 32.52-36.961 73.559-37.801 120.12-33.238 0.35938 7.0781 3.6016 14.039 11.16 19.078 7.8008 1.3203 28.68 1.3203 28.68 1.3203 6.2383 3.5977 39.719 15.719 47.281-19.441 3.2383-31.32-34.078-33.719-37.801-25.68l-32.402-0.35938c-5.6367 1.0781-10.438 5.1602-13.559 10.438-41.16-4.3203-94.559-7.5586-134.52 37.922-35.039 39.961-132.96 187.8-170.28 300.96-7.0781-0.71875-14.039 1.1992-17.16 8.0391l-3 6.5977c-0.95703 2.6406-1.918 5.1602-3.1172 8.1602-26.402 67.32-52.441 142.68-29.281 186.6 3.8398 6.9609 8.6406 12.961 14.641 17.641-61.801 86.16-235.44 377.76-216.36 519.84 4.5586 33.719 19.199 58.441 43.68 73.441 29.16 18.117 61.32 26.758 96.238 26.758 41.641 0 87.359-12.84 136.56-38.398 72-37.922 139.44-95.762 197.04-147l3.8438-3.7227c101.76-90.719 239.4-208.2 350.4-184.32 88.441 18.961 143.88 93.121 169.44 104.28 3.3594 1.4414 9.4805 0.83984 15.359-2.3984l5.1602 3.9609c-0.83984 3.9609-1.3203 7.8008-0.83984 12 0.96094 11.398 6.7188 21.602 15.84 29.398-17.039 13.801-26.641 32.277-24.961 51.121 3.2383 36.961 48.719 62.879 101.28 58.078 52.68-5.0391 92.758-38.762 89.281-75.48z"/>
</svg>
