<?xml version="1.0" encoding="UTF-8"?>
<svg width="512pt" height="512pt" version="1.1" viewBox="0 0 512 512" xmlns="http://www.w3.org/2000/svg">
 <g fill="#fff">
  <path d="m230.62 493.78c23.84 0 48.477-2.9336 73.285-8.8047 47.723-11.203 89.895-32 121.93-60.168 43.621-38.344 71.828-94.301 77.406-153.53 1.4258-15.281 1.3203-30.648-0.33203-45.684-8.2852-73.797-53.977-141.71-119.23-177.22-16.82-9.1211-34.488-16.004-52.277-20.812h-0.007812c-83.219-22.355-212.96-6.1523-264.75 66.203-38.23 53.441-59.137 118.51-58.887 183.23 0.17188 45.375 10.773 86.512 30.625 118.99 34.211 55.816 102.91 97.793 192.24 97.793zm-18.516-20.277 7.8125 7.8125-3.8242 3.8164c-0.10156 0.10156-0.078125 0.25781-0.15625 0.37109-4.6992-0.25-9.3477-0.63672-13.973-1.125 0.27344-0.69922 0.26562-1.4648-0.29297-2.0234l-0.24219-0.24219 10.172-10.172c-0.039063 0.57031 0.074219 1.1367 0.50391 1.5625zm167.85-47.695 6.043-6.043 4.8477 4.8477-6.043 6.043zm8.7891-8.7891 12.504-12.504 4.8477 4.8477-12.504 12.504zm20.094-4.918 9.1289 9.1289c-4.4844 3.8164-9.1758 7.4609-14.043 10.977l-7.5938-7.6016zm12.133 6.6484-9.3867-9.3945 12.762-12.754 9.6133 9.6133c-4.1602 4.3516-8.4727 8.5547-12.988 12.535zm24.934-72.473 4.8477 4.8477-13.234 13.227-3.8164-3.8164c-0.43359-0.43359-1.0078-0.55078-1.5664-0.48828zm-14.949 17.008 3.8164 3.8164-4.625 4.625c-0.76172 0.76172-0.76172 1.9844 0 2.7461 0.37891 0.37891 0.86719 0.56641 1.375 0.56641 0.49609 0 0.99219-0.1875 1.375-0.56641l4.625-4.625 4.0508 4.0508-17.234 17.219-11.637-11.637 17.773-17.773c-0.0625 0.56641 0.046876 1.1406 0.48047 1.5781zm13.359 13.348 7.0508 7.0508c0.29297 0.29297 0.67578 0.37109 1.0547 0.43359-4.9102 6.7266-10.164 13.18-15.785 19.277l-9.543-9.543zm51.758-139.8c0.070312 1.1953 0.09375 2.3906 0.14844 3.5898 0.10156 2.2969 0.19531 4.5938 0.22656 6.8984 0.015625 1.4023-0.007813 2.8086-0.023438 4.2188-0.015625 2.1094-0.039062 4.2188-0.11719 6.332-0.054688 1.4883-0.14062 2.9727-0.22656 4.4609-0.070312 1.2109-0.16406 2.4219-0.25 3.6211-4.918-1.4961-9.5352-3.5703-13.863-6.1055l9.418-9.418 0.64453 0.64453c0.37891 0.37891 0.86719 0.56641 1.375 0.56641 0.50391 0 0.99219-0.1875 1.375-0.56641 0.76172-0.76172 0.76172-1.9844 0-2.7461l-0.64453-0.64453 1.3867-1.3867c0.76172-0.76172 0.76172-1.9844 0-2.7461-0.76172-0.76172-1.9844-0.76172-2.7461 0l-1.3867 1.3867-10.062-10.062 13.18-13.18v-0.007812c0.21875 1.582 0.50391 3.1562 0.69141 4.7461 0.37891 3.4531 0.66406 6.9219 0.875 10.398zm-78.375 28.305c-0.15625 0.66797-0.28516 1.3438-0.41016 2.0234-2.918-5.4141-6.3086-10.551-10.023-15.445l5.8086-5.8086 5.0352 5.0352c0.37891 0.37891 0.86719 0.56641 1.375 0.56641 0.50391 0 0.99219-0.1875 1.375-0.56641 0.76172-0.76172 0.76172-1.9844 0-2.7383l-5.0352-5.0352 11.566-11.566 7.043 7.043-9.9297 9.9297c-0.70703 0.69922-0.68359 1.7773-0.085937 2.5352-3.2344 4.207-5.6172 9.1094-6.7188 14.027zm23.398-25.125c-0.070312-0.10156-0.046875-0.23438-0.13281-0.32422l-1.0391-1.0391 8.1758-8.1758 4.4062 4.4062-4.6562 4.6562c-2.3359-0.20703-4.5742 0.003906-6.7539 0.47656zm14.148-2.3906 8.6797 8.6797c-3.5-2.5664-7.2773-4.6641-11.52-5.8398zm8.9688 8.8828h0.007812-0.007812v0zm2.6602-2.6445c-0.039062-0.046875-0.023438-0.10938-0.0625-0.15625l-8.8203-8.8203 8.9297-8.9297 8.9297 8.9297zm11.715-6.2305 10.062 10.062c-0.74609 0.74609-9.3164 9.2695-9.9844 10.086-4.4141-2.9727-6.7266-5.1211-11.34-8.875zm4.7617-61.246c1.0625 2.9258 2.0625 5.8633 3.0039 8.8281l-2.4961 2.4961-5.918-5.918zm4.2812 13.043c0.27734 0.94531 0.51953 1.9023 0.78516 2.8555l-1.8164-1.8164zm0.125 7.6719c0.37891 0.37891 0.86719 0.56641 1.375 0.56641 0.25 0 0.45703-0.1875 0.69141-0.28516 1.793 7.0508 3.2031 14.195 4.2812 21.402-0.61328-0.37109-1.3125-0.37109-1.9258 0.007812-0.0625-0.085937-0.039063-0.20312-0.11719-0.28516l-17.121-17.121c0.45703-0.03125 0.90625-0.17187 1.2578-0.51953l7.6641-7.6641zm-5.5859-23.941c-0.55859-0.0625-1.125 0.0625-1.5586 0.48828l-5.4141 5.4141-2.0156-2.0156c-0.76172-0.76172-1.9844-0.76172-2.7461 0s-0.76172 1.9844 0 2.7461l2.0156 2.0156-0.51172 0.51172c-0.76172 0.76172-0.76172 1.9844 0 2.7383 0.37891 0.37891 0.86719 0.56641 1.375 0.56641 0.49609 0 0.99219-0.1875 1.375-0.56641l0.51172-0.51172 5.918 5.918-7.6641 7.6641c-0.34766 0.34766-0.48828 0.80078-0.51953 1.2578l-2.7617-2.7617c-0.75391-0.75391-1.9766-0.76172-2.7461 0-0.76172 0.76172-0.76172 1.9844 0 2.7461l21.883 21.891c0.03125 0.03125 0.078125 0.015626 0.11719 0.046876l-10.844 10.844-8.9297-8.9297 7.8594-7.8594c0.76172-0.76172 0.76172-1.9844 0-2.7461s-1.9844-0.76172-2.7461 0l-7.8594 7.8594-14.066-14.066c-0.76172-0.76172-1.9844-0.76172-2.7461 0-0.76172 0.76172-0.76172 1.9844 0 2.7461l14.066 14.066-8.9297 8.9297-4.4062-4.4062 4.6797-4.6797c0.76172-0.76172 0.76172-1.9844 0-2.7461-0.76172-0.76172-1.9844-0.76172-2.7461 0l-4.6797 4.6797-8.043-8.043c-0.76172-0.76172-1.9844-0.76172-2.7461 0s-0.76172 1.9844 0 2.7461l8.043 8.043-8.1758 8.1758-7.043-7.043 6.8281-6.8281c0.76172-0.76172 0.76172-1.9844 0-2.7461-0.76172-0.76172-1.9844-0.76172-2.7461 0l-6.8281 6.8281-3.1484-3.1484c-0.76172-0.76172-1.9844-0.76172-2.7383 0-0.76172 0.76172-0.76172 1.9844 0 2.7461l3.1484 3.1484-11.566 11.566-8.4258-8.418c-0.76172-0.76172-1.9844-0.76172-2.7461 0-0.76172 0.76172-0.76172 1.9844 0 2.7461l8.418 8.418-5.4531 5.4609c-21.559-26.617-54.156-44.219-87.816-45.164-0.62891-0.007813-1.6836 0.23438-2.375 0.73047-7.2461 5.2305-5.0586 16.84 2.1875 22.07 10.668 7.3867 27.562 2.4453 32.48 11.473 2.9258 5.2578-2.1562 12.723-8.0117 14.652-7.5 2.3672-15.949-0.48047-22.488-3.2422-16.84-6.9961-32.668-17.586-45.777-30.621-1.4727-1.4648-3.8398-1.5117-5.375-0.09375-9.5977 8.9219-7.0508 25.352 1.3438 35.109 7.7031 8.9219 18.457 13.754 27.594 19.711 3.2734 2.1562 7.7109 5.6016 11.156 9.9453l-5.0898 5.0898-1.9922-1.9922c-0.76172-0.76172-1.9844-0.76172-2.7461 0-0.76172 0.76172-0.76172 1.9844 0 2.7383l1.9922 1.9922-7.6953 7.6875c-0.55078 0.55078-0.55859 1.3047-0.30859 1.9844-0.0625 0.046875-0.14844 0.03125-0.20312 0.085938-0.76172 0.76172-0.76172 1.9844 0 2.7461l5.8789 5.8789-7.875 7.875-3.0352-3.0352c-0.61328-0.61328-1.4883-0.59766-2.2188-0.21875l0.25781-0.25781c0.76172-0.76172 0.76172-1.9844 0-2.7461-0.76172-0.76172-1.9844-0.76172-2.7461 0l-14.57 14.562c-0.76172-0.66797-1.9102-0.68359-2.6289 0.046875-0.73047 0.73047-0.71484 1.8711-0.046875 2.6289l-3.5859 3.5859c-0.76172 0.76172-0.76172 1.9844 0 2.7383 0.75391 0.75391 1.9766 0.76172 2.7383 0l3.5547-3.5469 9.6133 9.6133c-2.1875 3.4141-3.9414 7.0586-5.4141 10.852l-2.4883-2.4883 3.9258-3.9258c0.76172-0.76172 0.76172-1.9844 0-2.7461-0.76172-0.76172-1.9844-0.76172-2.7461 0l-3.9258 3.9258-0.96094-0.96094c-0.76172-0.76172-1.9844-0.76172-2.7461 0-0.76172 0.76172-0.76172 1.9844 0 2.7461l0.96094 0.96094-7.6875 7.6875c-0.76172 0.76172-0.76172 1.9844 0 2.7461 0.75391 0.75391 1.9844 0.76172 2.7383 0l7.6875-7.6875 3.8242 3.8164c-1.1875 3.6602-2.1406 7.418-2.8945 11.258-0.09375-0.27734-0.10938-0.58203-0.33203-0.80859-0.76172-0.76172-1.9844-0.76172-2.7461 0l-5.6172 5.6172-5.1055-5.0977c-0.76172-0.76172-1.9844-0.76172-2.7383 0-0.76172 0.76172-0.76172 1.9844 0 2.7461l5.1055 5.1055-8.207 8.207c-0.76172 0.76172-0.76172 1.9844 0 2.7461 0.75391 0.75391 1.9766 0.76172 2.7461 0l8.207-8.207 2.2578 2.2578c0.75391 0.75391 1.9766 0.76172 2.7461 0 0.76172-0.76172 0.76172-1.9844 0-2.7461l-2.2656-2.2578 5.5938-5.5938c-0.97656 5.4531-1.6602 11.008-2.1641 16.516-0.51953 5.7891-1 11.426-1.7227 17.199l-1.6992-1.6992 1.5195-1.5273c0.76172-0.76172 0.76172-1.9844 0-2.7461-0.76172-0.76172-1.9844-0.76172-2.7383 0l-1.5273 1.5273-6.1445-6.1367c-0.76172-0.76172-1.9844-0.76172-2.7461 0-0.76172 0.76172-0.76172 1.9844 0 2.7461l6.1445 6.1367-7.1758 7.1758c-0.76172 0.76172-0.76172 1.9844 0 2.7461 0.75391 0.75391 1.9766 0.76172 2.7461 0l7.1758-7.1758 3.0352 3.0352c0.22656 0.22656 0.52734 0.25 0.80859 0.33203-1.4258 9.332-3.7305 18.363-8.3008 26.273-4.2578 7.3164-11.52 13.559-19.504 16.531l-5.1523-5.1523 8.6484-8.6562 4.8711 4.8711c0.75391 0.75391 1.9766 0.76172 2.7461 0 0.76172-0.76172 0.76172-1.9844 0-2.7461l-4.8711-4.8711 8.9062-8.9062 2.707 2.707c0.75391 0.75391 1.9766 0.76172 2.7461 0 1.7773-1.7773-0.90625-3.6523-2.707-5.4531l3.6133-3.6211c0.76172-0.76172 0.76172-1.9844 0-2.7383-0.76172-0.76172-1.9844-0.76172-2.7461 0l-3.6211 3.6133-6.8438-6.8438 4.8008-4.8008c0.76172-0.76172 0.76172-1.9844 0-2.7461s-1.9844-0.76172-2.7383 0l-4.8008 4.8008-2.2578-2.2578c-0.76172-0.76172-1.9844-0.76172-2.7461 0-0.76172 0.76172-0.76172 1.9844 0 2.7461l2.2578 2.2578-8.9062 8.9062-0.96094-0.96094c-0.76172-0.76172-1.9844-0.76172-2.7461 0-0.76172 0.76172-0.76172 1.9844 0 2.7461l0.96094 0.96094-8.6484 8.6484-5.1055-5.1055c-0.76172-0.76172-1.9844-0.76172-2.7461 0-0.76172 0.76172-0.76172 1.9844 0 2.7461l5.1055 5.1055-7.3555 7.3555c-8.5352-11.086-9.9062-29.875-11.527-46.5-3.3984-34.879-6.6094-67.832-25.211-98-6.9727-11.188-22.031-12.328-35.012-9.3555-11.055 2.4609-21.699 6.6719-31.316 3.6133-4.4609-1.4258-8.0352-4.2969-10.875-7.8828l6.5312-6.5312 4.0586 4.0586c0.75391 0.75391 1.9766 0.76172 2.7383 0 0.76172-0.76172 0.76172-1.9844 0-2.7461l-4.0586-4.0586 14.027-14.027c0.76172-0.76172 0.76172-1.9844 0-2.7461-0.76172-0.76172-1.9844-0.76172-2.7461 0l-4.4922 4.4922c-0.046875-0.42578-0.16406-0.85938-0.49609-1.1875l-9.4883-9.4883 10.645-10.645 4.3828 4.3906c0.75391 0.75391 1.9766 0.76172 2.7383 0 0.76172-0.76172 0.76172-1.9844 0-2.7461l-4.3828-4.3906 2.7773-2.7773c0.76172-0.76172 0.76172-1.9844 0-2.7461-0.76172-0.76172-1.9844-0.76172-2.7383 0l-2.7773 2.7773-8.7344-8.7344 11.289-11.289 4.9102 4.9102-0.22656 0.22656c-0.76172 0.76172-0.76172 1.9844 0 2.7461 0.76172 0.75391 1.9844 0.76172 2.7461 0l0.22656-0.22656 1.5039 1.5117c0.75391 0.75391 1.9766 0.76172 2.7461 0 0.76172-0.76172 0.76172-1.9844 0-2.7461l-1.5117-1.5039 10.652-10.645 4.3672 4.3672c0.75391 0.75391 1.9766 0.76172 2.7461 0 0.76172-0.76172 0.76172-1.9844 0-2.7461l-4.3672-4.3672 5.9961-5.9961c0.76172-0.76172 0.76172-1.9844 0-2.7461-0.76172-0.76172-1.9844-0.76172-2.7461 0l-5.9961 5.9961-6.1836-6.1836 8.5273-8.5273c1.7695-0.44141 3.5391-0.80859 5.3281-1.125 0.085938 0.16406 0.070312 0.36328 0.21094 0.49609l15.625 15.625c0.75391 0.75391 1.9766 0.76172 2.7461 0 0.76172-0.76172 0.76172-1.9844 0-2.7383l-2.7773-2.7773 8.418-8.418 7.1367 7.1367-2.4531 2.4531c-0.76172 0.76172-0.76172 1.9844 0 2.7461 0.75391 0.75391 1.9766 0.76172 2.7461 0l2.4531-2.4531 2.1406 2.1406c0.75391 0.75391 1.9766 0.76172 2.7461 0 0.76172-0.76172 0.76172-1.9844 0-2.7461l-2.1406-2.1406 3.8164-3.8164c0.21875-0.21875 0.22656-0.50391 0.31641-0.77734 0.48828 0.23437 1.0234 0.37891 1.5039 0.62109 7.9062 13.801 29.16 16.539 41.363 5.9492 22.668-19.68 7.4102-64.016-34.793-62.75-17.051 0.58984-30.789 8.3711-43.434 18.309-7.5547 5.9805-16.152 12.809-24.453 7.7188l1.5273-1.5273c0.69922 0.25781 1.2031 0.48047 1.9922-0.30859 0.55078-0.55078 0.55859-1.3125 0.30859-2l5.5469-5.5469c0.67578-0.67578 0.65234-1.6836 0.125-2.4453 0.23438-0.09375 0.50391-0.09375 0.69141-0.28516 0.76172-0.76172 0.76172-1.9844 0-2.7383l-7.5938-7.5938 6.5625-6.5625 3.8711 3.8711-0.078125 0.078125c-0.76172 0.76172-0.76172 1.9844 0 2.7461 0.74609 0.74609 1.8633 0.88281 3.0273-0.28516 0.71484 0.27734 1.2422 0.51172 2.0391-0.28516 0.56641-0.56641 0.56641-1.3438 0.28516-2.0391l8.418-8.418 3.7227 3.7227c0.75391 0.75391 1.9766 0.76172 2.7461 0 0.76172-0.76172 0.76172-1.9844 0-2.7461l-3.7227-3.7227 2.7148-2.7148c0.76172-0.76172 0.76172-1.9844 0-2.7461-0.078125-0.078125-0.20312-0.054688-0.29297-0.125 4.25-0.34766 7.0039-0.49609 11.016-0.72266l3.4062 3.4062-7.3086 7.3086c-0.76172 0.76172-0.76172 1.9844 0 2.7461 0.75391 0.75391 1.9766 0.76172 2.7461 0l7.3086-7.3086 2.3047 2.3047c0.76953 0.76953 1.9922 0.75391 2.7461 0 0.76172-0.76172 0.76172-1.9844 0-2.7461l-2.3047-2.3047 3.1641-3.1641c0.37109-0.37109 0.55859-0.85938 0.55859-1.3516 3.8633-0.53516 7.6797-1.3516 11.348-2.6211l1.5586 1.5586-6.2773 6.2773c-0.76172 0.76172-0.76172 1.9844 0 2.7383 0.75391 0.75391 1.9766 0.76172 2.7461 0l6.2773-6.2773 3.7773 3.7773c0.76953 0.76953 1.9922 0.74609 2.7461 0 0.76172-0.76172 0.76172-1.9844 0-2.7461l-3.7773-3.7773 4.7773-4.7773c0.80859-0.80859 0.92969-2.2188-0.54297-2.9727 1.3945-1.1562 2.7148-2.4297 3.9023-3.8555l2.7148 2.7148-1.1094 1.1094c-0.76172 0.76172-0.76172 1.9844 0 2.7461 0.76953 0.76953 1.9922 0.74609 2.7461 0l1.1094-1.1094 0.90625 0.90625c0.76953 0.76953 1.9922 0.74609 2.7383 0 0.76172-0.76172 0.76172-1.9844 0-2.7461l-0.90625-0.90625 5.3984-5.3906c0.76172-0.76172 0.76172-1.9844 0-2.7383-0.76172-0.76172-1.9844-0.76172-2.7383 0l-5.3984 5.3906-3.1641-3.1641c4.1953-6.6797 5.7578-14.996 1.9609-22.387-1.4883-2.8867-5.918-2.8398-7.0977 0.44922-1.2344 3.4062-4.3359 6.2852-8.2773 7.6797-2.2344 0.79297-4.5312 0.97656-6.6797 0.69922l10.605-10.605c0.76172-0.76172 0.76172-1.9844 0-2.7461s-1.9844-0.76172-2.7461 0l-12.031 12.031c-4.0508-2.3047-6.1055-6.957-6.1289-11.723 0.37109 0.34766 0.83594 0.54297 1.3203 0.54297 0.48828 0 0.99219-0.1875 1.375-0.56641l0.90625-0.90625 6.0898 6.0898c0.76953 0.76953 1.9922 0.74609 2.7461 0 0.76172-0.76172 0.76172-1.9844 0-2.7461l-6.0898-6.0898 6.7656-6.7656 8.5703 8.5703c0.75391 0.75391 1.9766 0.76172 2.7461 0 0.76172-0.76172 0.76172-1.9844 0-2.7383l-8.5664-8.543 0.56641-0.56641c4.9336-0.11719 10.355 0.76172 15.762 1.9023l-5.7656 5.7656c-0.76172 0.76172-0.76172 1.9844 0 2.7383 0.75391 0.75391 1.9766 0.76172 2.7461 0l7.5156-7.5156c0.078125 0.015625 0.16406 0.039062 0.25 0.054687 0.64453 0.14062 1.2969 0.24219 1.9453 0.37891 0.085938 0.30859 0.125 0.64453 0.36328 0.88281l5.2422 5.2422-4.0117 4.0039c-0.76172 0.76172-0.76172 1.9844 0 2.7461 0.76953 0.76953 1.9922 0.74609 2.7461 0l4.0117-4.0039 2.832 2.8398c0.76953 0.76953 1.9922 0.74609 2.7461 0 0.76172-0.76172 0.76172-1.9844 0-2.7461l-2.832-2.832 3.6836-3.6836c4.9023 0.59766 9.8359 0.97656 14.77 1.1641l0.44922 0.44922-7.3086 7.3086c-0.76172 0.76172-0.76172 1.9844 0 2.7461 0.75391 0.75391 1.9766 0.76172 2.7461 0l7.3086-7.3086 6.9023 6.9023c0.75391 0.75391 1.9766 0.76172 2.7461 0 0.76172-0.76172 0.76172-1.9844 0-2.7461l-6.9023-6.9023 0.26562-0.26562c5.4609 0.023437 10.914-0.25781 16.336-0.73828l-6.6758 6.6562c-0.76172 0.76172-0.76172 1.9844 0 2.7383 0.75391 0.75391 1.9766 0.76172 2.7461 0l10.078-10.07c0.44141-0.054687 0.88281-0.11719 1.3281-0.17188l5.5703 5.5703-2.3516 2.3516c-0.76172 0.76172-0.76172 1.9844 0 2.7461 0.75391 0.75391 1.9766 0.76172 2.7461 0l2.3516-2.3516 2.4688 2.4688c0.75391 0.75391 1.9766 0.76172 2.7461 0 0.76172-0.76172 0.76172-1.9844 0-2.7383l-2.4805-2.4844 9.6055-9.6055c0.89062-0.25 1.707-0.53516 2.5664-0.80078 0.09375 0.20312 0.085938 0.44141 0.25781 0.61328l9.1055 9.1055c0.75391 0.75391 1.9766 0.76172 2.7461 0 0.71484-0.71484 0.69141-1.8086 0.070313-2.5664l10.953-10.953 3.1094 3.1094c0.75391 0.75391 1.9766 0.76172 2.7383 0 0.76172-0.76172 0.76172-1.9844 0-2.7461l-3.1094-3.1094 3.0039-3.0039c0.76172-0.76172 0.76172-1.9844 0-2.7461s-1.9844-0.76172-2.7461 0l-3.0117 3.0156-1.3594-1.3594c3.5234-2.707 6.5391-5.7109 8.9609-9.0938 0.23438-0.32422 0.41016-0.70703 0.63672-1.0391l0.59766 0.59766-0.69922 0.69922c-0.76172 0.76172-0.76172 1.9844 0 2.7461 0.76953 0.76953 1.9922 0.74609 2.7461 0l0.69922-0.69922 5.2578 5.2578c0.75391 0.75391 1.9766 0.76172 2.7461 0 0.76172-0.76172 0.76172-1.9844 0-2.7461l-5.2578-5.2578 5.3203-5.3203 3.6602 3.6602-1.5234 1.5234c-0.76172 0.76172-0.76172 1.9844 0 2.7383 0.75391 0.75391 1.9766 0.76172 2.7461 0l1.5195-1.5195 1.1406 1.1484c0.76953 0.76953 1.9922 0.74609 2.7461 0 0.76172-0.76172 0.76172-1.9844 0-2.7383l-1.1406-1.1484 0.62891-0.62891c0.24219 0.085938 0.48047 0.17188 0.72266 0.26563 8.7891 3.3047 17.664 6.9883 28.75 13.008 46.883 25.516 83.289 68.359 102.19 117.97zm-202.77 164.34-9.1836-9.1836 13.535-13.535c-0.37891 0.73047-0.39453 1.6055 0.21875 2.2188l3.0352 3.0352-5.1055 5.1055c-0.76172 0.76172-0.76172 1.9844 0 2.7461 0.75391 0.75391 1.9766 0.76172 2.7461 0l5.1055-5.1055 2.0859 2.0859c-3.8086 3.2656-7.6016 6.6328-10.773 10.402-0.61719 0.70312-1.1055 1.4883-1.6641 2.2305zm15.367-15.195-2.2812-2.2734 7.875-7.875 1.7539 1.7539c0.37891 0.37891 0.86719 0.56641 1.375 0.56641 0.023438 0 0.046875-0.03125 0.078125-0.03125-2.6875 2.6523-5.6992 5.2383-8.8008 7.8594zm10.648-9.7812c0-0.48828-0.1875-0.98438-0.55859-1.3594l-1.7539-1.7539 0.48828-0.48828c0.76172-0.76172 0.76172-1.9844 0-2.7461-0.76172-0.76172-1.9844-0.76172-2.7461 0l-0.48828 0.48828-5.2812-5.2812 7.6172-7.6094 5.3125 5.3125c0.75391 0.75391 1.9766 0.76172 2.7461 0 0.76172-0.76172 0.76172-1.9844 0-2.7461l-5.3125-5.3125 4.5781-4.5781c5.6484 9.5508 2.8555 18.012-4.6016 26.074zm-69.941 120.67-8.6484 8.6562-6.8438-6.8438 8.6484-8.6484zm-4.1016-9.5898 8.9062-8.9062 6.8438 6.8438-8.9062 8.9062zm-7.293 20.984-0.69922 0.69922c-0.76172 0.76172-0.76172 1.9844 0 2.7461 0.75391 0.75391 1.9766 0.76172 2.7461 0l0.69922-0.69922 3.6367 3.6367c-8.4727 1.7617-15.035-0.44141-20.629-5.8164l7.4023-7.4023zm-104.57-248.49 2.3594 2.3594-1.4961 1.4961c-0.76172 0.76172-0.76172 1.9844 0 2.7461 0.75391 0.75391 1.9766 0.76172 2.7383 0l1.4961-1.4961 6.1836 6.1836-10.652 10.645-4.9414-4.9414c0.66797-0.76172 0.67578-1.9023-0.046875-2.6289-0.73047-0.73047-1.8633-0.71484-2.6289-0.046876l-5.5625-5.5625c4.1055-3.6602 6.332-5.4648 12.551-8.7539zm3.7266-1.7617c1.5742-0.72266 3.1562-1.4336 4.7852-2.0391l-3.4141 3.4141zm-19.102 13.172 5.6094 5.6094-11.289 11.289-4.2344-4.2344c2.7695-4.6133 6.1289-8.8477 9.9141-12.664zm-11.789 16.258 3.3828 3.3828-8.168 8.168c1.2305-3.9922 2.8516-7.8398 4.7852-11.551zm-5.6719 35.391-2.0859-2.0859c-0.14844-4.4688 0.20312-8.9219 0.96094-13.32l8.2695 8.2695zm9.8828-4.3984 9.4883 9.4883c0.32422 0.32422 0.76172 0.44922 1.1875 0.49609l-7.4844 7.4922-10.324-10.324zm-8.7344-14.227 10.645-10.645 8.7344 8.7344-10.645 10.645zm-1.7852 23.941c0.125 0 0.21094-0.11719 0.33203-0.14062l10.637 10.637-6.0508 6.0508c-3.0703-5.0508-4.9336-11-5.7578-16.445-0.023437-0.15625-0.015625-0.30859-0.039062-0.46484 0.28125 0.16016 0.55469 0.36328 0.87891 0.36328zm76.543-76.312 0.10156 0.10156-8.418 8.418-8.5352-8.5352c5.6523-0.65234 11.305-0.62109 16.852 0.015625zm6.5312 1.0469c3.2812 0.70703 6.4453 1.6758 9.5039 2.8711l-3.3203 3.3203zm-26.723-65.895 3.9727 3.9727-8.2148 8.207-3.8711-3.8711 5.0117-5.0117c0.68359-0.68359 0.66016-1.7227 0.10938-2.4844 1.0078-0.25391 1.9766-0.59375 2.9922-0.8125zm4.707-0.77344c1.5273-0.22656 3.0547-0.43359 4.6094-0.58984l-2.5977 2.5977zm-15.559 6.3516-1.3047-1.3047c1.5898-0.83594 3.1797-1.5508 4.7383-2.1328zm-4.7422 0.74609 2 2-6.5625 6.5625-2.375-2.375c1.9961-2.4102 4.3711-4.4805 6.9375-6.1875zm-9.1992 9.4023 1.8945 1.8945-3.1797 3.1719c-0.76172 0.76172-0.76172 1.9844 0 2.7461 0.75391 0.75391 1.9766 0.76172 2.7461 0l3.1797-3.1719 7.3477 7.3477c-0.1875 0.09375-0.41016 0.078125-0.56641 0.23438l-5.3281 5.3281-8.8984-8.8984c0.054688-0.95312 0.10938-1.9102 0.32422-2.8242 0.51562-2.1055 1.4102-4.0195 2.4805-5.8281zm3.3438 20.293-1.5117 1.5117c-1.5742-1.7227-2.7148-3.2734-3.8164-6.8438zm49.5-38.672c0.72266-0.054687 1.4414-0.11719 2.1719-0.17969l-1.1719 1.1719zm22.715-4.9805c0.49609-0.23438 0.99219-0.44141 1.4805-0.69922l-1.0938 1.0938zm-16.352-42.293 0.36328 0.36328-0.53516 0.53516c0.0625-0.29297 0.085938-0.61328 0.17188-0.89844zm1.8281-3.6523c0.25781-0.34766 0.46484-0.74609 0.76172-1.0547 1.9297-2.0703 4.3203-3.3672 6.9961-4.1406l-6.4766 6.4766zm42.699-1.5469c1.2656 0.21875 2.5273 0.40234 3.8008 0.58984l-1.6055 1.6055zm95.348-12.246c0.078125 0.11719 0.054687 0.27344 0.15625 0.37109l1.5195 1.5195-10.906 10.898-5.5859-5.5859c5.6719-2 10.574-4.4102 14.816-7.2031zm-37.105 12.621c2.8711-0.46484 5.7266-0.98438 8.5625-1.5898l-5.082 5.082zm57.262-31.273-4.1562 4.1562-1.3125-1.3125c0.625-1.2656 1.1992-2.5859 1.6719-3.9844 1.2734 0.36719 2.5312 0.75391 3.7969 1.1406zm-263.88 60.984c48.996-68.445 172.79-84.246 252.45-64.148-5.5156 15.035-23.258 21.906-38.844 25.25-23.383 5.0039-48.152 4.8945-72.035-0.40234-13.52-3.0195-30.387-6.7812-40.82 4.4219-13.133 14.051-0.35547 41.695 22.172 33.684 2.6211-0.92969 4.9883-2.2734 6.9805-3.9336-4.4453 26.328-45.816 16.352-69.711 24.691-13.258 4.625-22.824 14.043-25.594 25.195-3.1328 13.047 5.5 28.656 19.168 29.758 9.8281 0.88281 17.859-5.4609 24.902-11.031 11.566-9.1133 23.793-16.113 38.867-16.641 34.352-1.2344 46.871 34.016 29.457 49.145-8.6562 7.5234-24.863 5.5234-29.938-4.6992-0.36328-0.72266-0.92969-1.3125-1.6445-1.6914-50.641-27.238-120.74 14.691-110.85 77.887 1.9844 13.211 9.3867 29.012 24.203 33.754 12.016 3.8164 24.062-0.92188 35.383-3.4375 9.7344-2.25 21.867-1.8711 26.703 5.8711 17.648 28.625 20.773 60.703 24.078 94.664 2.2969 23.234 4.082 50.473 25.043 60.098 17.812 8.1914 38.773-3.793 47.98-19.602 8.8828-15.359 10.039-33.297 11.652-51.066 1.4258-15.555 3.832-33.211 14.422-45.77 11.598-13.793 34.125-23.73 33.762-44.344-0.20312-13.398-10.906-23.242-19.867-29.152-9.3477-6.0742-19.301-10.566-25.973-18.285-5.0352-5.8477-7.418-15.195-4.1641-21.418 13.172 12.352 28.688 22.418 45.102 29.238 7.75 3.2734 17.898 6.625 27.879 3.4688 10.48-3.4609 17.805-16.059 12.426-25.77-7.4258-13.59-26.176-8.0898-34.801-14.066-2.9414-2.125-4.1055-6.6641-2.8633-8.6484 43.754 1.9766 85.34 33.992 99.344 76.699 1.0391 5.918 2.6445 11.754 4.0898 16.902 1.3125 4.6797 8.2539 3.1719 7.5703-1.582-1.9023-13.551-7.4609-22.211-4.2266-36.461 2.3438-10.504 11.746-20.867 22.465-19.602 6.5312 0.76953 11.977 5.3281 17.742 10.172 7.7578 6.5234 15.664 12.383 29.664 16.312-1.9258 17.734-5.9258 35.125-11.832 51.789-0.007812-0.007813-0.007812-0.023438-0.015625-0.03125l-7.4922-7.5 6.75-6.75c0.76172-0.76172 0.76172-1.9844 0-2.7461-0.76172-0.76172-1.9844-0.76172-2.7461 0l-6.75 6.75-5.0195-5.0195c-0.76172-0.76172-1.9844-0.76172-2.7461 0-0.76172 0.76172-0.76172 1.9844 0 2.7461l5.0195 5.0195-0.22656 0.22656c-0.76172 0.76172-0.76172 1.9844 0 2.7383 0.37891 0.37891 0.86719 0.56641 1.375 0.56641 0.49609 0 0.99219-0.1875 1.375-0.56641l0.22656-0.22656 5.0117 5.0117c-0.76172-0.75391-1.9766-0.75391-2.7383 0l-7.4609 7.4609-3.8242-3.8164c-0.76172-0.76953-1.9844-0.75391-2.7461 0-0.76172 0.76172-0.76172 1.9844 0 2.7461l3.8242 3.8164-3.8242 3.8242c-0.76172 0.76172-0.76172 1.9844 0 2.7461 0.37891 0.37891 0.86719 0.56641 1.375 0.56641 0.49609 0 0.99219-0.1875 1.375-0.56641l3.8242-3.8242 2.2266 2.2188c0.37891 0.37891 0.875 0.56641 1.375 0.56641 0.49609 0 0.99219-0.1875 1.375-0.56641 0.76172-0.76172 0.76172-1.9844 0-2.7383l-2.2266-2.2266 7.4609-7.4609c0.75391-0.75391 0.75391-1.9766 0-2.7383l2.4766 2.4766c0.37891 0.37891 0.86719 0.56641 1.375 0.56641 0.078124 0 0.14062-0.078125 0.21875-0.085938-6.9727 18.797-16.328 36.594-27.812 52.789-0.09375-0.1875-0.078126-0.40234-0.23438-0.55859l-7.0508-7.0508 9.4102-9.4102c0.76172-0.76172 0.76172-1.9844 0-2.7461-0.76172-0.76172-1.9844-0.76172-2.7461 0l-9.4102 9.4102-4.0508-4.0508 13.227-13.227 6.2383 6.2383c0.37891 0.37891 0.86719 0.56641 1.375 0.56641 0.49609 0 0.99219-0.1875 1.375-0.56641 0.76172-0.76172 0.76172-1.9844 0-2.7461l-6.3086-6.3086c0.56641-0.76172 0.58984-1.8086-0.10156-2.4961-0.69141-0.69141-1.7461-0.66797-2.4961-0.10156l-5.4922-5.4922c-0.43359-0.43359-1.0078-0.55078-1.5742-0.48047-0.75391-0.51172-1.7461-0.53516-2.4219 0.13281l-34.117 34.117-1.0234-1.0234c-0.76172-0.76172-1.9844-0.76172-2.7461 0s-0.76172 1.9844 0 2.7461l1.0234 1.0234-8.2148 8.2148c-0.76172 0.76172-0.76172 1.9844 0 2.7461 0.37891 0.37891 0.86719 0.56641 1.375 0.56641 0.49609 0 0.99219-0.1875 1.375-0.56641l8.2148-8.2148 11.637 11.637-12.754 12.754-4.8477-4.8477 0.19531-0.20312c0.76172-0.76172 0.76172-1.9844 0-2.7461-0.76172-0.76172-1.9844-0.76172-2.7383 0l-0.19531 0.19531-9.9531-9.9531c-0.76172-0.76172-1.9844-0.76172-2.7461 0-0.76172 0.76172-0.76172 1.9844 0 2.7461l9.9531 9.9531-12.504 12.504-9.8047-9.8125c-0.75391-0.75391-1.9766-0.76172-2.7461 0-0.76172 0.76172-0.76172 1.9844 0 2.7461l9.8047 9.8125-6.043 6.043-10.605-10.613c-0.76172-0.76172-1.9844-0.76172-2.7461 0-0.76172 0.76172-0.76172 1.9844 0 2.7461l10.605 10.613-17.223 17.23-12.832-12.832 13.926-13.926c0.76172-0.76172 0.76172-1.9844 0-2.7461s-1.9844-0.76172-2.7461 0l-14.004 14.004c-0.76172-0.56641-1.8086-0.58984-2.4961 0.10156-0.69141 0.69141-0.66797 1.7383-0.10156 2.4961l-19.688 19.688-7.8125-7.8125c-0.24219-0.25-0.57422-0.27734-0.88281-0.36328l11.434-11.434c0.76172-0.76172 0.76172-1.9844 0-2.7383-0.76172-0.76172-1.9844-0.76172-2.7461 0l-27.152 27.152-3.0273-3.0273c-0.76172-0.76172-1.9844-0.76172-2.7383 0-0.76172 0.76172-0.76172 1.9844 0 2.7461l3.0273 3.0273-12.031 12.031-9.6445-9.6367 12.504-12.504c0.76172-0.76172 0.76172-1.9844 0-2.7383-0.76172-0.76172-1.9844-0.76172-2.7461 0l-26.879 26.879-6.2148-6.2148c-0.76172-0.76172-1.9844-0.76172-2.7461 0-0.76172 0.76172-0.76172 1.9844 0 2.7461l6.2148 6.2148-7.8125 7.8125c-0.76172 0.76172-0.76172 1.9844 0 2.7461 0.37891 0.37891 0.86719 0.56641 1.375 0.56641 0.49609 0 0.99219-0.1875 1.375-0.56641l7.8125-7.8125 5.7734 5.7734c0.37891 0.37891 0.86719 0.56641 1.375 0.56641 0.50391 0 0.99219-0.1875 1.375-0.56641 0.76172-0.76172 0.76172-1.9844 0-2.7383l-5.7734-5.7734 11.637-11.637 9.6445 9.6367-3.4219 3.4219c-0.76172 0.76172-0.76172 1.9844 0 2.7461 0.37891 0.37891 0.86719 0.56641 1.375 0.56641 0.49609 0 0.99219-0.19531 1.375-0.56641l3.4219-3.4219 1.8242 1.8242c0.37891 0.37891 0.86719 0.56641 1.375 0.56641 0.49609 0 0.99219-0.1875 1.375-0.56641 0.76172-0.76172 0.76172-1.9844 0-2.7461l-1.8242-1.8242 12.031-12.031 11.875 11.875c0.37891 0.37891 0.86719 0.56641 1.375 0.56641 0.49609 0 0.99219-0.1875 1.375-0.56641 0.76172-0.76172 0.76172-1.9844 0-2.7461l-0.69922-0.69922 13.234-13.234 7.8828 7.8828c0.37891 0.37891 0.86719 0.56641 1.375 0.56641 0.50391 0 0.99219-0.1875 1.375-0.56641 0.76172-0.76172 0.76172-1.9844 0-2.7461l-7.8828-7.8828 19.617-19.617 12.832 12.832-16.199 16.199c-0.76172 0.76172-0.76172 1.9844 0 2.7461 0.37891 0.37891 0.86719 0.56641 1.375 0.56641 0.49609 0 0.99219-0.1875 1.375-0.56641l16.199-16.199 3.8242 3.8242c0.37891 0.37891 0.86719 0.56641 1.375 0.56641 0.49609 0 0.99219-0.19531 1.375-0.56641 0.76172-0.76172 0.76172-1.9844 0-2.7461l-3.8242-3.8242 17.23-17.23 10.613 10.621c0.37891 0.37891 0.86719 0.56641 1.375 0.56641 0.48828 0 0.99219-0.1875 1.375-0.56641 0.76172-0.76172 0.76172-1.9844 0-2.7383l-3.0273-3.0273 6.043-6.043 7.1289 7.1367c-27.879 19.48-61.434 34.219-98.59 42.938-27.609 6.5312-54.914 9.1992-81.129 8.293l1.668-1.668 0.29297 0.29297c0.37891 0.37891 0.86719 0.56641 1.375 0.56641 0.49609 0 0.99219-0.1875 1.375-0.56641 0.76172-0.76172 0.76172-1.9844 0-2.7461l-0.29297-0.29297 21.34-21.34c0.76172-0.76172 0.76172-1.9844 0-2.7461-0.76172-0.76172-1.9844-0.76172-2.7461 0l-21.34 21.34-7.8125-7.8125c-0.43359-0.43359-0.99219-0.55078-1.5586-0.48828l3.5156-3.5156c0.76172-0.76172 0.76172-1.9844 0-2.7461-0.76172-0.76172-1.9844-0.76172-2.7461 0l-15.359 15.359-4.625-4.6172c-0.76172-0.76172-1.9844-0.76172-2.7383 0-0.76172 0.76172-0.76172 1.9844 0 2.7461l4.6172 4.6172-1.4414 1.4414c-68.715-9.3555-121.67-46.164-149.51-91.617-19.121-31.262-29.316-71.02-29.496-114.98-0.30078-63.105 20.094-126.56 57.379-178.68zm221.95 359.08 13.492-13.492c0.085937 0.30859 0.125 0.64453 0.36328 0.88281l7.8125 7.8125-13.234 13.234z"/>
  <path d="m362.77 136.1-9.1367-9.1367 6.5-6.5 2.2656 2.2656c0.75391 0.75391 1.9766 0.76172 2.7461 0 0.76172-0.76172 0.76172-1.9844 0-2.7461l-2.2656-2.2578 0.78516-0.78516c0.76172-0.76172 0.76172-1.9844 0-2.7383-0.76172-0.76172-1.9844-0.76172-2.7461 0l-0.78516 0.78516-10.789-10.789 2.2891-2.2891c0.76172-0.76172 0.76172-1.9844 0-2.7461-0.76172-0.76172-1.9844-0.76172-2.7461 0l-2.2891 2.2891-6.8828-6.8828c-0.76172-0.76172-1.9844-0.76172-2.7461 0-0.76172 0.76172-0.76172 1.9844 0 2.7461l6.8828 6.8828-17.059 17.059-2.918-2.918c-0.76172-0.76172-1.9844-0.76172-2.7461 0-0.76172 0.76172-0.76172 1.9844 0 2.7461l2.918 2.918-8.8125 8.8047-10.512-10.512c-0.76172-0.76172-1.9844-0.76172-2.7383 0-0.76172 0.76172-0.76172 1.9844 0 2.7461l10.512 10.512-4.8477 4.8477-7.5391-7.5391c-0.76172-0.76172-1.9844-0.76172-2.7383 0-0.76172 0.76172-0.76172 1.9844 0 2.7461l7.5391 7.5391-6.2227 6.2227c-0.76172 0.76172-0.76172 1.9844 0 2.7461 0.75391 0.75391 1.9766 0.76172 2.7461 0l6.2227-6.2227 12.895 12.895c0.75391 0.75391 1.9766 0.76172 2.7461 0 0.76172-0.76172 0.76172-1.9844 0-2.7461l-12.895-12.895 4.8477-4.8477 22.348 22.348c0.75391 0.75391 1.9766 0.76172 2.7461 0 0.76172-0.76172 0.76172-1.9844 0-2.7461l-9.207-9.1992c0.48047-0.015625 0.96094-0.1875 1.3281-0.55078l7.8672-7.875 10.504 10.504v0.007812h0.007812l2.8086 2.8008c0.75391 0.75391 1.9766 0.76172 2.7461 0 0.76172-0.76172 0.76172-1.9844 0-2.7461l-1.4336-1.4336 7.8203-7.8203 7.8906 7.8984c0.75391 0.75391 1.9766 0.76172 2.7461 0 0.76172-0.76172 0.76172-1.9844 0-2.7461l-7.8984-7.8984 6.9102-6.9102c0.76172-0.76172 0.76172-1.9844 0-2.7461-0.76172-0.76172-1.9844-0.76172-2.7461 0zm-5.3828-18.383-6.5 6.5-10.789-10.789 6.5-6.5zm-20.027-1.5469 10.789 10.789-7.8203 7.8203-10.789-10.789zm-7.6367 29.223c-0.36328 0.36328-0.53516 0.84375-0.55078 1.3281l-11.188-11.18 8.8125-8.8047 10.789 10.789zm22.492 1.2656-9.1367-9.1367 7.8203-7.8203 9.1367 9.1367z"/>
  <path d="m233.27 247.09-9.8438 9.8438-4.9336-4.9336 9.9219-9.9219c0.76172-0.76172 0.76172-1.9844 0-2.7461-0.76172-0.76172-1.9844-0.76172-2.7461 0l-9.9219 9.9219-3.6523-3.6523 7.7578-7.7578c0.76172-0.76172 0.76172-1.9844 0-2.7461-0.76172-0.76172-1.9844-0.76172-2.7461 0l-7.7578 7.7578-5.0273-5.0273c-0.76172-0.76172-1.9844-0.76172-2.7461 0s-0.76172 1.9844 0 2.7461l5.0273 5.0273-4.6172 4.6172-4.0664-4.0664c-0.76172-0.76172-1.9844-0.76172-2.7461 0s-0.76172 1.9844 0 2.7461l4.0664 4.0664-9.0938 9.0938-12.062-12.062c-0.76172-0.76172-1.9844-0.76172-2.7461 0-0.76172 0.76172-0.76172 1.9844 0 2.7461l12.062 12.07-8.2227 8.2227c-0.76172 0.76172-0.76172 1.9844 0 2.7461 0.75391 0.75391 1.9766 0.76172 2.7461 0l8.2227-8.2227 18.969 18.969c0.75391 0.75391 1.9766 0.76172 2.7461 0 0.76172-0.76172 0.76172-1.9844 0-2.7461l-18.969-18.969 9.0938-9.0938 3.6523 3.6523-5.3438 5.3438c-0.76172 0.76172-0.76172 1.9844 0 2.7461 0.75391 0.75391 1.9766 0.76172 2.7461 0l5.3438-5.3438 4.9336 4.9336-5.9883 5.9883c-0.76172 0.76172-0.76172 1.9844 0 2.7461 0.75391 0.75391 1.9766 0.76172 2.7461 0l5.9883-5.9883 6.6328 6.6328c0.75391 0.75391 1.9766 0.76172 2.7383 0 0.76172-0.76172 0.76172-1.9844 0-2.7383l-6.6328-6.6328 4.6172-4.6172 7.0117 7.0117c0.75391 0.75391 1.9766 0.76172 2.7461 0 0.76172-0.76172 0.76172-1.9844 0-2.7461l-7.0117-7.0117 9.8438-9.8438c0.76172-0.76172 0.76172-1.9844 0-2.7383-0.75-0.78125-1.9766-0.78125-2.7383-0.023438zm-28.539 5.8672 4.6172-4.6172 3.6523 3.6523-4.6172 4.6172zm11.332 11.332-4.9336-4.9336 4.6172-4.6172 4.9336 4.9336z"/>
 </g>
</svg>
