<?xml version="1.0" encoding="UTF-8"?>
<svg width="1200pt" height="1200pt" version="1.1" viewBox="0 0 1200 1200" xmlns="http://www.w3.org/2000/svg">
 <g fill="none" stroke="#000" stroke-miterlimit="10" stroke-width=".35">
  <path transform="scale(12)" d="m52.4 95.7-1.6999-3.9001-3.25e-4 -19.5-1-1.4001v-0.80013l-0.30013-43s0.90006-1.4001 0.90006-1.6999c0-0.30013 0.80013-20.9 0.80013-20.9l0.59994 0.59994 0.30013 20.4 0.59994 1.0999 0.19987 43.6-0.7998 1.7002-0.80013 19.8z"/>
  <path transform="scale(12)" d="m50.1 70.2 2.2002-0.69987"/>
  <path transform="scale(12)" d="m50.1 69.5 2.2002-0.69987"/>
  <path transform="scale(12)" d="m50.1 68.7 2.2002-0.69987"/>
  <path transform="scale(12)" d="m50.1 67.9 2.2002-0.7002"/>
  <path transform="scale(12)" d="m50.1 66.9 2.2002-0.7002"/>
  <path transform="scale(12)" d="m49.9 32 2.1999-0.69987"/>
  <path transform="scale(12)" d="m49.9 31.1 2.1999-0.69987"/>
  <path transform="scale(12)" d="m49.9 30.2 2.1999-0.69987"/>
  <path transform="scale(12)" d="m49.9 29.4 2.1999-0.7002"/>
  <path transform="scale(12)" d="m49.9 28.5 2.1999-0.69987"/>
 </g>
</svg>
