<?xml version="1.0" encoding="UTF-8"?>
<svg width="512pt" height="512pt" version="1.1" viewBox="0 0 512 512" xmlns="http://www.w3.org/2000/svg">
 <path d="m432.11 245.33c-5.8906 0-10.664 4.7773-10.664 10.668v49.922l-60.59-60.59c-4.0586-4.0859-9.5977-6.3555-15.359-6.293-5.5742 0.082032-10.895 2.3398-14.824 6.293l-48.215 51.309-89.492-97.707c-3.9219-4.3047-9.4336-6.8203-15.254-6.9609-5.8203-0.14062-11.449 2.1055-15.574 6.2148l-103.36 103.68v-216.54c0-5.8906 4.7773-10.664 10.668-10.664h351.36c5.8906 0 10.664-4.7773 10.664-10.668s-4.7734-10.668-10.664-10.668h-351.36c-8.4883 0-16.629 3.3711-22.629 9.375-6 6-9.3711 14.141-9.3711 22.625v341.34c0 8.4844 3.3711 16.625 9.3711 22.625 6 6.0039 14.141 9.375 22.629 9.375h341.33c8.4883 0 16.625-3.3711 22.629-9.375 6-6 9.3711-14.141 9.3711-22.625v-170.67c0-2.8281-1.125-5.543-3.125-7.543s-4.7109-3.125-7.543-3.125zm-21.332 192h-341.33c-5.8906 0-10.668-4.7734-10.668-10.664v-94.723s117.65-118.61 118.08-118.61l132.48 144.96c1.8516 2.2969 4.5703 3.7227 7.5078 3.9414 2.9414 0.22266 5.8398-0.78516 8.0117-2.7773 2.1719-1.9961 3.4219-4.8008 3.4531-7.7461 0.03125-2.9492-1.1602-5.7773-3.293-7.8164l-28.586-31.254 49.387-52.48 73.707 73.602c0.59766 0.48438 1.2422 0.91406 1.9219 1.2773v91.629c0 2.8281-1.125 5.5391-3.125 7.543-2 2-4.7148 3.1211-7.543 3.1211zm21.332-213.33c-5.8906 0-10.664-4.7773-10.664-10.668s4.7734-10.664 10.664-10.664 10.668 4.7734 10.668 10.664-4.7773 10.668-10.668 10.668zm10.668-46.078c1 5.8906-2.9609 11.477-8.8516 12.477-5.8945 1.0039-11.48-2.9609-12.48-8.8516v-12.801c0-5.8906 4.7734-10.668 10.664-10.668 5.6602 0 11.086-2.2461 15.086-6.2461s6.25-9.4258 6.25-15.086c0-5.6562-2.25-11.082-6.25-15.086-4-4-9.4258-6.2461-15.086-6.2461-5.6562 0-11.082 2.2461-15.082 6.2461-4.0039 4.0039-6.25 9.4297-6.25 15.086 0 5.8906-4.7773 10.668-10.668 10.668s-10.664-4.7773-10.664-10.668c-0.089844-10.715 3.8555-21.07 11.055-29.008 7.1953-7.9375 17.113-12.879 27.785-13.84 10.672-0.95703 21.312 2.1328 29.812 8.6562 8.4961 6.5273 14.23 16.012 16.055 26.57 1.8242 10.559-0.38672 21.418-6.2031 30.418-5.8125 9-14.797 15.484-25.172 18.164z" fill="#fff"/>
</svg>
