<?xml version="1.0" encoding="UTF-8"?>
<svg width="512pt" height="512pt" version="1.1" viewBox="0 0 512 512" xmlns="http://www.w3.org/2000/svg">
 <path d="m241.37 171.37c-38.648 0-70.012 31.363-70.012 70.012 0 38.645 31.363 70.016 70.012 70.016 18.742 0 35.738-7.4336 48.309-19.441l48.676 48.688 2.2773-2.2812-48.68-48.68c12.008-12.57 19.434-29.559 19.434-48.301 0-38.648-31.367-70.012-70.016-70.012zm0 3.2227c36.906 0 66.793 29.883 66.793 66.789 0 36.902-29.887 66.789-66.793 66.789s-66.785-29.887-66.785-66.789c0-36.906 29.879-66.789 66.785-66.789zm-32.426 31.848-2.2812 2.2812 32.547 32.547-32.547 32.539 2.2812 2.2773 32.547-32.539 32.539 32.539 2.2773-2.2773-32.539-32.539 32.539-32.547-2.2773-2.2812-32.539 32.547z"/>
</svg>
