<?xml version="1.0" encoding="UTF-8"?>
<svg width="512pt" height="512pt" version="1.1" viewBox="0 0 512 512" xmlns="http://www.w3.org/2000/svg">
 <path d="m396.61 197.98c1.1367 0.35156 1.6484 1.9492 0.92578 2.8945-25.426 35.875-50.711 62.777-75.52 80.531l4.9805 15.043c4.082 1.9805 10.086 4.4609 15.059 6.9414 2.6172 1.3086 4.9023 2.5352 6.6016 3.9336 0.85156 0.69922 1.5898 1.5156 2.0859 2.4297 0.49219 0.91406 0.70703 2.1562 0.23047 3.2383-0.3125 0.64062-1.0234 1.0664-1.7383 1.043-14.578-0.13281-24.547-0.21484-32.434-0.34766-1.9844-0.035156-3.3125-1.4141-4.5156-3.0078-1.2031-1.5977-2.4023-3.6719-3.5898-6.1328-1.6016-3.3203-3.293-7.3789-5.0977-11.57-32.969 17.754-65.539 19.145-96.949 3.9336-31.848-15.422-62.461-47.566-92.316-96.152-0.63281-1.0898 0.24609-2.7109 1.5078-2.7773 0.62891-0.027344 1.2656 0.28906 1.6211 0.80859 5.9805 9.7305 12.031 18.816 18.07 27.191 5.9727 3.3125 12.105 6.8164 17.375 9.4883 0.49609-8.5703 3.2852-14.879 7.6445-18.629 3.3047-2.8438 7.4453-4.0977 11.699-4.0508 1.9336 0.023437 3.8477 0.23047 5.793 0.80859 12.352 3.6953 24.164 18.199 24.324 40.613 14.742 3.793 29.41 6.1016 44.129 6.5938 0.19531-0.30469 0.48047-0.54688 0.8125-0.69531 7.2539-3.6875 21.172-10.559 34.285-14.465 5.7383-1.707 11.309-2.875 16.215-2.8945 0.69922-0.003906 1.4141-0.046875 2.0859 0 5.3789 0.36719 10.035 2.6523 11.93 7.5195 0.25391 0.71094 0.46484 1.3945 0.69531 2.082 21.48-5.9922 41.621-15.051 62.43-27.887 6.4805-8 13.051-16.598 19.574-25.801 0.35938-0.44531 0.93359-0.71094 1.5078-0.69531 0.19141-0.027344 0.38672-0.027344 0.57812 0zm-223.43 18.512c-3.7891-0.28906-7.3516 0.79688-10.191 3.2383-3.6562 3.1445-6.3086 8.7656-6.4883 17.473 14.078 6.8594 28.09 12.223 42.047 16.082-0.47266-20.562-11.293-33.035-21.543-36.102-1.3086-0.39062-2.5586-0.59766-3.8242-0.69531zm194.82 16.316c-17.906 10.227-35.637 17.91-54.324 23.141l7.1797 21.867c15.523-11.246 31.191-26.32 47.141-45.008zm-227.14 0.46094c22.148 29.172 44.625 49.246 67.41 60.281 30.531 14.785 61.582 13.523 93.82-3.9336-0.39844-0.90625-0.74609-1.75-1.1602-2.6602-2.875-6.3359-6.0664-12.609-9.6133-17.125-3.4102-4.3438-6.9805-6.9648-10.773-7.0586-54.543 7.6211-101.34-8.7266-139.69-29.504zm158.8 13.191c-4.5898-0.3125-10.695 0.77734-17.027 2.6602-10.277 3.0586-21.082 8.0547-28.727 11.801 8.4727-0.03125 16.984-0.62891 25.48-1.7344 6.9961-0.94531 12.004 4.8008 14.824 8.332 3.8945 4.9609 7.1562 11.379 10.078 17.82s5.4844 12.871 7.7617 17.586c1.1367 2.3594 2.1992 4.3242 3.1289 5.5547 0.92969 1.2305 1.6055 1.5039 1.6211 1.5039 7.2812 0.12109 16.801 0.22656 29.652 0.34766-0.050781-0.046876-0.058593-0.070313-0.11328-0.11719-1.2695-1.043-3.4023-2.3359-5.9062-3.5859-5.0117-2.5039-11.414-5.0078-15.754-7.1719-0.42578-0.21094-0.76562-0.59375-0.92578-1.043l-15.406-46.746c-1.3242-3.3867-4.1016-4.8945-8.6875-5.207z" fill-rule="evenodd"/>
</svg>
