<?xml version="1.0" encoding="UTF-8"?>
<svg width="1200pt" height="1200pt" version="1.1" viewBox="0 0 1200 1200" xmlns="http://www.w3.org/2000/svg">
 <path d="m1092.4 1060.7-0.51562-1.125c-21.094-44.062-60.938-67.336-101.32-59.203l-15.328 3.0469c-10.312 1.9453-20.961-0.72656-29.133-7.3125-13.148-10.125-21.75-28.125-22.992-48.258l-1.3594-21.562c-1.4531-23.297-16.031-35.93-29.859-38.156-14.953-2.3438-28.922 6.6797-35.461 23.109l-6.5156 16.406c-6.7266 16.898-19.172 27.469-33.258 28.289-13.336 0.65625-25.641-7.2891-33.656-22.148l-29.016-53.906c-0.75781-1.3711-1.8555-2.5273-3.1875-3.3516 40.93-28.238 76.453-63.598 104.88-104.39 0.47656-0.50391 0.89453-1.0625 1.2422-1.6641 0-0.11719 0.11719-0.28125 0.1875-0.39844 15.156-22.043 28.125-45.512 38.719-70.078 0.44531-0.72656 0.77734-1.5156 0.98438-2.3438 21.469-50.633 32.5-105.08 32.438-160.08 0-178.59-114.45-330.96-273.84-387.66-0.52344-0.23438-1.0625-0.42188-1.6172-0.5625-43.684-15.32-89.645-23.125-135.94-23.086-226.8 0-411.33 184.52-411.33 411.3 0 17.562 1.1211 35.105 3.3516 52.523-0.17969 1.4961 0.03125 3.0156 0.60938 4.4062 9.7109 69.688 37.223 135.69 79.875 191.65 0.5625 1.1406 1.3633 2.1445 2.3438 2.9531 16.43 21.215 34.883 40.785 55.102 58.43 0.66016 0.82812 1.4531 1.5391 2.3438 2.1094 19.945 17.129 41.469 32.32 64.289 45.375 0.21094 0.14063 0.375 0.32813 0.58594 0.46875 0.68359 0.45703 1.4219 0.82031 2.2031 1.0781 64.441 36.098 137.43 54.137 211.27 52.215 73.84-1.9219 145.79-23.734 208.27-63.137 0.15234 1.0078 0.46875 1.9805 0.9375 2.8828l29.016 53.906c11.344 21.094 30.258 32.812 50.883 31.781 21.398-1.2422 39.844-16.125 49.219-39.844l6.5156-16.406c3.3281-8.3906 9.1875-12.68 15.492-11.719 6.3047 0.96094 13.617 8.0156 14.438 21.094l1.3359 21.586c1.5938 25.312 12.844 48.352 30.141 61.664 12.355 9.875 28.41 13.848 43.945 10.875l15.305-3.0703c31.945-6.3281 63.82 12.914 81.141 49.219l0.53906 1.125c1.0039 2.2734 2.8867 4.043 5.2148 4.9062 2.332 0.86328 4.9102 0.74609 7.1523-0.32812 2.2422-1.0703 3.9531-3.0039 4.7461-5.3594 0.79297-2.3555 0.59766-4.9336-0.54297-7.1406zm-280.41-783.52c63.77 71.703 98.961 164.34 98.883 260.3 0 12.445-0.60938 24.727-1.7344 36.844-63.961-71.09-99.242-163.4-99-259.03 0-12.727 0.75-25.477 1.8516-38.109zm-16.406-17.508c-2.5234 18.434-3.793 37.012-3.7969 55.617-0.24219 105.59 40.836 207.09 114.45 282.8-4.1641 26.715-11.094 52.926-20.672 78.211-0.57812-0.74609-1.2656-1.4023-2.0391-1.9453-72.938-49.219-127.02-121.72-153.41-205.66-26.391-83.941-23.527-174.35 8.125-256.45 20.555 13.98 39.75 29.863 57.328 47.438zm-140.39-90.375c23.402 8.7812 45.918 19.766 67.242 32.812-27.922 70.465-35.625 147.32-22.238 221.93 13.387 74.602 47.332 143.99 98.012 200.35-45.434-21.672-94.504-34.707-144.7-38.438-39.301-62.449-60.016-134.8-59.715-208.58 0.29688-73.785 21.598-145.96 61.402-208.09zm-17.742-6.1641c-39.461 63.055-60.887 135.72-61.949 210.1-1.0586 74.375 18.281 147.62 55.926 211.78h-8.1094c-28.824-0.011719-57.566 3.0117-85.758 9.0234-38.93-62.508-62.016-142.31-62.016-214.9 0.24609-25.195 3.2305-50.289 8.9062-74.836 0.23828-0.66797 0.39453-1.3594 0.46875-2.0625 12.906-55.398 34.992-108.25 65.344-156.35 29.625 2.4062 58.879 8.1953 87.188 17.25zm-118.76 435.21c-80.238 21.125-152.04 66.414-205.66 129.73 18.75-82.758 62.555-150.3 133.36-205.71 9.5391-7.4531 19.5-14.508 29.672-21.094 10.199 33.977 24.516 66.578 42.633 97.078zm-393.75-60.938c0-216.66 176.27-392.93 392.95-392.93 3.7969 0 7.5938 0 11.367 0.1875-27.598 45.969-48.137 95.824-60.938 147.89-80.227 8.4375-158.84 38.883-216.63 84.094-56.281 43.773-99.953 101.69-126.56 167.84-0.11719-2.2734-0.16406-4.6406-0.16406-7.0078zm64.992 216.19c-32.418-48.922-53.375-104.53-61.312-162.68 22.289-79.219 69.359-149.21 134.32-199.73 53.695-42 126.4-70.664 201.14-79.688-4.5039 22.184-6.8594 44.75-7.0312 67.383 0 4.1484 0 8.3438 0.23438 12.539h-0.39844c-75.164 27.473-140.57 76.484-188.04 140.91-47.473 64.426-74.91 141.41-78.887 221.34zm17.906 24.938c-0.92969-79.613 22.602-157.59 67.418-223.4s108.75-116.27 183.18-144.57c2.1016 24.367 6.25 48.516 12.398 72.188-12.371 7.7031-24.316 16.066-35.789 25.055-84.375 65.953-132.23 148.45-146.41 252.07-14.375 20.855-26.785 42.996-37.078 66.141-15.84-14.578-30.453-30.438-43.688-47.414zm58.172 60.258c10.293-24.094 22.98-47.094 37.875-68.648 0.73438-0.75391 1.3359-1.625 1.7812-2.5781 54.652-77.773 136.07-132.66 228.66-154.17 0.60938-0.074218 1.207-0.21484 1.7812-0.42187 28.574-6.4922 57.789-9.7617 87.094-9.75 7.8984 0 15.773 0.25781 23.602 0.72656 0.48047 0.09375 0.96484 0.14062 1.4531 0.14062h0.375c84.184 5.4531 164.29 38.238 228.14 93.375-8.707 19.48-18.984 38.223-30.727 56.039-87.656-48.16-189.98-62.355-287.43-39.875-97.457 22.477-183.22 80.059-240.92 161.75-18.164-10.777-35.438-22.988-51.656-36.516zm67.688 45.656c55.102-77.199 136.54-131.58 228.96-152.89 92.422-21.309 189.45-8.0781 272.79 37.203-12.199 16.711-25.688 32.449-40.336 47.062-67.879-18.633-139.43-19.359-207.67-2.1094-68.242 17.254-130.85 51.895-181.72 100.55-24.93-7.4961-49.047-17.461-72-29.742zm184.22 46.031c-30.742 0.011719-61.383-3.5859-91.289-10.711 47.078-42.453 103.82-72.758 165.28-88.281 61.465-15.523 125.79-15.789 187.38-0.78125-71.859 64.324-164.93 99.852-261.38 99.773z"/>
</svg>
