<?xml version="1.0" encoding="UTF-8"?>
<svg width="512pt" height="512pt" version="1.1" viewBox="0 0 512 512" xmlns="http://www.w3.org/2000/svg">
 <path d="m437.53 257.52c-5.5781-9.3008-17.68-12.352-26.961-6.8047l-34.414 20.449-51.945-86.832c-0.003907-0.003907-0.007813-0.007813-0.007813-0.011719l-52.164-87.145c-2.8203-4.7031-8.9492-6.2617-13.676-3.4414l-35.453 21.148-4.1211 2.457-67.629 40.348c-2.293 1.3633-3.9141 3.5391-4.5664 6.1211-0.078125 0.30859-0.09375 0.625-0.14062 0.9375-0.55469-0.046875-1.1094-0.10938-1.6758-0.10938h-53.41c-10.855 0-19.688 8.8203-19.688 19.66 0 10.84 8.832 19.66 19.688 19.66h42.129l80.121 136.39c-7 8.6406-10.84 19.348-10.84 30.574 0 26.879 21.898 48.746 48.82 48.746 26.918 0 48.816-21.863 48.816-48.746 0-2.9219-0.34766-5.75-0.84766-8.5039l131.14-77.934c4.5117-2.6641 7.707-6.9336 9.0039-12.012 1.3047-5.0977 0.53125-10.402-2.1758-14.953zm-250.11-109.63 17.352 28.984c0.92578 1.5469 2.5938 2.4883 4.3906 2.4883h0.027343c1.8086-0.011719 3.4805-0.97656 4.3906-2.5352l10.742-18.391 21.312-0.73438c1.8125-0.058593 3.4531-1.0742 4.3242-2.6641 0.86328-1.5938 0.82812-3.5234-0.10547-5.0781l-17.398-29.07 30.789-18.457 49.531 82.758-106.77 63.668-20.297-33.707-23.996-40.824c-0.77344-1.3125-1.707-2.4961-2.7422-3.5742l-2.5703-4.2695zm45.934 177.84c-1.3906 0.5625-2.7578 1.1953-4.0938 1.8828-0.36328 0.1875-0.70703 0.40234-1.0664 0.59766-0.95312 0.51953-1.8945 1.0547-2.8086 1.6367-0.47266 0.30078-0.92578 0.62891-1.3906 0.94531-0.76562 0.52344-1.5273 1.0625-2.2656 1.6289-0.20703 0.16016-0.42969 0.29297-0.63281 0.45703l-80.262-136.63c-0.91797-1.5664-2.6016-2.5273-4.4141-2.5273h-45.059c-5.2109 0-9.4453-4.2227-9.4453-9.418 0-5.1953 4.2383-9.4219 9.4492-9.4219h53.41c2.6211 0 5.0781 1.1406 6.8398 3.0156l17.543 29.309 68.742 116.95c-0.10547 0.03125-0.20312 0.074218-0.30859 0.10547-1.2578 0.37891-2.5 0.8125-3.7227 1.293-0.17188 0.066406-0.34766 0.11328-0.51562 0.18359zm18.215 60.008c-8.1758 0-14.828-6.6445-14.828-14.816s6.6523-14.816 14.828-14.816 14.832 6.6445 14.832 14.816-6.6523 14.816-14.832 14.816zm31.586-59.316-5.5234 3.2812c-0.046875-0.027344-0.09375-0.050781-0.14062-0.078125-1.125-0.71094-2.2656-1.3672-3.418-1.9531-4.3945-2.3086-9.0469-3.8906-13.816-4.6914-0.10547-0.015625-0.23438-0.03125-0.36719-0.046875-1.4531-0.26953-2.9531-0.45312-4.4648-0.57812-0.58594-0.050781-1.1719-0.054688-1.7656-0.078125-0.69141-0.03125-1.3711-0.09375-2.0664-0.09375-0.47656 0-0.92969 0.023437-1.3945 0.039062-0.097656 0.003906-0.19531-0.011718-0.29297-0.003906l-38.613-64.547 30.828-18.391 17.312 28.922c0.92578 1.5469 2.5938 2.4883 4.3906 2.4883h0.027344c1.8086-0.011718 3.4805-0.97656 4.3906-2.5352l10.746-18.391 21.309-0.73438c1.8125-0.058594 3.4531-1.0742 4.3242-2.6641 0.86328-1.5938 0.82812-3.5234-0.10547-5.0781l-17.305-28.91 30.828-18.391 49.305 82.414zm146.62-56.477c-0.61719 2.4258-2.1445 4.4609-4.2969 5.7305-0.003906 0.003907-0.007812 0.003907-0.011719 0.011719l-128.79 76.531c-0.09375-0.23047-0.19141-0.45312-0.28906-0.69141-1.4336-3.3047-3.2227-6.3945-5.2461-9.0898-1.4922-2.082-3.1328-4.0156-4.8945-5.7969-0.03125-0.03125-0.054688-0.070313-0.085938-0.10156l1.7266-1.0234 89.109-52.922c0.03125-0.015625 0.046875-0.050781 0.078125-0.066406l38.73-23.012c4.457-2.6641 10.254-1.1914 12.926 3.2656 1.293 2.1719 1.6641 4.7188 1.0391 7.1641z" fill="#fff"/>
</svg>
