<?xml version="1.0" encoding="UTF-8"?>
<svg width="1200pt" height="1200pt" version="1.1" viewBox="0 0 1200 1200" xmlns="http://www.w3.org/2000/svg">
 <g fill="#fff">
  <path d="m841.61 1182.4h-732.01c-29.969 0-54.355-24.387-54.355-54.355v-990.7c0-29.969 24.387-54.355 54.355-54.355h154.41c9.7539 0 17.648 7.8945 17.648 17.648 0 9.7539-7.8945 17.648-17.648 17.648h-154.41c-10.512 0-19.059 8.5469-19.059 19.059v990.7c0 10.512 8.5469 19.059 19.059 19.059h732.01c10.512 0 19.059-8.5469 19.059-19.059v-431.3c0-9.7539 7.8945-17.648 17.648-17.648s17.648 7.8945 17.648 17.648v431.3c0 29.969-24.387 54.355-54.355 54.355z"/>
  <path d="m878.31 495.18c-9.7539 0-17.648-7.8945-17.648-17.648v-340.22c0-10.512-8.5469-19.059-19.059-19.059h-154.24c-9.7539 0-17.648-7.8945-17.648-17.648 0-9.7539 7.8945-17.648 17.648-17.648h154.24c29.969 0 54.355 24.387 54.355 54.355v340.22c0 9.7539-7.8945 17.645-17.648 17.645z"/>
  <path d="m786.89 1090.8h-622.41c-9.7539 0-17.648-7.8945-17.648-17.648l0.003906-807.7c0-9.7539 7.8945-17.648 17.648-17.648h622.4c9.7539 0 17.648 7.8945 17.648 17.648v344.82c0 9.7539-7.8945 17.648-17.648 17.648s-17.648-7.8945-17.648-17.648v-327.18h-587.11v772.4h587.11v-226.05c0-9.7539 7.8945-17.648 17.648-17.648s17.648 7.8945 17.648 17.648v243.7c-0.003906 9.75-7.8945 17.645-17.648 17.645z"/>
  <path d="m687.33 183.41h-423.32c-9.7539 0-17.648-7.8945-17.648-17.648l0.003906-74.844c0-40.414 32.863-73.277 73.277-73.277h312.06c40.414 0 73.277 32.863 73.277 73.277v74.844c-0.003907 9.7578-7.8945 17.648-17.648 17.648zm-405.68-35.293h388.03v-57.199c0-20.938-17.043-37.984-37.984-37.984l-312.06 0.003906c-20.938 0-37.984 17.043-37.984 37.984z"/>
  <path d="m604.11 1003.1c-3.5156 0-7.0156-1.0352-9.9961-3.0859-5.082-3.5-8.0664-9.3398-7.7031-15.492 4.4102-77.328 9.582-128.29 57.992-198.53l354.7-514.91c22.059-32.055 66.09-40.188 98.16-18.078l15.27 10.512c32.035 22.074 40.152 66.125 18.078 98.18l-354.87 515.16c-48.219 70.004-93.836 92.973-164.29 124.68-2.3281 1.0508-4.8438 1.5664-7.3438 1.5664zm453.19-727.29c-2.1523 0-4.3086 0.20703-6.4805 0.60156-9.2734 1.707-17.32 6.9297-22.66 14.684l-354.7 514.92c-35.605 51.684-45.016 89.578-49.855 151.05 55.664-26.504 87.613-48.754 123.08-100.25l354.87-515.16c11.031-16.027 6.9805-38.051-9.0469-49.098l-15.27-10.512c-5.9453-4.1016-12.855-6.2383-19.938-6.2383zm58.781 75.863h0.17188z"/>
  <path d="m1013 518.96c-3.4453 0-6.9297-1-9.9961-3.1211l-102.5-70.605c-8.0312-5.5312-10.047-16.508-4.5156-24.539 5.5156-8.0117 16.492-10.062 24.539-4.5156l102.5 70.605c8.0312 5.5156 10.047 16.508 4.5156 24.539-3.4102 4.9648-8.9258 7.6367-14.543 7.6367z"/>
  <path d="m1074.2 622.26c-4.5312 0-9.0469-1.7227-12.496-5.1875-24.039-24.125-27.469-62.008-8.1328-90.043l50.27-73c4.7734-6.9297 6.5664-15.305 5.0312-23.574-1.5156-8.2734-6.168-15.457-13.113-20.25l-13.547-9.3398c-8.0312-5.5312-10.047-16.527-4.5156-24.539 5.5312-8.0312 16.527-10.047 24.539-4.5156l13.547 9.3398c14.699 10.117 24.574 25.367 27.816 42.91 3.2227 17.543-0.57031 35.312-10.703 49.996l-50.27 73c-9.6836 14.047-7.9609 33.02 4.0664 45.102 6.8945 6.9102 6.8594 18.078-0.035157 24.953-3.4414 3.4414-7.957 5.1484-12.457 5.1484z"/>
  <path d="m750.41 900.23c-3.4453 0-6.9297-1-9.9961-3.1211l-102.5-70.605c-8.0312-5.5312-10.047-16.508-4.5156-24.539 5.5156-7.9961 16.477-10.082 24.539-4.5156l102.5 70.605c8.0312 5.5156 10.047 16.508 4.5156 24.539-3.4102 4.9648-8.9258 7.6367-14.543 7.6367z"/>
  <path d="m475.58 561.36c-9.7539 0-17.648-7.8945-17.648-17.648v-165.94c0-9.7539 7.8945-17.648 17.648-17.648 9.7539 0 17.648 7.8945 17.648 17.648v165.94c0 9.7539-7.8945 17.648-17.648 17.648z"/>
  <path d="m403.75 519.86c-6.1016 0-12.027-3.1719-15.305-8.8242-4.8789-8.4453-1.9805-19.234 6.4609-24.109l143.71-82.961c8.4102-4.8945 19.234-1.9805 24.109 6.4609 4.8789 8.4453 1.9805 19.234-6.4609 24.109l-143.71 82.961c-2.7734 1.6055-5.8047 2.3633-8.8047 2.3633z"/>
  <path d="m547.43 519.86c-3 0-6.0312-0.75781-8.8047-2.3594l-143.71-82.961c-8.4453-4.8789-11.34-15.664-6.4609-24.109 4.8789-8.4453 15.684-11.355 24.109-6.4609l143.71 82.961c8.4453 4.8789 11.34 15.664 6.4609 24.109-3.2773 5.6484-9.2031 8.8203-15.305 8.8203z"/>
  <path d="m651.36 669.18h-398.64c-9.7539 0-17.648-7.8945-17.648-17.648s7.8945-17.648 17.648-17.648h398.64c9.7539 0 17.648 7.8945 17.648 17.648-0.003906 9.7539-7.8984 17.648-17.652 17.648z"/>
  <path d="m575.31 780.36h-322.59c-9.7539 0-17.648-7.8945-17.648-17.648 0-9.7539 7.8945-17.648 17.648-17.648h322.59c9.7539 0 17.648 7.8945 17.648 17.648-0.003906 9.7578-7.8984 17.648-17.652 17.648z"/>
  <path d="m528.89 891.36h-276.16c-9.7539 0-17.648-7.8945-17.648-17.648 0-9.7539 7.8945-17.648 17.648-17.648l276.16 0.003906c9.7539 0 17.648 7.8945 17.648 17.648 0 9.7539-7.8945 17.645-17.648 17.645z"/>
  <path d="m607.28 1002.5h-354.53c-9.7539 0-17.648-7.8945-17.648-17.648s7.8945-17.648 17.648-17.648h354.53c9.7539 0 17.648 7.8945 17.648 17.648s-7.8945 17.648-17.648 17.648z"/>
 </g>
</svg>
