<?xml version="1.0" encoding="UTF-8"?>
<svg width="512pt" height="512pt" version="1.1" viewBox="0 0 512 512" xmlns="http://www.w3.org/2000/svg">
 <path d="m431.57 192c-5.8906 0-10.668 4.7773-10.668 10.668v103.25l-60.586-60.59c-4.0625-4.0859-9.6016-6.3555-15.359-6.293-5.7852 0.078126-11.293 2.5039-15.254 6.7227l-48.215 51.309-89.492-97.922c-3.9219-4.3047-9.4336-6.8203-15.254-6.9609-5.8203-0.14062-11.449 2.1016-15.574 6.2109l-102.93 103.47v-216.54c0-5.8906 4.7773-10.664 10.668-10.664h351.36c5.8906 0 10.668-4.7773 10.668-10.668s-4.7773-10.668-10.668-10.668h-351.36c-8.4883 0-16.625 3.3711-22.629 9.375-6 6-9.3711 14.141-9.3711 22.625v341.34c0 8.4844 3.3711 16.625 9.3711 22.625 6.0039 6.0039 14.141 9.375 22.629 9.375h341.33c8.4883 0 16.629-3.3711 22.629-9.375 6-6 9.3711-14.141 9.3711-22.625v-224c0-2.832-1.1211-5.543-3.1211-7.543s-4.7148-3.125-7.543-3.125zm-21.332 245.33h-341.34c-5.8906 0-10.668-4.7734-10.668-10.664v-94.723s117.76-118.61 118.08-118.61l133.01 144.96c1.8516 2.2969 4.5703 3.7227 7.5078 3.9414 2.9414 0.22266 5.8398-0.78516 8.0117-2.7773 2.1719-1.9961 3.4219-4.8008 3.4531-7.7461 0.03125-2.9492-1.1602-5.7773-3.293-7.8164l-28.586-31.254 49.387-52.48 74.668 74.668 0.74609 0.53516v91.305c0 2.8828-1.168 5.6484-3.2383 7.6562-2.0664 2.0117-4.8633 3.0938-7.75 3.0078zm61.652-273.39c3.625 4.2344 3.3789 10.543-0.55859 14.48-3.9414 3.9414-10.25 4.1836-14.484 0.5625l-25.281-25.281-25.172 25.281c-2 2.0195-4.7266 3.1523-7.5703 3.1523s-5.5703-1.1328-7.5742-3.1523c-4.1367-4.1602-4.1367-10.883 0-15.043l25.281-25.277-25.281-25.281c-4.1367-4.1602-4.1367-10.879 0-15.039 2.0039-2.0195 4.7305-3.1562 7.5742-3.1562s5.5703 1.1367 7.5703 3.1562l25.172 25.281 25.281-25.281c4.2344-3.625 10.543-3.3828 14.484 0.55859 3.9375 3.9414 4.1836 10.25 0.55859 14.48l-25.176 25.281z"/>
</svg>
