<?xml version="1.0" encoding="UTF-8"?>
<svg width="1200pt" height="1200pt" version="1.1" viewBox="0 0 1200 1200" xmlns="http://www.w3.org/2000/svg">
 <g fill="#fff">
  <path d="m171.36 673.8c-0.050781 113 44.523 221.45 124.02 301.75 79.5 80.305 187.49 125.97 300.49 127.06 113 1.0859 221.85-42.488 302.88-121.25 81.031-78.758 127.68-186.33 129.81-299.31 2.1289-112.98-40.445-222.23-118.46-303.98-78.012-81.75-185.15-129.39-298.11-132.55v-123.96h97.32c6.6289 0 12-5.3711 12-12 0-6.625-5.3711-12-12-12h-218.64c-6.6289 0-12 5.375-12 12 0 6.6289 5.3711 12 12 12h97.32v123.96c-111.49 3.2422-217.33 49.77-295.11 129.71-77.773 79.945-121.36 187.03-121.54 298.57zm833.28 0c0 107.32-42.633 210.24-118.52 286.12-75.887 75.887-178.81 118.52-286.12 118.52s-210.24-42.633-286.12-118.52c-75.883-75.883-118.52-178.8-118.52-286.12 0-107.32 42.633-210.24 118.52-286.12 75.887-75.883 178.81-118.52 286.12-118.52 107.28 0.125 210.12 42.801 285.98 118.66 75.855 75.855 118.53 178.71 118.66 285.98z"/>
  <path d="m586.68 471.6c0-6.6289-5.3711-12-12-12-6.6289 0-12 5.3711-12 12v230.16c0 3.1797 1.2656 6.2344 3.5156 8.4844s5.3008 3.5156 8.4844 3.5156h180c6.6289 0 12-5.375 12-12 0-6.6289-5.3711-12-12-12h-168z"/>
 </g>
</svg>
