<?xml version="1.0" encoding="UTF-8"?>
<svg width="512pt" height="512pt" version="1.1" viewBox="0 0 512 512" xmlns="http://www.w3.org/2000/svg">
 <g>
  <path d="m265.21 97.281c0.10547 4.582 2.9492 8.6523 7.2148 10.324 4.2695 1.6719 9.1211 0.62109 12.312-2.6719 3.1875-3.2891 4.0898-8.1758 2.2852-12.387-1.8047-4.2148-5.9648-6.9297-10.547-6.8906-3.043 0.027344-5.9453 1.2734-8.0625 3.457-2.1172 2.1836-3.2695 5.125-3.2031 8.168zm15.359 0c-0.019531 1.6094-1.0039 3.0508-2.5 3.6523-1.4922 0.60156-3.2031 0.24609-4.332-0.89844-1.1328-1.1484-1.4648-2.8594-0.84375-4.3477 0.62109-1.4844 2.0742-2.4531 3.6836-2.4531 1.0703 0 2.0938 0.42969 2.8438 1.1875 0.75 0.76172 1.1641 1.7891 1.1484 2.8594z"/>
  <path d="m88.68 298.04c6 0 11.758-2.3828 16-6.6289 4.2461-4.2422 6.6289-10 6.6289-16 0-6.0039-2.3828-11.758-6.6289-16.004-4.2422-4.2422-10-6.6289-16-6.6289-6.0039 0-11.758 2.3867-16.004 6.6289-4.2422 4.2461-6.6289 10-6.6289 16.004 0 6 2.3867 11.758 6.6289 16 4.2461 4.2461 10 6.6289 16.004 6.6289zm0-29.902c2.9375 0 5.5898 1.7734 6.7148 4.4883 1.125 2.7188 0.50391 5.8438-1.5742 7.9258-2.082 2.0781-5.207 2.6992-7.9258 1.5742-2.7148-1.125-4.4883-3.7773-4.4883-6.7148 0-1.9297 0.76953-3.7773 2.1328-5.1406 1.3633-1.3672 3.2109-2.1328 5.1406-2.1328z"/>
  <path d="m476.16 303.05-158.21-227.89c-6.6719-12.676-18.793-21.582-32.883-24.16-14.09-2.5781-28.586 1.457-39.309 10.953l-196.1 154.47c-3.0586 2.043-5.9688 4.3008-8.7031 6.7578v0.30859c-17.684 16.289-25.867 40.453-21.727 64.137s20.043 43.637 42.207 52.957l291.12 112.64 5.832 2.457 2.8164 1.125c27.035 8.8828 56.559 5.9766 81.348-8 24.785-13.977 42.551-37.738 48.941-65.465 6.3906-27.73 0.82422-56.871-15.344-80.285zm-83.457 143.41c-9.5547-0.015625-19.043-1.6445-28.059-4.8125-2.2031-0.76953-4.4023-1.5859-6.5039-2.5078l0.003906-0.003906c-26.133-11.543-44.809-35.324-49.832-63.445-5.0195-28.121 4.2734-56.898 24.793-76.773 20.52-19.871 49.582-28.238 77.527-22.316 27.945 5.918 51.117 25.352 61.816 51.836 10.703 26.488 7.5273 56.562-8.4688 80.23-15.992 23.672-42.711 37.836-71.277 37.793zm-282.93-103.43c21.582-6.8008 38.613-23.52 45.812-44.973 7.1992-21.457 3.7031-45.059-9.4102-63.508-13.109-18.445-34.254-29.508-56.883-29.758l140.64-110.9v3.125-0.003906c0.17188 15.281 7.7969 29.516 20.422 38.133 12.625 8.6133 28.656 10.52 42.949 5.1055 14.293-5.4141 25.039-17.465 28.789-32.281l110.64 159.39c-12.637-5.4844-26.266-8.3047-40.039-8.2969-25.219-0.015624-49.539 9.3789-68.191 26.352-18.656 16.973-30.305 40.297-32.664 65.406s4.7422 50.195 19.91 70.344zm-58.984-107.93 7.7812-6.1445h0.003907c16.281-10.531 36.891-11.77 54.32-3.2695 17.434 8.5039 29.141 25.508 30.863 44.824 1.7266 19.316-6.7891 38.129-22.438 49.582-15.648 11.453-36.152 13.883-54.043 6.4023-17.316-7.2305-29.781-22.746-33.113-41.211-3.3281-18.465 2.9297-37.359 16.625-50.184zm257.23-137.83c-0.082031 8.3125-3.4531 16.254-9.375 22.09-5.9258 5.832-13.918 9.082-22.23 9.0391-8.3125-0.046875-16.27-3.3828-22.133-9.2812-5.8594-5.8984-9.1445-13.875-9.1328-22.191 0.007812-8.3125 3.3086-16.285 9.1797-22.168 5.875-5.8867 13.84-9.207 22.152-9.2344 8.4023-0.011718 16.465 3.332 22.391 9.2969 5.9219 5.9609 9.2148 14.043 9.1484 22.449z"/>
  <path d="m392.7 323.89c-9.6953 0-18.992 3.8516-25.848 10.707-6.8555 6.8555-10.707 16.156-10.707 25.852 0 9.6953 3.8516 18.992 10.707 25.848s16.152 10.707 25.848 10.707 18.996-3.8516 25.852-10.707c6.8555-6.8555 10.707-16.152 10.707-25.848-0.015625-9.6914-3.8711-18.984-10.723-25.836-6.8516-6.8516-16.145-10.707-25.836-10.723zm0 57.754c-5.6211 0-11.012-2.2344-14.988-6.207-3.9727-3.9766-6.207-9.3672-6.207-14.988 0-5.6211 2.2344-11.016 6.207-14.988 3.9766-3.9766 9.3672-6.2109 14.988-6.2109s11.016 2.2344 14.988 6.2109c3.9766 3.9727 6.2109 9.3672 6.2109 14.988-0.015625 5.6172-2.2539 11-6.2266 14.973-3.9688 3.9727-9.3555 6.2109-14.973 6.2227z"/>
 </g>
</svg>
