<?xml version="1.0" encoding="UTF-8"?>
<svg width="512pt" height="512pt" version="1.1" viewBox="0 0 512 512" xmlns="http://www.w3.org/2000/svg">
 <path d="m431.57 256c-5.8906 0-10.668 4.7773-10.668 10.668v49.492l-60.586-60.16c-3.9727-4.2188-9.5703-6.5117-15.359-6.293-5.7852 0.078125-11.293 2.5039-15.254 6.7188l-48.215 51.309-89.492-98.027c-3.9375-4.2891-9.457-6.7852-15.277-6.9062-5.8203-0.12109-11.438 2.1445-15.551 6.2656l-102.93 103.47v-227.2c0-5.8906 4.7773-10.664 10.668-10.664h351.36c5.8906 0 10.668-4.7773 10.668-10.668s-4.7773-10.668-10.668-10.668h-351.36c-8.4883 0-16.625 3.3711-22.629 9.375-6 6-9.3711 14.141-9.3711 22.625v341.34c0 8.4844 3.3711 16.625 9.3711 22.625 6.0039 6.0039 14.141 9.375 22.629 9.375h341.33c8.4883 0 16.629-3.3711 22.629-9.375 6-6 9.3711-14.141 9.3711-22.625v-160c0-2.832-1.1211-5.543-3.1211-7.543s-4.7148-3.125-7.543-3.125zm-21.332 181.33h-341.34c-5.8906 0-10.668-4.7734-10.668-10.664v-83.84l118.08-118.83 133.01 144.96c1.8516 2.293 4.5703 3.7227 7.5078 3.9414 2.9414 0.22266 5.8398-0.78516 8.0117-2.7812 2.1719-1.9922 3.4219-4.7969 3.4531-7.7461 0.03125-2.9453-1.1602-5.7773-3.293-7.8164l-28.586-31.254 49.387-52.48 74.668 74.668 1.0664 0.74609v80.43c0.003906 2.9414-1.207 5.7578-3.3477 7.7773-2.1406 2.0195-5.0195 3.0664-7.9609 2.8867zm64.852-320v67.199c-2.1328 68.48-93.332 68.48-95.359 0v-24.535-33.703c1.9023-9.8008 8.2695-18.148 17.215-22.578 8.9453-4.4297 19.449-4.4297 28.395 0 8.9453 4.4297 15.312 12.777 17.215 22.578v58.242c0 5.8906-4.7734 10.664-10.664 10.664s-10.668-4.7734-10.668-10.664v-58.242c-1.4883-4.2969-5.5352-7.1758-10.078-7.1758-4.5469 0-8.5938 2.8789-10.082 7.1758v33.707 24.535c-0.52734 7.5312 1.9453 14.969 6.8828 20.684 4.9336 5.7188 11.934 9.2461 19.465 9.8203 7.5195-0.59766 14.5-4.1367 19.434-9.8477 4.9297-5.707 7.4141-13.129 6.9141-20.656v-67.203c0-5.8906 4.7734-10.664 10.664-10.664s10.668 4.7734 10.668 10.664z"/>
</svg>
