<?xml version="1.0" encoding="UTF-8"?>
<svg width="512pt" height="512pt" version="1.1" viewBox="0 0 512 512" xmlns="http://www.w3.org/2000/svg">
 <path d="m432.85 234.67c-5.8906 0-10.664 4.7734-10.664 10.664v59.414l-59.52-59.414c-4.1133-4.0039-9.6211-6.2617-15.359-6.293-5.7891 0.078126-11.293 2.5039-15.254 6.7227l-48.32 51.309-89.387-97.707v-0.003906c-3.9375-4.2891-9.457-6.7852-15.277-6.9062-5.8203-0.12109-11.438 2.1445-15.551 6.2656l-104 104.64v-218.03c0-5.8906 4.7773-10.664 10.668-10.664h362.67-0.003907c5.8945 0 10.668-4.7773 10.668-10.668s-4.7734-10.668-10.668-10.668h-362.67 0.003906c-8.4883 0-16.629 3.3711-22.629 9.375-6 6-9.3711 14.141-9.3711 22.625v341.34c0 8.4844 3.3711 16.625 9.3711 22.625 6 6.0039 14.141 9.375 22.629 9.375h341.33c8.4883 0 16.625-3.3711 22.629-9.375 6-6 9.3711-14.141 9.3711-22.625v-181.34c0-2.8281-1.125-5.5391-3.125-7.543-2-2-4.7109-3.1211-7.543-3.1211zm-21.332 202.67h-341.33v-0.003907c-5.8906 0-10.668-4.7734-10.668-10.664v-93.656c3.1992-1.3867 117.33-117.33 119.36-119.36l132.59 144.75c3.9531 4.3516 10.68 4.6836 15.043 0.75 2.1055-1.918 3.3594-4.5977 3.4766-7.4414 0.12109-2.8438-0.90234-5.6211-2.8359-7.707l-28.48-31.254 49.387-52.48 74.668 74.668-0.003906 91.734c0.003906 2.9219-1.1914 5.7188-3.3086 7.7344-2.1172 2.0195-4.9688 3.0781-7.8906 2.9297zm23.895-224c-68.375 5.0117-80.535-94.293-12.906-105.81v-9.3906c-0.089843-0.85156 0.3125-1.6797 1.0391-2.1328s1.6484-0.45312 2.375 0l31.254 19.414h-0.003906c0.58203 0.42188 0.92578 1.0938 0.92578 1.8125s-0.34375 1.3906-0.92578 1.8125l-32 19.734c-4.8008 2.0273-2.7734-6.3984-3.0938-9.4922-9.5977 2.8672-17.297 10.066-20.809 19.445-3.5078 9.3828-2.4219 19.871 2.9375 28.332 5.3594 8.4648 14.371 13.93 24.355 14.77 9.9805 0.83984 19.781-3.043 26.477-10.496 1.793-2.1953 4.3867-3.5898 7.2109-3.8672 2.8203-0.28125 5.6406 0.57422 7.8281 2.375 15.363 16-21.012 33.492-34.664 33.492z"/>
</svg>
