<?xml version="1.0" encoding="UTF-8"?>
<svg width="1200pt" height="1200pt" version="1.1" viewBox="0 0 1200 1200" xmlns="http://www.w3.org/2000/svg">
 <path d="m1022.5 832.67h-961.2c-8.3125 0.61328-15.742 5.4062-19.734 12.723-3.9883 7.3203-3.9883 16.164 0 23.484 3.9922 7.3164 11.422 12.109 19.734 12.727h122.13v171.73c0.007812 6.5039 2.5977 12.734 7.1953 17.328 4.6016 4.5938 10.836 7.1758 17.336 7.1797 6.5 0 12.734-2.582 17.336-7.1719l68.398-68.398 68.398 68.398h0.003906c4.5898 4.6523 10.852 7.2852 17.391 7.3047 6.5391 0.019532 12.812-2.5703 17.434-7.1953s7.2031-10.906 7.1758-17.445v-171.73h618.4c24.332 0.035157 47.66 9.707 64.875 26.898 17.219 17.191 26.922 40.504 26.992 64.832v85.734c-0.035156 24.355-9.7227 47.699-26.945 64.922-17.219 17.219-40.566 26.91-64.922 26.945h-961.2c-8.3125 0.61328-15.742 5.4062-19.734 12.727-3.9883 7.3164-3.9883 16.16 0 23.48 3.9922 7.3203 11.422 12.113 19.734 12.727h961.2c37.309-0.035157 73.082-14.863 99.477-41.23 26.395-26.371 41.254-62.129 41.324-99.438v-85.867c-0.070313-37.309-14.93-73.066-41.324-99.434-26.395-26.371-62.168-41.195-99.477-41.23zm-667.33 161.33-43.867-43.867c-4.5977-4.5898-10.832-7.1719-17.332-7.1719s-12.734 2.582-17.332 7.1719l-43.867 43.867v-112.4h122.4zm667.33-994h-961.2c-8.3125 0.61328-15.742 5.4062-19.734 12.727-3.9883 7.3164-3.9883 16.16 0 23.48 3.9922 7.3203 11.422 12.113 19.734 12.727h648.93v159.2c0.007812 6.5 2.5977 12.734 7.1953 17.328 4.5977 4.5938 10.832 7.1758 17.336 7.1758 6.5 0.003906 12.734-2.5781 17.336-7.1719l68.398-68.398 68.398 68.398h0.003907c4.6367 4.3008 10.754 6.6406 17.078 6.5391 6.3203-0.10547 12.359-2.6445 16.852-7.0938 4.4961-4.4453 7.0977-10.457 7.2695-16.777v-159.2h91.867c24.352 0.035156 47.699 9.7266 64.922 26.945 17.219 17.223 26.91 40.566 26.945 64.922v85.867c-0.035156 24.352-9.7266 47.699-26.945 64.918-17.223 17.223-40.57 26.914-64.922 26.949h-960.67c-8.3125 0.61328-15.742 5.4062-19.734 12.723-3.9883 7.3203-3.9883 16.164 0 23.484 3.9922 7.3164 11.422 12.109 19.734 12.723h961.2c37.332-0.035156 73.125-14.879 99.523-41.277 26.398-26.398 41.242-62.188 41.277-99.52v-85.867c-0.035156-37.332-14.879-73.125-41.277-99.523-26.398-26.395-62.191-41.242-99.523-41.277zm-140.8 149.07-44-43.867c-4.6016-4.5898-10.836-7.1719-17.336-7.1719s-12.73 2.582-17.332 7.1719l-43.867 43.867v-100.13h122.4zm281.6 291.73c0 6.5078-2.582 12.746-7.1836 17.348-4.6016 4.6016-10.844 7.1836-17.348 7.1836h-961.2c-24.355 0.035157-47.703 9.7266-64.922 26.949-17.223 17.219-26.91 40.566-26.945 64.918v85.734c0.035156 24.352 9.7227 47.699 26.945 64.922 17.219 17.219 40.566 26.91 64.922 26.945h961.2c6.8008-0.50391 13.504 1.8477 18.504 6.4922 4.9961 4.6406 7.8359 11.152 7.8359 17.973s-2.8398 13.336-7.8359 17.977c-5 4.6406-11.703 6.9922-18.504 6.4922h-961.2c-37.355-0.035156-73.168-14.898-99.57-41.328-26.402-26.426-41.23-62.25-41.23-99.605v-85.602c0-37.355 14.828-73.18 41.23-99.605 26.402-26.43 62.215-41.293 99.57-41.328h961.2c6.5039 0 12.746 2.5859 17.348 7.1875 4.6016 4.6016 7.1836 10.84 7.1836 17.348zm0 85.734c0 6.5039-2.582 12.746-7.1836 17.348-4.6016 4.5977-10.844 7.1836-17.348 7.1836h-942.8c-8.3125-0.61328-15.746-5.4062-19.734-12.727-3.9883-7.3164-3.9883-16.16 0-23.48s11.422-12.113 19.734-12.727h942.8c6.4844 0 12.703 2.5664 17.301 7.1406 4.5977 4.5703 7.1953 10.777 7.2305 17.262zm0 73.465c0 6.5078-2.582 12.746-7.1836 17.348-4.6016 4.6016-10.844 7.1875-17.348 7.1875h-991.73c-6.8008 0.5-13.508-1.8516-18.504-6.4922-4.9961-4.6445-7.8359-11.156-7.8359-17.977 0-6.8203 2.8398-13.332 7.8359-17.977 4.9961-4.6406 11.703-6.9922 18.504-6.4883h991.73c6.4844 0 12.703 2.5664 17.301 7.1367 4.5977 4.5703 7.1953 10.777 7.2305 17.262zm0 73.465c0 6.5078-2.582 12.75-7.1836 17.348-4.6016 4.6016-10.844 7.1875-17.348 7.1875h-942.8c-8.3125-0.61328-15.746-5.4062-19.734-12.727-3.9883-7.3164-3.9883-16.16 0-23.48 3.9883-7.3203 11.422-12.113 19.734-12.727h942.8c6.4844 0 12.703 2.5664 17.301 7.1406 4.5977 4.5703 7.1953 10.777 7.2305 17.258z"/>
</svg>
