<?xml version="1.0" encoding="UTF-8"?>
<svg width="1200pt" height="1200pt" version="1.1" viewBox="0 0 1200 1200" xmlns="http://www.w3.org/2000/svg">
 <path d="m929.9 587.77c0.10937 0.41016 0.19141 0.83984 0.23437 1.2773l26.996 260.95c0.066406 0.66016 0.050782 1.3125-0.039062 1.9414 0.14062 1.3008 0.20703 2.5391 0.20703 3.6914 0 1.9688-0.20312 3.8359-0.57422 5.4648l-63.484 277.96c-2.1055 9.2188-7.3711 20.934-16.023 29.379-6.9688 6.8008-16.031 11.543-27.32 11.543h-715.96c-11.285 0-20.352-4.7422-27.32-11.543-8.6523-8.4453-13.918-20.16-16.023-29.379l-63.484-277.96c-0.37109-1.6289-0.57422-3.4961-0.57422-5.4648 0-2.9766 0.44141-6.5391 1.4453-10.227l73.836-547.41h-0.003906c1.832-13.219 8.5234-21.766 18.188-27.039 8.8164-4.8125 19.863-6.5586 31.668-6.5586v0.03125l87.305 0.10547-9.8281-6.7617c-0.089844-0.054688-0.17969-0.11328-0.26562-0.17188-7.1211-4.8555-12.816-12.289-16.027-20.641-3.0977-8.0586-3.9219-17.039-1.5352-25.5h0.003906l43.379-147.77 0.039063-0.14453c5.3945-19.141 11.453-30.613 21.77-37.203 10.203-6.5156 23.281-7.3516 42.871-5.3203l353.05 36.656c9.9688 1.0352 19.203 3.1328 28.109 6.2461 8.8828 3.1055 17.359 7.1836 25.852 12.195l426.47 251.72c10.312 6.0859 16.387 13.734 19.074 23.02 2.5625 8.8555 1.8125 18.773-1.4258 29.945l-37.371 128.93c-0.61719 2.5-2.4297 4.6562-5.0273 5.5977l-198.21 72.449zm-758.36-88.457c-0.23828-2.75 1.8008-5.1719 4.5508-5.4102 2.75-0.23828 5.1719 1.8008 5.4102 4.5508l5.6758 65.191c0.23828 2.75-1.8008 5.1719-4.5508 5.4102s-5.1719-1.8008-5.4102-4.5508zm837.33-179.27c2.75-0.15234 5.1016 1.957 5.2539 4.707s-1.957 5.1016-4.707 5.2539l-104.89 5.8398c-2.75 0.15234-5.1016-1.957-5.2539-4.707-0.15234-2.75 1.957-5.1016 4.707-5.2539zm-271.07 500.55-26.215-22.621-26.41 22.66 52.621-0.039062zm-38.434-33.164-33.125-28.582-38.926 33.77 32.387 27.957 0.089844 0.078125h0.85547l38.719-33.219zm-45.328-39.113-28.859-24.902-38.855 33.816 28.793 24.855 38.922-33.766zm-41.094-35.461-24.73-21.34-38.801 33.848 24.68 21.305 38.855-33.812zm-36.926-31.863-32.496-28.043-38.996 33.664 32.695 28.223 38.801-33.848zm-44.703-38.578-29.23-25.223-10.449-0.10938c-0.29297 0.36328-0.625 0.70703-0.98828 1.0234l-32.75 28.258 34.418 29.711 38.996-33.664zm-13.785-25.062 21.414 18.477 20.898-18.043-42.312-0.4375zm33.621 29.012 32.457 28.008 37.145-32.402-27.277-23.832-9.5859-0.097656c-0.19531 0.21094-0.40625 0.41406-0.62891 0.60938l-32.109 27.719zm44.652 38.531 24.742 21.348 36.961-32.164-24.629-21.523-37.07 32.336zm36.973 31.902 28.871 24.914 36.762-31.891-28.75-25.121zm41.074 35.445 33.168 28.621 36.68-31.469-33.16-28.973-36.684 31.824zm45.387 39.164 32.449 28.004c0.042968-0.039063 0.085937-0.078125 0.12891-0.11719l35.969-31.375-31.945-27.914zm135.1-5.4375-19.941-17.555-26.918 23.48 20.039 17.512 26.82-23.434zm-32.012-28.184-31.539-27.77-27.309 23.43 31.883 27.859 26.965-23.523zm-43.633-38.418-33.223-29.25-27.332 23.711 33.199 29.012zm-45.305-39.887-28.695-25.266-27.445 23.887 28.762 25.133 27.379-23.75zm-40.805-35.93-24.957-21.973c-0.4375 0.8125-1.0273 1.5586-1.7617 2.2031l-25.414 22.168 24.641 21.531 27.492-23.926zm-12.734-24.523 20.336 17.906 20.098-17.488zm32.445 28.566 28.711 25.277 35.648-30.926-25.742-22.223c-0.23828 0.019531-0.48047 0.027344-0.72656 0.027344l-5.8281-0.058594zm40.789 35.914 33.266 29.289 36.301-31.145-33.793-29.172-35.77 31.031zm45.359 39.938 31.477 27.715 17.848-15.57c0.11719-0.10547 0.23828-0.20312 0.36328-0.29688l-5.8594-36.699-7.4062-6.3945-36.422 31.25zm43.547 38.344 12.062 10.621-2.9609-18.559zm-2.8242 58.613 0.039063 0.11719 22.523-0.015625-2.7773-17.391-19.789 17.289zm-19.223-4.3789-20.047-17.516-25.289 22.059 40.191-0.03125c0.11719-0.11719 0.24219-0.23047 0.36719-0.34375l4.7734-4.1719zm-211.14-197.73 19.527 17.062 19.105-16.664zm187.66 27.582 33.836 29.207 7.2305-6.2031-7.1406-44.734-15.34 5.6055zm-397.97 174.83-24.988-20.988-24.27 20.953zm-37.359-31.379-34.918-29.328-36.59 31.574 34.305 29.078h1.7695c0.45312-0.86719 1.0703-1.6641 1.8555-2.3398zm-47.289-39.719-32.309-27.137-36.059 31.676 31.836 26.984zm-44.66-37.512-23.473-19.715-35.855 31.57 23.328 19.773 36.004-31.629zm-35.855-30.117-31.711-26.637-36.02 31.094 31.93 27.066zm-44.086-37.027-32.895-27.629-8.6133 53.973 5.5469 4.7031 35.961-31.043zm-21.633-31.207 29.289 24.602 27.816-24.012zm41.66 34.992 31.637 26.57 36.961-32.543-30.578-26.848-38.016 32.816zm44.016 36.973 23.484 19.723 36.227-31.82-23.016-20.207-36.691 32.305zm35.836 30.098 32.379 27.195 35.57-30.695-31.992-28.086zm44.75 37.586 34.914 29.324 34.527-29.809-34.145-29.98-35.301 30.461zm47.289 39.719 32.867 27.605h2.332c0.40234-0.64453 0.90625-1.2383 1.5078-1.7656l30.434-26.547-32.883-28.871-34.258 29.574zm172.51 27.617-20.137-17.566-20.219 17.594 40.355-0.03125zm-32.305-28.18-24.488-21.363-28.914 25.223 24.375 21.402zm-36.617-31.941-32.797-28.609-28.918 24.965 32.84 28.836 28.875-25.188zm-44.938-39.203-34.25-29.875-28.773 24.828 34.145 29.977zm-46.391-40.469-32.418-28.277-28.375 24.926 32.059 28.148zm-44.539-38.852-23.133-20.18-28.23 24.855 23.023 20.215 28.336-24.891zm-15.367-26.629 22.918 19.992 22.23-19.527zm35.043 30.566 32.484 28.336 37.02-31.945-30.152-26.031c-0.0625-0.054688-0.12109-0.10938-0.17969-0.16406l-5.1836-0.054687-33.988 29.855zm44.625 38.93 34.246 29.875 37.258-32.164-34.422-29.715-37.086 32zm46.391 40.469 32.758 28.574 37.297-32.535-32.734-28.258zm44.887 39.156 24.5 21.371 37.531-32.664-24.672-21.297zm36.664 31.984 27.695 24.16h1.8672c0.23828-0.27344 0.5-0.53125 0.78125-0.77344l36.035-31.258-28.781-24.844-37.598 32.719zm-60.523 24.207-20.211-17.746-20.309 17.715zm-219.59-206.06 24.395 21.418 23.762-20.922zm383.53 205.95-24.844-21.445-24.766 21.48 49.605-0.035156zm-221.39-204.28 22.531 19.449 22.008-18.992-44.539-0.46094zm-204 204.2-24.738-21.578-24.523 21.543zm-36.859-32.152-22.941-20.012-24.469 21.543 22.895 20.004zm-35.094-30.613-11.656-10.168-3.793 23.773zm-9.9141-21.078c0.78516 0.17578 1.5391 0.54688 2.1836 1.1133l15.273 13.324 35.207-31-32.004-27.129-15.875 13.703zm29.613 25.035 22.949 20.02 35.75-31.406-23.32-19.766-35.383 31.152zm35.07 30.594 30.992 27.035 36.695-31.668-31.766-26.926zm-51.746 24.23-22.543-19.695-3.7695 23.609 21.836 0.015625 4.4727-3.9297zm158.26 4.0469-26.508-22.469-25.996 22.43 52.5 0.039062zm21.047-221.16c0.41406-0.027344 0.82812-0.023438 1.2422 0.011718l68.062 0.70313c0.57422-0.054688 1.1523-0.050782 1.7266 0.019531l331.32 3.418-469.73-323.15c-0.19531 0.015625-0.39062 0.023438-0.58984 0.023438l-109.89-0.13281v0.03125c-8.1836 0-15.664 0.91797-21.504 3.3477l27.328 313.96 172.05 1.7734zm524.4 70.988c0.039063 0.20312 0.074219 0.41016 0.097656 0.61719l23.848 149.41 47.43-0.035157v-0.03125c2.5352 0 4.9688 0.28906 7.293 0.82031l0.03125 0.007813v-0.007813c2.0391 0.46484 3.9297 1.1133 5.6797 1.9102l-23.77-229.77-68.902 25.184c0.027344 0.13672 0.054688 0.27344 0.078125 0.41406zm20.328 165.97c-0.57812 0.24219-1.1914 0.42188-1.8398 0.52344-1.5195 0.24219-3.0039 0.035157-4.3242-0.51953l-376.18 0.27344-374.37-0.27344c-1.3203 0.55469-2.8047 0.75781-4.3242 0.51562-0.64453-0.10156-1.2578-0.28125-1.8359-0.51953l-52.867-0.039063v0.03125c-1.3359 0-2.5078 0.11328-3.5312 0.32422l-0.23047 0.058594c-4.3477 0.99219-7.3125 3.9297-9.2109 7.3359-0.875 1.5703-1.5391 3.2305-2.0195 4.8633-0.03125 0.125-0.066406 0.24609-0.10547 0.36719-0.62109 2.25-0.89453 4.4336-0.89453 6.2578 0 0.87109 0.046875 1.5156 0.13672 1.9023l63.484 277.96c1.5625 6.8398 5.3867 15.453 11.586 21.504 4.2148 4.1133 9.6055 6.9805 16.195 6.9805h715.96c6.5859 0 11.98-2.8672 16.195-6.9805 6.2031-6.0547 10.023-14.664 11.586-21.504l63.484-277.96c0.089844-0.38672 0.13672-1.0312 0.13672-1.9023 0-3.2461-0.86719-7.6328-3.0195-11.492-1.8984-3.4062-4.8672-6.3438-9.2109-7.3359v-0.007813c-1.0781-0.24219-2.3281-0.375-3.7656-0.375v-0.03125l-51.047 0.039063zm-73.164-218.56 317.76-116.15 36.336-125.36c1.7344-5.9805 2.5664-11.289 2.2852-15.922l-261.81 14.574c1.332 10.645-1.6953 22.633-7.7031 37.566l-0.011719-0.003907-0.050781 0.12891-86.809 205.16zm348.39-272.97c-1.3867-1.1523-2.9648-2.2578-4.7539-3.3125l-426.47-251.72c-7.668-4.5273-15.211-8.168-22.977-10.883-7.7383-2.707-15.781-4.5312-24.484-5.4336l-353.05-36.656c-5.418-0.5625-10.168-0.89453-14.336-0.92187l563.85 304.64 0.21484 0.11328c10.516 5.7656 17.793 11.785 22.375 18.621l259.63-14.453zm-867.68-302.46c-4.6953 4.7891-8.1758 12.918-11.695 25.41-0.03125 0.10938-0.066406 0.21875-0.10156 0.32812l-43.324 147.59h0.003906c-1.418 5.0352-0.88281 10.508 1.0352 15.5 2.0547 5.3477 5.6641 10.082 10.152 13.141 0.10547 0.074218 0.21094 0.14844 0.3125 0.22656l544.91 374.87 90.062-212.86-0.007813-0.003907c5.5312-13.754 8.1094-23.965 6.2812-31.848-1.6992-7.3242-7.7773-13.551-19.648-20.066l-0.10547-0.058594-577.88-312.23zm-139.7 562.96-25.75-295.84-69.18 512.9c1.2734-0.48828 2.6172-0.89844 4.0312-1.2188 0.125-0.027343 0.24609-0.054687 0.37109-0.074219 2.2227-0.48437 4.543-0.74609 6.957-0.74609v0.03125l49.246 0.035156 34.328-215.09z" fill="#fff"/>
</svg>
