<?xml version="1.0" encoding="UTF-8"?>
<svg width="512pt" height="512pt" version="1.1" viewBox="0 0 512 512" xmlns="http://www.w3.org/2000/svg">
 <g fill="#fff">
  <path d="m433.45 162.89c20.668-20.348 15.918-59.523-8.9062-74.332-17.734-10.543-38.508-8.5781-71.953-8.0742 1.5508-60.98-19.945-72.711-59.312-72.711-24.086 0.13281-49.406 1.3047-74.379 4.0742-26.105 2.7773-46.926 10.629-50.27 42.73-1.2578 11.762-0.63672 21.293 1.7305 28.617-27.648 0.41797-50.812-0.26562-71.215 8.5703-46.035 19.992-45.598 74.699 6.6406 91.871 0.007813 2.9492-5.1523 232.04-5.2148 235.01-1.3672 58.602 14.699 80.555 78.359 83.371 55.52 2.5742 111.93 2.9336 167.79 1.0469 61.797-2.1328 74.348-23.918 74.148-71.082-0.81641-265.66-0.52734-251.95-1.2109-259.71 5.0664-2.4297 9.7578-5.4531 13.777-9.3477 0-0.011719 0.007812-0.019531 0.015625-0.035156zm-1.5352-56.445-0.9375-0.9375 0.17188-0.17188c0.26172 0.37109 0.52734 0.73828 0.76562 1.1094zm-222.62-31.652-5.1289-5.1289c0.25-0.09375 0.52734-0.10156 0.73047-0.30078l3.7695-3.7695 4.9102 4.918zm-2.7461 2.7461-3.6445 3.6445c-0.41016-2.2812-0.58203-4.918-0.54297-7.8438zm-3.6172-11.688c0.23437-1.7305 0.57422-3.3906 1.0391-4.9492l1.9531 1.9531zm6.6484 14.141c0.64453 0.14062 1.0625 0.27734 1.7539-0.41016 0.48047-0.48047 0.54297-1.1328 0.41016-1.7539l4.7852-4.7852c0.55078-0.55078 0.55859-1.3047 0.30859-1.9922 0 0 0.007812 0 0.015624-0.007813 0.76172-0.76172 0.76172-1.9844 0-2.7383l-5.4453-5.4531 4.5312-4.5312c0.76172-0.76172 0.76172-1.9844 0-2.7383-0.76172-0.76172-1.9844-0.76172-2.7383 0l-4.5312 4.5312-3.2266-3.2266c2.2734-4.7773 4.3594-6.4062 7.2539-8.3398l5.2383 5.2383c0.023437 0.46484 0.17969 0.92969 0.53516 1.2812 0.35547 0.34766 0.81641 0.51172 1.2812 0.53516l2.4453 2.4453c0.75391 0.75391 1.9766 0.76172 2.7461 0 0.76172-0.76172 0.76172-1.9844 0-2.7383l-1.9766-1.9766 7.1758-7.168 3.0625 3.0625c0.046875 0.046875 0.125 0.03125 0.17969 0.078125-0.14062 0.62891-0.078124 1.2734 0.40234 1.7617 0.76953 0.76953 1.9922 0.74609 2.7461 0l6.5312-6.5312 4.9648 4.9648c0.75391 0.75391 1.9766 0.76172 2.7461 0 0.0625-0.0625 0.039062-0.16406 0.09375-0.22656 0.73047 0.38672 1.3867 0.62891 2.2344-0.21094l3.9023-3.9023 4.9883 4.9883c0.75391 0.75391 1.9766 0.76172 2.7461 0 0.74609-0.74609 0.73828-1.9375 0.015625-2.6992l5.0508-5.0508 5.8633 5.8555c0.75391 0.75391 1.9766 0.76172 2.7383 0 0.125-0.125 0.10938-0.30859 0.1875-0.45703 0.20312-0.09375 0.43359-0.085938 0.60547-0.25l4.9023-4.9023 3.9961 3.9961c0.75391 0.75391 1.9766 0.76172 2.7461 0 0.33984-0.33984 0.48047-0.79297 0.51172-1.2344 0.078125 0.125 0.054687 0.27734 0.16406 0.38672 0.75391 0.75391 1.9766 0.76172 2.7461 0l2.1406-2.1406 4.5312 4.5312c0.76953 0.76953 1.9922 0.74609 2.7461 0 0.76172-0.76172 0.76172-1.9844 0-2.7461l-3.5625-3.5703c16.461 4.7148 17.852 21.324 18.199 39.09l-111.35 1.6758zm83.75-39.41 0.30859 0.30859-2.1484 2.1484c-0.33984 0.33984-0.48047 0.79297-0.51172 1.2422-0.078124-0.125-0.054687-0.27734-0.16406-0.38672l-3.6836-3.6836c2.0664 0.046875 4.1445 0.14844 6.1992 0.37109zm-12.316-0.36328-3.957 3.9492-3.7383-3.7383c2.5664-0.046875 5.1484-0.19531 7.6953-0.21094zm-19.016 4.4531-2.2734-2.2734 1.6289-1.6289c1.5664-0.078125 3.1172-0.070313 4.6875-0.13281zm-8.8984-3.4141 1.1406 1.1406-3.9023 3.9023c-0.007813 0.007813 0 0.015625-0.007813 0.015625l-4.4609-4.4609c2.4141-0.19531 4.8203-0.44141 7.2305-0.59766zm-13.379 1.1016-3.9492 3.9492-2.9023-2.9023 0.51953-0.51953c2.1094-0.22266 4.2188-0.32422 6.332-0.52734zm-12.57 1.2734-6.9414 6.9414-4.0352-4.0352c3.3516-1.4648 7.1055-2.332 10.977-2.9062zm-50.812 11.746c3.0625-29.277 22.992-33.66 43.395-35.832 24.113-2.6719 48.27-4.0273 71.848-4.0273 38.176-0.054687 50.734 8.7891 53.094 53.332 0.19531 3.6055 0.37891 7.6641 0.25781 11.715-6.2539 0.0625-12.496 0.15625-18.773 0.25781-0.65234-35.148-10.039-48.43-42.789-48.43-17.145 0-34.684 0.96875-52.133 2.8867-19.316 2.1328-33.953 8.457-36.227 30.938-0.68359 6.3984-0.58984 11.945 0.27344 16.57-5.7812 0.10156-3.1719 0.0625-16.781 0.26562-2.6836-6.2891-3.4336-15.777-2.1641-27.676zm236.77 376.62c0.17969 42.559-8.7891 61.301-66.652 63.309-55.527 1.8711-111.76 1.5195-167.17-1.0469-59.656-2.6445-72.207-21.465-70.949-75.449 2.2188-106.3 5.2578-233.1 5.2578-233.1 10.332 2.0625 23.164 2.9727 33.676 2.9727 0.09375 4.375 0.29297 82.184 0.30859 86.598 0.125 43.258 0.25 86.52 0.30859 129.82 0.070312 9.9766 0.14844 20.285 4.8086 29.602 10.441 20.703 45.219 26.352 46.004-22.621l3.2969-226.64c10.797-0.92187 21.203-1.707 31.223-1.9766 0.29297 12.582 0.68359 211.8 0.69922 221.69 0.085937 9.9531 0.16406 20.246 4.8164 29.547 10.293 20.41 45.234 26.926 45.996-22.621l0.44141-30.199c0.15625-0.085937 0.33984-0.0625 0.47266-0.19531 0.76172-0.76172 0.76172-1.9844 0-2.7461l-0.42578-0.42578 2.8789-196.09 35.203-0.61328c2.6445 133.31-3.9336 234.01 5.5234 252.88 10.262 20.402 45.234 26.941 45.996-22.621l3.3711-231.32c6.8438-0.27344 13.887-0.875 20.645-2.0391 4.9258-0.83594 11.348-2.5273 13.352-3.2109 0.22656 4.3125 0.90234 252.18 0.91797 256.5zm-87.363-259.62c0.37891 0.37891 0.86719 0.56641 1.375 0.56641 0.49609 0 0.99219-0.1875 1.375-0.56641 0.76172-0.76172 0.76172-1.9844 0-2.7461l-2.2109-2.2109 4.6797-4.6797 6.3828 6.3828-2.6211 2.6211c-0.57422 0.57422-0.57422 1.3789-0.27344 2.0859l-7.3867 0.125c-0.046875 0-0.085938 0.023437-0.13281 0.03125l-7.3555 0.125 3.9648-3.9648zm15.305-0.33594c0.49609 0 0.99219-0.1875 1.375-0.56641 0.59766-0.59766 0.58984-1.4492 0.24219-2.1719l5.4141-5.4141 7.168 7.168c0.25781 0.25781 0.58984 0.29297 0.91406 0.37891l-1.457 1.457c-0.17188 0.17188-0.16406 0.41016-0.25781 0.61328l-16.27 0.27344 2.0781-2.0781c0.25781 0.14062 0.49609 0.33984 0.79297 0.33984zm25.613-24.359 6.625 6.625-5.8164 5.8164-7.8125-7.8125 6.7578-6.7578c-0.33594 0.71094-0.34375 1.5391 0.24609 2.1289zm41.723 9.7617-4.625 4.625c-0.13281 0.13281-0.11719 0.32422-0.20312 0.48047l-5.957-5.957 4.957-4.957zm-3.0742-8.5664 9.8125-9.8125 5.8164 5.8164-9.8125 9.8125zm-0.25391 20.645c-0.023438 0.007813-0.41016 0.14062-0.71484 0.21875-3.0859 0.78516-6.2617 1.375-9.4492 1.8398 0.078125-0.58203-0.015625-1.1719-0.46484-1.6211l-5.1055-5.1055 5.5312-5.5312zm-18.473-7.4102-7.8125-7.8125 5.5312-5.5312 7.8125 7.8125zm-2.7461 2.7461-3.4766 3.4766c-1.832 1.832 0.96094 4.5234 2.7383 2.7461l3.4844-3.4766 4.4219 4.4219c-8.9766 1.0078-12.777 1.1016-31.355 1.4023l7.8281-7.8281 5.918 5.9258c0.75391 0.75391 1.9766 0.76172 2.7461 0 0.76172-0.76172 0.76172-1.9844 0-2.7461l-5.918-5.918 5.8164-5.8164zm-210.31 22.887c0.35547-0.023438 0.70703-0.046876 1.0625-0.070313 0.13281-0.007813 0.26562-0.023437 0.40234-0.03125 1.4961-0.10938 2.9883-0.23438 4.4844-0.34766 0.09375 0.17969 0.078126 0.39453 0.22656 0.55078l0.27734 0.27734-3.0352 3.0352zm-16.598 11.984c0.75391 0.75391 1.9766 0.76172 2.7461 0l2.4297-2.4297 4.1875 4.1875-5.832 5.8398-5.3359-5.3359-0.03125-10.465c0-0.42578-0.007812-0.82813-0.015625-1.25l4.2891 4.2812-2.4297 2.4297c-0.76953 0.75781-0.76953 1.9805-0.007812 2.7422zm-1.6914 44.188 0.31641 0.31641-0.31641 0.31641zm-0.054687-19.207 2.6914 2.6914-2.6758 2.6758zm-0.054688-17.215 2.5742 2.5742-2.5586 2.5664zm3.6367-19.008c1.0547-0.039063 2.1094-0.070313 3.1719-0.11719 0.35547-0.015626 0.72266-0.023438 1.0781-0.039063 0.89844-0.039063 1.793-0.078125 2.6914-0.125l-3.6055 3.6055zm-3.4727 73.305 0.43359 0.43359-0.42578 0.42578zm3.1953 3.1484c0.85156 0.79297 1.9844 0.66016 2.668-0.03125 0.73828-0.73828 0.73047-1.9102 0.03125-2.668l8.2461-8.2461c0.76172-0.76172 0.76172-1.9844 0-2.7461-0.76172-0.76172-1.9844-0.76172-2.7383 0l-8.2227 8.2227-3.1875-3.1953-0.015625-6.2695 3.0391-3.0391 4.0898 4.0898c0.75391 0.75391 1.9766 0.76172 2.7461 0 0.76172-0.76172 0.76172-1.9844 0-2.7461l-4.0898-4.082 10.125-10.125c0.76172-0.76172 0.76172-1.9844 0-2.7383-0.75391-0.75391-1.9844-0.76953-2.7461 0l-10.125 10.117-3.0781-3.0781-0.015625-3.3477c0.28516-0.09375 0.60547-0.11719 0.82812-0.34766l4.5703-4.5703 1.6836 1.6836c0.75391 0.75391 1.9766 0.76172 2.7461 0 0.76172-0.76172 0.76172-1.9844 0-2.7461l-1.6836-1.6836 10.914-10.914c0.76172-0.76172 0.76172-1.9844 0-2.7461-0.76172-0.76172-1.9844-0.76172-2.7461 0l-10.914 10.914-5.4453-5.4453-0.015625-2.6172c0.17969 0.054688 0.32422 0.21094 0.51172 0.21094 0.49609 0 0.99219-0.1875 1.375-0.56641l3.4141-3.4141 2.7305 2.7305c0.75391 0.75391 1.9766 0.76172 2.7383 0s0.76172-1.9844 0-2.7461l-2.7305-2.7305 6.3164-6.3164c1.0547-0.0625 1.7305-0.74609 1.793-1.793l0.38672-0.38672c0.76172-0.76172 0.76172-1.9844 0-2.7461-0.72266-0.72266-1.8633-0.71484-2.6211-0.046875l-4.2188-4.2188 4.4531-4.4531c0.21875-0.21875 0.23438-0.51953 0.32422-0.79297l4.9492 4.9492c-0.039063 0.54297 0.10156 1.0859 0.51172 1.5039 0.37891 0.37891 0.86719 0.56641 1.375 0.56641 0.046874 0 0.085937-0.054687 0.13281-0.054687l2.6523 2.6602c0.75391 0.75391 1.9766 0.76172 2.7461 0 0.76172-0.76172 0.76172-1.9844 0-2.7461l-2.2969-2.2969 3.0352-3.0352 4.4141 4.4062c0.75391 0.75391 1.9766 0.76172 2.7383 0 0.76172-0.76172 0.76172-1.9844 0-2.7461l-4.4062-4.4062 0.30078-0.30078c0.28516-0.28516 0.36328-0.67578 0.43359-1.0469 2.6758-0.22656 5.3516-0.45703 8.0195-0.69141l-2.4453 167.96-4.4609-4.4609c-0.76172-0.75391-1.9766-0.76172-2.7461 0-0.76172 0.76172-0.76172 1.9844 0 2.7461l6.7109 6.7188-6.4141 6.4141c-0.76172 0.76172-0.76172 1.9844 0 2.7461 0.76953 0.76953 1.9922 0.74609 2.7461 0l4.0117-4.0117-0.125 8.4336c-0.078124 0.015625-0.14844 0.070312-0.23437 0.09375l-0.66797-0.66797c-0.76953-0.76953-1.9922-0.75391-2.7461 0-0.76172 0.76172-0.76172 1.9844 0 2.7461l0.42578 0.42578-5.5156 5.5156c-0.76172 0.76172-0.76172 1.9844 0 2.7461 0.75391 0.75391 1.9766 0.76172 2.7461 0l5.5156-5.5156 0.38672 0.38672-0.17969 12.188-0.0625 0.0625-1.1719-1.1719c-0.76172-0.76953-1.9844-0.75391-2.7461 0-0.76172 0.76172-0.76172 1.9844 0 2.7461l1.1797 1.1719-5.9648 5.9648c-0.54297 0.55078-0.55859 1.2969-0.31641 1.9844-0.085938 0.0625-0.20312 0.039063-0.27734 0.11719-0.76172 0.76172-0.76172 1.9844 0 2.7461l6.5312 6.5312c-0.50391-0.007812-1.0078 0.17969-1.3945 0.55859l-7.9609 7.9609-4.6172-4.6172c-0.76172-0.76172-1.9844-0.76172-2.7461 0-0.76172 0.76172-0.76172 1.9844 0 2.7461l4.6172 4.6172-4.7461 4.7461-6.4141-6.4141c-0.76172-0.76172-1.9844-0.76172-2.7461 0-0.76172 0.76172-0.76172 1.9844 0 2.7461l6.4141 6.4141-4.918 4.918c-0.68359 0.68359-0.66016 1.707-0.11719 2.4609-1.6914-1.6602-3.1484-3.5625-4.1719-5.5859-3.8477-7.7031-3.918-17.098-3.9883-26.184-0.0625-43.273-0.1875-86.535-0.30859-129.79l-0.023438-7.1289zm31.457 158.42c-0.60547-0.10938-1.2266-0.039063-1.6992 0.43359l-2.2969 2.2969-4.1484-4.1484 7.9609-7.9609c0.37891-0.37891 0.56641-0.88281 0.55859-1.3867l0.56641 0.56641c-0.089844 3.3242-0.38281 6.8086-0.94141 10.199zm-11.062 9.7891c-0.16406 0.16406-0.15625 0.40234-0.25 0.60547l-4.3203-4.3203 4.7461-4.7461 4.1406 4.1484zm6.3672-31.125 5.918-5.9258-0.17188 11.676zm-18.594 35.066 4.918-4.918 6.4219 6.4297c0.75391 0.75391 1.9766 0.76172 2.7383 0 0.66797-0.66016 0.63672-1.6445 0.14062-2.3984 0.25781-0.09375 0.53516-0.10156 0.74609-0.30859l4.3203-4.3203 1.2656 1.2656c0.007813 0.007812 0.015625 0 0.023438 0.007812-5.1133 11.41-15.25 11.582-23.008 4.375 0.95312 0.64844 1.7812 0.51953 2.4336-0.13281zm22.047-8.2461-0.015625-0.015625 0.03125-0.03125c0 0.015625-0.007812 0.03125-0.015625 0.046875zm72.578-245.93 2.6914-0.046875-1.3672 1.3672zm-18.695 9.8945c0.75391 0.75391 1.9766 0.76172 2.7461 0l2.4297-2.4297 4.1875 4.1875-5.8398 5.8398-4.9727-4.9727c-0.015625-5.6953 0-6.1289-0.16406-11.848l4.043 4.043-2.4297 2.4297c-0.75781 0.76172-0.75781 1.9883 0 2.75zm-1.3867 25.336 2.3359 2.3281-2.3203 2.3203zm-0.054688-17.207 2.2109 2.2109-2.2031 2.2031zm4.9023-17.758 3.4844-0.0625-1.7695 1.7773zm-4.7383 72.035 0.078125 0.078125-0.070313 0.078125zm2.8359 2.8008c0.85938 0.79297 1.9844 0.65234 2.668-0.03125 0.73828-0.73828 0.73047-1.9102 0.03125-2.668l8.2461-8.2461c0.76172-0.76172 0.76172-1.9844 0-2.7461-0.76172-0.76172-1.9844-0.76172-2.7461 0l-8.2227 8.2227-2.832-2.832-0.023437-6.9805 2.6836-2.6836 4.082 4.082c0.75391 0.75391 1.9766 0.76172 2.7461 0 0.76172-0.76172 0.76172-1.9844 0-2.7461l-4.082-4.082 10.125-10.117c0.76172-0.76172 0.76172-1.9844 0-2.7461-0.76172-0.76172-1.9844-0.76172-2.7461 0l-10.125 10.117-2.7227-2.7227-0.015624-3.8633c0.15625-0.085938 0.33984-0.0625 0.47266-0.19531l4.5703-4.5703 1.6758 1.6758c0.74609 0.75391 1.9766 0.76953 2.7461 0 0.76172-0.76172 0.76172-1.9844 0-2.7461l-1.6562-1.6602 10.914-10.914c0.76172-0.76172 0.76172-1.9844 0-2.7461-0.76172-0.76172-1.9844-0.76172-2.7461 0l-10.914 10.914-5.0898-5.0859-0.007813-2.8398c0.054688 0.007813 0.09375 0.0625 0.14844 0.0625 0.49609 0 0.99219-0.1875 1.375-0.56641l3.4141-3.4141 2.7227 2.7227c0.75391 0.75391 1.9766 0.76172 2.7461 0 0.76172-0.76172 0.76172-1.9844 0-2.7383l-2.7227-2.7227 6.3086-6.3164c0.46484-0.023438 0.92188-0.17969 1.2734-0.52734 0.34766-0.34766 0.50391-0.81641 0.52734-1.2734l0.38672-0.38672c0.76172-0.76172 0.76172-1.9844 0-2.7461-0.73047-0.73047-1.8711-0.71484-2.6289-0.046875l-4.2188-4.2188 4.4531-4.4531c0.046874-0.046875 0.023437-0.10938 0.0625-0.15625l0.875-0.015625 4.3281 4.3281c-0.039062 0.54297 0.10156 1.0859 0.51172 1.5039 0.37891 0.37891 0.86719 0.56641 1.375 0.56641 0.046875 0 0.085938-0.054688 0.13281-0.054688l2.6602 2.6523c0.75391 0.75391 1.9766 0.76172 2.7461 0 0.76172-0.76172 0.76172-1.9844 0-2.7461l-2.2969-2.2891 3.0352-3.0352 4.4062 4.4062c0.76953 0.76953 1.9922 0.74609 2.7461 0 0.76172-0.76172 0.76172-1.9844 0-2.7461l-2.8945-2.8945 7.6953-0.13281-2.4844 169.41-2.3984-2.3984c-0.76172-0.75391-1.9844-0.76172-2.7461 0-0.76172 0.76172-0.76172 1.9844 0 2.7461l5.0586 5.0664-0.050782 3.3594-4.707 4.707c-0.76172 0.76172-0.76172 1.9844 0 2.7461 0.76953 0.76953 1.9922 0.74609 2.7461 0l1.8867-1.8867-0.078126 5.2422c-0.55859-0.054687-1.125 0.0625-1.5508 0.48828-0.76172 0.76172-0.76172 1.9844 0 2.7461l0.41797 0.41797-5.5234 5.5234c-0.76172 0.76172-0.76172 1.9844 0 2.7461 0.75391 0.75391 1.9766 0.76172 2.7461 0l3.793-3.793-0.14062 9.3789c-0.66016-0.20312-1.3672-0.17969-1.8945 0.34766-0.76172 0.76172-0.76172 1.9844 0 2.7461l1.1719 1.1719-5.9648 5.9648c-0.55078 0.55078-0.55859 1.2969-0.31641 1.9844-0.085938 0.0625-0.20312 0.039062-0.27734 0.11719-0.76172 0.76172-0.76172 1.9844 0 2.7461l6.5312 6.5312c-0.50391-0.007813-1.0078 0.17969-1.3945 0.55859l-7.9609 7.9609-4.6172-4.6172c-0.75391-0.75391-1.9766-0.76172-2.7461 0-0.76172 0.76172-0.76172 1.9844 0 2.7461l4.6172 4.6172-4.7461 4.7461-6.4141-6.4141c-0.76172-0.76172-1.9844-0.76172-2.7461 0-0.76172 0.76172-0.76172 1.9844 0 2.7461l6.4141 6.4141-4.918 4.918c-0.76172 0.76172-0.76172 1.9844 0 2.7383 0.75391 0.75391 1.9766 0.76172 2.7383 0l4.918-4.918 6.4219 6.4297c0.75391 0.75391 1.9766 0.76172 2.7461 0 0.66016-0.66016 0.63672-1.6445 0.14062-2.3984 0.25781-0.09375 0.54297-0.10156 0.75391-0.30859l3.8477-3.8477c-6.7734 16.508-22.426 10.148-27.941-0.82422-3.8477-7.6875-3.918-17.066-3.9961-26.184-0.0625-45.164-0.21094-98.164-0.33984-144.21zm22.879 175.14c-0.17188 0.17188-0.15625 0.40234-0.25781 0.60547l-4.3281-4.3281 4.7461-4.7461 4.1484 4.1484zm2.9102-11.211 6.918-6.918c-0.14844 3.0938-0.47266 6.2617-1.0391 9.332l-1.7305 1.7305zm7.1289-16.227-3.6836-3.6836 3.793-3.793zm73.578-224.36 2.918-0.054687-1.4883 1.4805zm-15.84 10 2.4219-2.4219 4.1875 4.1875-5.832 5.8398-4.3672-4.3672c-0.015626-5.8477 0-5.1758-0.14844-11.824l3.4219 3.4219-2.4297 2.4219c-1.8008 1.8047 0.92187 4.5586 2.7461 2.7422zm-3.5195 25.949 1.7227 1.7227-1.7148 1.7148zm-0.054688-17.215 1.6133 1.6133-1.5977 1.5977zm4.1641-18.469 3.7305-0.0625-1.9023 1.8945zm-1.7773 74.945c1.832 1.6836 4.3906-0.875 2.6992-2.6992l8.2461-8.2461c0.76172-0.76172 0.76172-1.9844 0-2.7461-0.75391-0.75391-1.9766-0.76172-2.7383 0l-8.2227 8.2227-2.2266-2.2266-0.023438-8.1836 2.0938-2.0938 4.0898 4.0898c0.75391 0.75391 1.9766 0.76172 2.7461 0 0.76172-0.76172 0.76172-1.9844 0-2.7461l-4.0898-4.0898 10.117-10.117c0.76172-0.76172 0.76172-1.9844 0-2.7461-0.76172-0.76172-1.9844-0.76172-2.7461 0l-10.117 10.117-2.1172-2.1172-0.015625-4.793 4.4375-4.4375 1.6836 1.6836c0.75391 0.75391 1.9766 0.76172 2.7461 0 0.76172-0.76172 0.76172-1.9844 0-2.7383l-1.6836-1.6836 10.914-10.914c0.76172-0.76172 0.76172-1.9844 0-2.7461-0.76172-0.76172-1.9844-0.76172-2.7461 0l-10.914 10.914-4.4844-4.4844-0.007813-3.5703c0.32422-0.085937 0.66016-0.125 0.91406-0.37891l3.4141-3.4141 2.7305 2.7305c0.75391 0.75391 1.9766 0.76172 2.7461 0 0.76172-0.76172 0.76172-1.9844 0-2.7461l-2.7344-2.7031 6.3164-6.3164c0.45703-0.023437 0.91406-0.17969 1.2656-0.52734 0.34766-0.34766 0.49609-0.80859 0.52734-1.2656l0.38672-0.38672c0.76172-0.76172 0.76172-1.9844 0-2.7461-0.72266-0.73047-1.8633-0.71484-2.6211-0.046875l-4.2305-4.2227 4.4609-4.4609c0.078124-0.078125 0.054687-0.19531 0.11719-0.27344l0.71484-0.015625 4.4453 4.4453c-0.039062 0.54297 0.09375 1.0859 0.51172 1.5039 0.37891 0.37891 0.86719 0.56641 1.375 0.56641 0.046875 0 0.085938-0.054688 0.13281-0.054688l2.6523 2.6523c0.76953 0.76953 1.9922 0.75391 2.7461 0 0.76172-0.76172 0.76172-1.9844 0-2.7383l-2.2891-2.2891 3.0352-3.0352 4.4062 4.4062c0.37891 0.37891 0.875 0.56641 1.375 0.56641 0.49609 0 0.99219-0.1875 1.375-0.56641 0.76172-0.76172 0.76172-1.9844 0-2.7461l-3.0117-3.0039c8.4023-0.14844 8.4336-0.13281 8.4336-0.13281l-2.543 174.09-5.5312-5.5312c-0.76172-0.76172-1.9844-0.76172-2.7383 0-0.76172 0.76172-0.76172 1.9844 0 2.7461l6.7188 6.7188-6.4141 6.4141c-0.76172 0.76172-0.76172 1.9844 0 2.7461 0.75391 0.75391 1.9766 0.76172 2.7461 0l5.1133-5.1133-0.14062 9.7188c-0.44141-0.20312-0.85156-0.23438-1.3047-0.09375l-0.66797-0.66797c-0.76172-0.76172-1.9844-0.76172-2.7383 0-0.76172 0.76172-0.76172 1.9844 0 2.7461l0.42578 0.42578-5.5156 5.5156c-0.76172 0.76172-0.76172 1.9844 0 2.7461 0.75391 0.75391 1.9766 0.76172 2.7461 0l5.5156-5.5156 1.4492 1.4492-0.14844 10.262c-0.13281 0.078125-0.29297 0.054687-0.40234 0.16406l-0.75391 0.75391-1.1719-1.1719c-0.76953-0.76953-1.9922-0.75391-2.7461 0-0.76172 0.76172-0.76172 1.9844 0 2.7461l1.1719 1.1719-5.9648 5.9648c-0.55078 0.55078-0.55859 1.2969-0.31641 1.9766-0.085937 0.0625-0.21094 0.039062-0.28516 0.11719-0.76172 0.76172-0.76172 1.9844 0 2.7461l6.5312 6.5312c-0.50391-0.007813-1.0078 0.17969-1.3867 0.55859l-7.9688 7.9609-4.6172-4.6172c-0.76172-0.76172-1.9844-0.76172-2.7461 0-0.76172 0.76172-0.76172 1.9844 0 2.7461l4.6172 4.6172-4.7461 4.7383-6.4141-6.4141c-0.76172-0.76172-1.9844-0.76172-2.7461 0-0.76172 0.76172-0.76172 1.9844 0 2.7461l6.4141 6.4141-4.918 4.918c-0.27344 0.27344-0.33203 0.63672-0.41016 0.99219-1.0938-1.2891-2.0547-2.668-2.7852-4.1133-5.3281-10.66-3.8867-9.5586-4.3516-172.43zm26.664 145.46 5.9492-5.9414 0.43359 0.43359c0.17188 0.17188 0.41016 0.16406 0.61328 0.25781l-0.17969 12.078zm-6.3516 31.125c-0.16406 0.16406-0.15625 0.40234-0.25 0.60547l-4.3203-4.3203 4.7461-4.7461 4.1484 4.1484zm-12.234 3.9414 4.918-4.918 6.4297 6.4297c0.75391 0.75391 1.9766 0.76172 2.7461 0 0.66016-0.66016 0.63672-1.6445 0.14062-2.3984 0.25781-0.09375 0.53516-0.10156 0.74609-0.30859l4.3203-4.3203 1.2656 1.2656c0.26563 0.26562 0.61328 0.30859 0.94531 0.39453-5.0117 10.723-14.785 11.25-22.543 4.2891 0.35547-0.078125 0.74219-0.14844 1.0312-0.43359zm22.898-7.3945-0.86719-0.86719 1.5117-1.5117c-0.19531 0.80469-0.39453 1.6133-0.64453 2.3789zm1.4062-5.9258c-0.75391-0.72266-1.9531-0.73828-2.707 0.015625l-2.3047 2.2969-4.1484-4.1484 7.9688-7.9688c0.37891-0.37891 0.56641-0.88281 0.55859-1.3867l0.99219 0.99219c0.17188 0.17188 0.41016 0.16406 0.62109 0.25781-0.11328 3.2773-0.41406 6.6523-0.98047 9.9414zm-1.2656-260.91-6.375 6.3672c-0.085938-0.32422-0.125-0.66016-0.37891-0.91406l-7.168-7.168 6.1055-6.1055zm44.426 5.2734-3.1328-3.1328c0.15625-0.085938 0.34766-0.070313 0.48047-0.20312l4.6172-4.625 3.2422 3.2422c0.75391 0.75391 1.9766 0.76172 2.7461 0 0.76172-0.76172 0.76172-1.9844 0-2.7461l-3.2422-3.2422 9.8125-9.8125 2.3828 2.3828c0.75391 0.75391 1.9766 0.76172 2.7461 0 0.76172-0.76172 0.76172-1.9844 0-2.7461l-2.3828-2.3828 2.3438-2.3438c0.76172-0.76172 0.76172-1.9844 0-2.7461-0.76172-0.76172-1.9844-0.76172-2.7461 0l-2.3438 2.3438-5.8086-5.8164 1.4805-1.4805c0.76172-0.76172 0.76172-1.9844 0-2.7383-0.76172-0.76172-1.9844-0.76172-2.7461 0l-1.4805 1.4805-1.7695-1.7695c-0.76172-0.75391-1.9844-0.76172-2.7461 0s-0.76172 1.9844 0 2.7383l1.7695 1.7695-9.8125 9.8125-4.625-4.625c-0.76172-0.76172-1.9844-0.76172-2.7461 0-0.76172 0.76172-0.76172 1.9844 0 2.7461l4.625 4.625-4.9648 4.9648-7.8125-7.8125 9.3398-9.3398c0.76172-0.76172 0.76172-1.9844 0-2.7461-0.76172-0.76172-1.9844-0.76172-2.7461 0l-9.3398 9.3398-3.4844-3.4844c-0.76172-0.76172-1.9844-0.76172-2.7461 0-0.76172 0.76172-0.76172 1.9844 0 2.7461l3.4844 3.4844-5.5312 5.5312-6.625-6.625c-0.58984-0.58984-1.418-0.58203-2.1328-0.25l3.0273-3.0273c0.76172-0.76172 0.76172-1.9844 0-2.7461-0.76172-0.76172-1.9844-0.76172-2.7461 0l-10.645 10.645-1.1953-1.1953c-0.76172-0.76172-1.9844-0.76172-2.7383 0-0.76172 0.76172-0.76172 1.9844 0 2.7461l1.1953 1.1953-6.1055 6.1055-2.6211-2.6211c-0.76172-0.76172-1.9844-0.76172-2.7461 0s-0.76172 1.9844 0 2.7383l2.6211 2.6211-5.2422 5.2422-6.3828-6.3828 6.8594-6.8594c0.76172-0.76172 0.76172-1.9844 0-2.7461-0.76172-0.76172-1.9844-0.76172-2.7461 0l-14.281 14.273-4.3359-4.3359c-0.76172-0.76172-1.9844-0.76172-2.7461 0-0.76172 0.76172-0.76172 1.9844 0 2.7461l4.3359 4.3359-6.8047 6.8047c-156.14 2.6992-170 11.793-203.26 2.8242-46.832-13.086-49.633-60.309-8.5039-78.18 20.27-8.7734 41.984-7.4336 87.016-8.2148 206.68-3.1094 213.57-5.9883 231.34 4.5625 3.0703 1.832 5.793 4.2422 8.1836 7.0273l-0.52734 0.52734-1.1953-1.2031c-0.76172-0.76172-1.9844-0.76172-2.7461 0-0.76172 0.76172-0.76172 1.9844 0 2.7461l1.1953 1.1953-1.7695 1.7617c-0.76172 0.76172-0.76172 1.9844 0 2.7461 0.76953 0.76953 1.9922 0.74609 2.7461 0l1.7695-1.7617 4.375 4.375c0.37891 0.37891 0.86719 0.56641 1.375 0.56641 0.43359 0 0.84375-0.21094 1.2031-0.49609 0.58203 1.3789 1.0938 2.8008 1.5273 4.2578-0.66016-0.20312-1.375-0.17969-1.9102 0.34766l-4.5781 4.5781-3.1953-3.1953c-0.76172-0.76172-1.9844-0.76172-2.7461 0s-0.76172 1.9844 0 2.7461l3.1953 3.1953-3.7617 3.7617c-0.76172 0.76172-0.76172 1.9844 0 2.7461 0.75391 0.75391 1.9766 0.76172 2.7461 0l3.7617-3.7617 2.9492 2.9492c0.75391 0.75391 1.9766 0.76172 2.7461 0 0.76172-0.76172 0.76172-1.9844 0-2.7383l-2.9492-2.9492c0.69141-0.69141 3.918-3.9023 4.5938-4.6172 3.2812 14.594-0.875 28.781-9.543 37.336-6.4023 6.2305-11.695 8.3945-18.848 10.789z"/>
  <path d="m236 106.75c-6.0039-0.49609-12.031-0.80859-18.051-1.1016l-0.30078-1.4492c-0.21094-1.0469-1.2188-1.7539-2.2969-1.5039-1.0469 0.21875-1.7227 1.2422-1.5039 2.2891l0.085938 0.41016c-5.2422-0.22656-10.496-0.28516-15.746-0.36328-0.10156-0.70703-0.21094-1.4102-0.28516-2.1172-0.11719-1.0625-1.0156-1.8477-2.1328-1.7148-1.0703 0.11719-1.832 1.0781-1.7148 2.1406 0.054687 0.51172 0.15625 1.0781 0.21875 1.6211-4.2969-0.03125-8.5938-0.007813-12.895 0.054687l-0.09375-0.80859c-0.11719-1.0625-1.1328-1.8711-2.1328-1.7148-1.0703 0.11719-1.832 1.0781-1.7148 2.1406l0.054688 0.48047c-5.8555 0.13281-11.707 0.30078-17.555 0.62109l-1.2109-2.4141c-0.48047-0.95312-1.6445-1.3359-2.6055-0.85938-0.95312 0.48047-1.3438 1.6445-0.85938 2.6055l0.47266 0.94531c-4.957 0.30078-9.9219 0.55078-14.863 0.98438-0.51953 0.046875-1.0547 0.11719-1.582 0.16406-1.3125-1.4336-2.6211-2.8789-4.1641-4.0586-0.85156-0.66016-2.0781-0.50391-2.7227 0.35547-0.65234 0.84375-0.48828 2.0625 0.35547 2.7148 0.57422 0.43359 1.0078 1.0234 1.543 1.5039-6.5938 0.78516-13.164 2.1484-19.285 4.7383l-4.9414-3.5859c-0.85938-0.62109-2.0781-0.43359-2.707 0.43359-0.62891 0.86719-0.44141 2.0859 0.43359 2.7148l3.1484 2.2812c-4.4766 2.4609-7.8828 5.5469-10.66 9.1914-1.8945-1.7227-3.7617-3.4688-5.4844-5.3594-0.72266-0.79297-1.9453-0.84375-2.7383-0.125-0.79297 0.72266-0.84375 1.9453-0.13281 2.7383 1.9375 2.125 4.0273 4.1133 6.168 6.0273-2.4961 4.3594-3.918 9.332-3.2734 14.629 0.13281 1.0938 1.1328 1.832 2.1562 1.6914 1.0625-0.13281 1.8164-1.0938 1.6914-2.1562-0.50391-4.1641 0.54297-8.1211 2.4375-11.66 1.8711 1.5273 3.7383 3.0625 5.7266 4.4297 0.92188 0.62109 2.1172 0.35547 2.6992-0.50391 0.60547-0.88281 0.37891-2.0859-0.49609-2.6914-2.0312-1.3867-3.9414-2.9492-5.832-4.5156 3.6367-4.8555 6.9883-6.9883 11.34-9.1055l6.6328 4.8086c0.85938 0.62891 2.0781 0.43359 2.707-0.43359 0.62891-0.86719 0.44141-2.0859-0.43359-2.7148l-4.8164-3.5c6.0742-2.1953 12.668-3.1719 19.184-3.832 1.3438 1.6992 2.5273 3.5234 3.4609 5.4766 0.47266 0.99219 1.6523 1.3672 2.582 0.91406 0.96875-0.46484 1.3789-1.6133 0.91406-2.582-0.72266-1.5039-1.7305-2.8477-2.668-4.2188 5.1602-0.44141 10.332-0.73047 15.516-1.0234l2.6836 5.3438c0.48828 0.98438 1.668 1.3359 2.6055 0.86719 0.95312-0.48047 1.3438-1.6445 0.85938-2.5977l-1.9531-3.8867c5.3594-0.27344 10.723-0.39453 16.098-0.51172l0.44922 4.0664c0.10938 0.99219 0.94531 1.7305 1.9258 1.7305 0.070313 0 0.14062 0 0.21094-0.015624 1.0703-0.11719 1.832-1.0781 1.7148-2.1406l-0.41016-3.7383c4.4375-0.0625 8.875-0.078125 13.312-0.03125 0.15625 0.50391 0.22656 1.0234 0.43359 1.5195 1.2031 2.832 3.3359 4.8711 5.8398 5.6094 1.0391 0.30078 2.1094-0.29297 2.4141-1.3203 0.29297-1.0234-0.29297-2.1016-1.3203-2.4062-1.3516-0.38672-2.5742-1.6445-3.3125-3.3281 5.1992 0.085938 10.387 0.17188 15.578 0.40234l1.3359 6.4375c0.22656 1.0781 1.2969 1.7227 2.2969 1.5039 1.0469-0.21875 1.7227-1.2422 1.5039-2.2891l-1.1328-5.3789c5.6484 0.29297 11.297 0.56641 16.918 1.0312 1.0547 0.085938 2-0.69922 2.0938-1.7773 0.097656-1.0586-0.70313-2-1.7734-2.082z"/>
 </g>
</svg>
