<?xml version="1.0" encoding="UTF-8" standalone="no"?>
<!DOCTYPE svg PUBLIC "-//W3C//DTD SVG 1.1//EN" "http://www.w3.org/Graphics/SVG/1.1/DTD/svg11.dtd">
<svg width="100%" height="100%" viewBox="0 0 1200 1200" version="1.1" xmlns="http://www.w3.org/2000/svg" xmlns:xlink="http://www.w3.org/1999/xlink" xml:space="preserve" xmlns:serif="http://www.serif.com/" style="fill-rule:evenodd;clip-rule:evenodd;stroke-linejoin:round;stroke-miterlimit:2;">
    <path d="M1199.8,1007.5C1198.24,988.539 1185.64,972.582 1166.8,962.262C1174.6,952.543 1178.44,941.383 1177.48,929.864C1174.72,899.024 1136.68,877.305 1092.76,881.262C1069.96,883.422 1050.04,892.18 1036.6,904.422L1036.12,904.18C1036.48,900.942 1035.52,897.102 1033.24,893.02C1019.32,870.219 974.918,843.098 958.359,831.098C937.238,815.743 896.558,793.301 847.719,779.621C712.479,741.82 556.479,875.5 446.439,973.661L442.361,977.262C370.361,1041.46 248.321,1150.42 141.641,1150.42C116.801,1150.42 92.922,1144.42 70.602,1130.86C59.321,1123.9 52.602,1111.54 50.204,1092.82C42.758,1037.14 75.04,935.024 141.161,805.304C196.001,698.384 254.681,610.184 269.201,593.744C313.599,592.065 370.241,566.506 438.401,517.303C497.323,474.823 543.161,429.944 545.081,428.264C545.081,428.264 558.761,417.944 560.081,413.623C560.202,410.745 558.76,406.784 556.479,402.701C670.959,303.221 760.599,220.781 825.639,141.821C827.319,139.661 829.119,137.501 831.037,135.341C855.396,105.821 883.115,72.462 871.478,49.661C864.279,35.86 845.318,29.622 812.08,30.341C809.436,25.06 805.237,20.622 798.756,18.462C790.956,17.142 773.557,17.622 773.557,17.622C770.077,12.7 738.756,2.743 731.319,37.782C727.96,69.341 769.116,79.54 788.678,63.583L801.639,62.622C808.717,61.423 813.28,53.743 814.119,45.102C846.639,44.743 855.881,51.821 858.279,56.622C865.6,70.661 838.838,102.583 819.4,125.743C817.717,128.02 816.037,130.181 814.115,132.22C749.916,210.341 660.995,292.18 547.355,390.94C542.195,385.78 536.433,382.78 532.835,384.94C527.316,389.979 516.874,399.1 516.874,399.1C516.515,399.58 470.073,442.299 413.674,483.338C351.752,527.979 299.794,551.736 265.114,551.736C260.192,551.736 255.876,551.376 251.673,550.537C244.353,548.74 241.712,545.376 240.032,542.259C224.071,512.138 258.391,424.179 271.352,391.179C272.551,388.179 273.633,385.539 274.59,382.898L279.751,369.578C280.59,365.742 276.032,361.059 269.673,357.461C306.275,246.221 402.393,101.021 437.073,61.901C469.593,24.94 510.632,24.1 557.193,28.663C557.552,35.741 560.794,42.702 568.353,47.741C576.153,49.061 597.033,49.061 597.033,49.061C603.271,52.659 636.752,64.78 644.314,29.62C647.552,-1.7 610.236,-4.099 606.513,3.94L574.111,3.581C568.474,4.659 563.673,8.741 560.552,14.019C519.392,9.699 465.993,6.46 426.032,51.941C390.993,91.902 293.072,239.741 255.752,352.901C248.674,352.182 241.713,354.1 238.592,360.94L235.592,367.538C234.635,370.178 233.674,372.698 232.474,375.698C206.072,443.018 180.033,518.378 203.193,562.298C207.033,569.259 211.834,575.259 217.834,579.939C156.033,666.099 -17.606,957.699 1.474,1099.78C6.033,1133.5 20.673,1158.22 45.154,1173.22C74.314,1191.34 106.474,1199.98 141.392,1199.98C183.033,1199.98 228.751,1187.14 277.952,1161.58C349.952,1123.66 417.392,1065.82 474.992,1014.58L478.836,1010.86C580.596,920.138 718.236,802.657 829.236,826.537C917.677,845.498 973.116,919.658 998.676,930.817C1002.04,932.259 1008.16,931.657 1014.03,928.419L1019.2,932.38C1018.36,936.341 1017.88,940.181 1018.36,944.38C1019.32,955.778 1025.07,965.982 1034.2,973.778C1017.16,987.579 1007.56,1006.06 1009.24,1024.9C1012.47,1061.86 1057.95,1087.78 1110.52,1082.98C1163.19,1077.94 1203.27,1044.21 1199.8,1007.5L1199.8,1007.5Z" style="fill-rule:nonzero;"/>
    <g transform="matrix(0.364073,0,0,0.364073,865.591,479.152)">
        <g transform="matrix(1,0,0,1,-600,-600)">
            <path d="M1148.4,870L732,172.8C704.398,125.999 655.199,98.402 600,98.402C544.801,98.402 495.6,126.004 468,172.8L51.6,870C22.799,918 22.799,975.6 50.401,1024.8C78.003,1074 128.401,1102.8 183.601,1102.8L1016.4,1102.8C1072.8,1102.8 1122,1074 1149.6,1024.8C1177.2,975.601 1177.2,918 1148.4,870L1148.4,870ZM600,939.602C564,939.602 535.199,910.801 535.199,874.801C535.199,838.801 564,810 600,810C636,810 664.801,838.801 664.801,874.801C664.801,910.801 636,939.602 600,939.602ZM669.602,446.402L646.801,714.002C644.403,739.201 621.602,758.4 596.403,756.002C573.602,753.604 555.602,735.604 554.403,714.002L531.602,446.402C528,408.004 556.801,374.402 595.204,370.8C633.602,367.198 667.204,395.999 670.806,434.402C669.603,438.004 669.603,442.804 669.603,446.402L669.602,446.402Z" style="fill-rule:nonzero;"/>
        </g>
    </g>
</svg>
