<?xml version="1.0" encoding="UTF-8"?>
<svg width="512pt" height="512pt" version="1.1" viewBox="0 0 512 512" xmlns="http://www.w3.org/2000/svg">
 <path d="m428.91 234.67c-5.8906 0-10.668 4.7734-10.668 10.664v60.16l-60.586-60.16c-3.9531-4.2422-9.5664-6.5391-15.359-6.293-5.7461 0.10938-11.211 2.5312-15.145 6.7227l-48.32 51.309-89.492-97.812-0.003907-0.003906c-3.9336-4.2891-9.4531-6.7852-15.273-6.9062-5.8242-0.12109-11.441 2.1406-15.551 6.2656l-102.93 103.25v-216.54c0-5.8906 4.7734-10.664 10.664-10.664h351.36c5.8906 0 10.664-4.7773 10.664-10.668s-4.7734-10.668-10.664-10.668h-351.36c-8.4844 0-16.625 3.3711-22.625 9.375-6 6-9.375 14.141-9.375 22.625v341.34c0 8.4844 3.375 16.625 9.375 22.625 6 6.0039 14.141 9.375 22.625 9.375h341.34c8.4844 0 16.625-3.3711 22.625-9.375 6.0039-6 9.375-14.141 9.375-22.625v-181.34c0-2.8281-1.125-5.5391-3.125-7.543-2-2-4.7148-3.1211-7.543-3.1211zm-21.332 202.67h-341.33l-0.003907-0.003907c-5.8906 0-10.664-4.7734-10.664-10.664v-95.359c0.94922-0.40625 1.8203-0.98438 2.5586-1.707l115.52-116.27 132.48 144.96c3.9531 4.3516 10.676 4.6836 15.039 0.74609 2.1211-1.9023 3.3945-4.5703 3.5352-7.418 0.14062-2.8438-0.86328-5.625-2.7852-7.7266l-28.691-31.254 49.387-52.48 72.426 72.32h-0.003907c0.94531 0.87891 2.0273 1.5977 3.1992 2.1328v92.055c0 5.8906-4.7734 10.664-10.664 10.664zm51.84-286.08-19.52-19.414v70.824c0 5.8906-4.7773 10.664-10.668 10.664-5.8906 0-10.668-4.7734-10.668-10.664v-70.828l-19.41 19.625c-4.1562 4.1836-10.914 4.207-15.094 0.054687-4.1836-4.1523-4.207-10.91-0.054688-15.094l37.547-37.867c2.0039-2.0195 4.7305-3.1523 7.5742-3.1523s5.5703 1.1328 7.5703 3.1523l37.762 37.547c4.1836 4.1562 4.207 10.91 0.054687 15.094-4.1562 4.1836-10.91 4.207-15.094 0.054687z"/>
</svg>
