<?xml version="1.0" encoding="UTF-8"?>
<svg width="512pt" height="512pt" version="1.1" viewBox="0 0 512 512" xmlns="http://www.w3.org/2000/svg">
 <path d="m127.43 396c6.625 0 12-5.3711 12-12 0-59.551 52.289-108 116.57-108 31.941-0.16016 62.664 12.27 85.504 34.602 10.289 10.188 18.395 22.371 23.816 35.797 4.8008 11.957 7.2617 24.719 7.2461 37.602 0 6.6289 5.375 12 12 12 6.6289 0 12-5.3711 12-12 0.019532-15.941-3.0273-31.738-8.9727-46.527-6.625-16.453-16.535-31.383-29.129-43.871-15.438-15.242-34.168-26.734-54.746-33.602 18.109-13.469 29.684-33.961 31.875-56.422s-5.207-44.805-20.371-61.52c-15.164-16.715-36.684-26.246-59.25-26.246-22.57 0-44.086 9.5312-59.25 26.246-15.164 16.715-22.562 39.059-20.371 61.52 2.1875 22.461 13.766 42.953 31.871 56.422-26.488 8.375-49.684 24.84-66.328 47.082-16.645 22.242-25.898 49.145-26.461 76.918 0 6.6289 5.3711 12 12 12zm72.566-200c0-14.852 5.8984-29.098 16.402-39.598 10.5-10.504 24.746-16.402 39.598-16.402s29.098 5.8984 39.598 16.402c10.504 10.5 16.402 24.746 16.402 39.598s-5.8984 29.098-16.402 39.598c-10.5 10.504-24.746 16.402-39.598 16.402-14.848-0.015625-29.082-5.9219-39.578-16.422-10.5-10.496-16.406-24.73-16.422-39.578z" fill="#fff"/>
</svg>
