<?xml version="1.0" encoding="UTF-8"?>
<svg width="512pt" height="512pt" version="1.1" viewBox="0 0 512 512" xmlns="http://www.w3.org/2000/svg">
 <g>
  <path d="m306.14 249.1c-5.9609 1.3242-10.117 6.7305-9.8633 12.832 0.25391 6.0977 4.8438 11.141 10.895 11.965 40.535 3.3984 71.098 34.328 71.098 71.945 0 6.6289 5.3711 12 12 12 6.625 0 12-5.3711 12-12-0.22266-19.18-6.2109-37.852-17.18-53.586s-26.414-27.809-44.332-34.652c13.051-12.211 19.953-29.625 18.812-47.465-1.1406-17.836-10.207-34.227-24.707-44.676-14.504-10.449-32.922-13.859-50.203-9.293-6.3789 1.7188-10.168 8.2734-8.4766 14.66 1.6914 6.3867 8.2266 10.203 14.621 8.5391 9.4141-2.4844 19.438-1.0195 27.75 4.0547s14.191 13.32 16.281 22.832c2.0938 9.5117 0.21094 19.465-5.2031 27.555-5.418 8.0938-13.902 13.625-23.492 15.32z"/>
  <path d="m109.73 345.86c0 6.6289 5.375 12 12 12 6.6289 0 12-5.3711 12-12 0-39.832 35.113-72.238 78.266-72.238s78.258 32.406 78.258 72.238c0 6.6289 5.3711 12 12 12 6.625 0 12-5.3711 12-12-0.33203-19.172-6.375-37.812-17.359-53.535-10.98-15.723-26.402-27.809-44.289-34.719 11.816-10.949 18.711-26.203 19.121-42.309 0.40625-16.102-5.7031-31.688-16.949-43.223-11.242-11.535-26.668-18.039-42.777-18.039s-31.535 6.5039-42.777 18.039c-11.246 11.535-17.355 27.121-16.945 43.223 0.40625 16.105 7.3008 31.359 19.117 42.309-17.891 6.9062-33.316 18.992-44.301 34.715s-17.031 34.363-17.363 53.539zm66.527-132h0.003906c0-9.4766 3.7656-18.566 10.469-25.266 6.7031-6.6992 15.793-10.465 25.27-10.461 9.4805 0 18.566 3.7656 25.27 10.469 6.6992 6.7031 10.465 15.793 10.461 25.27 0 9.4766-3.7656 18.566-10.465 25.266-6.7031 6.7031-15.793 10.469-25.27 10.469-9.4727-0.011718-18.555-3.7773-25.25-10.473-6.6992-6.6992-10.473-15.777-10.484-25.25z"/>
 </g>
</svg>
