<?xml version="1.0" encoding="UTF-8"?>
<svg width="512pt" height="512pt" version="1.1" viewBox="0 0 512 512" xmlns="http://www.w3.org/2000/svg">
 <path d="m448.69 104.77c-29.281 4.0508-62.32 7.0352-98.16 8.8789l-23.348 1.0156c-13.383 0.47656-27.785 0.76953-43.727 0.89453l1.7578-10.086c0.1875-1.1172-0.11328-2.2617-0.84375-3.1289-0.73047-0.86719-1.8086-1.3672-2.9375-1.3672h-25.605c-1.1367 0-2.2109 0.5-2.9375 1.3672-0.72656 0.86719-1.0352 2.0117-0.84375 3.1289l1.7578 10.09c-15.938-0.12891-30.34-0.41797-43.688-0.89453l-23.348-1.0156c-35.871-1.8477-68.906-4.832-98.191-8.8828-2.0977-0.26172-4.0391 1.1758-4.332 3.2812-0.29297 2.0977 1.1758 4.0391 3.2812 4.332 29.496 4.0742 62.754 7.0859 98.879 8.9453l23.398 1.0156c13.844 0.49609 28.75 0.79297 45.332 0.91797l1.6836 9.6992-122.26 122.7c-20.273-3.9727-36.863-11.414-45.707-20.535-3.2422-3.3398-7.582-5.2227-12.238-5.293-4.6406 0.054688-9.0508 1.6758-12.387 4.9102-3.3398 3.2344-5.2227 7.5781-5.2891 12.23-0.070312 4.6523 1.668 9.0508 4.9062 12.391 15.523 16.012 41.242 27.32 72.598 31.969 4.8633 13.312 14.781 23.52 24.398 33.406 11.078 11.402 21.539 22.16 21.477 35.746-0.003906 1.0156 0.39453 1.9961 1.1172 2.7188l42.23 42.559c3.4414 3.4961 7.9961 5.2461 12.555 5.2461 4.4531 0 8.9141-1.6758 12.336-5.0312 6.918-6.8047 7.0078-17.977 0.20312-24.902l-34.223-34.582c3.875-13.02 5.3164-28.016 4.0898-42.625l54.449-54.422 25.734 68.199c3.4219 9.0742 13.594 13.676 22.688 10.254 9.0742-3.4297 13.676-13.605 10.254-22.68l-31.34-83.047 12.012-11.523c0.875 0.28125 1.7109 0.51562 2.4609 0.67969 5.9688 1.8672 11.605 3.8711 17.051 5.8125 12.328 4.3867 23.098 8.2188 32.004 8.2188 0.64062 0 1.2812-0.019531 1.9062-0.0625 6.9688-0.46094 24.172-8.7773 24.172-19.621 0-8.2656-20.266-24.668-30.102-32.148-1.2227-4.2344-5.1523-16.605-10.508-21.754-4.6094-4.4336-8.6484-5.668-11.535-6.1992-0.0625-0.29297-0.085938-0.59766-0.16797-0.87891-1.6953-5.668-9.7031-8.207-16.879-8.207-2.9336 0-6.9922 0.43359-9.6914 2.5234-0.98438 0.76172-1.8672 1.7734-2.6914 2.8984l-29.781-10.219 1.4688-8.4336c16.574-0.12109 31.484-0.42578 45.359-0.91797l23.402-1.0195c36.098-1.8594 69.355-4.8672 98.852-8.9453 2.0977-0.29297 3.5703-2.2305 3.2812-4.332-0.29297-2.1016-2.1992-3.5352-4.3359-3.2773zm-171.83 3.8906-3.7852 21.762h-8.9023l-3.7852-21.762zm40.973 36.426c0.32812-0.25781 1.8633-0.91797 4.9922-0.91797 5.2031 0 9.125 1.7734 9.5195 2.7305 1.6367 5.4766-7.6328 20.809-12.441 23.676-0.77344 0.46484-1.75 0.71094-2.8203 0.71094-3.1289 0-5.6016-1.9219-5.6719-3.1602-0.46094-7.3672 2.6367-20.105 6.4219-23.039zm-10.941 3.7305c-2.4883 6.8242-3.4492 15.008-3.1523 19.773 0.39453 6.4062 7.2344 10.367 13.344 10.367 2.4531 0 4.793-0.62109 6.7578-1.7969 4.5938-2.7461 13.047-14.051 15.582-23.824 1.8594 0.47656 4.0391 1.4453 6.668 3.9688 3.4648 3.3398 7.2148 13.727 8.7656 19.496 0.22656 0.82812 0.71875 1.5547 1.3984 2.0742 9.3203 7.0234 17.867 14.504 23.031 19.934-1.3242 3.5625-2.5234 7.8242 0.29297 13.199-3.9609 2.9844-9.3906 5.4375-12.242 5.625-7.6289 0.51172-18.41-3.3086-30.828-7.7266-5.5156-1.9648-11.219-3.9922-17.652-5.9922-0.15234-0.035156-15.453-3.5273-14.453-14.68 0.1875-2.1133-1.3711-3.9766-3.4883-4.1641-2.0938-0.1875-3.9727 1.3711-4.1641 3.4883-0.79297 8.8945 4.4023 14.941 10.203 18.609l-11.688 11.223c-1.1094 1.0664-1.4727 2.6875-0.9375 4.125l32.23 85.418c1.9297 5.1133-0.66406 10.848-5.7734 12.785-5.125 1.9258-10.855-0.66406-12.785-5.7812l-27.832-73.734c-0.003906-0.011719 0-0.027344-0.003906-0.039063l-11.422-30.289c-0.74609-1.9805-2.9688-2.9805-4.9492-2.2383-1.9883 0.74609-2.9844 2.9648-2.2422 4.9453l10.559 27.977-52.723 52.711c-1.4336-7.875-3.875-17.234-5.3516-20.938-0.78516-1.9727-3.0273-2.9219-4.9922-2.1406-1.9727 0.78516-2.9297 3.0195-2.1406 4.9922 1.7812 4.4492 5.4375 19.523 5.9141 26.512 0 0.019532 0.011719 0.03125 0.011719 0.039063 0.003907 0.03125-0.015625 0.0625-0.011719 0.09375 1.4688 14.801 0.003907 30.086-4.1211 43.051l-0.19922 0.64062c-0.38281 1.332-0.015625 2.7695 0.96094 3.7578l35.828 36.203c3.8281 3.9062 3.7734 10.203-0.11719 14.039-3.9023 3.8281-10.195 3.7695-14.043-0.13672l-41.156-41.477c-0.6875-15.902-12.34-27.895-23.617-39.5-9.5391-9.8164-19.398-19.957-23.363-32.672-0.44141-1.4219-1.668-2.457-3.1445-2.668-30.73-4.1914-55.766-14.863-70.48-30.043-1.8125-1.8672-2.7852-4.3281-2.7461-6.9258 0.039062-2.6016 1.0898-5.0273 2.9609-6.8359 1.8633-1.8125 4.0977-2.75 6.9219-2.7461 2.6016 0.039062 5.0273 1.0898 6.8359 2.9609 10.367 10.695 28.77 18.906 51.82 23.117 1.25 0.23047 2.5195-0.16797 3.4102-1.0664l123.97-124.43h13.121zm118.71 72.27-15.836-6.3633c-1.9336-0.79297-4.1992 0.16016-4.9961 2.1289-0.78906 1.9648 0.16406 4.2031 2.1367 4.9961l15.836 6.3633c0.46484 0.1875 0.95312 0.27734 1.4297 0.27734 1.5195 0 2.9609-0.91016 3.5625-2.4062 0.78906-1.9688-0.16016-4.207-2.1328-4.9961zm-26.77 12.273c-1.3789-1.6094-3.793-1.8086-5.418-0.43359-1.6133 1.3789-1.8125 3.8008-0.43359 5.418l11.059 12.988c0.75781 0.89062 1.8398 1.3516 2.9219 1.3516 0.87891 0 1.7656-0.30078 2.4883-0.91797 1.6133-1.3789 1.8125-3.8008 0.43359-5.418zm-18.926 10.371c-0.42578-2.0781-2.4531-3.4102-4.5312-2.9883-2.0742 0.42578-3.4141 2.4531-2.9883 4.5312l3.4219 16.723c0.36719 1.8125 1.9727 3.0703 3.7539 3.0703 0.25781 0 0.51562-0.027344 0.77344-0.078125 2.0742-0.42969 3.4141-2.457 2.9883-4.5352zm-38.148-59.98c0.49609 0 1-0.097656 1.4805-0.29688 1.9609-0.82031 2.8789-3.0664 2.0586-5.0234-0.79297-1.9062-0.64453-2.0312 0.52734-3.0156 1.6211-1.3672 1.832-3.7891 0.47266-5.4102-1.3672-1.6289-3.7891-1.8281-5.4102-0.47266-2.4258 2.0312-5.3359 5.4766-2.668 11.859 0.61328 1.4727 2.0391 2.3594 3.5391 2.3594z"/>
</svg>
