<?xml version="1.0" encoding="UTF-8"?>
<svg width="512pt" height="512pt" version="1.1" viewBox="0 0 512 512" xmlns="http://www.w3.org/2000/svg">
 <path d="m376.72 184.63h-26.453l-0.51172-4.1992c-0.003906-0.054688-0.046874-0.10938-0.054687-0.16406-0.039063-0.21484-0.12109-0.41016-0.21875-0.61328-0.066406-0.13281-0.10938-0.26172-0.19531-0.38281-0.03125-0.039063-0.035156-0.09375-0.070312-0.13281l-4.043-5.0586h31.551c1.4141 0 2.5586-1.1484 2.5586-2.5586 0-1.4141-1.1484-2.5586-2.5586-2.5586h-35.199c-0.13281 0-0.25 0.054687-0.37891 0.078125l-8.5-10.629c-0.72656-0.90234-1.9453-1.2031-3.0117-0.75391l-25.82 11.055c-0.12109 0.050781-0.17578 0.18359-0.28516 0.25l-83.48-0.003906c-0.30078 0-0.57812 0.078124-0.85156 0.17578l-9.2305-11.383c-0.027344-0.03125-0.078125-0.039062-0.10938-0.070312-0.26172-0.29688-0.57422-0.5-0.92188-0.64453-0.10938-0.046874-0.19922-0.070312-0.3125-0.10156-0.34766-0.097656-0.70703-0.11719-1.0664-0.0625-0.039063 0.003906-0.085938-0.015625-0.12109-0.003906-0.015625 0-0.019531 0.015625-0.035156 0.015625-0.35156 0.082031-0.69531 0.22656-1 0.46484l-14.941 11.617h-23.383c-1.4141 0-2.5586 1.1484-2.5586 2.5586 0 1.4141 1.1484 2.5586 2.5586 2.5586h23.051l5.043 10.547h-28.094c-1.4141 0-2.5586 1.1484-2.5586 2.5586 0 1.4141 1.1484 2.5586 2.5586 2.5586h30.562l10.527 21.344-4.8672 57.852c-2.9062 0.41406-5.1094 0.71875-6.2109 0.85156l-28.273-17.957c-0.73828-0.47266-1.6758-0.53125-2.4688-0.15234l-27.184 12.902c-0.082031 0.035156-0.12891 0.10938-0.20312 0.15234-0.21484 0.12891-0.42578 0.26562-0.59375 0.46094-0.10156 0.10938-0.14844 0.24609-0.23047 0.36719-0.09375 0.14844-0.21094 0.27734-0.27734 0.44922-0.011719 0.027344-0.003906 0.054688-0.015625 0.082031-0.003906 0.027344-0.03125 0.046876-0.035156 0.070313l-5.9922 20.27c-0.15234 0.52734-0.13672 1.0859 0.050782 1.6016l10.578 28.98 0.019532 0.050781c0.015625 0.035156 0.050781 0.054687 0.066406 0.09375 0.12891 0.31641 0.32422 0.59375 0.57422 0.83984 0.09375 0.09375 0.1875 0.14844 0.29297 0.22656 0.11719 0.085937 0.21094 0.19922 0.34375 0.26562l13.129 6.4531c0.078125 0.035156 0.16016 0.027344 0.23438 0.054687 0.10938 0.035157 0.18359 0.10938 0.29297 0.13281l122.79 29.945c0.19922 0.050781 0.40625 0.070312 0.60547 0.070312 0.10938 0 0.20312-0.003906 0.3125-0.019531 0.085937-0.011719 0.13672-0.082031 0.21875-0.10156 0.19531-0.039062 0.39453-0.039062 0.58203-0.13281l46.305-22.344c0.0625-0.027344 0.082031-0.097656 0.13281-0.13281 0.26172-0.14844 0.42969-0.37891 0.625-0.61328 0.15234-0.18359 0.32812-0.32422 0.42578-0.54297 0.027344-0.050781 0.082031-0.070312 0.10156-0.12109l28.098-75.562c0.13672-0.38281 0.1875-0.79297 0.13672-1.1992l-7.8477-64.637h25.836c1.4141 0 2.5586-1.1484 2.5586-2.5586 0.007812-1.4062-1.1406-2.5586-2.5547-2.5586zm-46.863-21.504 13.086 16.363-13.461 4.5977-6.7852-11.562c-0.37891-0.64453-1.0234-1.0938-1.7656-1.2227l-7.2031-1.2734zm-16.801 90.75-20.41 1.4062 30.285-53.395zm-77.145-64.125h88.02l-36.219 63.867zm70.535-15.668c0.12891 0 0.23438-0.054688 0.35938-0.070313l12.074 2.1289 4.9805 8.4883h-91.605c-0.14844 0-0.28125 0.0625-0.42578 0.085938l-8.6289-10.629h83.246zm-102.89-8.0352-3.7773 14.223-3.9375-8.2227zm5.6094-1.1602 87.379 107.73-15.688 72.266-77.668-157.51zm-9.8867 109.9c6.3438-0.80469 27.371-3.9062 38.559-5.5664l36.949 74.945-79.539-59.387zm14.281-54.797 21.895 44.41c-8.3906 1.2461-18.32 2.7031-25.957 3.8008zm-45.293 36.926 26.035 16.527-3.5547 8.8047-42.859-15.66zm-25.32 13.32 45.879 16.762-3.3906 8.4023-29.309 8.1289c-0.015625 0-0.03125-0.003906-0.046875 0-0.0625 0.011719-0.10156 0.046875-0.16016 0.054688l-0.83594 0.23047c-0.42578 0.11719-0.8125 0.34375-1.125 0.65625l-7.0664 7.0664-8.9297-24.465zm7.2695 45.242 4.4297-4.4336 1.0898 7.1406zm11.059 5.0859-1.9258-12.609 28.672-7.957c0.76172-0.21484 1.3867-0.76953 1.6914-1.5117l3.5547-8.8125 76.934 57.461zm124.14 27.445 16.391-75.5c0.16406-0.75781-0.019531-1.5508-0.51172-2.1562l-8.0859-9.9688 19.871-1.3711 12.172 69.77zm43.586-27.512-11.199-64.172 12.766-67.195 14.496-4.9492 8.5234 70.195z" fill="#fff"/>
</svg>
