<?xml version="1.0" encoding="UTF-8"?>
<svg width="1200pt" height="1200pt" version="1.1" viewBox="0 0 1200 1200" xmlns="http://www.w3.org/2000/svg">
 <g fill="#fff">
  <path d="m666.49 21.094c14.414 47.695 45.094 146.79 80.273 245.77 42.258-95.508 64.617-203.88 72.234-245.77z"/>
  <path d="m656.34 315.47c23.344 0 46.078-0.11719 68.016-0.30469-33.539-91.266-64.383-187.78-83.32-249.05-22.898 42.117-59.977 121.76-96.211 248.48 35.109 0.58594 69.562 0.86719 111.52 0.86719z"/>
  <path d="m484.52 593.95c46.242 33.844 162.16 53.297 231.98 60.586 1.7578-56.18 2.4375-105.42 0.98438-140.32-1.875-0.91406-3.7031-1.9453-5.4141-3.1875l-135.05-95.484c-35.25 53.648-92.508 147.56-92.508 178.41z"/>
  <path d="m715.99 467.91c0.96094-8.8359 6.5859-61.898 8.7188-115.24-22.055 0.1875-44.906 0.30469-68.391 0.30469-38.906 0-71.414-0.23438-103.95-0.75l45.68 32.297z"/>
  <path d="m509.06 1168.6c-135.33-157.01-203.84-236.51-283.31-283.43 39.633 87 120.05 263.65 133.01 292.66 0.16406 0.35156 0.28125 0.70312 0.42188 1.0781h158.79z"/>
  <path d="m1134.5 261.82c-40.172-99.047-232.66-215.44-274.17-238.88 24.844 23.695 60.961 78.586 105.7 203.51 8.1797 22.805 23.18 63.352 31.547 85.477 0.53906 1.4297 0.86719 2.8828 1.0547 4.3125 10.406 35.719 12.867 78.445 25.781 98.109 34.43-21.188 118.64-131.44 110.09-152.53z"/>
  <path d="m708.73 845.13c2.3438-51.82 4.7109-104.27 6.4922-153.07-46.617-4.8047-160.76-19.477-228.56-53.344 9.3281 163.22 33.398 288.7 51.398 382.38 12.234 63.75 21.914 114.09 24.258 157.8h136.85c-1.875-80.602 3.9375-209.3 9.5625-333.77z"/>
  <path d="m753.8 467.23 168.84-110.93 12.562-8.25c-41.18 1.4531-101.6 3.2109-172.92 4.1719-1.8984 49.453-6.7031 98.109-8.4844 115.01z"/>
  <path d="m185.11 886.43c-30.047-56.766-67.641-118.43-67.641-118.43l-52.57 177.42 253.03 233.09c-25.102-55.523-100.15-220.34-132.82-292.08z"/>
  <path d="m518.18 1121.7c-4.2891-27.633-10.219-58.523-16.945-93.516-18.891-98.414-44.438-231.49-53.016-406.62-85.312 67.031-150.66 134.02-224.58 219.56 90.164 46.172 158.11 122.41 294.54 280.57z"/>
  <path d="m980.53 613.17c-0.023438-20.977-54.422-135.89-84.797-194.32l-140.84 92.531c1.5703 36.539 0.89062 87.141-0.9375 145.57 1.5234 0.023437 3.1172 0.023437 4.8281 0.023437 38.297 0 136.57-4.2891 221.74-43.805z"/>
  <path d="m758.79 694.48c-2.1797 0-4.1953-0.023437-6.1172-0.023437-1.7812 47.859-4.1016 99.633-6.4922 152.39-5.6016 124.05-11.391 252.35-9.5156 331.64 0 0.14062-0.023437 0.30469-0.023437 0.44531h137.62c26.414-229.38 53.578-298.31 97.641-521.37-81.703 31.828-167.06 36.914-213.12 36.914z"/>
  <path d="m475.34 414.38c12.445-18.938 16.359-50.672 26.109-83.719 11.109-40.852 28.312-98.648 51.234-159.33 22.688-60.047 45.914-109.43 69.117-147.05-44.648 26.227-217.08 140.25-256.52 237.54-8.5781 21.094 75.656 131.34 110.06 152.55z"/>
  <path d="m848.34 65.859c-13.242 61.945-39.516 163.78-82.734 248.81 83.883-1.1953 152.27-3.4453 191.11-4.9453-8.4375-22.57-19.383-52.266-25.969-70.617-28.336-79.078-57.727-140.48-82.406-173.25z"/>
 </g>
</svg>
