<?xml version="1.0" encoding="UTF-8"?>
<svg width="512pt" height="512pt" version="1.1" viewBox="0 0 512 512" xmlns="http://www.w3.org/2000/svg">
 <g>
  <path d="m10.953 336.4c-0.84375 21.574-0.66797 42.52 12.32 58.406 0.40234 1.0859 1.1719 1.8398 2.1719 2.2422 15.934 17.004 41.828 19.402 65.188 20.102l338.18 10.07c49.098 1.4336 67.57-12.289 69.184-67.715l1.2812-44.297c0.0625-0.046875 0.15625-0.03125 0.21094-0.085937 0.76172-0.76172 0.76172-1.9844 0-2.7461l-0.125-0.125 4.793-166.45c0.17188-5.9102 0.1875-12.109-0.51172-18.113 0-0.0625-0.023438-0.11719-0.03125-0.17969-3.4844-29.656-22.676-34.469-45.746-35.949-80.355-5.1602-410.47-18.562-435.75 16.184-24.668 33.914-9.8047 194.28-11.172 228.65zm21.621 56.855 133.23-133.23 38.996 24.801c48.812 31.055 70.137 30.496 116.63-5.6797l14.227-11.062 109.9 109.89-13.273 13.273-8.5508-8.5508c-0.76172-0.76172-1.9844-0.76172-2.7383 0-0.76172 0.76172-0.76172 1.9844 0 2.7461l8.5508 8.5508-11.086 11.086-14.391-14.391 14.094-14.094c0.76172-0.76172 0.76172-1.9844 0-2.7461-0.76172-0.76172-1.9844-0.76172-2.7461 0l-14.094 14.094-1.0312-1.0312c-0.76172-0.76172-1.9844-0.76172-2.7383 0-0.76172 0.76172-0.76172 1.9844 0 2.7383l1.0312 1.0312-9.582 9.582-7.9453-7.9453c-0.17188-0.17187-0.40234-0.16406-0.61328-0.25781l9.1602-9.1602c0.76172-0.76172 0.76172-1.9844 0-2.7461s-1.9844-0.76172-2.7461 0l-21.309 21.309-6.1445-6.1445c-0.76172-0.76172-1.9844-0.76172-2.7383 0-0.76172 0.76172-0.76172 1.9844 0 2.7383l6.1445 6.1445-7.4766 7.4766-12.281-12.289 14.352-14.352c0.76172-0.76172 0.76172-1.9844 0-2.7383-0.76172-0.76172-1.9844-0.76172-2.7461 0l-14.352 14.352-0.73047-0.73047c-0.75391-0.75391-1.9766-0.76172-2.7461 0-0.76172 0.76172-0.76172 1.9844 0 2.7461l0.73047 0.73047-6.5781 6.5781-7.043-7.043c-0.43359-0.43359-1.0156-0.54297-1.5898-0.47266l3.6523-3.6445c0.76172-0.76172 0.76172-1.9844 0-2.7461-0.76172-0.76172-1.9844-0.76172-2.7461 0l-14.816 14.816-4.3438-4.3438c-0.75391-0.75391-1.9766-0.76172-2.7461 0-0.76172 0.76172-0.76172 1.9844 0 2.7461l4.3438 4.3438-5.9805 5.9805-15.105-0.44922 0.94531-0.94531c0.41797-0.054688 0.83594-0.16406 1.1562-0.48047 0.31641-0.31641 0.42578-0.73828 0.48047-1.1562l17.867-17.867c0.76172-0.76172 0.76172-1.9844 0-2.7461-0.76172-0.76172-1.9844-0.76172-2.7461 0l-17.309 17.309-3.1406-3.1406c-0.76172-0.76172-1.9844-0.76172-2.7461 0-0.76172 0.76172-0.76172 1.9844 0 2.7383l3.1406 3.1406-2.9727 2.9727-188.42-5.6094c-21.016-0.60938-44.156-2.625-58.289-16.125zm262.38-150.86c0.054688 0.078125 0.03125 0.17969 0.10156 0.24219l4.8008 4.8008-21.945 21.945-4.9727-4.9727zm-19.789 29.734-13.289 13.289c-0.76172 0.76172-0.76172 1.9844 0 2.7461 0.75391 0.75391 1.9766 0.76172 2.7461 0l13.289-13.289 12.172 12.172c0.75391 0.75391 1.9766 0.76172 2.7461 0 0.76172-0.76172 0.76172-1.9844 0-2.7461l-12.172-12.172 21.945-21.945 11.527 11.527-15.211 15.211c-0.76172 0.76172-0.76172 1.9844 0 2.7461 0.75391 0.75391 1.9766 0.76172 2.7461 0l15.211-15.211 4.7305 4.7305-4.9414 3.8398c-17.789 13.832-34.047 25.336-52.812 26.266l-12.902-12.902 19.246-19.246zm52.504-47.02 11.527 11.527-22.328 22.328-11.527-11.527zm23.367 17.891-6.3594-6.3594 24.645-24.645 8.2773 8.2773c0.75391 0.75391 1.9766 0.76172 2.7461 0 0.76172-0.76172 0.76172-1.9844 0-2.7461l-8.2695-8.2695 22.336-22.336 6.9023 6.9023-7.5 7.5c-0.76172 0.76172-0.76172 1.9844 0 2.7383 0.75391 0.75391 1.9766 0.76172 2.7461 0l7.5-7.5 3.6602 3.6602c0.64453 0.64453 1.457 0.78516 2.4141 0.13281l-74.766 58.137c-1.6055 0.015624-3.0938 0.94531-3.6289 2.8242l-7.043 5.4766-5.0859-5.082 22.328-22.328 6.3594 6.3594c0.75391 0.75391 1.9766 0.76172 2.7461 0 0.75-0.75781 0.75-1.9844-0.007813-2.7422zm145.41-105.92c0.054688 2.8633 0.03125 5.7266-0.054687 8.5273l-4.3672 151.64-3.8477 3.8477-1.9297-1.9297c-0.76172-0.76172-1.9844-0.76172-2.7461 0s-0.76172 1.9844 0 2.7461l1.9297 1.9297-4.3438 4.3438c-0.76172 0.76172-0.76172 1.9844 0 2.7461 0.75391 0.75391 1.9766 0.76172 2.7461 0l4.3438-4.3438 3.4766 3.4844-0.16406 5.7578-8.7266 8.7266-0.73828-0.73828c-0.76172-0.76172-1.9844-0.76172-2.7461 0-0.76172 0.76172-0.76172 1.9844 0 2.7461l0.73828 0.73828-5.5391 5.5391c-0.76172 0.76172-0.76172 1.9844 0 2.7461 0.75391 0.75391 1.9766 0.76172 2.7461 0l5.5391-5.5391 7.9609 7.9609c0.03125 0.03125 0.085938 0.015625 0.11719 0.046875l-0.10938 3.668c-0.75391-0.51172-1.7539-0.53516-2.4297 0.13281l-7.0508 7.0508-2.8398-2.8398c-0.76172-0.76172-1.9844-0.76172-2.7461 0-0.76172 0.76172-0.76172 1.9844 0 2.7383l2.8398 2.8398-10.055 10.047c-0.76172 0.76172-0.76172 1.9844 0 2.7461 0.75391 0.75391 1.9766 0.76172 2.7461 0l10.055-10.047 6.2383 6.2383c0.70703 0.70703 1.8477 0.80859 2.6836 0.023438-0.16406 5.1523-0.44922 10.301-1 15.32-0.44922 0.03125-0.90625 0.17188-1.25 0.51953l-7.875 7.875-6.2773-6.2773 2.4609-2.4609c0.76172-0.76172 0.76172-1.9844 0-2.7461s-1.9844-0.76172-2.7383 0l-2.4609 2.4609-8.2461-8.2461c-0.76172-0.76172-1.9844-0.76172-2.7461 0-0.76172 0.76172-0.76172 1.9844 0 2.7461l8.2461 8.2461-5.8477 5.8477-8.6797-8.6797 0.96875-0.97656c0.76172-0.76172 0.76172-1.9844 0-2.7461-0.76172-0.76172-1.9844-0.76172-2.7461 0l-0.96875 0.96875-109.19-109.21c117.1-91.059 127.48-97.383 154.62-126.21zm-5.4453 195.69-5.4922-5.4922 5.8164-5.8164zm-4.6562 57.855-3.5469-3.5469 5.6719-5.6719c-0.50781 3.1992-1.2383 6.2539-2.125 9.2188zm-5.3359 11.848-6.7969-6.7969 5.8477-5.8477 4.3438 4.3438c0.20312 0.20312 0.47266 0.20312 0.72266 0.30078-1.082 2.8633-2.4961 5.5078-4.1172 8zm-9.5352-9.5352-6.2773-6.2773 5.8477-5.8477 6.2773 6.2773zm18.805-35.004c-0.023438-0.023438-0.007813-0.054688-0.03125-0.078125l-6.2383-6.2383 6.6406-6.6406zm-62.68 60.844c-0.17969 0.17969-0.17188 0.42578-0.26562 0.63672l-17.215-0.51172 8.332-8.3398 5.6328 5.625c0.75391 0.75391 1.9766 0.76172 2.7461 0 0.76172-0.76172 0.76172-1.9844 0-2.7461l-5.6328-5.6328 11.086-11.086 8.6797 8.6797zm-50.758-0.86719 0.46484-0.46484c0.37109-0.070312 0.75391-0.14844 1.0391-0.43359 0.28516-0.28516 0.36328-0.66797 0.43359-1.0391l10.215-10.215 10.426 10.426c0.75391 0.75391 1.9766 0.76172 2.7461 0 0.76172-0.76172 0.76172-1.9844 0-2.7461l-10.426-10.426 9.582-9.582 14.391 14.391-10.914 10.922zm-21.598-0.63672 10.301-10.301 8.3789 8.3789-2.4141 2.4141zm-41.168-1.2266c0.17969-0.09375 0.39453-0.078125 0.55078-0.22656 0.76172-0.76172 0.76172-1.9844 0-2.7461l-3.4375-3.4453 9.5352-9.5352c-0.070312 0.57422 0.039063 1.1484 0.48047 1.582l7.043 7.043-7.5078 7.5078zm-1.7695-0.054687-7.2617-0.21875 3.3984-3.3984 3.4375 3.4453c0.12109 0.10938 0.29297 0.085938 0.42578 0.17188zm18.68-4.5234 4.0508 4.0508c0.76953 0.76953 1.9922 0.74609 2.7461 0 0.76172-0.76172 0.76172-1.9844 0-2.7461l-4.0508-4.0508 6.5781-6.5781 12.281 12.289-1.3359 1.3359c-0.37109 0.37109-0.55859 0.86719-0.56641 1.3594l-24.629-0.73828zm47.074-17.012c0.09375 0.20312 0.085937 0.44141 0.25781 0.61328l7.9453 7.9453-9.582 9.582-8.3789-8.3789zm56.965-0.45703 13.273-13.273 8.6797 8.6797-13.273 13.273zm-24.5-193.95c0.62109-0.76172 0.63672-1.8633-0.070313-2.5664l-3.6602-3.6602 18.09-18.09 7.1133 7.1133c0.11719 0.11719 0.28516 0.09375 0.41797 0.17969zm-162.31 83.605-12.691-12.684 19.246-19.246 12.691 12.691zm10.055 15.539c-12.605-0.80078-24.762-6.2305-37.367-13.598l11.883-11.883zm-40.363-16.098c-0.16406 0.16406-0.14844 0.38672-0.24219 0.58203-2.8711-1.7383-5.7656-3.5234-8.7031-5.3906l-6.625-4.2109 15.406-15.406 12.305 12.305zm214.42 136.44 11.371-11.379 10.395 10.395c-6.793 1.0742-14.176 1.1523-21.766 0.98437zm26.309-1.9258-12.195-12.195 13.273-13.273 6.2773 6.2773-6.5312 6.5312c-0.76172 0.76172-0.76172 1.9844 0 2.7461 0.75391 0.75391 1.9766 0.76172 2.7461 0l6.5312-6.5312 7.332 7.332c-4.2383 4.0625-9.0039 7.0898-17.434 9.1133zm32.293-113.79 0.9375-0.9375-0.054687 1.832zm-33.551-204.5c20.93 1.3438 34.887 4.6719 38.27 27.285-1.5586 1.7148-3.1484 3.3516-4.7148 5.0273-0.085937-0.14844-0.0625-0.33203-0.19531-0.46484l-9.8672-9.875 7.4922-7.5c0.76172-0.76172 0.76172-1.9844 0-2.7383-0.76172-0.76172-1.9844-0.76172-2.7461 0l-7.4922 7.5-1.3281-1.3281c-0.76172-0.76172-1.9844-0.76172-2.7461 0s-0.76172 1.9844 0 2.7461l1.4102 1.4102c-0.52734 0.75391-0.55078 1.7695 0.125 2.4453 0.66016 0.66016 1.4961 0.78516 2.4453 0.125l9.9609 9.9609c0.15625 0.15625 0.37891 0.14844 0.56641 0.24219-21.324 22.281-38.059 34.824-53.465 46.801-0.09375-0.29297-0.11719-0.60547-0.34766-0.83594l-7.1172-7.1367 18.09-18.09 3.0469 3.0391-3.2578 3.2578c-0.76172 0.76172-0.76172 1.9844 0 2.7461 0.75391 0.75391 1.9766 0.76172 2.7461 0l3.2578-3.2578 1.2031 1.2031c0.75391 0.75391 1.9766 0.76172 2.7461 0 0.76172-0.76172 0.76172-1.9844 0-2.7383l-1.2031-1.2031 13.461-13.461 0.56641 0.56641c0.75391 0.75391 1.9766 0.76172 2.7461 0 0.76172-0.76172 0.76172-1.9844 0-2.7461l-0.56641-0.56641 10.984-10.984c0.76172-0.76172 0.76172-1.9844 0-2.7461-0.76172-0.76172-1.9844-0.76172-2.7461 0l-10.977 10.984-3.0391-3.0391 9.1367-9.1367c0.76172-0.76172 0.76172-1.9844 0-2.7461-0.76172-0.76172-1.9844-0.76172-2.7461 0l-9.1367 9.1367-2.1016-2.1016c-0.76172-0.76172-1.9844-0.76172-2.7461 0-0.76172 0.76172-0.76172 1.9844 0 2.7461l2.1016 2.1016-13.461 13.461-0.55859-0.55859c-0.76172-0.76172-1.9844-0.76172-2.7461 0s-0.76172 1.9844 0 2.7461l0.55859 0.55859-18.082 18.09-3.6445-3.6445c-0.76172-0.76172-1.9844-0.76172-2.7461 0-0.76172 0.76172-0.76172 1.9844 0 2.7461l3.6445 3.6445-18.09 18.09-9.8203-9.8203c-0.76172-0.76172-1.9844-0.76172-2.7383 0-0.76172 0.76172-0.76172 1.9844 0 2.7461l0.17188 0.17188-22.336 22.336-2.8711-2.8711c-0.76172-0.76172-1.9844-0.76172-2.7461 0-0.76172 0.76172-0.76172 1.9844 0 2.7461l2.8711 2.8711-24.645 24.645-11.527-11.527 14.469-14.469c0.76172-0.76172 0.76172-1.9844 0-2.7461s-1.9844-0.76172-2.7461 0l-39.539 39.539-4.8008-4.8008c-0.070313-0.070312-0.17188-0.046875-0.24219-0.10156l9.2227-9.2227c0.76172-0.76172 0.76172-1.9844 0-2.7461-0.76172-0.76172-1.9844-0.76172-2.7461 0l-33.84 33.84-12.691-12.691 25.242-25.25c0.76172-0.76172 0.76172-1.9844 0-2.7461-0.76172-0.76172-1.9844-0.76172-2.7461 0l-25.242 25.242-4.0273-4.0273c-0.76172-0.76172-1.9844-0.76172-2.7461 0s-0.76172 1.9844 0 2.7383l4.0273 4.0273-19.246 19.246-12.305-12.305 27.562-27.562c0.76172-0.76172 0.76172-1.9844 0-2.7461-0.76172-0.76172-1.9844-0.76172-2.7461 0l-27.562 27.562-10.977-10.969c-0.76172-0.76172-1.9844-0.76172-2.7461 0-0.76172 0.76172-0.76172 1.9844 0 2.7383l10.977 10.969-16.012 16.012-30.805-19.594c-0.03125-0.03125-0.039062-0.078125-0.070312-0.10938-0.43359-0.43359-0.95313-0.70703-1.5039-0.89062-63.328-40.266-127.38-73.352-141.24-132.66-0.03125-0.13281-0.125-0.23438-0.16406-0.36328 0.98437-2.3047 2.0391-4.3672 3.2188-5.9805 18.797-25.852 285.15-22.258 428.97-12.988zm-8.9219 52.836 13.461-13.461 3.0469 3.0391-13.461 13.461zm-427.29-20.602c19.992 55.918 77.895 86.016 137.93 124.2l-131.62 131.62c-9.2617-13.414-9.5195-31.598-8.7734-50.68 1.1172-28.332-9.2227-151.74 2.4609-205.14z"/>
  <path d="m103.32 157.5 15.469-15.469 9.6641 9.6641-21.961 21.969c-0.76172 0.76172-0.76172 1.9844 0 2.7461 0.75391 0.75391 1.9766 0.76172 2.7383 0l21.961-21.961 5.2383 5.2383-6.9023 6.9023c-0.76172 0.76172-0.76172 1.9844 0 2.7461 0.75391 0.75391 1.9766 0.76172 2.7461 0l6.9023-6.9023 15.352 15.352c0.75391 0.75391 1.9766 0.76172 2.7461 0 0.76172-0.76172 0.76172-1.9844 0-2.7461l-15.352-15.352 14.305-14.297c0.76172-0.76172 0.76172-1.9844 0-2.7461-0.76172-0.76172-1.9844-0.76172-2.7461 0l-14.312 14.289-5.2383-5.2383 16.16-16.16 13.508 13.508-13.988 13.988c-0.76172 0.76172-0.76172 1.9844 0 2.7383 0.75391 0.75391 1.9766 0.76172 2.7461 0l13.988-13.988 15.027 15.027c0.75391 0.75391 1.9766 0.76172 2.7383 0s0.76172-1.9844 0-2.7461l-15.027-15.027 8.4805-8.4805 16.16 16.16-6.3086 6.3086c-0.76172 0.76172-0.76172 1.9844 0 2.7383 0.75391 0.75391 1.9766 0.76172 2.7383 0l6.3086-6.3086 10.867 10.867c0.75391 0.75391 1.9766 0.76172 2.7383 0 0.76172-0.76172 0.76172-1.9844 0-2.7383l-10.867-10.867 12.32-12.328 6.7109 6.7109-6.6016 6.6016c-0.76172 0.76172-0.76172 1.9844 0 2.7461 0.75391 0.75391 1.9766 0.76172 2.7461 0l6.6016-6.6016 8.1367 8.1367c0.75391 0.75391 1.9766 0.76172 2.7461 0 0.76172-0.76172 0.76172-1.9844 0-2.7461l-8.1367-8.1367 6.3398-6.3398c0.76172-0.76172 0.76172-1.9844 0-2.7461-0.76172-0.76172-1.9844-0.76172-2.7461 0l-6.3398 6.3398-6.7109-6.7109 8.6797-8.6797c0.76172-0.76172 0.76172-1.9844 0-2.7461s-1.9844-0.76172-2.7461 0l-8.6797 8.6797-6.1211-6.1211 10.223-10.223c0.76172-0.76172 0.76172-1.9844 0-2.7383s-1.9844-0.76172-2.7461 0l-10.223 10.223-7.3008-7.3008 1.2734-1.2734c0.76172-0.76172 0.76172-1.9844 0-2.7461-0.76172-0.76172-1.9844-0.76172-2.7461 0l-1.4727 1.4727c-0.69922-0.27734-1.4883-0.27734-2.0547 0.28516-0.56641 0.56641-0.56641 1.3594-0.28516 2.0547l-12.527 12.527-8.082-8.082c-0.76172-0.76172-1.9844-0.76172-2.7461 0-0.76172 0.76172-0.76172 1.9844 0 2.7461l8.082 8.082-8.4805 8.4805-13.508-13.508 21.277-21.277c0.76172-0.76172 0.76172-1.9844 0-2.7461-0.76172-0.76172-1.9844-0.76172-2.7461 0l-21.277 21.277-0.69141-0.69141c-0.76172-0.76172-1.9844-0.76172-2.7383 0-0.76172 0.76172-0.76172 1.9844 0 2.7461l0.69141 0.69141-16.16 16.168-9.6641-9.6641 12.008-12.016c0.76172-0.76172 0.76172-1.9844 0-2.7461-0.76172-0.76172-1.9844-0.76172-2.7461 0l-12.008 12.016-6.0117-6.0117c-0.76172-0.76172-1.9844-0.76172-2.7461 0-0.76172 0.76172-0.76172 1.9844 0 2.7383l6.0117 6.0117-15.469 15.469c-0.76172 0.76172-0.76172 1.9844 0 2.7461 0.78906 0.76562 2.0234 0.77344 2.7852 0.015625zm89.312-32.008 7.3008 7.3008-7.1914 7.1992c-0.76172 0.76172-0.76172 1.9844 0 2.7461 0.75391 0.75391 1.9766 0.76172 2.7461 0l7.1914-7.1992 6.1211 6.1211-12.328 12.328-16.168-16.168z"/>
  <path d="m51.688 332.38 14.445-14.445 3.4766 3.4844c0.76953 0.76953 1.9922 0.74609 2.7461 0 0.76172-0.76172 0.76172-1.9844 0-2.7461l-3.4844-3.4844 8.7891-8.7891 2.8789 2.8789c0.75391 0.75391 1.9766 0.76172 2.7461 0 0.76172-0.76172 0.76172-1.9844 0-2.7461l-2.8789-2.8789 11.203-11.195 1.3789 1.3789c0.75391 0.75391 1.9766 0.76172 2.7461 0 0.76172-0.76172 0.76172-1.9844 0-2.7461l-1.3789-1.3789 10.141-10.141c0.80859 0.77734 1.9844 0.69922 2.707-0.015625 0.74609-0.74609 0.74609-1.9453 0.015625-2.707l2.9336-2.9336c0.76172-0.76172 0.76172-1.9844 0-2.7461-0.76172-0.76172-1.9844-0.76172-2.7461 0l-2.9258 2.9258-5.6016-5.6016c-0.76172-0.76172-1.9844-0.76172-2.7461 0-0.76172 0.76172-0.76172 1.9844 0 2.7461l5.6016 5.6016-10.125 10.125-3.9961-3.9961c-0.76172-0.76172-1.9844-0.76172-2.7461 0-0.76172 0.76172-0.76172 1.9844 0 2.7461l3.9961 3.9961-11.203 11.195-5.0664-5.0664c-0.76172-0.76172-1.9844-0.76172-2.7383 0-0.76172 0.76172-0.76172 1.9844 0 2.7461l5.0664 5.0664-8.7891 8.7812-6.9414-6.9297c-0.76172-0.75391-1.9844-0.76953-2.7461 0-0.76172 0.76172-0.76172 1.9844 0 2.7461l6.9414 6.9414-14.445 14.445c-0.76172 0.76172-0.76172 1.9844 0 2.7461 0.75391 0.74609 1.9805 0.75391 2.7461-0.003907z"/>
  <path d="m337.93 322.2c0.37891 0.37891 0.86719 0.56641 1.375 0.56641 0.49609 0 0.99219-0.19531 1.375-0.56641l8.5508-8.5508 8.2461 8.2461-6.1367 6.1367c-0.76172 0.76172-0.76172 1.9844 0 2.7461 0.37891 0.37891 0.86719 0.56641 1.375 0.56641 0.49609 0 0.99219-0.1875 1.375-0.56641l6.1367-6.1367 6.3672 6.3672-6.1289 6.1367c-0.76172 0.76172-0.76172 1.9844 0 2.7461 0.37891 0.37891 0.86719 0.56641 1.375 0.56641 0.50391 0 0.99219-0.1875 1.375-0.56641l6.1367-6.1367 5.7266 5.7266c0.37891 0.37891 0.86719 0.56641 1.375 0.56641 0.49609 0 0.99219-0.1875 1.375-0.56641 0.76172-0.76172 0.76172-1.9844 0-2.7461l-5.7344-5.7344c0.73047-0.76172 0.73047-1.9531-0.015625-2.707-0.74609-0.74609-1.9453-0.74609-2.707-0.015624l-6.3828-6.3828 2.4375-2.4375c0.76172-0.76172 0.76172-1.9844 0-2.7461-0.76172-0.76172-1.9844-0.76172-2.7461 0l-2.4375 2.4375-8.2461-8.2461 3.6523-3.6523c0.76172-0.76172 0.76172-1.9844 0-2.7461-0.76172-0.76172-1.9844-0.76172-2.7461 0l-3.6523 3.6523-8.5508-8.5508c-0.76172-0.76172-1.9844-0.76172-2.7461 0-0.76172 0.76172-0.76172 1.9844 0 2.7461l8.5508 8.5508-8.5508 8.5508c-0.78125 0.76172-0.78125 1.9844-0.023437 2.7461z"/>
 </g>
</svg>
