<?xml version="1.0" encoding="UTF-8"?>
<svg width="1200pt" height="1200pt" version="1.1" viewBox="0 0 1200 1200" xmlns="http://www.w3.org/2000/svg">
 <g>
  <path d="m580.8 589.2v-10.801h18v-20.398h10.801v20.398h18v10.801h-18v20.398h-10.801v-20.398z"/>
  <path d="m1044 564v-84h-72v-12c0-21.602-15.602-36-42-36h-657.6c-18 0-34.801 12-42 24h-19.199c-15.602 0-28.801 9.6016-33.602 24h-21.598v84h72v12h-72v36h397.2c0 1.1992 1.1992 1.1992 1.1992 2.3984 2.3984 4.8008 6 8.3984 9.6016 12v81.602h-280.8c-21.602-2.3984-40.801 13.199-44.398 33.602-2.3984 10.801 0 21.602 7.1992 31.199 6 9.6016 15.602 15.602 26.398 16.801 2.3984 0 4.8008 1.1992 7.1992 1.1992 20.398 0 37.199-14.398 40.801-34.801v-1.1992h558c1.1992 6 3.6016 12 7.1992 18 6 9.6016 15.602 15.602 26.398 16.801 2.3984 0 4.8008 1.1992 7.1992 1.1992 20.398 0 37.199-14.398 40.801-34.801 3.6016-22.801-10.801-44.398-33.602-48h-7.1992-283.2v-74.398c1.1992-1.1992 2.3984-1.1992 3.6016-2.3984 6-4.8008 10.801-10.801 15.602-16.801 0-1.1992 1.1992-1.1992 1.1992-2.3984l387.6-0.003906v-36h-72v-12zm-72-16.801v-55.199h60v60h-60zm-699.6-103.2h657.6c19.199 0 30 9.6016 30 24v12h-586.8c-4.8008-14.398-18-24-33.602-24h-94.801c7.2031-12 16.805-12 27.602-12zm103.2 43.199c0-1.1992 0-2.3984-1.1992-3.6016 1.1992 1.2031 1.1992 2.4023 1.1992 3.6016zm-36-19.199c8.3984 0 16.801 4.8008 20.398 12h-120v-12zm-128.4 0h16.801v12h-37.199c3.5977-7.1992 12-12 20.398-12zm-43.199 84v-60h60v60zm0 48v-12h378c0 3.6016 1.1992 8.3984 2.3984 12zm376.8-16.801v0 0zm1.1992 4.8008v-4.8008c-1.1992 1.1992 0 3.6016 0 4.8008zm0-12h-306v-12h308.4c-1.1992 3.6016-2.3984 8.3984-2.3984 12zm-237.6 178.8c-2.3984 15.602-18 26.398-34.801 24-7.1992-1.1992-14.398-6-19.199-12-4.8008-6-6-14.398-4.8008-21.602 2.3984-14.398 14.398-24 28.801-24h4.8008c18 2.4023 28.801 18 25.199 33.602zm610.8-34.801h4.8008c15.602 2.3984 26.398 18 24 34.801-2.3984 15.602-18 26.398-34.801 24-7.1992-1.1992-14.398-6-19.199-12s-6-14.398-4.8008-21.602c3.6016-14.398 15.602-25.199 30-25.199zm-30 0h1.1992c-1.1992 1.1992-2.3984 2.3984-3.6016 3.6016-3.6016 3.6016-6 8.3984-7.1992 13.199-1.1992 2.3984-1.1992 3.6016-1.1992 6v1.1992h-558c0-2.3984-1.1992-4.8008-1.1992-7.1992-1.1992-4.8008-4.8008-9.6016-7.1992-13.199-1.1992-1.1992-2.3984-2.3984-3.6016-3.6016zm-313.2-12v-73.199c1.1992 1.1992 2.3984 1.1992 4.8008 2.3984 7.1992 3.6016 15.602 4.8008 24 4.8008 7.1992 0 13.199-1.1992 19.199-3.6016v69.602zm28.801-78c-26.398 0-46.801-21.602-46.801-46.801 0-26.398 21.602-46.801 46.801-46.801s46.801 21.602 46.801 46.801c0 26.402-20.402 46.801-46.801 46.801zm50.398-78c-1.1992-1.1992-2.3984-3.6016-3.6016-4.8008-10.801-14.398-27.602-24-46.801-24s-36 9.6016-46.801 24c-1.1992 1.1992-2.3984 3.6016-3.6016 4.8008h-314.39v-60h720v60zm304.8 12v12h-296.4c0-3.6016-1.1992-8.3984-2.3984-12zm72 24v12h-370.8c1.1992-3.6016 2.3984-7.1992 2.3984-12z"/>
 </g>
</svg>
