<?xml version="1.0" encoding="UTF-8"?>
<svg width="512pt" height="512pt" version="1.1" viewBox="0 0 512 512" xmlns="http://www.w3.org/2000/svg">
 <path d="m197.15 143.26c-17.23 0-34.457 6.75-47.457 20.355-26 27.211-25.969 70.812 0 98.043l99.25 104.09v-0.003906c1.8242 1.918 4.3555 3 7.0039 3 2.6445 0 5.1758-1.082 7-3 33.109-34.648 66.242-69.336 99.352-103.98 26-27.211 26-70.832 0-98.043-26-27.211-68.918-27.211-94.918 0l-11.387 11.789-11.387-11.891c-13-13.605-30.23-20.355-47.461-20.355zm0 18.941c12.027 0 24.137 4.957 33.555 14.812l18.34 19.246c1.8242 1.9141 4.3555 3 7 3 2.6484 0 5.1797-1.0859 7.0039-3l18.238-19.145c18.836-19.711 48.172-19.711 67.008 0 18.836 19.711 18.836 51.629 0 71.34-30.762 32.191-61.535 64.336-92.297 96.531l-92.297-96.629c-18.824-19.738-18.836-51.629 0-71.34 9.418-9.8555 21.426-14.812 33.453-14.812z"/>
</svg>
