<?xml version="1.0" encoding="UTF-8"?>
<svg width="512pt" height="512pt" version="1.1" viewBox="0 0 512 512" xmlns="http://www.w3.org/2000/svg">
 <g fill="#fff">
  <path d="m144.12 481.9c177.51 83.051 372.66-75.188 352.13-257.38-13.766-122.11-127.96-221.52-249.71-216.98-128.33 4.7344-206.18 107.35-226.41 206.95-23.594 116.16 25.07 221.12 123.99 267.41zm345.47-222.97c-0.054688-0.40234-0.15625-0.81641-0.46484-1.125l-2.8398-2.8477 3.4922-3.4922c-0.042969 2.5-0.074219 4.9805-0.1875 7.4648zm-461.86-42.895c19.625-96.617 94.977-196.16 219.1-200.73 115.54-4.3203 228.62 93.898 241.71 210.09 0.79297 7.0195 1.2031 14.066 1.2812 21.102-0.33203 0.078125-0.68359 0.13281-0.94531 0.39453l-5.3359 5.3359-8.5195-8.5195c-0.76172-0.76172-1.9844-0.76172-2.7383 0-0.76172 0.76172-0.76172 1.9844 0 2.7461l8.5195 8.5195-19.23 19.23c-0.76172 0.76172-0.76172 1.9844 0 2.7461s1.9844 0.76172 2.7461 0l0.15625-0.15625c0.078126 0.34766 0.13281 0.70703 0.40234 0.97656l9.9531 9.9531c-0.24219 0.09375-0.50391 0.09375-0.69922 0.28516l-20.66 20.66-0.70312-0.69141c-0.76172-0.76172-1.9844-0.76172-2.7461 0-0.76172 0.76172-0.76172 1.9844 0 2.7461l0.69141 0.69141-4.8086 4.8086c-0.76172 0.76172-0.76172 1.9844 0 2.7461s1.9844 0.76172 2.7383 0l4.8086-4.8086 15.359 15.359c0.76172 0.76172 1.9844 0.76172 2.7461 0 0.76172-0.76172 0.76172-1.9844 0-2.7461l-15.359-15.359 20.66-20.66c0.19531-0.19531 0.19531-0.45703 0.28516-0.69922l2.8242 2.8242c0.76172 0.76172 1.9844 0.76172 2.7461 0 0.76172-0.76172 0.76172-1.9844 0-2.7461l-15.113-15.113c-0.27344-0.27344-0.62891-0.32422-0.97656-0.40234l16.91-16.91 2.8398 2.8477c0.76172 0.76172 1.9844 0.76172 2.7461 0 0.28516-0.28516 0.35547-0.66797 0.42578-1.0312-6.0898 123.07-118.51 252.96-272.36 234.88-0.046875-0.0625-0.023438-0.14844-0.085938-0.20312l-2.3359-2.3359 12.918-12.918 10.852 10.852-1.9297 1.9375c-0.76172 0.76172-0.76172 1.9844 0 2.7461s1.9844 0.76172 2.7461 0l1.9258-1.9258 0.69922 0.69922c0.76172 0.76172 1.9844 0.76172 2.7461 0 0.76172-0.76172 0.76172-1.9844 0-2.7461l-0.69922-0.69922 13.328-13.328 12.551 12.551c0.76172 0.76172 1.9844 0.76172 2.7461 0 0.76172-0.76172 0.76172-1.9844 0-2.7461l-12.551-12.551 21.125-21.125c0.76172-0.76172 0.76172-1.9844 0-2.7461-0.76172-0.76172-1.9844-0.76172-2.7461 0l-21.125 21.125-1.5117-1.5117c-0.76172-0.76172-1.9844-0.76172-2.7461 0s-0.76172 1.9844 0 2.7461l1.5117 1.5117-13.328 13.328-10.852-10.852 12.504-12.504c0.76172-0.76172 0.76172-1.9844 0-2.7461-0.76172-0.76172-1.9844-0.76172-2.7461 0l-28.16 28.168-7.2852-7.2773c-0.76172-0.76172-1.9844-0.76172-2.7461 0-0.76172 0.76172-0.76172 1.9844 0 2.7461l7.2852 7.2773-1.2969 1.2969c-21.008-3.3203-41.441-9.3398-60.578-18.293-116.09-54.328-137.02-173.4-119.67-258.84z"/>
  <path d="m247.95 418.43c1 1.1797 2.5898 1.6211 3.9414 1.2422 1.4492-0.37891 2.543-1.5508 2.832-3.0195 8.8203-45.848 55.629-74.852 84.82-93.523 21.125-13.508 42.969-27.477 60.293-46.375 49.641-54.133 34.676-126.89-37.438-140.2-45.398-8.418-93.594 14.652-116.49 54.328-9.4102-28.875-37.176-53.566-67.398-58.445-33.777-5.4609-69.824 12.598-85.676 42.93-15.18 29.012-12.289 68.129 7.5312 102.06 34.535 59.156 96.59 80.699 147.58 141zm-149.13-237.38 3.3594 3.3594-7.5859 7.5859c1.1328-3.7852 2.5273-7.4414 4.2266-10.945zm32.316-3.3281-14.602 14.602c-0.1875 0.1875-0.1875 0.44922-0.28516 0.68359l-8.5938-8.5938 15.082-15.082zm-11.137 24.504-11.738 11.738-14.227-14.227c-0.36328-0.36328-0.83594-0.52734-1.3203-0.54297 0.015624-0.070313 0.039062-0.14062 0.054687-0.21094 0.17188-0.085937 0.37109-0.070312 0.51953-0.21875l11.621-11.621zm-27.938 1.0273 13.453 13.461-10.512 10.52c-0.76172 0.76172-0.76172 1.9844 0 2.7383 0.76172 0.76172 1.9844 0.76172 2.7461 0l10.512-10.512 10.629 10.629-12.855 12.855-14.203-14.211c-1.0586-8.7266-1.0117-17.289 0.23047-25.48zm11.227 42.426-6.1211 6.1211c-1.9258-5.5547-3.4453-11.133-4.4609-16.703zm62.992-106.46c2.3203 0 4.6328 0.15625 6.9492 0.38672l3.5859 3.5859-6.0508 6.0586c-0.76172 0.76172-0.76172 1.9844 0 2.7461 0.76172 0.76172 1.9844 0.76172 2.7461 0l6.0586-6.0586 4.4297 4.4297c0.76172 0.76172 1.9844 0.76172 2.7461 0 0.76172-0.76172 0.76172-1.9844 0-2.7461l-4.4297-4.4297 1.2344-1.2344c0.125-0.125 0.10938-0.30859 0.1875-0.45703 28.082 7.4609 52.52 33.109 57.082 61.051 0.27734 1.6914 1.6289 3.0039 3.3281 3.2188 1.7305 0.23438 3.3516-0.70703 4.043-2.2656 18.547-41.52 68.098-67.523 112.82-59.312 65.902 12.188 78.801 77.52 33.133 127.33-16.641 18.145-38.051 31.836-58.758 45.078-27.461 17.547-73.656 45.918-86.473 91.082-50.121-56.086-106.29-77.102-139.68-130.82l4.4219 4.4219c0.76172 0.76172 1.9844 0.76172 2.7383 0 0.76172-0.76172 0.76172-1.9844 0-2.7461l-4.6406-4.6406 17.484-17.484c0.76172-0.76172 0.76172-1.9844 0-2.7461-0.76172-0.76172-1.9844-0.76172-2.7461 0l-17.484 17.484-6.4844-6.4844c-1.418-2.9492-2.668-5.9102-3.8242-8.9062l7.3477-7.3477 8 8.0039c0.76172 0.76172 1.9844 0.76172 2.7461 0 0.76172-0.76172 0.76172-1.9844 0-2.7383l-8-8.0039 13.824-13.824c0.1875-0.09375 0.41016-0.078125 0.56641-0.23438s0.14844-0.37891 0.23438-0.56641l1.8945-1.8945c0.76172-0.76172 0.76172-1.9844 0-2.7461s-1.9844-0.76172-2.7461 0l-0.92188 0.92188-10.629-10.629 11.738-11.738 0.85156 0.85156c0.76172 0.76172 1.9844 0.76172 2.7461 0 0.76172-0.76172 0.76172-1.9844 0-2.7461l-0.85156-0.85156 3.5859-3.5859c0.76172-0.76172 0.76172-1.9844 0-2.7461-0.76172-0.76172-1.9844-0.76172-2.7461 0l-3.5859 3.5859-4.1406-4.1406c0.23438-0.09375 0.49609-0.09375 0.69141-0.28516l14.602-14.594 0.85938 0.85938c0.76172 0.76172 1.9844 0.76172 2.7383 0 0.76172-0.76172 0.76172-1.9844 0-2.7461l-0.85938-0.85938 5.4609-5.4609c0.76172-0.76172 0.76172-1.9844 0-2.7461-0.76172-0.76172-1.9844-0.76172-2.7461 0l-5.4609 5.4609-8.4883-8.4883c0.51172-0.75391 0.53516-1.7539-0.13281-2.4297-0.66797-0.66797-1.668-0.64453-2.4297-0.13281l-6.0352-6.0352c4.1562-3.5547 8.6641-6.6484 13.484-9.2539l5.3125 5.3125-4.9414 4.9414c-0.76172 0.76172-0.76172 1.9844 0 2.7461 0.76172 0.76172 1.9844 0.76172 2.7461 0l4.9414-4.9414 10.195 10.203c0.76172 0.76172 1.9844 0.76172 2.7461 0 0.76172-0.76172 0.76172-1.9844 0-2.7383l-10.195-10.203 12.48-12.48 6.5391 6.5391-5.6875 5.6875c-0.76172 0.76172-0.76172 1.9844 0 2.7383 0.76172 0.76172 1.9844 0.76172 2.7461 0l5.6875-5.6875 5.3125 5.3125c0.76172 0.76172 1.9844 0.76172 2.7461 0s0.76172-1.9844 0-2.7383l-5.3125-5.3125 3.832-3.832c0.76172-0.76172 0.76172-1.9844 0-2.7461-0.76172-0.76172-1.9844-0.76172-2.7461 0l-3.832 3.832-5.4297-5.4297c2.918-0.33984 5.875-0.60156 8.8398-0.60156zm-32.367 7.5781c4.4922-2.1328 9.1445-3.8789 13.957-5.1211l-9.543 9.543zm-19.996 13.699 6.0898 6.0898-15.082 15.082-4.25-4.25c3.5117-6.3164 8.0195-11.973 13.242-16.922z"/>
  <path d="m273.86 340.41c3.8008-8.332 8.7031-16.074 14.352-23.211l5.0195 5.2891c1.7539 1.8633 4.6016-0.80078 2.8086-2.668l-5.3906-5.6797c5.8242-6.875 12.457-13.062 19.781-18.41l8.0117 7.4766c0.80859 0.74609 2.0312 0.66797 2.7383-0.09375 0.73047-0.79297 0.69141-2.0156-0.09375-2.7461l-7.3789-6.8828c7.0742-4.793 14.637-8.9688 22.18-12.91 2.9102 2.9883 6.4219 5.3828 10.34 6.7422 0.96875 0.34766 2.1094-0.15625 2.4688-1.1953 0.34766-1.0156-0.1875-2.1172-1.1953-2.4688-3.0117-1.0469-5.7891-2.7617-8.1211-4.9414 9.6133-4.9883 16.82-8.7891 24.652-14.035l4.7383 3.0703c0.875 0.57422 2.0938 0.33984 2.6836-0.57422 0.58203-0.89062 0.32422-2.1016-0.57422-2.6836l-3.3828-2.1953c5.0117-3.6055 10.07-7.8672 14.586-12.84 1.2188 0.36328 2.4531 0.67578 3.707 0.83594 0.085938 0.007813 0.17188 0.015626 0.25781 0.015626 0.96094 0 1.793-0.71484 1.9258-1.6914 0.13281-1.0625-0.61328-2.0391-1.6758-2.1719-0.48047-0.0625-0.94531-0.22656-1.4258-0.32422 5.9492-7.4102 10.047-15.188 11.691-25.965 1.4492 0.41797 2.8008 0.74609 3.3281-1.0547 0.29297-1.0312-0.29297-2.1094-1.3281-2.4062l-1.5195-0.44141c0.62109-8.6719-1.0781-17.602-6.3828-25.211-0.61328-0.89062-1.832-1.0938-2.6992-0.48828-0.875 0.61328-1.0938 1.8242-0.48047 2.6992 4.5938 6.5859 6.1758 14.305 5.7734 21.891l-8.9688-2.6055c-1.0469-0.30078-2.1016 0.29297-2.4062 1.3203-0.30078 1.0312 0.29297 2.1016 1.3203 2.4141l9.6133 2.793c-1.5195 10.723-5.7266 18.402-11.922 25.777-2.6758-1.1719-5.1367-2.8477-7.0586-5.0195-0.71484-0.80859-1.9375-0.875-2.7383-0.17187-0.80078 0.71484-0.875 1.9375-0.16406 2.7461 2.0234 2.2891 4.5312 4.1367 7.2852 5.5-4.4375 4.6914-9.3711 8.7031-14.227 12.102l-5.2227-3.3828c-0.88281-0.57422-2.1016-0.32422-2.6836 0.57422-0.58203 0.89062-0.32422 2.1016 0.57422 2.6836l3.8555 2.4961c-7.4531 4.8555-15.32 8.9453-23.25 13.062-0.17188 0.085937-0.33984 0.17969-0.51172 0.27344-1.0938-1.4414-2.0625-2.9727-2.7773-4.625-0.42578-0.97656-1.5586-1.4258-2.5508-1.0078-0.97656 0.42578-1.4336 1.5664-1.0078 2.5508 0.75391 1.7383 1.7148 3.3828 2.832 4.918-7.6172 3.9883-15.297 8.207-22.48 13.156l-5.9648-5.5625c-0.78516-0.73047-2.0078-0.69141-2.7383 0.09375-0.73047 0.79297-0.69141 2.0156 0.09375 2.7461l5.3906 5.0273c-7.2305 5.3359-13.793 11.465-19.594 18.262l-8.3398-8.7812c-0.73828-0.77734-1.9688-0.80859-2.7461-0.078125-0.77734 0.74609-0.80859 1.9688-0.070313 2.7461l8.6641 9.1211c-5.9883 7.5-11.109 15.719-15.121 24.508-0.44141 0.96875-0.015625 2.1172 0.96094 2.5664 0.94531 0.46875 2.1055 0.050781 2.5586-0.93359z"/>
  <path d="m440.41 342.31-39.828 39.828c-0.76172 0.76172-0.76172 1.9844 0 2.7461 0.76172 0.76172 1.9844 0.76172 2.7461 0l15.219-15.219c0.078125 0.125 0.054688 0.27734 0.16406 0.38672l16.562 16.562c0.76172 0.76172 1.9844 0.76172 2.7461 0 0.76172-0.76172 0.76172-1.9844 0-2.7461l-16.562-16.562c-0.10938-0.10938-0.26563-0.085938-0.38672-0.16406l22.094-22.094 5.0898 5.082-20.465 20.465c-0.76172 0.76172-0.76172 1.9844 0 2.7383 0.76172 0.76172 1.9844 0.76172 2.7461 0l20.465-20.465 4.8867 4.8867c0.76172 0.76172 1.9844 0.76172 2.7461 0 0.76172-0.76172 0.76172-1.9844 0-2.7461l-4.8867-4.8867 12.754-12.754c0.76172-0.76172 0.76172-1.9844 0-2.7461-0.76172-0.76172-1.9844-0.76172-2.7461 0l-12.754 12.754-5.0898-5.082 4.8086-4.8086c0.76172-0.76172 0.76172-1.9844 0-2.7461-0.76172-0.76172-1.9844-0.76172-2.7461 0l-4.8086 4.8086-1.1016-1.1016c-0.76172-0.76172-1.9844-0.76172-2.7461 0-0.76172 0.76172-0.76172 1.9844 0 2.7461z"/>
  <path d="m426.19 388.69-14.754 14.746-14.699-14.699c-0.76172-0.76172-1.9844-0.76172-2.7461 0s-0.76172 1.9844 0 2.7461l14.699 14.699-17.445 17.445-10.441-10.441 6.0664-6.0664c0.76172-0.76172 0.76172-1.9844 0-2.7461-0.76172-0.76172-1.9844-0.76172-2.7461 0l-6.0664 6.0664-5.2227-5.2227c-0.76172-0.76172-1.9844-0.76172-2.7461 0-0.76172 0.76172-0.76172 1.9844 0 2.7461l5.2227 5.2227-13.738 13.738-11.816-11.816c-0.76172-0.76172-1.9844-0.76172-2.7461 0-0.76172 0.76172-0.76172 1.9844 0 2.7461l11.816 11.816-14.98 14.98-12.504-12.504 7.9688-7.9688c0.76172-0.76172 0.76172-1.9844 0-2.7461-0.76172-0.76172-1.9844-0.76172-2.7461 0l-7.9688 7.9688-1.1016-1.1016c-0.76172-0.76172-1.9844-0.76172-2.7461 0-0.76172 0.76172-0.76172 1.9844 0 2.7461l1.1016 1.1016-16.207 16.207-4.3984-4.3984c-0.76172-0.76172-1.9844-0.76172-2.7461 0-0.76172 0.76172-0.76172 1.9844 0 2.7461l4.3984 4.3984-18.27 18.27-10.574-10.582c-0.76172-0.76172-1.9844-0.76172-2.7461 0-0.76172 0.76172-0.76172 1.9844 0 2.7383l10.574 10.582-9.75 9.75c-0.76172 0.76172-0.76172 1.9844 0 2.7461 0.76172 0.76172 1.9844 0.76172 2.7461 0l9.75-9.75 7.3008 7.3008c0.76172 0.76172 1.9844 0.76172 2.7383 0 0.76172-0.76172 0.76172-1.9844 0-2.7461l-7.3008-7.3008 18.27-18.27 12.504 12.504-13.844 13.855c-0.76172 0.76172-0.76172 1.9844 0 2.7461 0.76172 0.76172 1.9844 0.76172 2.7461 0l13.871-13.871 0.10938 0.10938c0.76172 0.76172 1.9844 0.76172 2.7383 0 0.76172-0.76172 0.76172-1.9844 0-2.7461l-0.10937-0.10938 16.207-16.207 6.207 6.207c0.76172 0.76172 1.9844 0.76172 2.7461 0 0.76172-0.76172 0.76172-1.9844 0-2.7461l-6.207-6.207 14.98-14.98 10.441 10.441-1.9258 1.9258c-0.76172 0.76172-0.76172 1.9844 0 2.7461 0.76172 0.76172 1.9844 0.76172 2.7461 0l1.9258-1.9258 4.4922 4.4922c0.76172 0.76172 1.9844 0.76172 2.7461 0 0.76172-0.76172 0.76172-1.9844 0-2.7461l-4.4922-4.4922 13.738-13.738 4.9648 4.9727c0.76172 0.76172 1.9844 0.76172 2.7461 0 0.76172-0.76172 0.76172-1.9844 0-2.7461l-4.9648-4.9727 17.445-17.445 2.4062 2.4062c0.76172 0.76172 1.9844 0.76172 2.7461 0 0.76172-0.76172 0.76172-1.9844 0-2.7461l-2.4062-2.4062 14.754-14.746c0.76172-0.76172 0.76172-1.9844 0-2.7461-0.77344-0.73828-2-0.73828-2.7578 0.023438zm-101.28 74.898-12.496-12.496 16.207-16.207 12.504 12.504zm49.859-23.492-10.441-10.441 13.738-13.738 10.441 10.441z"/>
  <path d="m122.7 100.08c7.6719-7.5234 16.059-14.328 24.973-20.402l7.7344 11.125c0.60547 0.88281 1.8164 1.0938 2.6992 0.48828 0.875-0.60547 1.1016-1.8164 0.48828-2.6992l-7.6484-10.992c7.4531-4.8555 15.25-9.1758 23.328-12.949l5.4531 7.9453c0.58984 0.85938 1.7773 1.1172 2.6992 0.49609 0.88281-0.60547 1.1094-1.8086 0.49609-2.6992l-5.1211-7.4531c10.164-4.4922 20.703-8.0898 31.473-10.738l4.5234 9.7891c0.44141 0.94531 1.5664 1.4102 2.5742 0.94531 0.96875-0.44922 1.3945-1.5977 0.94531-2.5664l-4.1406-8.9531c15.98-3.5625 24.398-3.918 32.496-4.2266 0.52734 4.0664 2.6133 7.9609 5.9805 10.309 0.875 0.61328 2.0859 0.39453 2.6992-0.47266 0.61328-0.875 0.39453-2.0938-0.48047-2.707-2.3672-1.6523-3.7695-4.3516-4.2344-7.1992 11.84-0.1875 23.691 0.77734 35.398 2.8789l0.10156 8.9375c0.015625 1.0625 0.875 1.918 1.9375 1.918h0.023437c1.0703-0.015625 1.9297-0.89062 1.918-1.9609l-0.09375-8.2461c7.1836 1.4414 14.25 3.3594 21.219 5.6172-0.57422 3.4219-0.59766 6.9336 0.125 10.348 0.19531 0.90625 1 1.5352 1.8945 1.5352 1.2656 0 2.1484-1.1562 1.9023-2.3438-0.57422-2.7227-0.62109-5.5156-0.23438-8.2539 9.1602 3.1797 18.074 6.9883 26.617 11.52l-2.543 11.621c-0.23438 1.0469 0.43359 2.0859 1.4805 2.3125 1.0312 0.23438 2.0781-0.43359 2.3047-1.4805l2.2891-10.465c7.3945 4.1289 14.586 8.6016 21.301 13.707 0.85156 0.63672 2.0703 0.47266 2.7227-0.37109 0.64453-0.85156 0.48047-2.0703-0.37109-2.7227-7.1758-5.4531-14.863-10.215-22.785-14.57l1.707-7.8047c0.23437-1.0469-0.43359-2.0859-1.4805-2.3125-1.0156-0.22656-2.0781 0.44141-2.3047 1.4727l-1.457 6.6562c-8.5547-4.4766-17.484-8.2148-26.633-11.363 0.33203-1.0547 0.69922-2.1094 1.1719-3.1094 0.45703-0.96875 0.046876-2.125-0.92187-2.582-0.96875-0.45703-2.1172-0.054688-2.582 0.91406-0.53516 1.1328-0.9375 2.3125-1.3203 3.5-7.2773-2.3438-14.652-4.2891-22.148-5.7656l-0.085937-7.4922c-0.015625-1.0625-0.875-1.918-1.9375-1.918h-0.023438c-1.0703 0.015625-1.9297 0.89062-1.918 1.9609l0.078126 6.8125c-11.676-2.0469-23.488-3.0039-35.281-2.8242 0.16406-0.82422 0.27344-1.6602 0.63672-2.4219 0.46484-0.96094 0.0625-2.1172-0.90625-2.5898-0.95312-0.44922-2.1172-0.070313-2.5898 0.90625-0.63672 1.3125-0.98437 2.7305-1.1719 4.1641-9.2383 0.33984-18.02 0.80859-34.172 4.4844l-2.793-6.0508c-0.45703-0.97656-1.5977-1.3945-2.5742-0.94531-0.96875 0.44922-1.3945 1.5977-0.94531 2.5664l2.4141 5.2227c-10.969 2.7383-21.707 6.4609-32.047 11.078l-4.0742-5.9258c-0.60547-0.875-1.8008-1.0938-2.6992-0.49609-0.88281 0.60547-1.1094 1.8086-0.50391 2.6992l3.7617 5.4766c-8.0664 3.8008-15.871 8.1211-23.328 12.984l-5.0977-7.332c-0.61328-0.88281-1.8164-1.1016-2.6992-0.48828-0.875 0.61328-1.1016 1.8164-0.48828 2.6992l5.0117 7.207c-9.0938 6.1992-17.656 13.141-25.477 20.812-0.76172 0.75391-0.77734 1.9766-0.023438 2.7461 0.78516 0.79688 2.0117 0.77344 2.7578 0.039062z"/>
 </g>
</svg>
