<?xml version="1.0" encoding="UTF-8"?>
<svg width="1200pt" height="1200pt" version="1.1" viewBox="0 0 1200 1200" xmlns="http://www.w3.org/2000/svg">
 <path d="m600 135.73c-256 0-464.27 208.27-464.27 464.27s208.28 464.27 464.27 464.27 464.27-208.28 464.27-464.27-208.28-464.27-464.27-464.27zm435.73 464.27c0 115.01-44.867 219.68-117.92 297.64l-90.156-90.16c6.293-9.2695 9.9023-20.434 9.0586-32.902-1.3125-19.605-18.457-28.441-30.984-34.898-4.3125-2.2266-10.219-5.2734-11.672-7.125-4.8047-6.1055-5.543-11.859-2.3203-18.129 4.6641-9.1055 16.816-16.91 26.602-16.301 29.074 1.3242 106.42 4.6875 119.44-60.398 6.1641-30.844-2.4258-43.398-12.375-57.938-3.1992-4.6875-6.5156-9.5391-9.9375-15.809-11.508-21.141-27.27-50.086-53.625-67.809-18.797-12.641-38.109-19.543-56.789-26.215-5.6367-2.0156-11.227-4.0156-16.758-6.1602 13.418-45.996 8.2852-90.996-15.75-140.41-9.8672-20.266-29.039-44.273-53.25-50.863-13.02-3.5469-25.805-1.4883-36.984 5.9219-47.215 31.363-16.453 105.94 6.3984 140.98 17.32 26.555 36.141 43.078 55.055 54.551-0.78516 0.63281-1.5703 1.2773-2.3789 1.9336l-2.6719 2.168c-8.1094 6.5781-13.266 14.836-17.812 22.113-1.5469 2.4648-3.082 4.9453-4.7461 7.3281-0.035156 0.042969-0.058593 0.082031-0.082031 0.11719-3.1758-2.8203-7.8281-8.4727-11.145-12.504-4.0078-4.8672-8.5547-10.383-13.547-15.457-59.086-59.848-122.82-81.016-206.67-68.578-14.277 2.1133-28.43 5.9727-42.211 11.211l-140.12-140.12c77.953-73.051 182.62-117.92 297.63-117.92 240.26 0 435.73 195.47 435.73 435.73zm-444.5 200.45c0.22266 2.0977 0.5625 5.2852 0.52734 5.8242-0.035156 0.035156-3.6094 3.7148-22.898 5.3086-134.07 11.074-214.01-30.223-237.88-122.7-2.2383-8.6719-3.9844-16.219-5.5312-22.863-2.7656-11.895-5.0508-21.773-8.4961-30.469 6.2109-34.285 10.969-56.277 24.281-84.832 18.621-39.906 54.293-74.371 94.895-94.422l348.83 348.84c-1.7812 0.58594-3.5469 1.0391-5.2305 1.3008-27.328 4.207-50.742 6.0117-76.219 1.1602-18.035-3.4336-24.258-13.957-31.465-26.133-5.3672-9.0586-10.91-18.434-21.281-23.988-10.746-5.7656-22.758-6.5625-33.855-2.2383-11.414 4.4766-20.332 13.887-24.469 25.816-2.4961 7.2188-1.7812 13.969-1.207 19.395zm-126.26-355.66c7.9219-2.4102 15.914-4.2773 23.906-5.4609 74.977-11.133 129.43 6.9531 182.18 60.391 4.1016 4.1523 8.0273 8.9297 11.836 13.547 10.5 12.762 20.578 24.82 34.875 24.246 8.3555-0.32812 15.68-4.9258 21.773-13.66 1.9453-2.7891 3.75-5.668 5.5547-8.543 3.8438-6.1641 7.1719-11.488 11.578-15.059l2.7422-2.2266c4.7344-3.8594 8.0039-6.5352 13.102-9.7969 7.793 3.1797 15.469 5.9297 22.934 8.5977 17.801 6.3633 34.617 12.375 50.461 23.027 20.566 13.828 33.832 38.191 44.496 57.773 4.1016 7.543 8.0039 13.242 11.438 18.27 8.5547 12.504 11.754 17.172 7.9453 36.238-5.7656 28.805-32.801 39.938-90.199 37.488-20.871-1.1836-43.477 12.75-53.25 31.77-8.3086 16.184-6.375 33.973 5.2852 48.809 5.2969 6.7266 13.289 10.852 21.023 14.836 6.4805 3.3398 15.352 7.9102 15.586 11.449 0.23828 3.5586-0.48828 6.8281-1.7031 9.8711zm247.64-40.953c-19.582-30.016-40.828-84.145-14.508-101.63 2.8711-1.9023 5.7656-2.8398 8.8828-2.8398 1.5352 0 3.1406 0.23047 4.8047 0.68359 11.988 3.2578 26.414 17.992 35.086 35.82 19.957 41.027 24.902 78.246 15.152 115.77-17.285-9.8164-33.832-23.902-49.418-47.805zm-548.33 196.17c0-115.01 44.867-219.68 117.92-297.64l132.68 132.68c-42.727 23.219-79.242 60.199-99.492 103.61-11.051 23.695-16.816 43.473-21.727 66.922-0.33984-0.25391-0.69141-0.51172-1.043-0.76172-15.258-11.09-35.789-10.488-51.094 1.4648-12.691 9.9375-22.676 29.426-12.598 54.352 4.3242 10.664 13.699 19.09 25.711 23.121 12.375 4.1367 25.43 2.9297 35.895-3.3281 2.4844-1.5 5.0742-3.4805 7.6055-5.8828 1.4766 6.3281 3.1406 13.43 5.2148 21.469 25.02 96.949 100.24 145.9 223.9 145.9 14.027 0 28.688-0.63281 43.957-1.8984 22.02-1.8164 35.133-6.6094 42.527-15.539 7.7578-9.3633 6.6328-20.004 5.8828-27.035-0.28125-2.6016-0.62109-5.8477-0.19922-7.0547 1.3711-3.9609 4.3242-7.1719 7.8984-8.5664 3.2578-1.2773 6.6094-0.97266 9.9727 0.80859 3.3516 1.793 6.5273 7.1602 10.195 13.371 8.4492 14.262 20.004 33.785 50.684 39.633 31.254 5.9531 59.754 3.0469 85.898-0.99609 7.7305-1.1875 15.414-3.9453 22.449-7.9414l91.117 91.121c-77.953 73.047-182.62 117.91-297.62 117.91-240.25 0.003906-435.72-195.46-435.72-435.72zm122.86 39.352c-2.4609 8.8359-8.4844 14.918-11.285 16.594-3.2344 1.9453-7.7695 2.2148-12.152 0.75-3.9844-1.3359-7.1719-3.9258-8.3203-6.7734-3.5625-8.8125-2.2148-16.523 3.7148-21.152 2.4844-1.9453 5.8242-3.293 9.293-3.293 2.5195 0 5.0977 0.71484 7.4648 2.4258 5.1445 3.7383 8.625 7.1953 11.285 11.449z"/>
</svg>
