<?xml version="1.0" encoding="UTF-8"?>
<svg width="128pt" height="128pt" version="1.1" viewBox="0 0 128 128" xmlns="http://www.w3.org/2000/svg">
 <defs>
  <clipPath id="a">
   <path d="m23.695 31h80.609v66h-80.609z"/>
  </clipPath>
 </defs>
 <g clip-path="url(#a)">
  <path d="m33.773 89.191h-8.8203c-0.69531 0-1.2578 0.5625-1.2578 1.2578 0 0.69531 0.5625 1.2617 1.2578 1.2617h8.8203v2.5195c0 1.3906 1.125 2.5156 2.5156 2.5156h2.5195c1.3906 0 2.5195-1.125 2.5195-2.5156v-2.5195h61.719c0.69531 0 1.2578-0.56641 1.2578-1.2617 0-0.69531-0.5625-1.2578-1.2578-1.2578h-61.719v-2.5195c0-1.3906-1.1289-2.5195-2.5195-2.5195h-2.5195c-1.3906 0-2.5156 1.1289-2.5156 2.5195zm30.227-57.938c-12.512 0-22.672 10.156-22.672 22.672 0 12.512 10.16 22.668 22.672 22.668s22.672-10.156 22.672-22.668c0-12.516-10.16-22.672-22.672-22.672zm0 2.5195c11.121 0 20.152 9.0273 20.152 20.152 0 11.121-9.0312 20.152-20.152 20.152s-20.152-9.0312-20.152-20.152c0-11.125 9.0312-20.152 20.152-20.152zm-5.6641 10.246c-0.39063-0.22656-0.87109-0.23047-1.2617-0.003906s-0.63281 0.64062-0.63281 1.0898v17.637c0 0.44922 0.24219 0.86328 0.63281 1.0898 0.39062 0.22656 0.87109 0.22266 1.2617-0.003906l15.117-8.8164c0.38672-0.22656 0.625-0.64062 0.625-1.0859 0-0.44922-0.23828-0.86328-0.625-1.0898z" fill="#f00" fill-rule="evenodd"/>
 </g>
</svg>
