<?xml version="1.0" encoding="UTF-8"?>
<svg width="128pt" height="128pt" version="1.1" viewBox="0 0 128 128" xmlns="http://www.w3.org/2000/svg">
 <path d="m25.602 32c-4.2109 0-7.6797 3.4688-7.6797 7.6797v48.641c0 4.2109 3.4688 7.6797 7.6797 7.6797h76.797c4.2109 0 7.6797-3.4688 7.6797-7.6797v-48.641c0-4.2109-3.4688-7.6797-7.6797-7.6797-0.68359-0.007812-1.3438 0.25391-1.832 0.73828-0.48828 0.48047-0.76172 1.1367-0.76172 1.8203 0 0.6875 0.27344 1.3438 0.76172 1.8242 0.48828 0.48047 1.1484 0.74609 1.832 0.73828 1.4648 0 2.5625 1.0977 2.5625 2.5586v48.641c0 1.4609-1.0977 2.5586-2.5625 2.5586h-76.797c-1.4648 0-2.5625-1.0977-2.5625-2.5586v-48.641c0-1.4609 1.0977-2.5586 2.5625-2.5586h66.559c0.68359 0.007812 1.3438-0.25781 1.832-0.73828 0.48828-0.48047 0.76562-1.1367 0.76562-1.8242 0-0.68359-0.27734-1.3398-0.76562-1.8203-0.48828-0.48438-1.1484-0.74609-1.832-0.73828zm27.918 15.359c-1.3203 0.125-2.3242 1.2344-2.3203 2.5625v16.637c-0.007813 0.6875 0.25781 1.3477 0.73828 1.8359s1.1367 0.76172 1.8242 0.76172c0.68359 0 1.3398-0.27344 1.8203-0.76172s0.74609-1.1484 0.73828-1.8359v-12.32l17.719 9.7617-21.52 11.84c-1.2383 0.68359-1.6836 2.2422-1 3.4805 0.68359 1.2383 2.2422 1.6836 3.4805 1l25.602-14.082c0.8125-0.44922 1.3203-1.3086 1.3203-2.2383s-0.50781-1.7891-1.3203-2.2383l-25.602-14.082c-0.44922-0.25391-0.96484-0.36328-1.4805-0.32031z" fill="#ff0"/>
</svg>
