<?xml version="1.0" encoding="UTF-8"?>
<svg width="128pt" height="128pt" version="1.1" viewBox="0 0 128 128" xmlns="http://www.w3.org/2000/svg">
 <path d="m32.562 36.594c-2.207 0-4.0312 1.8242-4.0312 4.0312v46.75c0 2.207 1.8242 4.0312 4.0312 4.0312h56.426c0.43359 0.007812 0.84766-0.16016 1.1562-0.46484 0.30469-0.30078 0.48047-0.71484 0.48047-1.1445 0-0.43359-0.17578-0.84766-0.48047-1.1484-0.30859-0.30469-0.72266-0.47266-1.1562-0.46484h-56.426c-0.47266 0-0.80469-0.33203-0.80469-0.80859v-46.75c0-0.47656 0.33203-0.80859 0.80469-0.80859h62.875c0.47266 0 0.80469 0.33203 0.80469 0.80859v46.75c0 0.47656-0.33203 0.80859-0.80469 0.80859-0.42969-0.007813-0.84766 0.16016-1.1562 0.46484-0.30469 0.30078-0.48047 0.71484-0.48047 1.1484 0 0.42969 0.17578 0.84375 0.48047 1.1445 0.30859 0.30469 0.72656 0.47266 1.1562 0.46484 2.207 0 4.0312-1.8242 4.0312-4.0312v-46.75c0-2.207-1.8242-4.0312-4.0312-4.0312zm21.512 14.508c-0.78906 0.125-1.3711 0.8125-1.3594 1.6133v22.57c0 0.55078 0.28125 1.0625 0.74609 1.3594 0.46484 0.29688 1.0469 0.33594 1.5469 0.10156l24.184-11.285c0.56641-0.26563 0.92969-0.83594 0.92969-1.4609s-0.36328-1.1953-0.92969-1.4609l-24.184-11.285c-0.28906-0.14062-0.61328-0.19531-0.93359-0.15234zm1.8633 4.1328 18.77 8.7656-18.77 8.7656z" fill="#ff0"/>
</svg>
