<?xml version="1.0" encoding="UTF-8"?>
<svg width="128pt" height="128pt" version="1.1" viewBox="0 0 128 128" xmlns="http://www.w3.org/2000/svg">
 <path d="m37.223 37.398c-5.2148 0-9.4961 4.2617-9.4961 9.4727v34.234c0 5.2109 4.2695 9.4961 9.4961 9.4961h53.531c5.2227 0 9.5195-4.2773 9.5195-9.4961v-34.234c0-5.2188-4.3047-9.4727-9.5195-9.4727h-42.773c-0.64844-0.007813-1.2734 0.24219-1.7344 0.69531-0.46094 0.45703-0.71875 1.0742-0.71875 1.7227 0 0.64844 0.25781 1.2695 0.71875 1.7227 0.46094 0.45313 1.0859 0.70703 1.7344 0.69531h42.773c2.6328 0 4.6836 2.0352 4.6836 4.6367v34.234c0 2.6016-2.0586 4.6602-4.6836 4.6602h-53.531c-2.6289 0-4.6602-2.0508-4.6602-4.6602v-34.234c0-2.6133 2.0234-4.6367 4.6602-4.6367h2.5938c0.64844 0.011719 1.2734-0.24219 1.7344-0.69531 0.46094-0.45312 0.71875-1.0742 0.71875-1.7227 0-0.64844-0.25781-1.2656-0.71875-1.7227-0.46094-0.45312-1.0859-0.70312-1.7344-0.69531zm19.246 11.285c-1.2266 0.14062-2.1484 1.1836-2.1406 2.418v25.797c0.007813 0.88672 0.5 1.6953 1.2852 2.1094 0.78125 0.41406 1.7266 0.36719 2.4688-0.12109l19.344-12.871c0.67578-0.44922 1.082-1.2031 1.082-2.0156 0-0.80859-0.40625-1.5664-1.082-2.0156l-19.344-12.898c-0.47656-0.32031-1.0469-0.46094-1.6133-0.40234zm2.6953 6.9297 12.57 8.3867-12.57 8.3867z"/>
</svg>
