<?xml version="1.0" encoding="UTF-8"?>
<svg width="512pt" height="512pt" version="1.1" viewBox="0 0 512 512" xmlns="http://www.w3.org/2000/svg">
 <path d="m475.73 136.64c-3.7852-7.0234-10.25-12.215-17.922-14.402l-42.668-12.586-8.7461-42.668v0.003906c-1.3984-7.918-5.9062-14.941-12.52-19.512-6.6133-4.5703-14.781-6.3008-22.68-4.8086l-106.67 21.867-104.53-30.723c-7.6523-2.2188-15.871-1.3203-22.863 2.4961-6.9922 3.8164-12.195 10.242-14.469 17.879l-13.016 41.812-43.309 8.8516h0.003906c-7.9414 1.5664-14.922 6.2539-19.375 13.012-4.4492 6.7617-6.0039 15.023-4.3047 22.938l22.078 107.2-30.824 104c-2.2266 7.6523-1.3477 15.871 2.4453 22.879 3.793 7.0078 10.195 12.242 17.82 14.562l298.67 88.32h-0.003907c2.7852 0.75391 5.6523 1.1484 8.5352 1.1719 6.4688 0.011718 12.77-2.0586 17.973-5.8984s9.0352-9.25 10.934-15.434l12.48-42.668 43.309-8.8516-0.003906-0.003906c7.6641-1.668 14.371-6.2539 18.711-12.781 4.3438-6.5312 5.9727-14.492 4.543-22.203l-21.973-106.67 30.828-104.43c2.3672-7.7969 1.4844-16.223-2.4531-23.359zm-100.38-72.641c2.3242-0.57031 4.7812-0.16016 6.7969 1.1289 2.0156 1.2891 3.4141 3.3477 3.8711 5.6992l6.5078 32-84.91-25.176zm-311.36 72.535c-0.53906-2.3242-0.11719-4.7656 1.168-6.7734 1.2852-2.0078 3.3242-3.4102 5.6602-3.8945l32-6.6133-25.172 85.332zm305.39 315.2c-1.3438 4.5586-6.0781 7.2109-10.668 5.9727l-298.67-88.32h0.003907c-2.2422-0.66797-4.125-2.2031-5.2266-4.2656-1.1484-2.0078-1.418-4.4023-0.75-6.6133l24.32-81.176 133.23-72.746 77.762 160c2.5938 5.3008 8.9922 7.5 14.293 4.9062 5.3008-2.5898 7.5-8.9922 4.9062-14.293l-16.535-33.922 55.148-32 45.652 83.84zm78.613-76.375c1.0586 4.832-1.9961 9.6055-6.8281 10.668l-32 6.5078 25.066-84.691zm9.4922-221.87-56.105 190.29-35.945-66.453c-2.6484-4.8203-7.125-8.375-12.426-9.8594-5.2969-1.4844-10.969-0.77344-15.734 1.9688l-54.613 32-52.375-107.41c-2.4648-4.8633-6.7656-8.543-11.949-10.227-5.1875-1.6797-10.828-1.2266-15.676 1.2656l-115.2 62.934 55.574-187.73h-0.003907c0.69922-2.2266 2.2266-4.0977 4.2695-5.2266 2.043-1.1523 4.4688-1.4219 6.7188-0.74609l248.64 73.707 49.172 14.508c4.6367 1.4336 7.2539 6.3359 5.8672 10.984zm-142.18-12.371c-11.949-3.5469-24.879-0.44531-33.922 8.1289s-12.824 21.32-9.9219 33.438c2.9062 12.121 12.055 21.77 24 25.312 11.949 3.543 24.879 0.44531 33.922-8.1289 9.043-8.5742 12.824-21.32 9.918-33.441-2.9023-12.117-12.051-21.766-23.996-25.309zm3.0938 37.332h-0.003906c-2.1484 7.1875-9.7188 11.27-16.906 9.1211-7.1875-2.1523-11.27-9.7188-9.1172-16.906 2.1484-7.1875 9.7188-11.273 16.906-9.1211 7.1875 2.1484 11.27 9.7188 9.1172 16.906z" fill="#fff"/>
</svg>
