<?xml version="1.0" encoding="UTF-8"?>
<svg width="512pt" height="512pt" version="1.1" viewBox="0 0 512 512" xmlns="http://www.w3.org/2000/svg">
 <g>
  <path d="m236.59 346.98c28.16 0 53.605 2.5078 75.367 6.8086l-14.949 32.871-89.195-38.707c9.2188-0.66406 18.844-0.97266 28.777-0.97266zm156.26 59.34c-0.050781 0.15234-0.10156 0.35938-0.15234 0.51172-0.25781 0.66406-0.46094 1.332-0.76953 1.9453-0.050782 0.25781-0.20312 0.46094-0.30859 0.66406-0.30859 0.61328-0.61328 1.2305-0.97266 1.8438-0.050782 0.15234-0.15234 0.25781-0.20312 0.41016-6.043 9.7812-20.273 19.199-41.164 26.828-0.30859 0.10156-0.51172 0.30859-0.76953 0.46094-27.391 9.9336-65.996 16.691-111.92 16.691-31.949 0-60.262-3.2266-83.762-8.5508-0.35938-0.15234-0.61328-0.35938-0.97266-0.41016-38.348-8.7539-64.82-23.449-70.965-38.707-0.050781-0.10156-0.10156-0.25781-0.15234-0.35938-0.30859-0.87109-0.5625-1.7422-0.76953-2.6094-0.050781-0.25781-0.10156-0.46094-0.15234-0.71875-0.20312-0.97266-0.30859-1.9961-0.30859-3.0195 0-0.97266 0.10156-1.9961 0.30859-3.0195 0.050782-0.20312 0.10156-0.41016 0.15234-0.66406 0.20312-0.87109 0.46094-1.7422 0.76953-2.6094 0.050781-0.10156 0.10156-0.25781 0.15234-0.35938 6.1445-15.258 32.613-29.953 70.965-38.707 0.35938-0.050781 0.61328-0.25781 0.97266-0.41016 6.6055-1.4844 13.621-2.8164 20.992-3.9922l-14.133 31.129c-1.1758 2.5586 0 5.582 2.5586 6.7578 0.66406 0.30859 1.3828 0.46094 2.0977 0.46094 1.9453 0 3.7891-1.125 4.6602-3.0195l16.793-36.965 0.30859-0.61328c0.20312 0.20312 0.41016 0.35938 0.61328 0.51172 0.30859 0.25781 0.61328 0.46094 0.97266 0.61328l105.06 45.566-16.793 37.07c-1.1797 2.5586 0 5.582 2.5586 6.7578 0.66406 0.30859 1.3828 0.46094 2.0977 0.46094 1.9453 0 3.8398-1.125 4.6602-3.0195l36.863-81.254c9.6758 2.2031 18.484 4.8125 26.367 7.6797 0.25781 0.15234 0.46094 0.35937 0.76953 0.46094 20.891 7.6289 35.125 17.051 41.164 26.828 0.050782 0.15234 0.15234 0.25781 0.20313 0.41016 0.35937 0.61328 0.66406 1.2305 0.97266 1.8438 0.10156 0.20312 0.25781 0.41016 0.30859 0.61328 0.30859 0.66406 0.51172 1.332 0.76953 1.9961 0.050781 0.15234 0.10156 0.35938 0.15234 0.51172 0.51172 1.6367 0.76953 3.3281 0.76953 4.9648 0 1.6875-0.25391 3.3281-0.76562 5.0156z"/>
  <path d="m429.46 107.16c-2.5586-1.1758-5.582-0.050781-6.7578 2.5078l-12.953 28.57-105.01-45.566c-0.66406-0.30859-1.332-0.41016-1.9961-0.41016l13.004-28.723c1.1797-2.5586 0-5.582-2.5586-6.7578-2.5586-1.1758-5.582-0.050781-6.7578 2.5586l-127.64 281.24c3.8906-0.5625 7.832-1.0234 11.879-1.4336l23.09-50.895c0.46094 0.51172 1.0234 0.92188 1.6914 1.1758l105.01 45.566-4.25 9.3203c3.4805 0.66406 6.9102 1.4336 10.238 2.2539l105.57-232.65c1.1758-2.5586 0.050781-5.6328-2.5625-6.7578zm-104.75 218.52-105.21-45.617c-0.5625-0.25781-1.1758-0.41016-1.793-0.41016l25.805-56.883c0.46094 0.51172 1.0234 0.92188 1.6914 1.2305l104.96 45.516zm29.695-65.484-105.11-45.621c-0.61328-0.25781-1.2812-0.35938-1.8945-0.41016l23.809-52.43c0.46094 0.51172 1.0234 0.97266 1.7422 1.2812l104.91 45.516zm27.648-60.98-105.06-45.617c-0.61328-0.25781-1.2812-0.35938-1.9453-0.41016l23.809-52.48c0.51172 0.5625 1.0742 1.0234 1.793 1.332l104.86 45.516z"/>
  <path d="m186.11 349.29-0.30859 0.61328c0.30859 0 0.61328-0.050782 0.92188-0.10156-0.20312-0.15234-0.41016-0.30859-0.61328-0.51172z"/>
 </g>
</svg>
