<?xml version="1.0" encoding="UTF-8"?>
<svg width="512pt" height="512pt" version="1.1" viewBox="0 0 512 512" xmlns="http://www.w3.org/2000/svg">
 <path d="m256 479.41c61.691 0 117.55-25.008 157.98-65.441 40.426-40.426 65.434-96.281 65.434-157.97s-25.008-117.55-65.434-157.98c-40.434-40.426-96.289-65.434-157.98-65.434s-117.55 25.008-157.98 65.434c-40.426 40.434-65.434 96.289-65.434 157.98s25.008 117.55 65.441 157.98c40.426 40.426 96.281 65.434 157.97 65.434zm75.289-171.82 19.691-6.9688c5.5312-1.9531 11.594 0.94922 13.547 6.4844 1.9531 5.5312-0.94922 11.594-6.4844 13.547l-45.695 16.176c-5.5312 1.9531-11.594-0.94922-13.547-6.4844l-2.0547-5.8008-14.121-39.895c-1.9531-5.5312 0.94922-11.594 6.4844-13.547 5.5312-1.9531 11.594 0.94922 13.547 6.4844l8.0469 22.734c9.0195-13.348 13.531-28.836 13.531-44.324 0-20.289-7.7383-40.582-23.223-56.059-15.477-15.477-35.77-23.223-56.059-23.223s-40.582 7.7383-56.059 23.223c-15.477 15.477-23.223 35.77-23.223 56.059s7.7383 40.582 23.223 56.059c7.4766 7.4766 16.219 13.285 25.68 17.207 9.4922 3.9297 19.801 6.0156 30.379 6.0156 4.4375 0 8.2383 2.7188 9.8359 6.582 0.51563 1.2539 0.80078 2.6172 0.80078 4.0586 0 5.8789-4.7617 10.641-10.641 10.641-13.273 0-26.32-2.6562-38.441-7.6758-12.156-5.0352-23.273-12.391-32.66-21.777-19.629-19.645-29.449-45.375-29.449-71.109s9.8203-51.465 29.449-71.105c19.637-19.637 45.371-29.449 71.105-29.449s51.465 9.8203 71.105 29.449c19.637 19.637 29.449 45.371 29.449 71.105 0.007813 17.883-4.7344 35.762-14.219 51.594z" fill-rule="evenodd"/>
</svg>
