<?xml version="1.0" encoding="UTF-8"?>
<svg width="512pt" height="512pt" version="1.1" viewBox="0 0 512 512" xmlns="http://www.w3.org/2000/svg">
 <path d="m445.82 44.215h-379.65c-24.211 0-43.902 19.695-43.902 43.902v247.71c0 24.203 19.695 43.902 43.902 43.902h75.043c21.371 29.359 55.992 48.488 95.012 48.488 21.453 0 42.297-5.7891 60.543-16.797l48.055 48.055c5.5312 5.5312 12.785 8.3008 20.051 8.3008s14.516-2.7656 20.039-8.3008c11.055-11.055 11.055-29.035 0-40.09l-39.66-39.66h100.56c24.203 0 43.902-19.703 43.902-43.902l0.003906-247.7c0-24.211-19.703-43.902-43.902-43.902zm-77.727 74.988c0 16.676-13.566 30.242-30.242 30.242s-30.242-13.566-30.242-30.242 13.566-30.242 30.242-30.242 30.242 13.566 30.242 30.242zm-106.82 220.29c-0.078125 0.011718-0.14844 0.011718-0.21484 0.011718l-27.844-62.406c3.5703-3.2617 5.8203-7.9375 5.8203-13.129 0-9.8164-7.9805-17.801-17.801-17.801-9.8203 0-17.797 7.9883-17.797 17.801 0 6.1094 3.1016 11.508 7.8047 14.715l-12.617 44.324h-40.98c-0.61328-3.9844-0.94141-8.0625-0.94141-12.215 0-43.848 35.676-79.523 79.523-79.523 37.836 0 69.559 26.578 77.547 62.035l-37.219 0.046875c-2.5898 0-4.8438 1.7852-5.4258 4.3008l-9.8516 41.848zm-58.426-5.3164c2.4922 0 4.6836-1.6602 5.3711-4.0586l13.762-48.395c0.34375-0.011718 0.69531-0.019531 1.0352-0.054687l27.844 62.418c-3.5703 3.2617-5.8203 7.9375-5.8203 13.129 0 9.8164 7.9805 17.801 17.797 17.801s17.801-7.9883 17.801-17.801c0-6.3945-3.4102-12-8.4922-15.141l8.8359-37.566 34.473-0.035157c0.16797 2.082 0.28125 4.1836 0.28125 6.3125 0 43.844-35.676 79.512-79.512 79.512-35.711 0-65.992-23.66-76.008-56.125h42.629zm275.7 1.6484c0 18.047-14.684 32.73-32.73 32.73h-107.35c9.9531-17.57 15.188-37.387 15.188-57.77 0-64.758-52.684-117.44-117.43-117.44-64.746 0-117.44 52.684-117.44 117.44 0 20.98 5.5391 40.703 15.227 57.77l-67.832 0.003906c-18.059 0-32.73-14.684-32.73-32.73v-86.211l171.36-133.5 273.75 213.27v6.4453zm0-20.609-131.61-102.53 61.359-47.805 70.258 54.738v95.605zm-140.7-215.09c10.512 0 19.07 8.5547 19.07 19.07s-8.5547 19.07-19.07 19.07-19.07-8.5547-19.07-19.07 8.5547-19.07 19.07-19.07z" fill="#fff"/>
</svg>
