<?xml version="1.0" encoding="UTF-8"?>
<svg width="1200pt" height="1200pt" version="1.1" viewBox="0 0 1200 1200" xmlns="http://www.w3.org/2000/svg">
 <g>
  <path d="m813.95 971.23c-53.598 0-99.418-15.719-132.03-48.324-92.148-92.148-49.703-289.49 100.94-469.23 15.75-18.75 38.93-30.125 63.625-31.211 24.953-0.89453 49.426 8.3945 67.039 26.004l17.82 17.836c6.8945 6.8945 6.8945 18.078 0 24.953-6.8945 6.8945-18.062 6.8945-24.953 0l-17.82-17.836c-10.648-10.633-25.402-16.422-40.551-15.684-15.043 0.65625-28.59 7.2539-38.121 18.613-136.37 162.72-180.66 343.96-103.02 421.6 77.516 77.516 258.68 33.191 421.43-103.05 11.426-9.5977 18.078-23.16 18.734-38.188 0.65625-15.113-5.1016-29.918-15.82-40.637l-17.82-17.82c-6.8945-6.8945-6.8945-18.062 0-24.953 6.8945-6.8945 18.062-6.8945 24.953 0l17.82 17.82c17.699 17.699 27.211 42.152 26.125 67.125-1.0703 24.66-12.477 47.875-31.312 63.695-116.06 97.164-239.42 149.3-337.03 149.3z"/>
  <path d="m1094.7 716.39h-0.015625c-16.543 0-32.055-6.4805-43.668-18.215-11.562-11.426-18.027-26.867-18.078-43.324-0.050781-16.527 6.3945-32.105 18.148-43.859 11.547-11.668 27.055-18.129 43.602-18.129h0.015625c16.562 0 32.07 6.4609 43.688 18.18 11.684 11.703 18.129 27.281 18.078 43.809-0.035156 16.422-6.4805 31.832-18.129 43.395-11.621 11.699-27.113 18.145-43.641 18.145zm0-88.234c-7.0664 0-13.668 2.7383-18.594 7.7188-5.1172 5.1172-7.8945 11.805-7.875 18.887 0.015625 6.9805 2.7734 13.547 7.7383 18.457 5.0664 5.1172 11.668 7.875 18.734 7.875s13.668-2.7578 18.613-7.7383c0.050781-0.050781 0.085938-0.085937 0.13672-0.13672 4.9648-4.9102 7.7031-11.477 7.7188-18.457 0.015625-7.082-2.7383-13.77-7.7891-18.82-5-5.0469-11.621-7.7852-18.684-7.7852z"/>
  <path d="m950.05 571.63c-15.805 0-31.59-5.9453-43.602-17.836-11.77-11.77-18.215-27.297-18.215-43.789 0-16.492 6.4453-32.02 18.148-43.703 24.16-23.887 63.297-23.887 87.355-0.070313 0.050781 0.050781 0.085937 0.085937 0.13672 0.13672 23.816 24.059 23.816 63.211 0 87.289-12.113 11.992-27.984 17.973-43.824 17.973zm0.035156-88.012c-6.8086 0-13.613 2.5664-18.82 7.7031-4.9648 4.9648-7.7383 11.617-7.7383 18.68 0 7.0664 2.7734 13.734 7.8086 18.766 10.34 10.184 27.211 10.184 37.586-0.070312 10.117-10.219 10.133-27.055-0.070312-37.449-5.168-5.0938-11.957-7.6289-18.766-7.6289z"/>
  <path d="m660.16 1011.7c-17.715 0-34.5-7.0312-47.324-19.82-26.383-26.383-26.383-69.277-0.015625-95.645l40.445-40.445c6.8945-6.8945 18.062-6.8945 24.953 0 6.8945 6.8945 6.8945 18.062 0 24.953l-40.445 40.445c-6.1172 6.1367-9.4961 14.254-9.4961 22.852 0 8.6172 3.3789 16.734 9.4961 22.867 6.1367 6.1367 14.098 9.4961 22.402 9.4961h0.29297c8.8047-0.070312 16.977-3.4453 23.059-9.5117l40.43-40.43c6.8945-6.8945 18.062-6.8945 24.953 0 6.8945 6.8945 6.8945 18.062 0 24.953l-40.445 40.445c-12.668 12.648-29.59 19.68-47.684 19.836-0.21094 0.003906-0.41406 0.003906-0.62109 0.003906z"/>
  <path d="m390.18 1106.7c-50.734 0-96.543-15.992-129.86-49.305-69.039-69.039-66.074-191.88 7.4102-305.65 5.2891-8.2031 16.215-10.547 24.387-5.2578 8.2031 5.2891 10.547 16.199 5.2578 24.387-64.211 99.473-69.09 204.58-12.098 261.57 72.242 72.242 219.18 42.824 327.57-65.539 6.8945-6.8945 18.062-6.8945 24.953 0 6.8945 6.8945 6.8945 18.062 0 24.953-74.828 74.824-167.39 114.84-247.63 114.84z"/>
  <path d="m365.7 813.68c-34.707 0-69.418-13.219-95.836-39.637-52.836-52.836-52.836-138.82 0-191.65 52.855-52.82 138.83-52.805 191.65 0.015625 25.559 25.559 39.637 59.594 39.637 95.816 0 36.242-14.078 70.262-39.637 95.816-26.418 26.426-61.125 39.641-95.816 39.641zm-0.015625-235.63c-25.66 0-51.32 9.7695-70.863 29.297-39.086 39.086-39.086 102.66 0 141.75 39.102 39.102 102.68 39.066 141.75 0 18.887-18.887 29.297-44.047 29.297-70.863 0-26.797-10.41-51.957-29.297-70.863-19.547-19.543-45.223-29.316-70.883-29.316z"/>
  <path d="m365.69 735.14c-15.199 0-29.504-5.9102-40.258-16.664-22.195-22.195-22.195-58.316 0-80.516 21.523-21.523 59.059-21.488 80.516 0 22.195 22.195 22.195 58.316 0 80.516-10.738 10.754-25.043 16.664-40.258 16.664zm0-78.551c-5.7734 0-11.219 2.2422-15.305 6.3242-8.4453 8.4453-8.4453 22.164 0 30.605 8.168 8.168 22.438 8.1523 30.605 0 8.4453-8.4453 8.4453-22.164 0-30.605-4.082-4.082-9.5117-6.3242-15.301-6.3242z"/>
  <path d="m728.45 1182.4h-656.82c-29.781 0-54.008-24.215-54.008-53.992l-0.003906-928.42c0-29.781 24.23-53.992 54.008-53.992h148.23c9.7539 0 17.648 7.8945 17.648 17.648s-7.8945 17.648-17.648 17.648h-148.22c-10.324 0-18.715 8.3945-18.715 18.699v928.42c0 10.129 8.5625 18.695 18.715 18.695h656.82c10.133 0 18.699-8.5664 18.699-18.699l-0.003906-180.18c0-9.7539 7.8945-17.648 17.648-17.648s17.648 7.8945 17.648 17.648v180.18c-0.003906 29.781-24.215 53.992-53.996 53.992z"/>
  <path d="m764.8 522.9c-9.7539 0-17.648-7.8945-17.648-17.648v-305.31c0-10.305-8.3945-18.699-18.699-18.699h-148.24c-9.7539 0-17.648-7.8945-17.648-17.648s7.8945-17.648 17.648-17.648h148.24c29.781 0 53.992 24.215 53.992 53.992v305.31c0 9.7578-7.8906 17.652-17.645 17.652z"/>
  <path d="m547.57 237.94h-295.11c-27.695 0-50.234-22.543-50.234-50.234v-48.203c0-27.695 22.543-50.219 50.234-50.219h60.109c8.207-40.809 44.258-71.637 87.359-71.637 43.188 0 79.309 30.832 87.512 71.641h60.129c27.695 0 50.234 22.523 50.234 50.219v48.203c0 27.691-22.543 50.23-50.234 50.23zm-295.11-113.36c-8.2383 0-14.941 6.6875-14.941 14.926v48.203c0 8.2383 6.7031 14.941 14.941 14.941h295.11c8.2383 0 14.941-6.7031 14.941-14.941l0.003907-48.207c0-8.2383-6.7031-14.926-14.941-14.926h-76.016c-9.7539 0-17.648-7.8945-17.648-17.648 0-29.777-24.215-53.988-53.977-53.988-29.66 0-53.805 24.215-53.805 53.992 0 9.7539-7.8945 17.648-17.648 17.648z"/>
  <path d="m400.03 333.19h-269.46c-9.7539 0-17.648-7.8945-17.648-17.648 0-9.7539 7.8945-17.648 17.648-17.648h269.46c9.7539 0 17.648 7.8945 17.648 17.648 0 9.7539-7.8945 17.648-17.648 17.648z"/>
  <path d="m669.51 412.09h-538.94c-9.7539 0-17.648-7.8945-17.648-17.648s7.8945-17.648 17.648-17.648h538.94c9.7539 0 17.648 7.8945 17.648 17.648 0 9.7578-7.8945 17.648-17.648 17.648z"/>
  <path d="m669.51 490.98h-538.94c-9.7539 0-17.648-7.8945-17.648-17.648 0-9.7539 7.8945-17.648 17.648-17.648h538.94c9.7539 0 17.648 7.8945 17.648 17.648 0 9.7578-7.8945 17.648-17.648 17.648z"/>
 </g>
</svg>
