<?xml version="1.0" encoding="UTF-8"?>
<svg width="1200pt" height="1200pt" version="1.1" viewBox="0 0 1200 1200" xmlns="http://www.w3.org/2000/svg">
 <path d="m153.79 422.38 100.27 0.125v0.88672h33.773v158.38h-86.297v37.5h33.773v158.38h-86.297v37.5h33.773v158.38h-33.773v37.5h792.02c57.301 0 103.91-46.613 103.91-103.91v-25.551c0-26.711-10.227-51.039-26.852-69.461 45.477-11.074 79.375-52.023 79.375-100.86v-25.551c0-26.727-10.227-51.039-26.852-69.461 45.488-11.074 79.375-52.035 79.375-100.86v-25.551c0-57.301-46.613-103.91-103.91-103.91h-100.24l-33.762-0.039063 0.19922-158.38 33.762 0.039063 0.050781-37.5-792.01-1.0117h-0.125c-27.613 0-53.648 10.801-73.312 30.426-19.699 19.648-30.574 45.699-30.602 73.363l-0.046875 25.535c-0.023438 27.664 10.773 53.75 30.426 73.438 19.648 19.715 45.699 30.574 73.363 30.613zm853.67 484.71c0 36.625-29.789 66.414-66.414 66.414h-720.75v-158.38h720.76c36.625 0 66.414 29.789 66.414 66.414v25.547zm52.527-195.88c0 36.625-29.789 66.414-66.414 66.414h-720.76v-158.38h720.76c36.625 0 66.414 29.789 66.414 66.414zm-114.19-287.82h100.29c36.625 0 66.414 29.789 66.414 66.414v25.551c0 36.625-29.789 66.414-66.414 66.414h-52.512l-668.24-0.003906v-158.38zm-858.26-130.56c0.011719-17.648 6.9766-34.289 19.586-46.863 12.586-12.562 29.211-19.477 46.836-19.477h0.074218l720.75 0.92578-0.19922 158.38-720.76-0.91016c-17.637-0.011719-34.289-6.9766-46.863-19.574-12.574-12.613-19.473-29.277-19.461-46.926z"/>
</svg>
