<?xml version="1.0" encoding="UTF-8"?>
<svg width="512pt" height="512pt" version="1.1" viewBox="0 0 512 512" xmlns="http://www.w3.org/2000/svg">
 <path d="m426.86 144.21c-3.7383-6.8047-12.305-9.3086-19.125-5.5703-6.8008 3.7344-9.2969 12.309-5.5664 19.109 15.289 27.895 19.426 51.094 12.289 68.945-7.3516 18.371-25.109 26.566-30.309 28.625l-121.94-122.38 1.6836-9.6992c16.578-0.12109 31.488-0.41797 45.363-0.91797l23.414-1.0156c36.098-1.8633 69.352-4.875 98.848-8.9453 2.0977-0.29297 3.5703-2.2305 3.2812-4.332-0.28516-2.0977-2.1953-3.5391-4.332-3.2812-29.281 4.043-62.316 7.0352-98.16 8.8828l-23.352 1.0156c-13.383 0.47656-27.781 0.76953-43.727 0.89453l1.7578-10.09c0.1875-1.1172-0.11328-2.2617-0.84375-3.1289-0.73047-0.86719-1.8086-1.3672-2.9375-1.3672h-25.602c-1.1328 0-2.2109 0.5-2.9375 1.3672-0.73047 0.86719-1.0391 2.0117-0.84375 3.1289l1.7578 10.09c-15.938-0.12891-30.34-0.41797-43.711-0.89453l-23.344-1.0078c-35.887-1.8516-68.922-4.8438-98.188-8.8828-2.1094-0.28516-4.0391 1.1758-4.332 3.2812-0.29297 2.0977 1.1758 4.0391 3.2812 4.332 29.48 4.0703 62.734 7.082 98.879 8.9492l23.402 1.0156c13.859 0.49609 28.77 0.79297 45.348 0.91797l1.4688 8.4375-37.582 12.98c-6.6055-0.84375-13.309-0.5625-19.977 0.77734-12.59-9.9648-29.758-14.852-35.109-11.68-1.1836 0.70703-2.6914 2.2188-3.1367 5.3945-0.77344 5.5078 1.8516 15.055 7.3945 22.453-6.9648 7.5586-11.965 17.512-12.938 21.559-0.95312 3.9414 0.18359 20.219 0.41797 21.867 0.046874 1.3984-1.6836 6.793-2.6094 9.6914-0.41406 1.2969-0.8125 2.5391-1.1484 3.6367-2.1289 7.0352 3.7734 14.781 14.039 18.434 2.9961 1.0664 4.8125 1.9961 6.2773 2.7461 2.4883 1.2695 4.3203 2.1133 7.5078 2.1133 0.57812 0 1.1992-0.027344 1.8789-0.085938 6.918-0.57812 31.586-15.766 45.16-27.551l8.0938 8.0938-31.355 83.094c-1.6602 4.3984-1.5039 9.1797 0.42969 13.465s5.4258 7.5586 9.8242 9.2148c9.082 3.4141 19.25-1.1758 22.676-10.262l25.727-68.199 54.438 54.441c-1.2148 14.5 0.19531 29.363 4.1055 42.613l-34.238 34.602c-6.8008 6.9258-6.7031 18.094 0.21875 24.898 3.4219 3.3594 7.8789 5.0312 12.328 5.0273 4.5586 0 9.1016-1.75 12.535-5.2422l42.238-42.562c0.54687-0.55469 0.92187-1.2656 1.0547-2.0312 3-16.879 40.32-67.324 46.199-73.652 6.5312-2.5078 44.863-18.492 57.652-50.082 10.559-26.094 5.9766-57.461-13.629-93.234zm-168.21-35.562-3.7852 21.762-8.8984-0.003906-3.7852-21.762zm174.72 125.91c-12.43 30.695-53.352 45.848-53.746 45.977-5.4414 1.6992-45.59 59.199-50.277 78.055l-41.469 41.777c-1.8516 1.8906-4.3359 2.9453-6.9844 2.9688-2.668 0.070312-5.1523-0.98828-7.0352-2.8398-3.9023-3.8359-3.9531-10.133-0.12891-14.027l35.84-36.219c0.97656-0.98828 1.3477-2.4375 0.95703-3.7734l-0.18359-0.59766c-4.1406-12.938-5.6133-28.242-4.1406-43.074 0-0.019532-0.011719-0.035156-0.003906-0.054688 0-0.027344 0.015625-0.039062 0.015625-0.066406 0.48047-7.0078 4.1406-22.082 5.9141-26.516 0.78906-1.9727-0.16797-4.2031-2.1406-4.9922-1.9609-0.77734-4.1992 0.16797-4.9922 2.1406-1.4727 3.6914-3.9102 13.055-5.3516 20.941l-52.711-52.711 10.559-27.969c0.74609-1.9805-0.25-4.1992-2.2383-4.9453-1.9727-0.74219-4.1992 0.25781-4.9453 2.2383l-11.43 30.289-27.832 73.77c-1.9297 5.1211-7.6562 7.7305-12.785 5.7812-2.4766-0.9375-4.4453-2.7734-5.5391-5.1914-1.0898-2.418-1.1758-5.1094-0.24219-7.5859l32.23-85.41c0.53125-1.4062 0.1875-3.0039-0.875-4.0703l-10.02-10.016c2.3125-3.1602 5.707-8.4375 6.6797-13.477 0.40625-2.082-0.95703-4.0977-3.043-4.5-2.0938-0.41406-4.0977 0.95703-4.5 3.043-0.88672 4.5859-5.4844 10.773-6.9062 12.488-12.551 12.016-38.852 27.508-43.301 27.945-0.75391 0.0625-1.3008 0.054688-1.7969 0.019532 2.1133-1.4531 4.2031-3.3398 5.6836-5.7461 1.1094-1.8086 0.54297-4.1719-1.2656-5.2852-1.8086-1.1055-4.1719-0.54688-5.2852 1.2656-1.8164 2.9648-5.9258 5.0234-8.3203 5.9492-0.47656-0.18359-0.92578-0.36328-1.4609-0.55469-6.6758-2.375-10.004-6.5078-9.2578-8.9688 0.32422-1.0664 0.70703-2.2617 1.1055-3.5156 2.0547-6.3984 3.2734-10.465 2.9141-13.004-0.39453-2.8125-1.043-16.891-0.56641-19.098 0.74609-3.1016 6.1602-13.762 13.25-20.332 0.003906-0.003906 0.003906-0.011719 0.011718-0.015625 0.003907 0 0.011719-0.003906 0.011719-0.003906 0.17578-0.16406 0.26172-0.375 0.39453-0.55859 0.16406-0.21875 0.36719-0.42578 0.47656-0.67188 0.11328-0.25 0.12891-0.52344 0.18359-0.78906 0.046875-0.21484 0.13672-0.42578 0.14453-0.64062 0.011719-0.26563-0.078125-0.52734-0.12109-0.78906-0.039062-0.21875-0.03125-0.44922-0.10938-0.66406-0.082031-0.21484-0.24609-0.39844-0.36719-0.60547-0.13281-0.23047-0.22656-0.48047-0.41797-0.6875-0.003906-0.003906-0.011719-0.003906-0.015625-0.011719 0-0.003906-0.003906-0.011719-0.003906-0.011719-6.1094-6.4922-8.1562-15.688-7.8047-18.766 3.8125-0.097656 16.68 3.1328 27.184 12.031 2.6016 2.1953 6.2773 5.8867 6.3125 5.9258 1.5 1.5 3.9336 1.5039 5.4336 0.011719 1.5-1.4961 1.5039-3.9258 0.011718-5.4336-0.046874-0.046876-0.375-0.375-0.86719-0.85938 4.2031-0.39062 8.3906-0.34375 12.527 0.25 0.050781 0.003907 0.097656-0.011718 0.14453-0.003906 0.23438 0.027344 0.47266-0.015625 0.71094-0.035156 0.28516-0.019531 0.56641-0.027344 0.83594-0.10938 0.035156-0.011719 0.078125 0 0.11328-0.015625l40.844-14.105h13.121l123.97 124.41c1.0547 1.0547 2.6328 1.4062 4.0312 0.90234 0.19922-0.078126 0.39062-0.15234 0.55469-0.23438 1.0859-0.35937 26.738-9.1172 36.543-33.621 8.0273-20.09 3.7578-45.484-12.691-75.488-1.6953-3.0938-0.55859-6.9883 2.5352-8.6875 3.0859-1.7031 6.9844-0.55859 8.6953 2.5352 18.434 33.625 22.887 62.781 13.234 86.629zm-275.4-49.43c-1.7031-1.2578-4.1172-0.87891-5.3672 0.82813-1.2539 1.7109-0.87891 4.1133 0.82813 5.3672 0.36719 0.26953 0.47656 0.99219 0.20312 1.3672-1.2539 1.7109-0.87891 4.1133 0.82813 5.3672 0.67969 0.5 1.4805 0.74219 2.2617 0.74219 1.1836 0 2.3516-0.54297 3.0977-1.5703 1.3672-1.8633 1.9258-4.1484 1.5703-6.4297-0.33594-2.293-1.5586-4.3047-3.4219-5.6719zm-40.289 57.086c-0.79297-1.9648-3.0156-2.9219-4.9961-2.1289l-15.836 6.3711c-1.9648 0.79297-2.9219 3.0273-2.1289 4.9961 0.60547 1.4961 2.043 2.4062 3.5625 2.4062 0.47656 0 0.96094-0.085937 1.4336-0.27734l15.836-6.3711c1.9688-0.80078 2.9219-3.0312 2.1289-4.9961zm5.9375 16.5-11.059 12.988c-1.3711 1.6133-1.1758 4.0391 0.43359 5.418 0.72266 0.61328 1.6094 0.91797 2.4883 0.91797 1.0859 0 2.1641-0.46094 2.9297-1.3516l11.059-12.988c1.3711-1.6133 1.1758-4.0391-0.43359-5.418-1.6133-1.3672-4.0391-1.1797-5.418 0.43359zm23.461 7.3945c-2.0703-0.43359-4.1055 0.90625-4.5312 2.9883l-3.4258 16.711c-0.42578 2.0742 0.91797 4.1055 2.9883 4.5312 0.26172 0.054688 0.51562 0.082031 0.77344 0.082031 1.7852 0 3.3828-1.25 3.7578-3.0703l3.4258-16.711c0.42969-2.0781-0.91016-4.1094-2.9883-4.5312z"/>
</svg>
