<?xml version="1.0" encoding="UTF-8" standalone="no"?>
<!DOCTYPE svg PUBLIC "-//W3C//DTD SVG 1.1//EN" "http://www.w3.org/Graphics/SVG/1.1/DTD/svg11.dtd">
<svg width="100%" height="100%" viewBox="0 0 512 512" version="1.1" xmlns="http://www.w3.org/2000/svg" xmlns:xlink="http://www.w3.org/1999/xlink" xml:space="preserve" xmlns:serif="http://www.serif.com/" style="fill-rule:evenodd;clip-rule:evenodd;stroke-linejoin:round;stroke-miterlimit:2;">
    <g>
        <path d="M265.21,97.281C265.315,101.863 268.159,105.933 272.425,107.605C276.694,109.277 281.546,108.226 284.737,104.933C287.924,101.644 288.827,96.757 287.022,92.546C285.217,88.331 281.057,85.616 276.475,85.656C273.432,85.683 270.53,86.929 268.412,89.113C266.295,91.296 265.143,94.238 265.209,97.28L265.21,97.281ZM280.569,97.281C280.549,98.89 279.565,100.332 278.069,100.933C276.577,101.535 274.866,101.179 273.737,100.035C272.604,98.886 272.272,97.175 272.893,95.687C273.514,94.203 274.967,93.234 276.577,93.234C277.647,93.234 278.671,93.664 279.421,94.422C280.171,95.183 280.585,96.211 280.569,97.281Z" style="fill-rule:nonzero;"/>
        <path d="M88.68,298.04C94.68,298.04 100.438,295.657 104.68,291.411C108.926,287.169 111.309,281.411 111.309,275.411C111.309,269.407 108.926,263.653 104.68,259.407C100.438,255.165 94.68,252.778 88.68,252.778C82.676,252.778 76.922,255.165 72.676,259.407C68.434,263.653 66.047,269.407 66.047,275.411C66.047,281.411 68.434,287.169 72.676,291.411C76.922,295.657 82.676,298.04 88.68,298.04ZM88.68,268.138C91.618,268.138 94.27,269.911 95.395,272.626C96.52,275.345 95.899,278.47 93.821,280.552C91.739,282.63 88.614,283.251 85.895,282.126C83.18,281.001 81.407,278.349 81.407,275.412C81.407,273.482 82.176,271.634 83.539,270.271C84.903,268.904 86.75,268.138 88.68,268.138Z" style="fill-rule:nonzero;"/>
        <path d="M476.16,303.05L317.95,75.16C311.278,62.484 299.157,53.578 285.067,51C270.977,48.422 256.481,52.457 245.758,61.953L49.658,216.423C46.599,218.466 43.689,220.724 40.955,223.181L40.955,223.489C23.271,239.778 15.088,263.942 19.228,287.626C23.368,311.31 39.271,331.263 61.435,340.583L352.555,453.223L358.387,455.68L361.203,456.805C388.238,465.688 417.762,462.782 442.551,448.805C467.336,434.828 485.102,411.067 491.492,383.34C497.883,355.61 492.317,326.469 476.148,303.055L476.16,303.05ZM392.703,446.46C383.148,446.444 373.66,444.816 364.644,441.648C362.441,440.878 360.242,440.062 358.14,439.14L358.144,439.136C332.011,427.593 313.335,403.812 308.312,375.691C303.293,347.57 312.585,318.793 333.105,298.918C353.625,279.047 382.687,270.68 410.632,276.602C438.577,282.52 461.749,301.954 472.448,328.438C483.151,354.926 479.975,385 463.979,408.668C447.987,432.34 421.268,446.504 392.702,446.461L392.703,446.46ZM109.773,343.03C131.355,336.229 148.386,319.51 155.585,298.057C162.784,276.6 159.288,252.998 146.175,234.549C133.066,216.104 111.921,205.041 89.292,204.791L229.932,93.891L229.932,97.016L229.932,97.012C230.104,112.293 237.729,126.528 250.354,135.145C262.979,143.758 279.01,145.665 293.303,140.251C307.596,134.836 318.342,122.786 322.092,107.97L432.732,267.36C420.095,261.875 406.466,259.055 392.693,259.063C367.474,259.047 343.154,268.442 324.502,285.415C305.846,302.388 294.197,325.712 291.838,350.821C289.479,375.93 296.58,401.016 311.748,421.165L109.773,343.03ZM50.789,235.1L58.57,228.956L58.574,228.956C74.855,218.425 95.465,217.186 112.894,225.686C130.328,234.19 142.035,251.194 143.757,270.51C145.484,289.826 136.968,308.639 121.319,320.092C105.671,331.545 85.167,333.975 67.276,326.494C49.96,319.264 37.495,303.748 34.163,285.283C30.835,266.818 37.093,247.924 50.788,235.099L50.789,235.1ZM308.019,97.27C307.937,105.583 304.566,113.524 298.644,119.36C292.718,125.192 284.726,128.442 276.414,128.399C268.102,128.352 260.144,125.016 254.281,119.118C248.422,113.22 245.137,105.243 245.148,96.927C245.156,88.614 248.457,80.642 254.328,74.759C260.203,68.872 268.168,65.552 276.48,65.525C284.882,65.513 292.945,68.857 298.871,74.821C304.793,80.782 308.086,88.864 308.019,97.27Z" style="fill-rule:nonzero;stroke:black;stroke-width:5px;"/>
        <path d="M392.7,323.89C383.005,323.89 373.708,327.742 366.852,334.597C359.996,341.453 356.145,350.753 356.145,360.449C356.145,370.144 359.997,379.441 366.852,386.297C373.707,393.153 383.004,397.004 392.7,397.004C402.396,397.004 411.696,393.152 418.552,386.297C425.407,379.441 429.259,370.145 429.259,360.449C429.243,350.758 425.388,341.465 418.536,334.613C411.684,327.761 402.391,323.906 392.7,323.89ZM392.7,381.644C387.079,381.644 381.688,379.41 377.712,375.437C373.739,371.46 371.505,366.07 371.505,360.449C371.505,354.828 373.739,349.433 377.712,345.461C381.689,341.484 387.079,339.25 392.7,339.25C398.321,339.25 403.716,341.485 407.688,345.461C411.665,349.434 413.899,354.828 413.899,360.449C413.883,366.066 411.645,371.449 407.672,375.422C403.703,379.395 398.317,381.633 392.699,381.645L392.7,381.644Z" style="fill-rule:nonzero;"/>
    </g>
</svg>
