<?xml version="1.0" encoding="UTF-8"?>
<svg width="512pt" height="512pt" version="1.1" viewBox="0 0 512 512" xmlns="http://www.w3.org/2000/svg">
 <path d="m448 213.33c-5.8906 0-10.668 4.7773-10.668 10.668v78.828l-57.598-57.496c-4.0625-4.1367-9.6719-6.3828-15.469-6.1836-5.7461 0.10547-11.207 2.5273-15.145 6.7188l-48.32 51.199-89.387-97.707c-3.9375-4.2891-9.457-6.7852-15.277-6.9062-5.8203-0.12109-11.438 2.1445-15.551 6.2656l-105.92 106.45v-219.84c0-5.8906 4.7734-10.664 10.664-10.664h362.67c5.8906 0 10.668-4.7773 10.668-10.668s-4.7773-10.668-10.668-10.668h-362.67c-8.4844 0-16.625 3.3711-22.625 9.375-6.0039 6-9.375 14.141-9.375 22.625v341.34c0 8.4844 3.3711 16.625 9.375 22.625 6 6.0039 14.141 9.375 22.625 9.375h341.34c8.4844 0 16.625-3.3711 22.625-9.375 6.0039-6 9.375-14.141 9.375-22.625v-202.67c0-2.8281-1.125-5.543-3.125-7.543s-4.7148-3.125-7.543-3.125zm-21.332 224h-341.34c-5.8906 0-10.664-4.7734-10.664-10.664v-91.629c1.918-0.85156 119.46-120.11 120.96-121.71l132.48 145.28c3.9766 4.3594 10.734 4.668 15.094 0.69531 2.0938-1.9102 3.3438-4.5742 3.4727-7.4062 0.12891-2.8281-0.86719-5.5938-2.7773-7.6875l-28.586-31.359 49.387-52.375 72.637 72.531v93.656c0 2.8281-1.1211 5.5391-3.1211 7.543-2.0039 2-4.7148 3.1211-7.543 3.1211zm32-298.67v42.668c0 5.8906-4.7773 10.668-10.668 10.668s-10.668-4.7773-10.668-10.668v-42.664c0-5.8906 4.7773-10.668 10.668-10.668s10.668 4.7773 10.668 10.668zm-10.668-21.332c-5.8906 0-10.668-4.7734-10.668-10.664s4.7773-10.668 10.668-10.668 10.668 4.7773 10.668 10.668-4.7773 10.664-10.668 10.664z"/>
</svg>
