<?xml version="1.0" encoding="UTF-8"?>
<svg width="1200pt" height="1200pt" version="1.1" viewBox="0 0 1200 1200" xmlns="http://www.w3.org/2000/svg">
 <g fill="#fff">
  <path d="m833.79 503.51c0.09375-0.77344 8.0391-72 9.0938-133.8-31.406 0.35156-63.914 0.53906-96.891 0.53906-45.727 0-92.344-0.39844-138.21-1.3359l63.445 37.828 162.56 96.891v-0.11719z"/>
  <path d="m969.07 77.297c-6.3984 35.578-29.906 152.09-78.492 254.27 116.91-1.8516 211.97-5.3203 247.78-6.75l-59.953-94.523v-0.023437c-21.797-38.438-72.68-119.84-109.34-152.98z"/>
  <path d="m818.74 1014c1.4297-51.867 2.4609-90.422-3.2344-140.98-2.0625-1.0547-4.0312-2.2969-5.8828-3.7266-0.5625-0.42188-56.039-43.617-110.91-92.297-36.211-32.109-61.688-57.234-79.641-77.32 8.3438 104.62 23.836 177.14 37.805 242.53 3.2344 15.188 6.3047 29.508 9.2344 44.039 4.5 22.219 12.188 50.719 19.641 78.305 12.094 44.812 23.531 87.164 24.938 113.32 0.023438 0.32812 0 0.67969 0 1.0078h107.18c-1.6875-72.305-0.25781-123.63 0.86719-164.88z"/>
  <path d="m836.3 332.27c-20.156-55.477-49.266-139.1-84.141-249.38-0.77344-2.4141-1.3359-4.2422-1.7344-5.4844-27.352 43.43-83.812 145.2-87.797 152.88l-46.242 101.27c73.922 1.4297 149.55 1.4297 219.91 0.70313z"/>
  <path d="m851.67 551.79c-6.75 0-13.406-1.8281-19.195-5.2969l-139.8-83.32c-31.406 49.664-78.117 130.64-78.117 159.12 0 19.875 36.68 62.484 109.03 126.66 53.859 47.766 108.49 90.305 109.03 90.727 0.63281-0.42188 64.617-43.195 126.96-88.453 36.867-26.766 66.234-49.312 87.281-67.055 23.672-19.945 36.82-33.797 39.211-41.297v-0.023438c0.11719-0.39844 0.23438-0.79688 0.30469-1.1719s0.11719-0.72656 0.11719-1.0781v-0.023438c-0.023438-19.102-43.055-117.02-70.219-172.8l-146.74 79.5c-5.4609 2.9766-11.625 4.5234-17.859 4.5234z"/>
  <path d="m341.06 944.44c12.938 35.438 31.148 57.914 46.453 102.19l-0.42188 0.28125c1.1953 2.7656 2.5547 5.8828 4.1016 9.4219 15.938 36.727 42.633 98.18 53.531 122.6h217.45c-124.36-155.02-228.66-197.27-321.12-234.49z"/>
  <path d="m356.77 1071.2c-0.63281-1.4297-1.2422-2.8594-1.8516-4.2422l-22.102 13.805c14.016 7.3594 26.789 15.398 38.367 23.625-5.2266-12.023-10.195-23.461-14.414-33.188z"/>
  <path d="m354.49 909.42c85.102 34.266 188.67 76.008 307.15 210.61-3.7031-14.648-7.9219-30.258-12.07-45.656-7.5938-28.148-15.469-57.258-20.203-80.648-2.9062-14.32-5.9297-28.547-9.1641-43.641-16.453-77.062-34.992-163.8-41.953-300.09-93.773 73.922-162.28 147.94-247.8 249.68 7.8281 3.2109 15.773 6.3984 24.047 9.75z"/>
  <path d="m295.12 1104.4-233.48-59.625 69.539 134.13h268.05c-20.344-22.125-55.43-53.812-104.11-74.508z"/>
  <path d="m713.48 65.789-144.54-44.695 74.484 166.31c17.953-32.273 48.867-87.141 70.055-121.62z"/>
  <path d="m1071 712.88c-21.727 18.328-51.82 41.438-89.414 68.719-62.93 45.68-127.52 88.852-128.18 89.297-0.14062 0.09375-0.28125 0.16406-0.44531 0.25781 5.6953 51.867 4.6406 91.219 3.1875 143.86-1.125 40.922-2.5312 91.828-0.82031 163.43 0 0.14062-0.023438 0.30469-0.023438 0.44531h130.05c23.953-208.08 48.562-277.43 87.164-467.34-0.49219 0.46875-1.0078 0.89063-1.5234 1.3359z"/>
  <path d="m1090.7 177.61c14.531-60.938 37.43-153.26 43.289-155.23 6.0469-2.0156-74.484 24.75-125.25 41.625 30.07 32.438 61.828 80.859 81.961 113.6z"/>
  <path d="m880.38 369.23c-0.84375 55.922-7.125 117.82-8.8828 134.34l260.34-140.95c-42.211 1.6172-137.2 4.9219-251.46 6.6094z"/>
  <path d="m864.21 299.16c39.047-88.102 59.578-183.8 66.75-221.91h-141.23c29.859 94.242 55.383 168.54 74.484 221.91z"/>
 </g>
</svg>
