<?xml version="1.0" encoding="UTF-8"?>
<svg width="512pt" height="512pt" version="1.1" viewBox="0 0 512 512" xmlns="http://www.w3.org/2000/svg">
 <g>
  <path d="m333.15 359.13c7.7578 0.85938 39.27 5.6562 50.363-15.562 3.4062-6.5 3.2188-11.723 5.7031-17.93 9.1211-22.723 38.617-20.875 62.098-17.719 11.777 1.5898 28.355 2.3281 36.234-9.5664 3.9258-5.9023 4.1875-13.086 4.3984-18.852l4.0898-111.83c0.41016-11.266 0.16406-22.945-7.6953-31.094-8.5625-8.8906-21.762-8.8438-33.465-8.1055l-148.05 9.4648v-16.062c1.3945-1.7617 2.8242-3.5 4.2109-5.2578 0.875-1.1016 0.98438-2.5117 0.52734-3.7461 20.332-5.6016 29.16-19.805 28.5-32.055-0.57422-10.402-8.2773-20.457-19.656-25.633-11.387-5.0586-23.094-5.5391-63.402-6.2617-0.023437-0.98438 0.03125-1.9844-0.015624-2.957-0.27734-7.1523-0.60547-14.242-3.0117-20.922-4.9492-14.398-14.965-17.531-27.516-17.238-97.656 2.4297-103.45 0.96484-111.2 5.5586-8.082 4.7148-11.867 15.281-10.395 28.938 0.30078 3.0703 0.38672 6.1133 0.37891 9.168-44.164 1.9609-57.344 1.875-70.555 8.6562-25.641 13.07-25.562 44.652 2.9023 54.793 4.8789 1.7773 10.457 2.7852 17.223 3.2188-1.1094 48.973-1.0391 98.164 0.13672 147.25l-1.3672 1.3672c-0.76172 0.76172-0.76172 1.9844 0 2.7461 0.37891 0.37891 0.875 0.56641 1.375 0.56641 0.054687 0 0.09375-0.054687 0.14062-0.0625 1.0312 40.617 2.8164 81.129 5.4062 121.34-1.7148 1.7773-3.6602 3.3672-3.7148 5.3828-7.8047 0.94531-16.027 2.6445-23.391 6.5859-23.91 13.055-23.367 41.859 2.1094 53.449 11.387 5.0664 23.18 5.5391 63.363 6.2617 0.15625 8.0117 0.31641 16.43 3.0195 23.941 4.9805 14.477 14.84 17.508 27.516 17.23 97.66-2.4297 103.45-0.95312 111.21-5.5547 14.164-8.2695 9.9844-27.828 10.023-38.16 7.6953-0.33984 15.367-0.71484 23.047-1.1094 20.039-1.0078 34.574-0.89062 47.539-7.5391 10.543-5.3594 20.859-17.5 18.609-31.449-1.5586-10.246-9.8516-19.199-21.59-23.344-3.3984-1.2422-7.0977-2.1172-11.434-2.7148v-35.047c8.2578-2.0078 17.039-1.1914 26.332-0.15234zm122.22-222.9c9.9453-0.63672 21.117-0.76953 27.391 5.7422 5.7422 5.957 5.8711 15.824 5.5234 25.422l-4.0898 111.83c-0.1875 5.043-0.40234 10.766-3.1094 14.848-5.4844 8.2461-19.031 7.4766-29.191 6.1055-12.441-1.6758-25.312-3.4062-38.051-0.98438-14.949 2.8633-27.152 11.891-31.836 23.551-2.0781 5.168-3.0781 12.832-5.375 17.23-7.2227 13.816-27.199 13.172-42.637 11.441-8.9531-0.98438-18.16-1.9688-27.168-0.20312v-205.49zm-156.3 3.2344c-0.75391 0.76172-1.2109 1.8008-1.1328 2.9492 0.0625 0.96875 0.50391 1.832 1.1328 2.4844v210.55c-0.10937 0.51172-0.10937 1.0312 0 1.5742v36.664s-183.27 2.2734-230.58 2.3047c-0.039063-0.55859-0.054688-1.125-0.09375-1.6758 80.586-83.703 158.07-172 230.66-262.77v7.9102zm-169.68-13.234-7.5625-7.5625 1.1172-1.1172c4.043-0.054687 8.0898-0.10156 12.133-0.15625 0.085938 0.32422 0.125 0.66797 0.37891 0.92969l0.91406 0.91406zm7.7891-22.418 5.6328 5.6328c-0.007812 0.03125-0.03125 0.0625-0.039062 0.09375-2.0859 0.03125-4.2109 0.054688-6.293 0.085938-1.7227 0.023438-3.4531 0.039062-5.1758 0.0625zm15.727 0.44922 5.0664 5.0742c-3.4297 0.046874-6.8594 0.09375-10.27 0.14062zm20.215-2.25 5.1211 5.1211c0.76172 0.76172 1.9844 0.76172 2.7461 0 0.20312-0.20312 0.21094-0.47266 0.30078-0.72266 0.0625 0.09375 0.039062 0.21875 0.125 0.30078 0.76172 0.76172 1.9844 0.76172 2.7383 0l7.082-7.082c-0.63672 0.76172-0.65234 1.8711 0.0625 2.582l4.6914 4.6914-1.5508 1.5508c-0.11719 0.11719-0.09375 0.28516-0.17188 0.41797-9.4883 0.10938-18.938 0.22656-28.355 0.34766zm34.816-1.5664 8.1836 8.1836c-5.0508 0.054688-10.062 0.10938-15.098 0.17188 0.36328-0.51172 0.40234-1.0781 0.21094-1.6523zm49.602-10.961c0.09375 0.20312 0.085937 0.43359 0.25 0.60547l4.6914 4.6914-8.4883 8.4883-5.1211-5.1211zm39.812-4.3125 6.6953 6.6953-10.062 10.062-6.6953-6.6953zm-6.1133 19.492-2.9023 2.9023c-0.17969 0.17969-0.17969 0.43359-0.27344 0.65234-2.8711 0-5.7656 0.023438-8.6406 0.023438 0.37891-0.73047 0.39453-1.6055-0.21875-2.2188l-1.3594-1.3594 6.6953-6.6953zm-15.281 3.5938c-0.66797 0-1.3281 0.007813-1.9922 0.007813 0.16406-0.085937 0.36328-0.070313 0.49609-0.21094l0.64453-0.64453zm-4.2383-0.20312c0.14062 0.14062 0.33984 0.125 0.51172 0.21094-4.9805 0.015625-9.9531 0.023437-14.934 0.046875 0.27344-0.69922 0.27344-1.4727-0.29297-2.0391l-0.26562-0.26563 8.4883-8.4883 7.1445 7.1445-0.65234 0.65234c-0.75781 0.75391-0.75781 1.9883 0 2.7383zm-20.461-2.0391-1.5508 1.5508c-0.21875 0.21875-0.23438 0.51953-0.32422 0.79297-3.5977 0.023437-7.1992 0.0625-10.797 0.09375l7.5547-7.5547zm-16.836 1.0938c-0.37891 0.37891-0.56641 0.875-0.56641 1.375-4.0117 0.03125-8.0273 0.0625-12.039 0.10156l7.9141-7.9141 5.5703 5.5703zm-57.84 9.7266-0.51172 0.51172-0.50391-0.50391c0.33984 0 0.68359 0 1.0156-0.007812zm117.4-9.4336 0.46484 0.46484c-0.33984 0.03125-0.70703 0.085937-1.0391 0.11719zm-170.61-56.699 2.8398-2.832 2.6133 2.6133c-1.7812 0.0625-3.6602 0.14844-5.4531 0.21875zm21.52-0.78906c0.14844-0.58984 0.085938-1.1875-0.33203-1.6758l4.9648-4.9648 5.082 5.082-0.007813 0.007812c-0.34766 0.34766-0.49609 0.80859-0.52734 1.2656-1.2031 0.027344-2.3672 0.058594-3.5781 0.097656-1.8359 0.054688-3.7461 0.125-5.6016 0.1875zm21.047-7.418 6.6328 6.6328c-4.1484 0.09375-8.3867 0.21094-12.652 0.32422 0.054687-0.30859 0.015625-0.56641-0.078125-0.86719zm31.355 3.6289 5.3203-5.3203 7.7656 7.7656c-5.1367 0.03125-10.371 0.078126-15.688 0.15625l0.9375-0.9375c1.0078-0.11719 1.543-0.59375 1.6641-1.6641zm-7.4062 1.9258c-0.20312 0.20312-0.21875 0.48828-0.30859 0.74609-3.3438 0.054687-6.7656 0.125-10.188 0.19531l8.1758-8.1758 4.7773 4.7773zm25.848 0.49609 6.0586-6.0508 3.8555 3.8555-1.3867 1.3867c-0.22656 0.22656-0.24219 0.51953-0.33203 0.80078-7.8945-0.015624-3.168-0.007812-8.1953 0.007813zm15.258-15.25 3.8555 3.8555-6.4609 6.4609-3.8555-3.8555zm8.3789 15.328c-1.8086-0.023438-4.25-0.039062-6.0195-0.054688l-2.2266-2.2266 6.4609-6.4609 3.3984 3.3984-2.3125 2.3125c-0.85156 0.85938-0.91406 2.3945 0.69922 3.0312zm1.3047 0.023438c1.0234-0.37891 3.2109-2.7773 4.0586-3.6211 0.17188-0.085938 0.37891-0.070313 0.51953-0.21875 0.14063-0.14844 0.125-0.34766 0.21875-0.51953l3.5078-3.5078c0.1875 2.957 0.32422 6.3438 0.35547 7.9766-0.003906 0-8.6523-0.10937-8.6602-0.10937zm7.8516-12.902-4.793 4.793-3.3984-3.3984 2.7812-2.7734 0.1875 0.1875c0.76172 0.76172 1.9844 0.76172 2.7461 0 0.76172-0.76172 0.76172-1.9844 0-2.7383l-6.625-6.6328 3.832-3.832c1.3945 1.7773 2.6055 3.8633 3.4297 6.2617 0.91406 2.5859 1.4727 5.293 1.8398 8.1328zm-129.34-15.691c5.2305-3.1016 9.6523-2.0547 107.48-4.4844 5.4531-0.125 9.6523-0.30859 13.855 3.0195l-3.8555 3.8555-0.16406-0.16406c-0.76172-0.76172-1.9844-0.76172-2.7461 0s-0.76172 1.9844 0 2.7383l0.22656 0.22656c-0.59766 0.76172-0.62109 1.8398 0.085937 2.543 0.65234 0.65234 1.5977 0.82422 2.5352 0.085938l3.7617 3.7617-2.7852 2.7852-4.7617-4.7617c-0.72266-0.72266-1.8477-0.70703-2.6055-0.054687-0.54297-0.039063-1.0938 0.09375-1.5117 0.51172l-6.9219 6.8945-5.5312-5.5312c-0.76172-0.76172-1.9844-0.76172-2.7461 0s-0.76172 1.9844 0 2.7383l5.5312 5.5312-6.0039 5.9961-7.6875-7.6875 7.3242-7.332c0.76172-0.76172 0.76172-1.9844 0-2.7383-0.76172-0.76172-1.9844-0.76172-2.7461 0l-7.332 7.332-1.6758-1.6914c-0.76172-0.76172-1.9844-0.76172-2.7383 0-0.76172 0.76172-0.76172 1.9844 0 2.7461l1.6992 1.6992-4.7773 4.7773-4.7773-4.7773 6.7734-6.7656c0.76172-0.76172 0.76172-1.9844 0-2.7383-0.76172-0.76172-1.9844-0.76172-2.7461 0l-6.7773 6.7578-0.47266-0.47266c-0.76172-0.76172-1.9844-0.76172-2.7383 0-0.76172 0.76172-0.76172 1.9844 0 2.7383l0.47266 0.47266-8.9219 8.9141-7.2305-7.2305 3.9102-3.9102c0.76172-0.76172 0.76172-1.9844 0-2.7461-0.76172-0.76172-1.9844-0.76172-2.7383 0l-4.1562 4.1562c-0.66016-0.19531-1.3672-0.16406-1.8867 0.35547-0.51953 0.51953-0.55078 1.2266-0.35547 1.8867l-6.0977 6.0977-5.082-5.082 6.2617-6.2617c0.76172-0.76172 0.76172-1.9844 0-2.7383-0.76172-0.76172-1.9844-0.76172-2.7461 0l-13.926 13.934-5.0742-5.0742c-0.76172-0.76172-1.9844-0.76172-2.7461 0-0.76172 0.76172-0.76172 1.9844 0 2.7461l5.0742 5.0742-1.3867 1.3945c-0.16406 0.16406-0.14844 0.38672-0.24219 0.58203-1.5039 0.054688-2.9492 0.09375-4.4688 0.15625 0.078125-0.57422-0.023438-1.1641-0.47266-1.6055l-3.5898-3.5898 10.117-10.117c0.76172-0.76172 0.76172-1.9844 0-2.7383-0.76172-0.76172-1.9844-0.76172-2.7383 0l-10.117 10.117-1.3945-1.3945c-0.76172-0.76172-1.9844-0.76172-2.7383 0-0.76172 0.76172-0.76172 1.9844 0 2.7383l1.3867 1.3945-5.3945 5.375c-0.11719 0.11719-0.09375 0.28516-0.17188 0.41797-1.6367 0.070312-3.2031 0.125-4.8555 0.19531 0-3.1953-0.16406-6.3672-0.48047-9.6133-0.53516-4.9688-0.96875-17.023 6.6172-21.445zm-80.965 46.973c19.75-10.141 253.21-16.23 279.02-4.7617 8.7422 3.9805 14.668 11.426 15.09 18.977 0.53516 9.8906-7.5547 22.801-32.961 26.074l-2.6445-2.6445 10.062-10.062 7.7422 7.7422c0.76172 0.76172 1.9844 0.76172 2.7383 0 0.76172-0.76172 0.76172-1.9844 0-2.7461l-1-1 8.9375-8.9375 0.86719 0.875c0.76172 0.76172 1.9844 0.76172 2.7461 0s0.76172-1.9844 0-2.7461l-0.86719-0.875 0.94531-0.94531c0.76172-0.76172 0.76172-1.9844 0-2.7461-0.76172-0.76172-1.9844-0.76172-2.7461 0l-0.94531 0.94531-3.9961-3.9961 3.2266-3.2266c0.76172-0.76172 0.76172-1.9844 0-2.7383-0.76172-0.76172-1.9844-0.76172-2.7461 0l-3.2266 3.2266-3.125-3.125c-0.76172-0.76172-1.9844-0.76172-2.7461 0-0.76172 0.76172-0.76172 1.9844 0 2.7461l3.125 3.125-8.9375 8.9375-6.6953-6.6953 3.793-3.793c0.76172-0.76172 0.76172-1.9844 0-2.7461-0.76172-0.76172-1.9844-0.76172-2.7461 0l-3.9883 3.9883c-0.70703-0.29297-1.4961-0.29297-2.0703 0.27734-0.57422 0.57422-0.57422 1.375-0.27734 2.0703l-10.262 10.262-3.793-3.793c-0.76172-0.76172-1.9844-0.76172-2.7461 0-0.76172 0.76172-0.76172 1.9844 0 2.7383l3.793 3.793-6.6953 6.6953-7.1445-7.1445 16.113-16.113c0.76172-0.76172 0.76172-1.9844 0-2.7461-0.76172-0.76172-1.9844-0.76172-2.7461 0l-16.113 16.113-4.6914-4.6914c-0.16406-0.16406-0.40234-0.15625-0.59766-0.25l7.1055-7.1055c0.76172-0.76172 0.76172-1.9844 0-2.7461-0.76172-0.76172-1.9844-0.76172-2.7383 0l-18.168 18.16-3.125-3.1172c-0.76172-0.76172-1.9844-0.76172-2.7461 0-0.76172 0.76172-0.76172 1.9844 0 2.7383l3.125 3.125-5.3438 5.3438-5.5703-5.5703 11.691-11.691c0.76172-0.76172 0.76172-1.9844 0-2.7383-0.76172-0.76172-1.9844-0.76172-2.7461 0l-11.684 11.691-2-2c-0.76172-0.76172-1.9844-0.76172-2.7461 0-0.76172 0.76172-0.76172 1.9844 0 2.7461l2 2-8.0352 8.0352-8.2695-8.2695 8.5508-8.5508c0.76172-0.76172 0.76172-1.9844 0-2.7461s-1.9844-0.76172-2.7461 0l-17.75 17.75-4.6914-4.6914c-0.71484-0.71484-1.8242-0.69922-2.582-0.0625l8.7344-8.7422c0.76172-0.76172 0.76172-1.9844 0-2.7461-0.76172-0.76172-1.9844-0.76172-2.7461 0l-16.035 16.035c-0.20312 0.20312-0.21094 0.47266-0.30078 0.72266-0.0625-0.09375-0.039062-0.21875-0.125-0.30078l-5.1211-5.1211 5.7188-5.7266c0.76172-0.76172 0.76172-1.9844 0-2.7383-0.76172-0.76172-1.9844-0.76172-2.7461 0l-16.297 16.297c-0.25781 0.25781-0.30078 0.59766-0.37891 0.92188l-6.5078-6.5156 6.2852-6.2773c0.76172-0.76172 0.76172-1.9844 0-2.7461-0.76172-0.76172-1.9844-0.76172-2.7461 0l-13.918 13.918-5.3438-5.3438 3.9336-3.9336c0.76172-0.76172 0.76172-1.9844 0-2.7461-0.76172-0.76172-1.9844-0.76172-2.7461 0l-4.2266 4.2266c-0.62109-0.13281-1.2734-0.078125-1.7539 0.41016-0.48047 0.48828-0.54297 1.1328-0.41016 1.7539l-6.082 6.082-2.8945-2.8945c-0.76172-0.76172-1.9844-0.76172-2.7461 0-0.76172 0.76172-0.76172 1.9844 0 2.7461l2.9023 2.8945-0.14844 0.14844c-67.863 0.91406-74.363 1.8945-85.535-2.1406-21.938-7.7969-21.66-30.535-1.9844-40.547zm271.3 24.832 8.9375-8.9375 3.9961 3.9961-8.9375 8.9375zm-215.38 35.824c-0.023437-0.023438-0.015625-0.0625-0.039062-0.085938l-9.5664-9.5664c3.3672-0.039062 6.7188-0.085938 10.086-0.13281 0.078125 0.13281 0.054687 0.29297 0.17188 0.41016l4.3516 4.3516zm5.6641-9.8477c1.4102-0.015626 2.8242-0.039063 4.2266-0.054688l-2.1406 2.1406zm-37.609 117c-0.078125-5.4844-0.125-10.961-0.17188-16.445l9.3711 9.3789c0.10156 0.10938 0.25781 0.078125 0.37891 0.15625l-8.2461 8.2461zm-0.42578-40.75 8.75 8.75-8.5703 8.5703c-0.039062-5.7773-0.17188-11.547-0.17969-17.32zm0.14844-24.473 7.4531 7.4609-7.625 7.6328c0.007813-5.043 0.14062-10.062 0.17188-15.094zm0.30078-26.176c0.0625 0.007812 0.10938 0.070312 0.16406 0.070312 0.23438 0 0.42578-0.1875 0.64453-0.26562l9.4961 9.4961-10.535 10.535c0.0625-6.6172 0.13672-13.227 0.23047-19.836zm0.078125-6.4219c0.09375-5.5469 0.070313-11.109 0.19531-16.648l9.1758 9.1758-8.4258 8.4258zm0.32422 126.17 0.62891-0.62109 3.9648 3.957c0.76172 0.76172 1.9844 0.76172 2.7461 0s0.76172-1.9844 0-2.7461l-3.9648-3.957 9.3633-9.3555c0.76172-0.76172 0.76172-1.9844 0-2.7383-0.76172-0.76172-1.9844-0.76172-2.7461 0l-9.3633 9.3555-0.82422-0.82422c-0.09375-4.4453-0.0625-8.8984-0.14062-13.352l1.25-1.25 5.6094 5.6172c0.76172 0.76172 1.9844 0.76172 2.7461 0 0.76172-0.76172 0.76172-1.9844 0-2.7461l-5.6094-5.6172 13.305-13.305c0.76172-0.76172 0.76172-1.9844 0-2.7461s-1.9844-0.76172-2.7383 0l-2.5508 2.5469c-0.078125-0.11719-0.054687-0.27344-0.15625-0.37891l-10.156-10.164 18.238-18.238c0.76172-0.76172 0.76172-1.9844 0-2.7461-0.76172-0.76172-1.9844-0.76172-2.7461 0l-6.2148 6.2148-10.738-10.738c0.023437-0.023437 0.0625-0.007812 0.085937-0.03125l9.5117-9.5117 3.2344 3.2344c0.76172 0.76172 1.9844 0.76172 2.7383 0 0.76172-0.76172 0.76172-1.9844 0-2.7461l-3.2344-3.2344 5.6562-5.6484c0.76172-0.76172 0.76172-1.9844 0-2.7461-0.76172-0.76172-1.9844-0.76172-2.7461 0l-5.6484 5.6484-7.8555-7.8398 11-11 1.2969 1.2969c0.76172 0.76172 1.9844 0.76172 2.7461 0 0.76172-0.76172 0.76172-1.9844 0-2.7461l-1.2969-1.2969 5.793-5.793c0.76172-0.76172 0.76172-1.9844 0-2.7383-0.76172-0.76172-1.9844-0.76172-2.7461 0l-5.793 5.793-9.2852-9.2852 8.4258-8.4258 3.5 3.5c0.76172 0.76172 1.9844 0.76172 2.7461 0s0.76172-1.9844 0-2.7383l-3.5-3.5 3.25-3.25c0.76172-0.76172 0.76172-1.9844 0-2.7461s-1.9844-0.76172-2.7461 0l-3.25 3.25-8.5273-8.5273c0.15625 0 10.852-0.14844 13.242-0.17969l12.234 12.234c0.09375 0.09375 0.22656 0.070312 0.33203 0.14062-0.33984 0.72266-0.35547 1.5586 0.24219 2.1562 0.76172 0.76172 1.9844 0.76172 2.7461 0l7.2227-7.2227 4.7227 4.7305c0.76172 0.76172 1.9844 0.76172 2.7461 0 0.76172-0.76172 0.76172-1.9844 0-2.7461l-4.7227-4.7305 2.9492-2.957c0.55078-0.54297 0.55859-1.2969 0.31641-1.9766 2.5977-0.03125 5.1992-0.0625 7.7969-0.10156 0.09375 0.23437 0.09375 0.48828 0.27734 0.68359l0.34766 0.34766-6.6484 6.6484c-0.76172 0.76172-0.76172 1.9844 0 2.7461s1.9844 0.76172 2.7461 0l6.6484-6.6484 8.9297 8.9375c0.37891 0.37891 0.875 0.56641 1.375 0.56641 0.49609 0 0.99219-0.1875 1.375-0.56641l8.3633-8.3633 6.5547 6.5547c0.76172 0.76172 1.9844 0.76172 2.7461 0 0.76172-0.76172 0.76172-1.9844 0-2.7461l-6.5547-6.5547 0.15625-0.15625c0.49609-0.49609 0.54297-1.1562 0.39453-1.793 3.5781-0.046876 7.1992-0.09375 10.789-0.14063 0.007813 0.007813 0 0.015626 0.007813 0.023438l0.91406 0.92188-4.9258 4.9258c-0.76172 0.76172-0.76172 1.9844 0 2.7383 0.76172 0.76172 1.9844 0.76172 2.7461 0l4.9258-4.9258 4.9414 4.9414c0.76172 0.76172 1.9844 0.76172 2.7461 0 0.76172-0.76172 0.76172-1.9844 0-2.7461l-4.9414-4.9414 1.0391-1.0391c3.2109-0.039062 6.3984-0.085938 9.6289-0.125 0.054687 0.078125 0.03125 0.17969 0.10156 0.25l2.9258 2.9258-2.3516 2.3516c-0.76172 0.76172-0.76172 1.9844 0 2.7383 0.76172 0.76172 1.9844 0.76172 2.7461 0l2.3516-2.3516 2.0703 2.0703c0.76172 0.76172 1.9844 0.76172 2.7461 0 0.76172-0.76172 0.76172-1.9844 0-2.7383l-2.0703-2.0703 2.375-2.375c0.26562-0.26562 0.30859-0.61328 0.38672-0.94531 36.461-0.44922 73.434-0.81641 110.14-0.82422 2.4531-0.17969 4.9023-0.42578 7.3555-0.73047v3.9102c-72.68 91.352-150.39 180.24-231.25 264.55-2.4883-39.938-4.25-80.152-5.1914-120.48zm62.785 185.52 4.1641 4.1641-0.66797 0.66797c-0.58203 0.58203-0.57422 1.3945-0.26562 2.1016-1.5742-0.007813-3.1562-0.007813-4.7148-0.023437-0.45703-0.17969-0.875-0.1875-1.3359-0.007813-0.98438-0.007813-1.9922-0.007813-2.9727-0.015625-0.046874-0.054688-0.023437-0.13281-0.078124-0.1875l-1.6758-1.6758 7.3711-7.3711c-0.44531 0.76562-0.46875 1.7031 0.17578 2.3477zm84.395-8.8203 13.957 13.949c-6.8359 0.25781-13.516 0.48828-20.047 0.69141l-4.2812-4.2773zm27.469 7.6562c0.76172 0.76172 1.9844 0.76172 2.7383 0l0.37891-0.37891 5.7578 5.7578c-5.832 0.25781-11.504 0.48828-17.113 0.70703l-6.875-6.8711 8.9141-8.9141 6.5781 6.5781-0.37891 0.37891c-0.76172 0.75391-0.76172 1.9805 0 2.7422zm16.227-13.484 17.68 17.672c-6.6484 0.33984-13.297 0.66016-19.969 0.95312-0.0625-0.09375-0.046874-0.22656-0.125-0.30859l-7.9531-7.9531zm-40.461 27.961c0.73047-0.023437 1.457-0.046875 2.1875-0.078125l-1.1328 1.1406zm-18.617 0.57422c2.0781-0.054688 4.1484-0.10938 6.2539-0.17969l-3.2109 3.2109zm-75.344 0.80469-4.5859 4.5859-4.6914-4.6914c3.0703 0.035156 6.168 0.074219 9.2773 0.10547zm18.703 0.070312-2.8008 2.8008-2.8164-2.8164c1.8711 0.007813 3.7188 0.023437 5.6172 0.015625zm17.168-0.10156-1.6289 1.6289-1.5977-1.5977c1.0625-0.015626 2.1406-0.023438 3.2266-0.03125zm27.332-0.46484-3.8008 3.8008-3.6367-3.6367c2.457-0.054687 4.9297-0.10938 7.4375-0.16406zm-25.414-7.3711 7.1992-7.1992 7.0039 6.9961c-4.8164 0.089844-9.5273 0.14844-14.203 0.20312zm-24.508 0.13281h-0.09375l0.046875-0.046874zm-23.156 28.727c-0.48828-1.3594-0.85938-2.7461-1.1719-4.1719l8.418 8.418-1.832 1.832c-0.55078 0.55078-0.55859 1.3125-0.30859 1.9922-2.1484-2.0508-3.9648-4.7734-5.1055-8.0703zm127.48 7.5625c-5.2305 3.1016-9.6523 2.0547-107.47 4.4844-5.2891 0.11719-9.5586 0.29297-13.676-2.8477 0.16406 0.039062 0.28516 0.1875 0.44922 0.1875 0.49609 0 0.99219-0.1875 1.375-0.56641l1.8242-1.832 0.41797 0.41797c0.76172 0.76172 1.9844 0.76172 2.7461 0s0.76172-1.9844 0-2.7461l-0.41797-0.41797 3.1406-3.1406c0.76172-0.76172 0.76172-1.9844 0-2.7461-1.832-1.832-3.957 1.2188-5.8789 3.1406l-10.355-10.355c-0.44141-0.44141-1.0156-0.55078-1.5898-0.47266-0.33984-3.1719-0.49609-6.2852-0.62109-9.4727l5.1367 5.1367c-1.6914 1.6836-3.9414 3.3047-2.25 4.9961 0.76172 0.76172 1.9844 0.76172 2.7461 0l2.25-2.25 5.1836 5.1836c0.76172 0.76172 1.9844 0.76172 2.7461 0 0.76172-0.76172 0.76172-1.9844 0-2.7461l-5.1836-5.1836 5.7031-5.7031c0.44141-0.44141 0.55078-1.0156 0.48047-1.5898 1.0703 0.007812 2.1641 0.007812 3.2344 0.007812l5.5703 5.5781-1.4023 1.4023c-0.76172 0.76172-0.76172 1.9844 0 2.7461 0.76172 0.76172 1.9844 0.76172 2.7461 0l1.4023-1.4023 1.0312 1.0312c0.37891 0.37891 0.875 0.56641 1.375 0.56641 0.49609 0 0.99219-0.1875 1.375-0.56641 0.76172-0.76172 0.76172-1.9844 0-2.7461l-1.0312-1.0312 5.3203-5.3203c0.070312-0.070312 0.046875-0.17187 0.10156-0.25 1.0312-0.007812 2.0781-0.007812 3.1172-0.015624l4.3125 4.3125-3.5312 3.5312c-0.76172 0.76172-0.76172 1.9844 0 2.7461s1.9844 0.76172 2.7461 0l3.5312-3.5312 4.4531 4.4531c0.76172 0.76172 1.9844 0.76172 2.7461 0 0.76172-0.76172 0.76172-1.9844 0-2.7461l-4.4531-4.4531 4.4531-4.4453c2.7539-0.039063 5.4688-0.0625 8.2695-0.10938l-5.957 5.9648c-0.76172 0.76172-0.76172 1.9844 0 2.7461 0.76172 0.76172 1.9844 0.76172 2.7461 0l6.3086-6.3086 3.8711 3.8711-0.15625 0.10547c-0.76172 0.76172-0.76172 1.9844 0 2.7461 0.76172 0.76172 1.9844 0.76172 2.7461 0l0.125-0.125 0.54297 0.54297c0.76172 0.76172 1.9844 0.76172 2.7461 0s0.76172-1.9844 0-2.7461l-0.54297-0.54297 6.6641-6.6641c0.39453-0.007813 0.80859-0.023438 1.1953-0.03125l5.8477 5.8398c-0.26562 0.69141-0.25781 1.457 0.30078 2.0156 0.80078 0.80078 1.3125 0.56641 2.0156 0.30078l1 1c0.76172 0.76172 1.9844 0.76172 2.7461 0 0.76172-0.76172 0.76172-1.9844 0-2.7461l-0.79297-0.79297 6.1211-6.1211c0.45703-0.015626 0.94531-0.03125 1.4023-0.046876l4.0117 4.0117c-0.007813 0.51172 0.16406 1.0156 0.55078 1.4023 0.37891 0.37891 0.875 0.56641 1.375 0.56641 0.015625 0 0.023438-0.015625 0.039062-0.015625l3.4688 3.4688c0.76172 0.76172 1.9844 0.76172 2.7383 0 0.76172-0.76172 0.76172-1.9844 0-2.7383l-3.0781-3.0781 4.0664-4.0742c3.375-0.125 6.8438-0.26562 10.293-0.39453l1.0547 1.0547-5.8711 5.8789c-0.76172 0.76172-0.76172 1.9844 0 2.7461 0.76172 0.76172 1.9844 0.76172 2.7383 0l5.8789-5.8789 2.2578 2.2578c0.76172 0.76172 1.9844 0.76172 2.7461 0 0.76172-0.76172 0.76172-1.9844 0-2.7461l-2.2578-2.2578 1.375-1.375c1.2578-0.054688 2.4609-0.09375 3.7227-0.14844-0.015625 9.1875 3.6133 25.379-6.1602 31.078zm39.727-40.477-6.2148-6.2148c0.03125-0.03125 0.085937-0.015625 0.11719-0.046875l8.5352-8.5352 13.926 13.926c-3.5781 0.25-12.289 0.66797-16.363 0.87109zm14.824-27.191c0.09375 0.17969 0.070312 0.38672 0.22656 0.53516l9.1133 9.1133-9.1133 9.1133c-0.14844 0.14844-0.13281 0.35547-0.21875 0.53516l-9.6445-9.6445zm6.5312 25.824-4.0977-4.0977c0.17969-0.09375 0.38672-0.078125 0.53516-0.22656l9.1133-9.1133 9.9688 9.9688c-4.9844 1.8477-10.266 2.9102-15.52 3.4688zm19.953-5.1797h-0.007813c-0.28516 0.14844-0.62109 0.21875-0.91406 0.35547-0.20312-1.1719-9.8047-10.426-10.73-11.348l7.7422-7.7422 6.875 6.875-4.7383 4.7383c-0.76172 0.76172-0.76172 1.9844 0 2.7461 0.76172 0.76172 1.9844 0.76172 2.7461 0l4.7461-4.7461 0.96094 0.96094c0.76172 0.76172 1.9844 0.76172 2.7383 0 0.76172-0.76172 0.76172-1.9844 0-2.7461l-0.96094-0.96094 5.7031-5.7031c0.17188-0.17969 0.17188-0.41797 0.26562-0.63672-1.1836 7.9883-7.7227 14.793-14.426 18.207zm14.461-23.336c0.22656 1.3867 0.23438 2.7461 0.125 4.082-0.070312-0.37891-0.14844-0.76953-0.44141-1.0625-0.76172-0.76172-1.9844-0.76172-2.7461 0l-5.7031 5.7031-6.875-6.875 2.1328-2.125c0.76172-0.76172 0.76172-1.9844 0-2.7461-0.76172-0.76172-1.9844-0.76172-2.7461 0l-2.125 2.125-0.37891-0.37891c-0.76172-0.76172-1.9844-0.76172-2.7461 0-0.76172 0.76172-0.76172 1.9844 0 2.7461l0.37891 0.37891-7.7422 7.7422-9.1133-9.1133c-0.21875-0.21875-0.51953-0.23437-0.79297-0.32422 0.32422-0.71484 0.33203-1.543-0.25781-2.125-0.76172-0.76172-1.9844-0.76172-2.7461 0l-11.566 11.566-5.0352-5.0352c-0.76172-0.76172-1.9844-0.76172-2.7461 0-0.76172 0.76172-0.76172 1.9844 0 2.7383l5.0352 5.043-8.5352 8.5352c-0.03125 0.03125-0.023437 0.085938-0.046874 0.11719l-11.281-11.281 4.9492-4.9492c0.76172-0.76172 0.76172-1.9844 0-2.7461-0.76172-0.76172-1.9844-0.76172-2.7383 0l-5.1602 5.1602c-0.69922-0.27344-1.4727-0.27344-2.0391 0.29297-0.56641 0.55859-0.56641 1.3438-0.29297 2.0391l-10.574 10.574-6.5781-6.5781 9.4961-9.4961c0.76172-0.76172 0.76172-1.9844 0-2.7461-0.76172-0.76172-1.9844-0.76172-2.7383 0l-9.4961 9.4961-1.543-1.543c-0.76172-0.76172-1.9844-0.76172-2.7383 0-0.76172 0.76172-0.76172 1.9844 0 2.7461l1.543 1.543-8.9141 8.9141-6.8594-6.8711 11.109-11.109c0.76172-0.76172 0.76172-1.9844 0-2.7461-0.76172-0.76172-1.9844-0.76172-2.7461 0l-24.219 24.211-7.7422-7.7422 11.016-11.016c0.76172-0.76172 0.76172-1.9844 0-2.7461-0.76172-0.76172-1.9844-0.76172-2.7461 0l-21.715 21.715c-0.76172 0.76172-0.76172 1.9844 0 2.7461s1.9844 0.76172 2.7461 0l7.9531-7.9531 8.0664 8.0664c-0.085938 0.58203 0.015625 1.1797 0.46484 1.6211 0.58203 0.58203 0.99219 0.55078 1.6211 0.46484l2.0078 2.0078c-7.6484 0.22656-15.113 0.41016-22.379 0.55078-0.09375-0.27344-0.10938-0.56641-0.32422-0.78516l-8.8594-8.8516 11.371-11.371c0.76172-0.76172 0.76172-1.9844 0-2.7461-0.76172-0.76172-1.9844-0.76172-2.7461 0l-11.379 11.371-0.37109-0.37891c-0.76172-0.76172-1.9844-0.76172-2.7383 0-0.76172 0.76172-0.76172 1.9844 0 2.7461l0.37109 0.37109-7.3711 7.3711c-0.03125 0.03125-0.015625 0.085938-0.046875 0.125l-7.6953-7.6953c-0.76172-0.76172-1.9844-0.76172-2.7461 0-0.76172 0.76172-0.76172 1.9844 0 2.7461l7.4766 7.4766c-4.4375 0.039062-8.7812 0.054687-13.102 0.0625l-2.7852-2.7852 16.516-16.523c0.76172-0.76172 0.76172-1.9844 0-2.7461-0.76172-0.76172-1.9844-0.76172-2.7461 0l-16.516 16.523-4.1641-4.1641c-0.64453-0.64453-1.582-0.62109-2.3281-0.17188l5.4219-5.4219c0.76172-0.76172 0.76172-1.9844 0-2.7461-0.76172-0.76172-1.9844-0.76172-2.7461 0l-13.375 13.375-3.8711-3.8711c-0.76172-0.76172-1.9844-0.76172-2.7461 0-0.76172 0.76172-0.76172 1.9844 0 2.7461l3.8711 3.8711-1.7383 1.7383c-2.6055-0.039062-5.2422-0.0625-7.8203-0.10937-43.551-0.65234-54.629-1.4492-64.141-5.6797-19.711-8.9609-19.789-29.602-1.6055-39.555 8.4023-4.5 18.719-5.6641 27.773-6.3906 205.89 0 233.5-5.7422 250.77 0.60547 8.9805 3.1562 15.473 9.9141 16.59 17.246z"/>
  <path d="m323.23 192.05c0.16406 5.8398 3.25 8.2617 8.9141 7.8906l16.32-1.1953c8.543-0.64453 12.613-3.6211 13.148-12.668 0.44141-7.2383 0.1875-14.555-0.74609-21.762-0.20312-1.543-1.3125-2.8242-2.8164-3.2344-0.60547-0.1875-1.2422-0.19531-1.8398-0.054687-1.2031 0.10156-5.1289 0.16406-9.1758 0.24219-6.8828 0.14062-10.246 0.21875-11.379 0.37891-13.141 1.8398-12.855 13.266-12.762 17.02zm7.4258-13.574c-0.007812-0.37891 0.007813-0.67578 0.015625-1.0234l3.4141 3.4141-3.2891 3.2891zm6.0664-9.1406c0.44141-0.054687 1.9609-0.10938 3.8398-0.15625l7.7422 7.7422c0.76172 0.76172 1.9844 0.76172 2.7461 0 0.76172-0.76172 0.76172-1.9844 0-2.7383l-5.1211-5.1211c0.42578-0.007813 0.86719-0.015625 1.2734-0.023438 2.7148-0.054687 4.7852-0.10156 6.3828-0.14844 0.52734 5.5625 0.63672 11.164 0.29297 16.719-0.27344 4.4844-0.73047 5.0039-5.9727 5.3906l-16.32 1.1953c-0.22656 0.023438-0.41797 0.03125-0.57422 0.039063-0.007813-0.16406-0.007813-0.29297-0.007813-0.37891l-0.054687-2.3516 5.8945-5.8945 0.70703 0.70703c0.76172 0.76172 1.9844 0.76172 2.7461 0s0.76172-1.9844 0-2.7461l-0.70703-0.70703 2.957-2.957c0.76172-0.76172 0.76172-1.9844 0-2.7461s-1.9844-0.76172-2.7461 0l-2.957 2.957-5.4531-5.4609c0.89453-2.2109 2.6719-2.9492 5.332-3.3203z"/>
  <path d="m323.23 326.67c0.16406 5.8398 3.25 8.2617 8.9141 7.8906l16.32-1.1953c8.543-0.64453 12.613-3.6211 13.148-12.668 0.44141-7.2383 0.1875-14.555-0.74609-21.762-0.30078-2.3047-2.5273-3.7695-4.6562-3.2891-1.1875 0.09375-5.0508 0.16406-9.0547 0.24219-6.957 0.14062-10.363 0.21875-11.496 0.37891-13.141 1.8398-12.855 13.266-12.762 17.02zm13.02-10.441-5.3828 5.3828-0.21094-8.5195c-0.023437-0.89062-0.007812-1.6914 0.039063-2.4219zm17.625 3.9961c-0.27344 4.4844-0.73047 5.0039-5.9727 5.3906-0.27344 0.023437-16.625 1.2266-16.895 1.2344-0.015625-0.30078-0.007813-0.22656-0.015625-0.42578 0.33203-0.078125 0.68359-0.13281 0.9375-0.38672l8.3945-8.3945c0.015625-0.015625 0.039063-0.007812 0.054687-0.023437 0.015626-0.015625 0.007813-0.039063 0.023438-0.054688l1.0469-1.0469c0.76172-0.76172 0.76172-1.9844 0-2.7461-0.64453-0.64453-1.5977-0.62891-2.3438-0.16406l-3.5391-3.5391c0.40234-0.054687 0.80859-0.15625 1.1172-0.46484l4.2422-4.25c0.085937-0.085938 0.0625-0.21875 0.13281-0.30859l3.1875 3.1875-1.6602 1.6523c-0.76172 0.76172-0.76172 1.9844 0 2.7461 0.76172 0.76172 1.9844 0.76172 2.7461 0l1.6523-1.6523 1.1328 1.1328c0.76172 0.76172 1.9844 0.76172 2.7461 0 0.76172-0.76172 0.76172-1.9844 0-2.7461l-1.1328-1.1328 2.7383-2.7383c0.54297-0.54297 0.55859-1.2891 0.31641-1.9609 0.25-0.007812 0.55859-0.007812 0.78516-0.015625 0.54297 5.5352 0.63672 11.152 0.30469 16.707zm-6.5664-16.586c0.58203-0.007813 1.0312-0.023437 1.5586-0.03125l-1.8789 1.8789-1.8008-1.8008c0.72656-0.015625 1.457-0.03125 2.1211-0.046875zm-10.578 0.30859c0.023437 0 0.10156-0.007813 0.125-0.007813l-2.918 2.918c-0.30859 0.30859-0.40234 0.71484-0.46484 1.1172l-1.5977-1.5977c1.0078-1.5078 2.6055-2.1094 4.8555-2.4297z"/>
  <path d="m382.43 192.05c0.16406 5.8398 3.25 8.2617 8.9141 7.8906l16.32-1.1953c8.543-0.64453 12.613-3.6211 13.148-12.668 0.44141-7.2383 0.1875-14.555-0.74609-21.762-0.29297-2.3047-2.5508-3.793-4.6562-3.2891-2.375 0.19531-18.309 0.30078-20.559 0.62109-13.141 1.8398-12.855 13.266-12.762 17.02zm7.6484-4.5547-0.19531-7.9219 4.5234 4.5234zm22.691-18.609c0.52734 5.5625 0.63672 11.164 0.29297 16.719-0.27344 4.4844-0.73047 5.0039-5.9727 5.3906l-16.32 1.1953c-0.22656 0.023438-0.41797 0.03125-0.57422 0.039062-0.007813-0.10937-0.007813-0.1875-0.007813-0.26562 0.27734-0.0625 0.57422-0.09375 0.81641-0.28516l6.1992-4.8555c0.90625 0.78516 1.9609 0.61328 2.6211-0.046874 0.60547-0.60547 0.58984-1.4648 0.22656-2.1875l7.1914-5.6406c0.43359-0.33984 0.70703-0.84375 0.73828-1.4102 0.03125-0.55078-0.17188-1.0938-0.56641-1.4805l-6.9023-6.9023c3.5625-0.082032 9.3477-0.18359 12.258-0.26953zm-16.957 0.46484c0.078125 0.35547 0.14062 0.72266 0.41016 0.99219l6.9102 6.9102-5.6562 4.4297-7.3711-7.3711c0.65625-3.4805 2.5469-4.4961 5.707-4.9609z"/>
  <path d="m434.18 192.05c0.15625 5.5469 3.0117 8.2773 8.9141 7.8906l16.32-1.1953c8.5508-0.64453 12.613-3.6211 13.148-12.668 0.44141-7.2383 0.1875-14.555-0.74609-21.762-0.30078-2.3203-2.582-3.793-4.6641-3.2891-2.375 0.19531-18.309 0.30078-20.551 0.62109-13.141 1.8398-12.855 13.266-12.762 17.02zm15.602-10.961-2.0156 2.0156-4.25-4.25c-0.52734-0.52734-1.2422-0.55078-1.9102-0.34766v-0.023437c-0.054687-2.1953 0.125-3.8086 0.49609-5.0664zm-7.9141 7.9102-0.16406-6.4688 3.3125 3.3125zm22.957-3.3945c-0.27344 4.4844-0.73047 5.0039-5.9727 5.3906l-14.562 1.0703 3.4844-3.4844 1.2734 1.2734c0.76172 0.76172 1.9844 0.76172 2.7461 0 0.76172-0.76172 0.76172-1.9844 0-2.7383l-1.2734-1.2734 2.8633-2.8633c0.25781-0.09375 0.53516-0.10156 0.74609-0.30859 0.21094-0.21094 0.21875-0.48828 0.30859-0.74609l0.65234-0.65234c0.76172-0.76172 0.76172-1.9844 0-2.7383-0.68359-0.68359-1.707-0.66016-2.4688-0.11719l-4.2734-4.2734c0.27734-0.09375 0.58984-0.10938 0.81641-0.33203l4.6875-4.6875c0.14062 0 0.27734-0.007813 0.41797-0.007813l2.8867 2.8945-1.2266 1.2266c-0.76172 0.76172-0.76172 1.9844 0 2.7461 1.4961 1.4961 2.6211 0.11719 3.9648-1.2266l0.65234 0.65234c0.76172 0.76172 1.9844 0.76172 2.7461 0 0.76172-0.76172 0.76172-1.9844 0-2.7461l-0.65234-0.65234 1.7227-1.7227c0.15625-0.15625 0.14844-0.37891 0.23438-0.56641 0.44141 5.2773 0.54297 10.605 0.22656 15.883zm-5.2148-16.602c0.17969-0.007812 0.35547-0.007812 0.53516-0.015625l-0.27344 0.27344zm-11.938 0.33203c0.078125-0.007812 0.34766-0.015625 0.48828-0.03125l-1.7617 1.7617c-0.22656 0.22656-0.24219 0.52734-0.33203 0.81641l-1.5977-1.5977c0.86719-0.47656 1.9219-0.76953 3.2031-0.94922z"/>
  <path d="m165.14 331.71 28.703-28.711 11.668 11.66c0.76172 0.76172 1.9844 0.76172 2.7461 0 0.76172-0.76172 0.76172-1.9844 0-2.7461l-11.668-11.66 14.801-14.801 5.7422 5.7422c0.76172 0.76172 1.9844 0.76172 2.7383 0 0.76172-0.76172 0.76172-1.9844 0-2.7383l-5.7422-5.7422 14.801-14.801 2.8398 2.8398c0.76172 0.76172 1.9844 0.76172 2.7461 0 0.76172-0.76172 0.76172-1.9844 0-2.7461l-2.8398-2.8398 10.621-10.621 4.25 4.25c0.76172 0.76172 1.9844 0.76172 2.7461 0s0.76172-1.9844 0-2.7461l-4.25-4.2578 11.348-11.348c0.76172-0.76172 0.76172-1.9844 0-2.7461s-1.9844-0.76172-2.7461 0l-11.348 11.348-4.4766-4.4766c-0.76172-0.76172-1.9844-0.76172-2.7383 0-0.76172 0.76172-0.76172 1.9844 0 2.7461l4.4766 4.4766-10.621 10.629-6.1445-6.1523c-0.76172-0.76172-1.9844-0.76172-2.7461 0-0.76172 0.76172-0.76172 1.9844 0 2.7461l6.1445 6.1523-14.801 14.801-3.6367-3.6367c-0.76172-0.76172-1.9844-0.76172-2.7383 0-0.76172 0.76172-0.76172 1.9844 0 2.7383l3.6367 3.6367-14.801 14.801-11.164-11.156c-0.76172-0.76172-1.9844-0.76172-2.7461 0-0.76172 0.76172-0.76172 1.9844 0 2.7461l11.164 11.156-28.703 28.711c-0.76172 0.76172-0.76172 1.9844 0 2.7461 0.75 0.75781 1.9844 0.75781 2.7383 0z"/>
  <path d="m409.94 232.89c-0.76172-0.76172-1.9844-0.76172-2.7461 0-0.76172 0.76172-0.76172 1.9844 0 2.7461l4.4766 4.4766-8.9531 8.9531-8.6562-8.6562c-0.76172-0.76172-1.9844-0.76172-2.7383 0-0.76172 0.76172-0.76172 1.9844 0 2.7461l8.6484 8.6562-10.324 10.324c-0.76172 0.76172-0.76172 1.9844 0 2.7461 0.76172 0.76172 1.9844 0.76172 2.7461 0l10.324-10.324 6.3086 6.3086c0.76172 0.76172 1.9844 0.76172 2.7461 0 0.76172-0.76172 0.76172-1.9844 0-2.7461l-6.3086-6.3086 8.9531-8.9531 3.9258 3.9258c0.76172 0.76172 1.9844 0.76172 2.7461 0 0.76172-0.76172 0.76172-1.9844 0-2.7461l-3.9258-3.9258 9.9297-9.9297c0.76172-0.76172 0.76172-1.9844 0-2.7461s-1.9844-0.76172-2.7461 0l-9.9297 9.9297z"/>
 </g>
</svg>
