<?xml version="1.0" encoding="UTF-8"?>
<svg width="1200pt" height="1200pt" version="1.1" viewBox="0 0 1200 1200" xmlns="http://www.w3.org/2000/svg">
 <g>
  <path d="m842.56 1161.5h-705c-29.195 0-52.941-23.746-52.941-52.941v-954.18c0-29.195 23.746-52.941 52.941-52.941h148.78c9.7539 0 17.648 7.8945 17.648 17.648 0 9.7539-7.8945 17.648-17.648 17.648l-148.78-0.003906c-9.7383 0-17.648 7.9102-17.648 17.648v954.18c0 9.7383 7.9102 17.648 17.648 17.648h705c9.7383 0 17.648-7.9102 17.648-17.648v-60.887c0-9.7539 7.8945-17.648 17.648-17.648s17.648 7.8945 17.648 17.648v60.887c-0.003906 29.195-23.754 52.941-52.945 52.941z"/>
  <path d="m877.86 531.8c-9.7539 0-17.648-7.8945-17.648-17.648v-359.81c0-9.7383-7.9102-17.648-17.648-17.648h-148.59c-9.7539 0-17.648-7.8945-17.648-17.648 0-9.7539 7.8945-17.648 17.648-17.648h148.59c29.195 0 52.941 23.746 52.941 52.941v359.82c0.003906 9.7578-7.8906 17.648-17.645 17.648z"/>
  <path d="m789.81 1073.2h-599.31c-9.7539 0-17.648-7.8945-17.648-17.648v-777.71c0-9.7539 7.8945-17.648 17.648-17.648h599.31c9.7539 0 17.648 7.8945 17.648 17.648v288.88c0 9.7539-7.8945 17.648-17.648 17.648s-17.648-7.8945-17.648-17.648v-271.23h-564.02v742.42h564.02v-31.777c0-9.7539 7.8945-17.648 17.648-17.648s17.648 7.8945 17.648 17.648v49.426c0 9.75-7.8945 17.645-17.648 17.645z"/>
  <path d="m693.97 199.48h-407.66c-9.7539 0-17.648-7.8945-17.648-17.648v-72.086c0-39.258 31.949-71.207 71.207-71.207h300.54c39.258 0 71.207 31.949 71.207 71.207v72.086c0.003906 9.7578-7.8906 17.648-17.645 17.648zm-390.01-35.293h372.36v-54.441c0-19.801-16.113-35.914-35.914-35.914h-300.54c-19.801 0-35.914 16.113-35.914 35.914z"/>
  <path d="m908.91 922.86h-62.129c-9.7539 0-17.648-7.8945-17.648-17.648v-46.426l-40.566 23.422c-4.0664 2.3086-8.8594 2.9297-13.406 1.7578-4.5156-1.2227-8.375-4.1875-10.703-8.2383l-31-53.855c-4.8594-8.4453-1.9648-19.215 6.4609-24.094l41.293-23.832-41.293-23.852c-8.4453-4.8789-11.34-15.664-6.4609-24.109l31.004-53.715c2.3438-4.0508 6.2031-7.0156 10.719-8.2188 4.4805-1.207 9.3242-0.58594 13.391 1.7578l40.566 23.422v-46.43c0-9.7539 7.8945-17.648 17.648-17.648h62.125c9.7539 0 17.648 7.8945 17.648 17.648v47.27l40.566-23.422c4.0508-2.3281 8.8906-2.9453 13.391-1.7578 4.5156 1.207 8.375 4.1719 10.719 8.2188l31.004 53.715c2.3438 4.0508 2.9648 8.875 1.7578 13.391-1.207 4.5156-4.1719 8.375-8.2188 10.719l-39.859 23.008 39.859 22.988c4.0508 2.3438 7.0156 6.1875 8.2188 10.719 1.207 4.5156 0.58594 9.3398-1.7578 13.391l-31.004 53.715c-2.3438 4.0508-6.2031 7.0156-10.719 8.2188-4.4961 1.1719-9.3398 0.55078-13.391-1.7578l-40.566-23.422v47.41c0 9.7656-7.8945 17.656-17.648 17.656zm-44.48-35.293h26.832v-60.336c0-6.3086 3.3594-12.133 8.8242-15.285 5.4453-3.1367 12.203-3.1367 17.648 0l51.75 29.883 13.355-23.145-51.062-29.453c-5.4648-3.1523-8.8242-8.9805-8.8242-15.285 0-6.3086 3.3594-12.133 8.8242-15.285l51.062-29.469-13.355-23.145-51.754 29.883c-5.4453 3.1367-12.203 3.1367-17.648 0-5.4648-3.1523-8.8242-8.9805-8.8242-15.285l0.003907-60.199h-26.832v59.352c0 6.3086-3.3594 12.133-8.8242 15.285-5.4453 3.1367-12.203 3.1367-17.648 0l-51.754-29.883-13.355 23.145 52.457 30.312c5.4648 3.1523 8.8242 8.9805 8.8242 15.285 0 6.3086-3.3594 12.133-8.8242 15.285l-52.477 30.297 13.391 23.281 51.734-29.883c5.4453-3.1367 12.203-3.1367 17.648 0 5.4648 3.1523 8.8242 8.9805 8.8242 15.285z"/>
  <path d="m877.86 1065.3c-1.8438 0-3.6875-0.29297-5.4648-0.86328-140.99-45.926-232.08-156.02-232.08-280.44v-193.38c0-9.7539 7.8945-17.648 17.648-17.648 60.887 0 151.84-18.75 207.79-71.621 6.7891-6.4453 17.441-6.4453 24.23 0 55.941 52.871 146.88 71.621 207.77 71.621 9.7539 0 17.648 7.8945 17.648 17.648l-0.003907 193.38c0 124.43-91.098 234.5-232.07 280.44-1.7734 0.56641-3.6172 0.85938-5.4609 0.85938zm-202.25-457.5v176.2c0 107.28 79.188 202.96 202.25 245.04 123.05-42.086 202.23-137.77 202.23-245.04v-176.2c-61.973-3.1523-144.26-22.922-202.23-70.176-57.969 47.254-140.26 67.023-202.25 70.176z"/>
  <path d="m556.33 740.29h-255.88c-9.7539 0-17.648-7.8945-17.648-17.648s7.8945-17.648 17.648-17.648h255.88c9.7539 0 17.648 7.8945 17.648 17.648-0.003907 9.7539-7.8945 17.648-17.648 17.648z"/>
  <path d="m679.86 516.6h-379.41c-9.7539 0-17.648-7.8945-17.648-17.648 0-9.7539 7.8945-17.648 17.648-17.648h379.41c9.7539 0 17.648 7.8945 17.648 17.648 0 9.7578-7.8945 17.648-17.648 17.648z"/>
  <path d="m556.33 852.13h-255.88c-9.7539 0-17.648-7.8945-17.648-17.648s7.8945-17.648 17.648-17.648h255.88c9.7539 0 17.648 7.8945 17.648 17.648-0.003907 9.7578-7.8945 17.648-17.648 17.648z"/>
  <path d="m556.33 628.45h-255.88c-9.7539 0-17.648-7.8945-17.648-17.648s7.8945-17.648 17.648-17.648h255.88c9.7539 0 17.648 7.8945 17.648 17.648-0.003907 9.7539-7.8945 17.648-17.648 17.648z"/>
  <path d="m591.62 963.98h-291.18c-9.7539 0-17.648-7.8945-17.648-17.648 0-9.7539 7.8945-17.648 17.648-17.648h291.18c9.7539 0 17.648 7.8945 17.648 17.648 0 9.7539-7.8945 17.648-17.648 17.648z"/>
  <path d="m679.86 404.75h-379.41c-9.7539 0-17.648-7.8945-17.648-17.648 0-9.7539 7.8945-17.648 17.648-17.648h379.41c9.7539 0 17.648 7.8945 17.648 17.648 0 9.7539-7.8945 17.648-17.648 17.648z"/>
 </g>
</svg>
