<?xml version="1.0" encoding="UTF-8"?>
<svg width="512pt" height="512pt" version="1.1" viewBox="0 0 512 512" xmlns="http://www.w3.org/2000/svg">
 <path d="m427.84 222.83c-5.8906 0-10.668 4.7734-10.668 10.664v79.254l-57.066-56.746c-3.9531-4.2422-9.5664-6.543-15.359-6.293-5.7852 0.078125-11.289 2.5039-15.254 6.7188l-51.414 54.613-92.477-101.23c-3.9219-4.3047-9.4336-6.8203-15.254-6.9609-5.8242-0.14062-11.449 2.1055-15.574 6.2148l-100.27 100.91v-224.64c0-5.8906 4.7734-10.664 10.664-10.664h352c5.8906 0 10.668-4.7773 10.668-10.668s-4.7773-10.668-10.668-10.668h-352c-8.4844 0-16.625 3.3711-22.625 9.375-6.0039 6-9.375 14.141-9.375 22.625v341.34c0 8.4844 3.3711 16.625 9.375 22.625 6 6.0039 14.141 9.375 22.625 9.375h341.34c8.4844 0 16.625-3.3711 22.625-9.375 6.0039-6 9.375-14.141 9.375-22.625v-193.18c0-2.8281-1.125-5.5391-3.125-7.543-2-2-4.7148-3.1211-7.543-3.1211zm-21.332 214.5h-341.34c-5.8906 0-10.664-4.7734-10.664-10.664v-86.508l115.41-116.16 132.48 144.96c1.8516 2.293 4.5703 3.7227 7.5078 3.9414 2.9414 0.22266 5.8438-0.78516 8.0117-2.7812 2.1719-1.9922 3.4219-4.7969 3.4531-7.7461 0.03125-2.9453-1.1602-5.7773-3.293-7.8164l-25.602-27.945 52.586-55.785 72.105 72 0.003906 83.84c0 2.8281-1.1211 5.5391-3.1211 7.543-2.0039 2-4.7148 3.1211-7.543 3.1211zm50.984-341.33h-60.691c-5.6602 0-11.086 2.2461-15.086 6.25-4 4-6.25 9.4258-6.25 15.082v43.734c-0.007813 4.6172 2.168 8.9688 5.8672 11.734l37.973 27.414h0.003906c4.6719 3.3984 11.004 3.3984 15.68 0l37.973-27.414c3.6992-2.7656 5.875-7.1172 5.8672-11.734v-43.734c0-5.6562-2.25-11.082-6.25-15.082-4-4.0039-9.4258-6.25-15.086-6.25zm0 61.762-30.293 21.332-30.398-21.332v-40.43h60.691z" fill="#fff"/>
</svg>
